<?xml version="1.0" standalone="no"?>
<!DOCTYPE svg PUBLIC "-//W3C//DTD SVG 1.1//EN" "http://www.w3.org/Graphics/SVG/1.1/DTD/svg11.dtd" >
<svg xmlns="http://www.w3.org/2000/svg" xmlns:xlink="http://www.w3.org/1999/xlink" version="1.1">
<metadata>
Created by FontForge 20190801 at Wed Dec  5 13:03:32 2018
 By Jimmy Wärting
Copyright 2011 The Comfortaa Project Authors (https://github.com/alexeiva/comfortaa), with Reserved Font Name "Comfortaa".
</metadata>
<defs>
<font id="Comfortaa-Medium" horiz-adv-x="676" >
  <font-face 
    font-family="Comfortaa Medium"
    font-weight="500"
    font-stretch="normal"
    units-per-em="1000"
    panose-1="0 0 0 0 0 0 0 0 0 0"
    ascent="800"
    descent="-200"
    x-height="545"
    cap-height="781"
    bbox="-211 -304 1276 1270"
    underline-thickness="50"
    underline-position="-125"
    unicode-range="U+000D-FB02"
  />
<missing-glyph horiz-adv-x="625" 
d="M72 0q-14 0 -24 10t-10 23v715q0 13 10 23t24 10h483q14 0 23.5 -10t9.5 -23v-715q0 -13 -9.5 -23t-23.5 -10h-483zM313 130q-19 0 -32.5 13t-13.5 32t13.5 32.5t32.5 13.5q18 0 31.5 -13.5t13.5 -32.5q0 -18 -13 -31.5t-32 -13.5zM99 61h428v659h-428v-659zM313 254
q-15 0 -24.5 9.5t-9.5 23.5q0 29 14 59t37 52q19 17 35 32.5t26.5 35t10.5 48.5q0 35 -24.5 58t-61.5 23q-42 0 -67 -25t-25 -68q0 -14 -9.5 -23t-23.5 -9t-24 9t-10 23q0 46 20.5 81t56 54.5t82.5 19.5q44 0 78 -18.5t53.5 -51t19.5 -74.5q0 -37 -12.5 -63.5t-33.5 -47.5
t-46 -43q-14 -12 -21.5 -31.5t-7.5 -40.5q0 -14 -9.5 -23.5t-23.5 -9.5z" />
    <glyph glyph-name="f_f" unicode="ff" horiz-adv-x="733" 
d="M155 0q-16 0 -28.5 11.5t-12.5 31.5v502q0 71 25.5 124t74 82.5t115.5 29.5q19 0 31 -11t12 -28q0 -16 -12 -27t-31 -11q-42 0 -71 -19.5t-44 -54t-15 -79.5v-508q0 -20 -11.5 -31.5t-32.5 -11.5zM57 454q-18 0 -28.5 10t-10.5 26t10.5 26.5t28.5 10.5h256
q18 0 28.5 -10.5t10.5 -26.5t-10.5 -26t-28.5 -10h-256zM521 0q-16 0 -28.5 11.5t-12.5 31.5v502q0 71 25.5 124t74 82.5t115.5 29.5q19 0 31 -11t12 -28q0 -16 -12 -27t-31 -11q-42 0 -71 -19.5t-44 -54t-15 -79.5v-508q0 -20 -11.5 -31.5t-32.5 -11.5zM423 454
q-18 0 -28.5 10t-10.5 26t10.5 26.5t28.5 10.5h256q18 0 28.5 -10.5t10.5 -26.5t-10.5 -26t-28.5 -10h-256z" />
    <glyph glyph-name="f_f_i" unicode="ffi" horiz-adv-x="1026" 
d="M155 0q-16 0 -28.5 11.5t-12.5 31.5v502q0 71 25.5 124t74 82.5t115.5 29.5q19 0 31 -11t12 -28q0 -16 -12 -27t-31 -11q-42 0 -71 -19.5t-44 -54t-15 -79.5v-508q0 -20 -11.5 -31.5t-32.5 -11.5zM57 454q-18 0 -28.5 10t-10.5 26t10.5 26.5t28.5 10.5h256
q18 0 28.5 -10.5t10.5 -26.5t-10.5 -26t-28.5 -10h-256zM521 0q-16 0 -28.5 11.5t-12.5 31.5v502q0 71 25.5 124t74 82.5t115.5 29.5q19 0 31 -11t12 -28q0 -16 -12 -27t-31 -11q-42 0 -71 -19.5t-44 -54t-15 -79.5v-508q0 -20 -11.5 -31.5t-32.5 -11.5zM423 454
q-18 0 -28.5 10t-10.5 26t10.5 26.5t28.5 10.5h256q18 0 28.5 -10.5t10.5 -26.5t-10.5 -26t-28.5 -10h-256zM880 0q-19 0 -31 12t-12 31v461q0 20 12 31.5t31 11.5t30.5 -11.5t11.5 -31.5v-461q0 -19 -11.5 -31t-30.5 -12zM879 646q-24 0 -41 17t-17 42t17.5 41.5t41.5 16.5
q23 0 40.5 -16.5t17.5 -41.5t-17.5 -42t-41.5 -17z" />
    <glyph glyph-name="f_f_l" unicode="ffl" horiz-adv-x="1021" 
d="M155 0q-16 0 -28.5 11.5t-12.5 31.5v502q0 71 25.5 124t74 82.5t115.5 29.5q19 0 31 -11t12 -28q0 -16 -12 -27t-31 -11q-42 0 -71 -19.5t-44 -54t-15 -79.5v-508q0 -20 -11.5 -31.5t-32.5 -11.5zM57 454q-18 0 -28.5 10t-10.5 26t10.5 26.5t28.5 10.5h256
q18 0 28.5 -10.5t10.5 -26.5t-10.5 -26t-28.5 -10h-256zM521 0q-16 0 -28.5 11.5t-12.5 31.5v502q0 71 25.5 124t74 82.5t115.5 29.5q19 0 31 -11t12 -28q0 -16 -12 -27t-31 -11q-42 0 -71 -19.5t-44 -54t-15 -79.5v-508q0 -20 -11.5 -31.5t-32.5 -11.5zM423 454
q-18 0 -28.5 10t-10.5 26t10.5 26.5t28.5 10.5h256q18 0 28.5 -10.5t10.5 -26.5t-10.5 -26t-28.5 -10h-256zM945 0q-41 0 -73.5 22.5t-50.5 62.5t-18 92v562q0 19 11.5 30.5t30.5 11.5t30.5 -11.5t11.5 -30.5v-562q0 -41 16.5 -67t41.5 -26h25q17 0 27 -11.5t10 -30.5
t-14.5 -30.5t-38.5 -11.5h-9z" />
    <glyph glyph-name="fi" unicode="fi" horiz-adv-x="614" 
d="M156 0q-18 0 -30 12.5t-12 30.5v506q0 70 25.5 123t81.5 83t147 30q43 0 79 -9.5t57.5 -27t21.5 -41.5q0 -44 -51 -44q-18 0 -33 9t-30 20.5t-32 20t-41 8.5q-39 0 -71 -15.5t-50.5 -53t-18.5 -103.5v-506q0 -18 -12 -30.5t-31 -12.5zM57 454q-18 0 -28.5 10t-10.5 26
t10.5 26.5t28.5 10.5h257q17 0 28 -10.5t11 -26.5t-11 -26t-28 -10h-257zM474 0q-19 0 -31 12t-12 31v461q0 20 12 31.5t31 11.5t30.5 -11.5t11.5 -31.5v-461q0 -19 -11.5 -31t-30.5 -12z" />
    <glyph glyph-name="fl" unicode="fl" horiz-adv-x="644" 
d="M156 0q-18 0 -30 12.5t-12 30.5v514q0 63 24.5 114t73.5 81t122 29q22 0 47 -3.5t52 -11.5q26 -7 38.5 -18t12.5 -30q0 -21 -13.5 -28.5t-37.5 -0.5q-28 8 -52 11t-45 3q-64 0 -100.5 -36t-36.5 -108v-516q0 -18 -12 -30.5t-31 -12.5zM57 454q-18 0 -28.5 10t-10.5 26
t10.5 26.5t28.5 10.5h244q18 0 28.5 -10.5t10.5 -26.5t-10.5 -26t-28.5 -10h-244zM568 0q-42 0 -74 22.5t-50.5 62.5t-18.5 92v562q0 19 12 30.5t31 11.5q18 0 30 -11.5t12 -30.5v-562q0 -41 16 -67t42 -26h25q16 0 26.5 -11.5t10.5 -30.5t-15 -30.5t-39 -11.5h-8z" />
    <glyph glyph-name=".notdef" horiz-adv-x="625" 
d="M72 0q-14 0 -24 10t-10 23v715q0 13 10 23t24 10h483q14 0 23.5 -10t9.5 -23v-715q0 -13 -9.5 -23t-23.5 -10h-483zM313 130q-19 0 -32.5 13t-13.5 32t13.5 32.5t32.5 13.5q18 0 31.5 -13.5t13.5 -32.5q0 -18 -13 -31.5t-32 -13.5zM99 61h428v659h-428v-659zM313 254
q-15 0 -24.5 9.5t-9.5 23.5q0 29 14 59t37 52q19 17 35 32.5t26.5 35t10.5 48.5q0 35 -24.5 58t-61.5 23q-42 0 -67 -25t-25 -68q0 -14 -9.5 -23t-23.5 -9t-24 9t-10 23q0 46 20.5 81t56 54.5t82.5 19.5q44 0 78 -18.5t53.5 -51t19.5 -74.5q0 -37 -12.5 -63.5t-33.5 -47.5
t-46 -43q-14 -12 -21.5 -31.5t-7.5 -40.5q0 -14 -9.5 -23.5t-23.5 -9.5z" />
    <glyph glyph-name="A" unicode="A" horiz-adv-x="703" 
d="M61 0q-25 0 -36.5 20.5t-2.5 41.5l290 689q12 30 42 30q29 0 41 -30l290 -690q10 -22 -2.5 -41.5t-36.5 -19.5q-13 0 -23.5 7t-16.5 20l-266 650h30l-269 -650q-6 -14 -16.5 -20.5t-23.5 -6.5zM123 181l33 74h401l34 -74h-468z" />
    <glyph glyph-name="Aacute" unicode="&#xc1;" horiz-adv-x="703" 
d="M61 0q-25 0 -36.5 20.5t-2.5 41.5l290 689q12 30 42 30q29 0 41 -30l290 -690q10 -22 -2.5 -41.5t-36.5 -19.5q-13 0 -23.5 7t-16.5 20l-266 650h30l-269 -650q-6 -14 -16.5 -20.5t-23.5 -6.5zM123 181l33 74h401l34 -74h-468zM349 865q-18 0 -30.5 12.5t-12.5 30.5
t10 29l108 108q12 12 30 12q19 0 31 -12.5t12 -31.5q0 -8 -3 -15.5t-9 -13.5l-107 -108q-12 -11 -29 -11z" />
    <glyph glyph-name="Abreve" unicode="&#x102;" horiz-adv-x="703" 
d="M61 0q-25 0 -36.5 20.5t-2.5 41.5l290 689q12 30 42 30q29 0 41 -30l290 -690q10 -22 -2.5 -41.5t-36.5 -19.5q-13 0 -23.5 7t-16.5 20l-266 650h30l-269 -650q-6 -14 -16.5 -20.5t-23.5 -6.5zM123 181l33 74h401l34 -74h-468zM351 856q-43 0 -79 16t-57.5 43t-21.5 60
q0 18 11.5 31t29.5 13q16 0 28.5 -10.5t12.5 -27.5q0 -23 22.5 -38.5t53.5 -15.5q36 0 56.5 15.5t20.5 38.5q0 17 12.5 27.5t29.5 10.5q18 0 29 -12.5t11 -30.5q-1 -35 -23 -62t-57.5 -42.5t-78.5 -15.5z" />
    <glyph glyph-name="uni1EAE" unicode="&#x1eae;" horiz-adv-x="703" 
d="M61 0q-25 0 -36.5 20.5t-2.5 41.5l290 689q12 30 42 30q29 0 41 -30l290 -690q10 -22 -2.5 -41.5t-36.5 -19.5q-13 0 -23.5 7t-16.5 20l-266 650h30l-269 -650q-6 -14 -16.5 -20.5t-23.5 -6.5zM123 181l33 74h401l34 -74h-468zM351 856q-43 0 -79 16t-57.5 43t-21.5 60
q0 19 11.5 31.5t29.5 12.5q16 0 28.5 -10.5t12.5 -27.5q0 -22 22.5 -38t53.5 -16q36 0 56.5 15.5t20.5 38.5q0 17 12.5 27.5t29.5 10.5q18 0 29 -12.5t11 -30.5q-1 -35 -23 -62t-57.5 -42.5t-78.5 -15.5zM349 1035q-18 0 -30.5 12t-12.5 31q0 17 10 29l108 108q12 12 30 12
q19 0 31 -12.5t12 -31.5q0 -8 -3 -15.5t-9 -13.5l-107 -108q-12 -11 -29 -11z" />
    <glyph glyph-name="uni1EB6" unicode="&#x1eb6;" horiz-adv-x="703" 
d="M61 0q-25 0 -36.5 20.5t-2.5 41.5l290 689q12 30 42 30q29 0 41 -30l290 -690q10 -22 -2.5 -41.5t-36.5 -19.5q-13 0 -23.5 7t-16.5 20l-266 650h30l-269 -650q-6 -14 -16.5 -20.5t-23.5 -6.5zM123 181l33 74h401l34 -74h-468zM351 856q-43 0 -79 16t-57.5 43t-21.5 60
q0 18 11.5 31t29.5 13q16 0 28.5 -10.5t12.5 -27.5q0 -23 22.5 -38.5t53.5 -15.5q36 0 56.5 15.5t20.5 38.5q0 17 12.5 27.5t29.5 10.5q18 0 29 -12.5t11 -30.5q-1 -35 -23 -62t-57.5 -42.5t-78.5 -15.5zM351 -214q-24 0 -41 17t-17 42t17.5 41.5t41.5 16.5q23 0 40.5 -16.5
t17.5 -41.5t-17.5 -42t-41.5 -17z" />
    <glyph glyph-name="uni1EB0" unicode="&#x1eb0;" horiz-adv-x="703" 
d="M61 0q-25 0 -36.5 20.5t-2.5 41.5l290 689q12 30 42 30q29 0 41 -30l290 -690q10 -22 -2.5 -41.5t-36.5 -19.5q-13 0 -23.5 7t-16.5 20l-266 650h30l-269 -650q-6 -14 -16.5 -20.5t-23.5 -6.5zM123 181l33 74h401l34 -74h-468zM351 856q-43 0 -79 16t-57.5 43t-21.5 60
q0 19 11.5 31.5t29.5 12.5q16 0 28.5 -10.5t12.5 -27.5q0 -22 22.5 -38t53.5 -16q36 0 56.5 15.5t20.5 38.5q0 17 12.5 27.5t29.5 10.5q18 0 29 -12.5t11 -30.5q-1 -35 -23 -62t-57.5 -42.5t-78.5 -15.5zM350 1039q-17 0 -29 12l-108 107q-11 12 -11 30t12 31t30 13t31 -13
l107 -108q11 -11 11 -28q0 -20 -12 -32t-31 -12z" />
    <glyph glyph-name="uni1EB2" unicode="&#x1eb2;" horiz-adv-x="703" 
d="M61 0q-25 0 -36.5 20.5t-2.5 41.5l290 689q12 30 42 30q29 0 41 -30l290 -690q10 -22 -2.5 -41.5t-36.5 -19.5q-13 0 -23.5 7t-16.5 20l-266 650h30l-269 -650q-6 -14 -16.5 -20.5t-23.5 -6.5zM123 181l33 74h401l34 -74h-468zM351 856q-43 0 -79 16t-57.5 43t-21.5 60
q0 19 11.5 31.5t29.5 12.5q16 0 28.5 -10.5t12.5 -27.5q0 -22 22.5 -38t53.5 -16q36 0 56.5 15.5t20.5 38.5q0 17 12.5 27.5t29.5 10.5q18 0 29 -12.5t11 -30.5q-1 -35 -23 -62t-57.5 -42.5t-78.5 -15.5zM351 1003q-16 0 -27.5 11.5t-11.5 27.5v26q0 34 35 42l25 6
q20 4 30.5 14.5t10.5 27.5q0 22 -13 33t-34 11q-13 0 -25 -5t-20 -11q-5 -5 -13 -7.5t-15 -2.5q-13 0 -23.5 8.5t-10.5 24.5q0 18 14 30q19 15 41.5 23t49.5 8q52 0 85.5 -30t33.5 -77q0 -48 -30.5 -71.5t-74.5 -29.5l12 -8q0 -25 -11 -38t-28 -13z" />
    <glyph glyph-name="uni1EB4" unicode="&#x1eb4;" horiz-adv-x="703" 
d="M61 0q-25 0 -36.5 20.5t-2.5 41.5l290 689q12 30 42 30q29 0 41 -30l290 -690q10 -22 -2.5 -41.5t-36.5 -19.5q-13 0 -23.5 7t-16.5 20l-266 650h30l-269 -650q-6 -14 -16.5 -20.5t-23.5 -6.5zM123 181l33 74h401l34 -74h-468zM352 856q-44 0 -79.5 16t-57.5 43t-22 60
q0 19 11.5 31.5t30.5 12.5q16 0 28 -10.5t12 -27.5q0 -22 22.5 -38t54.5 -16q35 0 55.5 15.5t20.5 38.5q0 17 12.5 27.5t29.5 10.5q18 0 29 -12.5t11 -30.5q-1 -35 -22.5 -62t-57.5 -42.5t-78 -15.5zM418 1041q-24 0 -44.5 11.5t-36.5 27.5q-13 12 -22 19t-20 7
q-12 0 -20 -9.5t-16 -24.5q-8 -14 -21.5 -20t-28.5 1q-14 6 -19.5 19.5t2.5 29.5q20 39 43.5 56.5t53.5 17.5q32 0 50 -14t32 -26q16 -14 24 -18t15 -4q13 0 24 21q8 14 22.5 20.5t27.5 1.5q17 -7 23 -21.5t-3 -29.5q-18 -35 -38.5 -50t-47.5 -15z" />
    <glyph glyph-name="Acircumflex" unicode="&#xc2;" horiz-adv-x="703" 
d="M61 0q-25 0 -36.5 20.5t-2.5 41.5l290 689q12 30 42 30q29 0 41 -30l290 -690q10 -22 -2.5 -41.5t-36.5 -19.5q-13 0 -23.5 7t-16.5 20l-266 650h30l-269 -650q-6 -14 -16.5 -20.5t-23.5 -6.5zM123 181l33 74h401l34 -74h-468zM238 862q-19 0 -31.5 10t-12.5 27
q0 22 21 37l116 76q9 6 21 6q7 0 12 -1.5t10 -4.5l115 -76q21 -15 21 -37q0 -16 -12 -26.5t-31 -10.5q-8 0 -14 2t-13 7l-88 61l-88 -61q-12 -9 -26 -9z" />
    <glyph glyph-name="uni1EA4" unicode="&#x1ea4;" horiz-adv-x="703" 
d="M61 0q-25 0 -36.5 20.5t-2.5 41.5l290 689q12 30 42 30q29 0 41 -30l290 -690q10 -22 -2.5 -41.5t-36.5 -19.5q-13 0 -23.5 7t-16.5 20l-266 650h30l-269 -650q-6 -14 -16.5 -20.5t-23.5 -6.5zM123 181l33 74h401l34 -74h-468zM238 862q-19 0 -31.5 10t-12.5 27
q0 22 21 37l116 76q9 6 21 6q7 0 12 -1.5t10 -4.5l115 -76q21 -15 21 -37q0 -16 -12 -26.5t-31 -10.5q-8 0 -14 2t-13 7l-88 61l-88 -61q-12 -9 -26 -9zM447 1026q-18 0 -30.5 12t-12.5 31q0 17 10 28l108 108q13 13 30 13q20 0 31.5 -13t11.5 -31q0 -8 -2.5 -16t-9.5 -13
l-107 -108q-11 -11 -29 -11z" />
    <glyph glyph-name="uni1EAC" unicode="&#x1eac;" horiz-adv-x="703" 
d="M61 0q-25 0 -36.5 20.5t-2.5 41.5l290 689q12 30 42 30q29 0 41 -30l290 -690q10 -22 -2.5 -41.5t-36.5 -19.5q-13 0 -23.5 7t-16.5 20l-266 650h30l-269 -650q-6 -14 -16.5 -20.5t-23.5 -6.5zM123 181l33 74h401l34 -74h-468zM238 862q-19 0 -31.5 10t-12.5 27
q0 22 21 37l116 76q9 6 21 6q7 0 12 -1.5t10 -4.5l115 -76q21 -15 21 -37q0 -16 -12 -26.5t-31 -10.5q-8 0 -14 2t-13 7l-88 61l-88 -61q-12 -9 -26 -9zM351 -214q-24 0 -41 17t-17 42t17.5 41.5t41.5 16.5q23 0 40.5 -16.5t17.5 -41.5t-17.5 -42t-41.5 -17z" />
    <glyph glyph-name="uni1EA6" unicode="&#x1ea6;" horiz-adv-x="703" 
d="M61 0q-25 0 -36.5 20.5t-2.5 41.5l290 689q12 30 42 30q29 0 41 -30l290 -690q10 -22 -2.5 -41.5t-36.5 -19.5q-13 0 -23.5 7t-16.5 20l-266 650h30l-269 -650q-6 -14 -16.5 -20.5t-23.5 -6.5zM123 181l33 74h401l34 -74h-468zM238 862q-19 0 -31.5 10t-12.5 27
q0 22 21 37l116 76q9 6 21 6q7 0 12 -1.5t10 -4.5l115 -76q21 -15 21 -37q0 -16 -12 -26.5t-31 -10.5q-8 0 -14 2t-13 7l-88 61l-88 -61q-12 -9 -26 -9zM450 1030q-18 0 -29 12l-108 107q-11 11 -11 29q0 19 12 31.5t30 12.5q17 0 31 -13l107 -108q11 -10 11 -28
t-12.5 -30.5t-30.5 -12.5z" />
    <glyph glyph-name="uni1EA8" unicode="&#x1ea8;" horiz-adv-x="703" 
d="M61 0q-25 0 -36.5 20.5t-2.5 41.5l290 689q12 30 42 30q29 0 41 -30l290 -690q10 -22 -2.5 -41.5t-36.5 -19.5q-13 0 -23.5 7t-16.5 20l-266 650h30l-269 -650q-6 -14 -16.5 -20.5t-23.5 -6.5zM123 181l33 74h401l34 -74h-468zM242 862q-19 0 -31.5 10t-12.5 27
q0 22 21 37l116 76q9 6 21 6q7 0 12 -1.5t10 -4.5l115 -76q21 -15 21 -37q0 -16 -12 -26.5t-31 -10.5q-8 0 -14 2t-13 7l-88 61l-88 -61q-12 -9 -26 -9zM455 994q-17 0 -28 11t-11 28v26q0 34 34 42l26 5q19 5 30 15.5t11 27.5q0 21 -14 32t-34 11q-13 0 -24.5 -4.5
t-20.5 -11.5q-5 -5 -13 -7t-15 -2q-13 0 -23 8.5t-10 24.5q0 18 13 29q19 16 41 24t51 8q51 0 84.5 -30.5t33.5 -77.5q1 -48 -30.5 -71t-74.5 -29l12 -8q0 -26 -11.5 -38.5t-26.5 -12.5z" />
    <glyph glyph-name="uni1EAA" unicode="&#x1eaa;" horiz-adv-x="703" 
d="M61 0q-25 0 -36.5 20.5t-2.5 41.5l290 689q12 30 42 30q29 0 41 -30l290 -690q10 -22 -2.5 -41.5t-36.5 -19.5q-13 0 -23.5 7t-16.5 20l-266 650h30l-269 -650q-6 -14 -16.5 -20.5t-23.5 -6.5zM123 181l33 74h401l34 -74h-468zM241 862q-19 0 -31.5 10t-12.5 27
q0 22 21 37l116 76q10 6 21 6q7 0 12.5 -1.5t10.5 -4.5l115 -76q20 -15 20 -37q0 -16 -12 -26.5t-30 -10.5q-8 0 -14.5 2t-12.5 7l-89 61l-88 -61q-12 -9 -26 -9zM414 1045q-25 0 -45 11.5t-36 26.5q-13 12 -22.5 19t-20.5 7t-19 -9t-17 -25q-7 -14 -21 -19.5t-28 0.5
t-19.5 20t2.5 29q19 39 43 56.5t54 17.5q31 0 49.5 -14t32.5 -26q15 -13 23.5 -17.5t15.5 -4.5q13 0 24 21q8 14 22 20.5t28 1.5q17 -7 23 -21t-3 -29q-18 -35 -39 -50t-47 -15z" />
    <glyph glyph-name="uni0200" unicode="&#x200;" horiz-adv-x="703" 
d="M61 0q-25 0 -36.5 20.5t-2.5 41.5l290 689q12 30 42 30q29 0 41 -30l290 -690q10 -22 -2.5 -41.5t-36.5 -19.5q-13 0 -23.5 7t-16.5 20l-266 650h30l-269 -650q-6 -14 -16.5 -20.5t-23.5 -6.5zM123 181l33 74h401l34 -74h-468zM457 856q-21 0 -31 21l-60 125q-3 8 -3 17
q0 16 12.5 29t31.5 13q13 0 24.5 -7.5t15.5 -19.5l40 -132q3 -6 3 -13q0 -16 -11 -24.5t-22 -8.5zM309 856q-21 0 -32 21l-59 125q-2 5 -2.5 9t-1.5 8q0 16 12.5 29t31.5 13q13 0 24 -7.5t15 -19.5l42 -132q1 -3 1.5 -6.5t0.5 -6.5q0 -16 -10.5 -24.5t-21.5 -8.5z" />
    <glyph glyph-name="Adieresis" unicode="&#xc4;" horiz-adv-x="703" 
d="M61 0q-25 0 -36.5 20.5t-2.5 41.5l290 689q12 30 42 30q29 0 41 -30l290 -690q10 -22 -2.5 -41.5t-36.5 -19.5q-13 0 -23.5 7t-16.5 20l-266 650h30l-269 -650q-6 -14 -16.5 -20.5t-23.5 -6.5zM123 181l33 74h401l34 -74h-468zM246 876q-25 0 -41 16t-16 40q0 23 16 40
t41 17q23 0 39.5 -17t16.5 -40q0 -24 -16.5 -40t-39.5 -16zM459 876q-24 0 -40.5 16t-16.5 40q0 23 16.5 40t40.5 17q23 0 40 -17t17 -40q0 -24 -17 -40t-40 -16z" />
    <glyph glyph-name="uni1EA0" unicode="&#x1ea0;" horiz-adv-x="703" 
d="M61 0q-25 0 -36.5 20.5t-2.5 41.5l290 689q12 30 42 30q29 0 41 -30l290 -690q10 -22 -2.5 -41.5t-36.5 -19.5q-13 0 -23.5 7t-16.5 20l-266 650h30l-269 -650q-6 -14 -16.5 -20.5t-23.5 -6.5zM123 181l33 74h401l34 -74h-468zM351 -214q-24 0 -41 17t-17 42t17.5 41.5
t41.5 16.5q23 0 40.5 -16.5t17.5 -41.5t-17.5 -42t-41.5 -17z" />
    <glyph glyph-name="Agrave" unicode="&#xc0;" horiz-adv-x="703" 
d="M61 0q-25 0 -36.5 20.5t-2.5 41.5l290 689q12 30 42 30q29 0 41 -30l290 -690q10 -22 -2.5 -41.5t-36.5 -19.5q-13 0 -23.5 7t-16.5 20l-266 650h30l-269 -650q-6 -14 -16.5 -20.5t-23.5 -6.5zM123 181l33 74h401l34 -74h-468zM350 869q-17 0 -29 12l-108 107
q-11 12 -11 30t12 31t30 13t31 -13l107 -108q11 -10 11 -28q0 -19 -12 -31.5t-31 -12.5z" />
    <glyph glyph-name="uni1EA2" unicode="&#x1ea2;" horiz-adv-x="703" 
d="M61 0q-25 0 -36.5 20.5t-2.5 41.5l290 689q12 30 42 30q29 0 41 -30l290 -690q10 -22 -2.5 -41.5t-36.5 -19.5q-13 0 -23.5 7t-16.5 20l-266 650h30l-269 -650q-6 -14 -16.5 -20.5t-23.5 -6.5zM123 181l33 74h401l34 -74h-468zM351 833q-16 0 -27.5 11.5t-11.5 27.5v26
q0 35 35 42l25 6q20 4 30.5 14.5t10.5 27.5q0 22 -13.5 33t-34.5 11q-13 0 -24.5 -5t-20.5 -11q-5 -5 -12.5 -7.5t-14.5 -2.5q-14 0 -24 8.5t-10 24.5q0 19 13 30q20 15 42 23t50 8q51 0 85 -30t34 -77q0 -48 -31 -71.5t-74 -29.5l11 -8q0 -25 -11 -38t-27 -13z" />
    <glyph glyph-name="uni0202" unicode="&#x202;" horiz-adv-x="703" 
d="M61 0q-25 0 -36.5 20.5t-2.5 41.5l290 689q12 30 42 30q29 0 41 -30l290 -690q10 -22 -2.5 -41.5t-36.5 -19.5q-13 0 -23.5 7t-16.5 20l-266 650h30l-269 -650q-6 -14 -16.5 -20.5t-23.5 -6.5zM123 181l33 74h401l34 -74h-468zM234 856q-18 0 -29.5 12.5t-11.5 30.5
q0 34 21.5 61t57.5 42.5t80 15.5q42 0 77.5 -15t57.5 -42t23 -62q0 -18 -11 -30.5t-29 -12.5q-17 0 -29.5 10t-12.5 27q0 23 -20.5 39t-55.5 16q-32 0 -54.5 -16t-22.5 -39q0 -17 -12.5 -27t-28.5 -10z" />
    <glyph glyph-name="Amacron" unicode="&#x100;" horiz-adv-x="703" 
d="M61 0q-25 0 -36.5 20.5t-2.5 41.5l290 689q12 30 42 30q29 0 41 -30l290 -690q10 -22 -2.5 -41.5t-36.5 -19.5q-13 0 -23.5 7t-16.5 20l-266 650h30l-269 -650q-6 -14 -16.5 -20.5t-23.5 -6.5zM123 181l33 74h401l34 -74h-468zM224 887q-18 0 -30.5 10.5t-12.5 28.5
t12.5 28.5t30.5 10.5h256q18 0 30.5 -10.5t12.5 -28.5t-12.5 -28.5t-30.5 -10.5h-256z" />
    <glyph glyph-name="Aogonek" unicode="&#x104;" horiz-adv-x="703" 
d="M61 0q-25 0 -36.5 20.5t-2.5 41.5l290 689q12 30 42 30q29 0 41 -30l290 -690q10 -22 -2.5 -41.5t-36.5 -19.5q-13 0 -23.5 7t-16.5 20l-266 650h30l-269 -650q-6 -14 -16.5 -20.5t-23.5 -6.5zM123 181l33 74h401l34 -74h-468zM643 -241q-32 0 -59 16t-43.5 43.5
t-16.5 60.5q0 56 50 98q13 9 20.5 18.5t11.5 18.5q12 22 37 22q19 0 30.5 -11.5t12.5 -30.5q0 -22 -15.5 -43t-46.5 -44q-7 -5 -10.5 -13t-3.5 -15q0 -14 9.5 -24t23.5 -10q5 0 10 1.5t8 4.5l33 24q13 9 26 9q19 0 31 -12.5t12 -30.5q0 -20 -15 -35l-39 -25q-30 -22 -66 -22
z" />
    <glyph glyph-name="Aring" unicode="&#xc5;" horiz-adv-x="703" 
d="M61 0q-25 0 -36.5 20.5t-2.5 41.5l290 689q12 30 42 30q29 0 41 -30l290 -690q10 -22 -2.5 -41.5t-36.5 -19.5q-13 0 -23.5 7t-16.5 20l-266 650h30l-269 -650q-6 -14 -16.5 -20.5t-23.5 -6.5zM123 181l33 74h401l34 -74h-468zM352 825q-43 0 -72 28.5t-29 72.5
q0 43 29 72t72 29t72 -29t29 -72t-28.5 -72t-72.5 -29zM352 873q23 0 37.5 15.5t14.5 37.5q0 23 -14.5 37.5t-37.5 14.5q-22 0 -37 -14.5t-15 -37.5q0 -22 15 -37.5t37 -15.5z" />
    <glyph glyph-name="Aringacute" unicode="&#x1fa;" horiz-adv-x="703" 
d="M61 0q-25 0 -36.5 20.5t-2.5 41.5l290 689q12 30 42 30q29 0 41 -30l290 -690q10 -22 -2.5 -41.5t-36.5 -19.5q-13 0 -23.5 7t-16.5 20l-266 650h30l-269 -650q-6 -14 -16.5 -20.5t-23.5 -6.5zM123 181l33 74h401l34 -74h-468zM352 825q-43 0 -72 28.5t-29 72.5
q0 43 29 72t72 29t72 -29t29 -72t-28.5 -72t-72.5 -29zM352 873q23 0 37.5 15.5t14.5 37.5q0 23 -14.5 37.5t-37.5 14.5q-22 0 -37 -14.5t-15 -37.5q0 -22 15 -37.5t37 -15.5zM349 1065q-18 0 -30.5 12.5t-12.5 30.5t10 29l108 108q12 12 30 12q19 0 31 -12.5t12 -31.5
q0 -8 -3 -15.5t-9 -13.5l-107 -108q-12 -11 -29 -11z" />
    <glyph glyph-name="Atilde" unicode="&#xc3;" horiz-adv-x="703" 
d="M61 0q-25 0 -36.5 20.5t-2.5 41.5l290 689q12 30 42 30q29 0 41 -30l290 -690q10 -22 -2.5 -41.5t-36.5 -19.5q-13 0 -23.5 7t-16.5 20l-266 650h30l-269 -650q-6 -14 -16.5 -20.5t-23.5 -6.5zM123 181l33 74h401l34 -74h-468zM418 871q-25 0 -45.5 11.5t-35.5 27.5
q-13 13 -22 19.5t-20 6.5q-12 0 -20 -9.5t-16 -24.5q-8 -14 -21.5 -19.5t-28.5 0.5t-20 20t3 29q19 39 43 56.5t54 17.5q31 0 49.5 -14t32.5 -26q15 -13 23.5 -17.5t15.5 -4.5q13 0 24 21q8 14 22 20.5t28 1.5q17 -7 22.5 -21.5t-2.5 -29.5q-18 -35 -39 -50t-47 -15z" />
    <glyph glyph-name="AE" unicode="&#xc6;" horiz-adv-x="974" 
d="M63 0q-17 0 -28.5 10t-15 24.5t4.5 27.5l420 688q9 15 21.5 23t31.5 8h389q19 0 31 -11.5t12 -30.5q0 -17 -12 -28.5t-31 -11.5h-356v-265h241q18 0 30 -12t12 -29q0 -18 -12 -30t-30 -12h-241v-269h356q19 0 31 -11.5t12 -28.5q0 -19 -12 -30.5t-31 -11.5h-400
q-18 0 -30.5 12.5t-12.5 30.5v138h-247l-93 -154q-14 -27 -40 -27zM241 255h202v379h23z" />
    <glyph glyph-name="AEacute" unicode="&#x1fc;" horiz-adv-x="974" 
d="M63 0q-17 0 -28.5 10t-15 24.5t4.5 27.5l420 688q9 15 21.5 23t31.5 8h389q19 0 31 -11.5t12 -30.5q0 -17 -12 -28.5t-31 -11.5h-356v-265h241q18 0 30 -12t12 -29q0 -18 -12 -30t-30 -12h-241v-269h356q19 0 31 -11.5t12 -28.5q0 -19 -12 -30.5t-31 -11.5h-400
q-18 0 -30.5 12.5t-12.5 30.5v138h-247l-93 -154q-14 -27 -40 -27zM241 255h202v379h23zM609 865q-18 0 -30.5 12.5t-12.5 30.5t10 29l108 108q12 12 30 12q19 0 31 -12.5t12 -31.5q0 -8 -3 -15.5t-9 -13.5l-107 -108q-12 -11 -29 -11z" />
    <glyph glyph-name="B" unicode="B" horiz-adv-x="704" 
d="M147 0q-20 0 -33.5 12t-13.5 31v695q0 19 12.5 31t30.5 12h242q63 0 112.5 -26t78 -71t28.5 -104q0 -52 -28 -93t-75 -64q67 -17 107.5 -65.5t40.5 -124.5q0 -69 -31.5 -121t-87 -82t-127.5 -30h-256zM187 82h216q48 0 84 18t57 51.5t21 81.5q0 44 -21 75.5t-57 49
t-84 17.5h-216v-293zM187 457h198q59 0 97 32t38 91t-38 89t-97 30h-198v-242z" />
    <glyph glyph-name="C" unicode="C" horiz-adv-x="773" 
d="M451 -10q-81 0 -151.5 31t-124 86t-83 127.5t-29.5 156.5q0 83 29.5 155.5t82.5 127t123.5 86t152.5 31.5q73 0 131 -20.5t113 -66.5q9 -7 11.5 -15.5t0.5 -16.5t-8 -13q-1 -12 -11 -19t-23 -6.5t-26 10.5q-38 33 -82 49.5t-106 16.5q-63 0 -118 -25t-97 -69t-65.5 -102
t-23.5 -123q0 -67 23.5 -124.5t65.5 -101.5t97 -69t118 -25q53 0 101 18t91 51q14 11 29 9t25.5 -13t10.5 -29q0 -8 -3 -15.5t-9 -15.5q-52 -45 -114.5 -65.5t-130.5 -20.5z" />
    <glyph glyph-name="Cacute" unicode="&#x106;" horiz-adv-x="773" 
d="M451 -10q-81 0 -151.5 31t-124 86t-83 127.5t-29.5 156.5q0 83 29.5 155.5t82.5 127t123.5 86t152.5 31.5q73 0 131 -20.5t113 -66.5q9 -7 11.5 -15.5t0.5 -16.5t-8 -13q-1 -12 -11 -19t-23 -6.5t-26 10.5q-38 33 -82 49.5t-106 16.5q-63 0 -118 -25t-97 -69t-65.5 -102
t-23.5 -123q0 -67 23.5 -124.5t65.5 -101.5t97 -69t118 -25q53 0 101 18t91 51q14 11 29 9t25.5 -13t10.5 -29q0 -8 -3 -15.5t-9 -15.5q-52 -45 -114.5 -65.5t-130.5 -20.5zM444 865q-18 0 -30.5 12.5t-12.5 30.5t10 29l108 108q12 12 30 12q19 0 31 -12.5t12 -31.5
q0 -8 -3 -15.5t-9 -13.5l-107 -108q-12 -11 -29 -11z" />
    <glyph glyph-name="Ccaron" unicode="&#x10c;" horiz-adv-x="773" 
d="M451 -10q-81 0 -151.5 31t-124 86t-83 127.5t-29.5 156.5q0 83 29.5 155.5t82.5 127t123.5 86t152.5 31.5q73 0 131 -20.5t113 -66.5q9 -7 11.5 -15.5t0.5 -16.5t-8 -13q-1 -12 -11 -19t-23 -6.5t-26 10.5q-38 33 -82 49.5t-106 16.5q-63 0 -118 -25t-97 -69t-65.5 -102
t-23.5 -123q0 -67 23.5 -124.5t65.5 -101.5t97 -69t118 -25q53 0 101 18t91 51q14 11 29 9t25.5 -13t10.5 -29q0 -8 -3 -15.5t-9 -15.5q-52 -45 -114.5 -65.5t-130.5 -20.5zM447 868q-14 0 -21 6l-116 77q-21 15 -21 36q0 20 21 28.5t49 -11.5l88 -59l88 59q32 21 51 11.5
t19 -28.5q0 -21 -21 -36l-115 -77q-8 -6 -22 -6z" />
    <glyph glyph-name="Ccedilla" unicode="&#xc7;" horiz-adv-x="773" 
d="M451 -10q-81 0 -151.5 31t-124 86t-83 127.5t-29.5 156.5q0 83 29.5 155.5t82.5 127t123.5 86t152.5 31.5q73 0 131 -20.5t113 -66.5q9 -7 11.5 -15.5t0.5 -16.5t-8 -13q-1 -12 -11 -19t-23 -6.5t-26 10.5q-38 33 -82 49.5t-106 16.5q-63 0 -118 -25t-97 -69t-65.5 -102
t-23.5 -123q0 -67 23.5 -124.5t65.5 -101.5t97 -69t118 -25q53 0 101 18t91 51q14 11 29 9t25.5 -13t10.5 -29q0 -8 -3 -15.5t-9 -15.5q-52 -45 -114.5 -65.5t-130.5 -20.5zM438 -233q-56 0 -91.5 23.5t-35.5 53.5q0 17 12 29t28 12q12 0 20.5 -5.5t14.5 -17.5q8 -13 21 -20
t32 -7q22 0 36.5 9.5t14.5 27.5t-11 29t-39 17q-26 5 -37 18t-1 42l14 36q6 16 17.5 25t31.5 9q21 0 31.5 -14.5t1.5 -33.5l-15 -36q52 -12 73.5 -35.5t21.5 -57.5q0 -28 -18 -51.5t-49.5 -38t-72.5 -14.5z" />
    <glyph glyph-name="Ccircumflex" unicode="&#x108;" horiz-adv-x="773" 
d="M451 -10q-81 0 -151.5 31t-124 86t-83 127.5t-29.5 156.5q0 83 29.5 155.5t82.5 127t123.5 86t152.5 31.5q73 0 131 -20.5t113 -66.5q9 -7 11.5 -15.5t0.5 -16.5t-8 -13q-1 -12 -11 -19t-23 -6.5t-26 10.5q-38 33 -82 49.5t-106 16.5q-63 0 -118 -25t-97 -69t-65.5 -102
t-23.5 -123q0 -67 23.5 -124.5t65.5 -101.5t97 -69t118 -25q53 0 101 18t91 51q14 11 29 9t25.5 -13t10.5 -29q0 -8 -3 -15.5t-9 -15.5q-52 -45 -114.5 -65.5t-130.5 -20.5zM333 862q-19 0 -31.5 10t-12.5 27q0 22 21 37l116 76q9 6 21 6q7 0 12 -1.5t10 -4.5l115 -76
q21 -15 21 -37q0 -16 -12 -26.5t-31 -10.5q-8 0 -14 2t-13 7l-88 61l-88 -61q-12 -9 -26 -9z" />
    <glyph glyph-name="Cdotaccent" unicode="&#x10a;" horiz-adv-x="773" 
d="M451 -10q-81 0 -151.5 31t-124 86t-83 127.5t-29.5 156.5q0 83 29.5 155.5t82.5 127t123.5 86t152.5 31.5q73 0 131 -20.5t113 -66.5q9 -7 11.5 -15.5t0.5 -16.5t-8 -13q-1 -12 -11 -19t-23 -6.5t-26 10.5q-38 33 -82 49.5t-106 16.5q-63 0 -118 -25t-97 -69t-65.5 -102
t-23.5 -123q0 -67 23.5 -124.5t65.5 -101.5t97 -69t118 -25q53 0 101 18t91 51q14 11 29 9t25.5 -13t10.5 -29q0 -8 -3 -15.5t-9 -15.5q-52 -45 -114.5 -65.5t-130.5 -20.5zM446 880q-24 0 -41 17t-17 42t17.5 41.5t41.5 16.5q23 0 40.5 -16.5t17.5 -41.5t-17.5 -42
t-41.5 -17z" />
    <glyph glyph-name="D" unicode="D" horiz-adv-x="774" 
d="M143 0q-18 0 -30.5 12.5t-12.5 30.5v695q0 19 12.5 31t30.5 12h181q86 0 157 -28.5t123 -81t80.5 -123.5t28.5 -157t-28.5 -157.5t-80.5 -124t-123 -81t-157 -28.5h-181zM187 77h137q89 0 157.5 40.5t107.5 111.5t39 162t-39 162t-107.5 111t-157.5 40h-137v-627z" />
    <glyph glyph-name="Eth" unicode="&#xd0;" horiz-adv-x="774" 
d="M41 353q-18 0 -29.5 10t-11.5 28t11.5 28t29.5 10h288q19 0 30.5 -10t11.5 -28t-11.5 -28t-30.5 -10h-288zM143 0q-18 0 -30.5 12.5t-12.5 30.5v695q0 19 12.5 31t30.5 12h181q86 0 157 -28.5t123 -81t80.5 -123.5t28.5 -157t-28.5 -157.5t-80.5 -124t-123 -81
t-157 -28.5h-181zM187 77h137q89 0 157.5 40.5t107.5 111.5t39 162t-39 162t-107.5 111t-157.5 40h-137v-627z" />
    <glyph glyph-name="Dcaron" unicode="&#x10e;" horiz-adv-x="774" 
d="M143 0q-18 0 -30.5 12.5t-12.5 30.5v695q0 19 12.5 31t30.5 12h181q86 0 157 -28.5t123 -81t80.5 -123.5t28.5 -157t-28.5 -157.5t-80.5 -124t-123 -81t-157 -28.5h-181zM187 77h137q89 0 157.5 40.5t107.5 111.5t39 162t-39 162t-107.5 111t-157.5 40h-137v-627z
M388 868q-14 0 -21 6l-116 77q-21 15 -21 36q0 20 21 28.5t49 -11.5l88 -59l88 59q32 21 51 11.5t19 -28.5q0 -21 -21 -36l-115 -77q-8 -6 -22 -6z" />
    <glyph glyph-name="Dcroat" unicode="&#x110;" horiz-adv-x="774" 
d="M41 353q-18 0 -29.5 10t-11.5 28t11.5 28t29.5 10h288q19 0 30.5 -10t11.5 -28t-11.5 -28t-30.5 -10h-288zM143 0q-18 0 -30.5 12.5t-12.5 30.5v695q0 19 12.5 31t30.5 12h181q86 0 157 -28.5t123 -81t80.5 -123.5t28.5 -157t-28.5 -157.5t-80.5 -124t-123 -81
t-157 -28.5h-181zM187 77h137q89 0 157.5 40.5t107.5 111.5t39 162t-39 162t-107.5 111t-157.5 40h-137v-627z" />
    <glyph glyph-name="E" unicode="E" horiz-adv-x="695" 
d="M143 0q-18 0 -30.5 12.5t-12.5 30.5v695q0 19 12.5 31t30.5 12h464q18 0 30.5 -11.5t12.5 -30.5q0 -17 -12.5 -28.5t-30.5 -11.5h-420v-265h304q19 0 31 -12t12 -29q0 -18 -12 -30t-31 -12h-304v-269h420q18 0 30.5 -11.5t12.5 -28.5q0 -19 -12.5 -30.5t-30.5 -11.5h-464
z" />
    <glyph glyph-name="Eacute" unicode="&#xc9;" horiz-adv-x="695" 
d="M143 0q-18 0 -30.5 12.5t-12.5 30.5v695q0 19 12.5 31t30.5 12h464q18 0 30.5 -11.5t12.5 -30.5q0 -17 -12.5 -28.5t-30.5 -11.5h-420v-265h304q19 0 31 -12t12 -29q0 -18 -12 -30t-31 -12h-304v-269h420q18 0 30.5 -11.5t12.5 -28.5q0 -19 -12.5 -30.5t-30.5 -11.5h-464
zM380 865q-18 0 -30.5 12.5t-12.5 30.5t10 29l108 108q12 12 30 12q19 0 31 -12.5t12 -31.5q0 -8 -3 -15.5t-9 -13.5l-107 -108q-12 -11 -29 -11z" />
    <glyph glyph-name="Ebreve" unicode="&#x114;" horiz-adv-x="695" 
d="M143 0q-18 0 -30.5 12.5t-12.5 30.5v695q0 19 12.5 31t30.5 12h464q18 0 30.5 -11.5t12.5 -30.5q0 -17 -12.5 -28.5t-30.5 -11.5h-420v-265h304q19 0 31 -12t12 -29q0 -18 -12 -30t-31 -12h-304v-269h420q18 0 30.5 -11.5t12.5 -28.5q0 -19 -12.5 -30.5t-30.5 -11.5h-464
zM383 856q-43 0 -79 16t-57.5 43t-21.5 60q0 18 11.5 31t29.5 13q16 0 28.5 -10.5t12.5 -27.5q0 -23 22.5 -38.5t53.5 -15.5q36 0 56.5 15.5t20.5 38.5q0 17 12.5 27.5t29.5 10.5q18 0 29 -12.5t11 -30.5q-1 -35 -23 -62t-57.5 -42.5t-78.5 -15.5z" />
    <glyph glyph-name="Ecaron" unicode="&#x11a;" horiz-adv-x="695" 
d="M143 0q-18 0 -30.5 12.5t-12.5 30.5v695q0 19 12.5 31t30.5 12h464q18 0 30.5 -11.5t12.5 -30.5q0 -17 -12.5 -28.5t-30.5 -11.5h-420v-265h304q19 0 31 -12t12 -29q0 -18 -12 -30t-31 -12h-304v-269h420q18 0 30.5 -11.5t12.5 -28.5q0 -19 -12.5 -30.5t-30.5 -11.5h-464
zM384 868q-14 0 -21 6l-116 77q-21 15 -21 36q0 20 21 28.5t49 -11.5l88 -59l88 59q32 21 51 11.5t19 -28.5q0 -21 -21 -36l-115 -77q-8 -6 -22 -6z" />
    <glyph glyph-name="Ecircumflex" unicode="&#xca;" horiz-adv-x="695" 
d="M143 0q-18 0 -30.5 12.5t-12.5 30.5v695q0 19 12.5 31t30.5 12h464q18 0 30.5 -11.5t12.5 -30.5q0 -17 -12.5 -28.5t-30.5 -11.5h-420v-265h304q19 0 31 -12t12 -29q0 -18 -12 -30t-31 -12h-304v-269h420q18 0 30.5 -11.5t12.5 -28.5q0 -19 -12.5 -30.5t-30.5 -11.5h-464
zM270 862q-19 0 -31.5 10t-12.5 27q0 22 21 37l116 76q9 6 21 6q7 0 12 -1.5t10 -4.5l115 -76q21 -15 21 -37q0 -16 -12 -26.5t-31 -10.5q-8 0 -14 2t-13 7l-88 61l-88 -61q-12 -9 -26 -9z" />
    <glyph glyph-name="uni1EBE" unicode="&#x1ebe;" horiz-adv-x="695" 
d="M143 0q-18 0 -30.5 12.5t-12.5 30.5v695q0 19 12.5 31t30.5 12h464q18 0 30.5 -11.5t12.5 -30.5q0 -17 -12.5 -28.5t-30.5 -11.5h-420v-265h304q19 0 31 -12t12 -29q0 -18 -12 -30t-31 -12h-304v-269h420q18 0 30.5 -11.5t12.5 -28.5q0 -19 -12.5 -30.5t-30.5 -11.5h-464
zM269 862q-19 0 -31.5 10t-12.5 27q0 22 21 37l116 76q9 6 21 6q7 0 12 -1.5t10 -4.5l115 -76q21 -15 21 -37q0 -16 -12 -26.5t-31 -10.5q-8 0 -14 2t-13 7l-88 61l-88 -61q-12 -9 -26 -9zM478 1026q-18 0 -30.5 12t-12.5 31q0 17 10 28l108 108q13 13 30 13q20 0 31.5 -13
t11.5 -31q0 -8 -2.5 -16t-9.5 -13l-107 -108q-11 -11 -29 -11z" />
    <glyph glyph-name="uni1EC6" unicode="&#x1ec6;" horiz-adv-x="695" 
d="M143 0q-18 0 -30.5 12.5t-12.5 30.5v695q0 19 12.5 31t30.5 12h464q18 0 30.5 -11.5t12.5 -30.5q0 -17 -12.5 -28.5t-30.5 -11.5h-420v-265h304q19 0 31 -12t12 -29q0 -18 -12 -30t-31 -12h-304v-269h420q18 0 30.5 -11.5t12.5 -28.5q0 -19 -12.5 -30.5t-30.5 -11.5h-464
zM270 862q-19 0 -31.5 10t-12.5 27q0 22 21 37l116 76q9 6 21 6q7 0 12 -1.5t10 -4.5l115 -76q21 -15 21 -37q0 -16 -12 -26.5t-31 -10.5q-8 0 -14 2t-13 7l-88 61l-88 -61q-12 -9 -26 -9zM363 -214q-24 0 -41 17t-17 42t17.5 41.5t41.5 16.5q23 0 40.5 -16.5t17.5 -41.5
t-17.5 -42t-41.5 -17z" />
    <glyph glyph-name="uni1EC0" unicode="&#x1ec0;" horiz-adv-x="695" 
d="M143 0q-18 0 -30.5 12.5t-12.5 30.5v695q0 19 12.5 31t30.5 12h464q18 0 30.5 -11.5t12.5 -30.5q0 -17 -12.5 -28.5t-30.5 -11.5h-420v-265h304q19 0 31 -12t12 -29q0 -18 -12 -30t-31 -12h-304v-269h420q18 0 30.5 -11.5t12.5 -28.5q0 -19 -12.5 -30.5t-30.5 -11.5h-464
zM269 862q-19 0 -31.5 10t-12.5 27q0 22 21 37l116 76q9 6 21 6q7 0 12 -1.5t10 -4.5l115 -76q21 -15 21 -37q0 -16 -12 -26.5t-31 -10.5q-8 0 -14 2t-13 7l-88 61l-88 -61q-12 -9 -26 -9zM481 1030q-18 0 -29 12l-108 107q-11 11 -11 29q0 19 12 31.5t30 12.5q17 0 31 -13
l107 -108q11 -10 11 -28t-12.5 -30.5t-30.5 -12.5z" />
    <glyph glyph-name="uni1EC2" unicode="&#x1ec2;" horiz-adv-x="695" 
d="M143 0q-18 0 -30.5 12.5t-12.5 30.5v695q0 19 12.5 31t30.5 12h464q18 0 30.5 -11.5t12.5 -30.5q0 -17 -12.5 -28.5t-30.5 -11.5h-420v-265h304q19 0 31 -12t12 -29q0 -18 -12 -30t-31 -12h-304v-269h420q18 0 30.5 -11.5t12.5 -28.5q0 -19 -12.5 -30.5t-30.5 -11.5h-464
zM273 862q-19 0 -31.5 10t-12.5 27q0 22 21 37l116 76q9 6 21 6q7 0 12 -1.5t10 -4.5l115 -76q21 -15 21 -37q0 -16 -12 -26.5t-31 -10.5q-8 0 -14 2t-13 7l-88 61l-88 -61q-12 -9 -26 -9zM486 994q-17 0 -28 11t-11 28v26q0 34 34 42l26 5q19 5 30 15.5t11 27.5
q0 21 -14 32t-34 11q-13 0 -24.5 -4.5t-20.5 -11.5q-5 -5 -13 -7t-15 -2q-13 0 -23 8.5t-10 24.5q0 18 13 29q19 16 41 24t51 8q51 0 84.5 -30.5t33.5 -77.5q1 -48 -30.5 -71t-74.5 -29l12 -8q0 -26 -11.5 -38.5t-26.5 -12.5z" />
    <glyph glyph-name="uni1EC4" unicode="&#x1ec4;" horiz-adv-x="695" 
d="M143 0q-18 0 -30.5 12.5t-12.5 30.5v695q0 19 12.5 31t30.5 12h464q18 0 30.5 -11.5t12.5 -30.5q0 -17 -12.5 -28.5t-30.5 -11.5h-420v-265h304q19 0 31 -12t12 -29q0 -18 -12 -30t-31 -12h-304v-269h420q18 0 30.5 -11.5t12.5 -28.5q0 -19 -12.5 -30.5t-30.5 -11.5h-464
zM273 862q-19 0 -31.5 10t-12.5 27q0 22 21 37l116 76q10 6 21 6q7 0 12.5 -1.5t10.5 -4.5l115 -76q20 -15 20 -37q0 -16 -12 -26.5t-30 -10.5q-8 0 -14.5 2t-12.5 7l-89 61l-88 -61q-12 -9 -26 -9zM446 1045q-25 0 -45 11.5t-36 26.5q-13 12 -22.5 19t-20.5 7t-19 -9
t-17 -25q-7 -14 -21 -19.5t-28 0.5t-19.5 20t2.5 29q19 39 43 56.5t54 17.5q31 0 49.5 -14t32.5 -26q15 -13 23.5 -17.5t15.5 -4.5q13 0 24 21q8 14 22 20.5t28 1.5q17 -7 23 -21t-3 -29q-18 -35 -39 -50t-47 -15z" />
    <glyph glyph-name="uni0204" unicode="&#x204;" horiz-adv-x="695" 
d="M143 0q-18 0 -30.5 12.5t-12.5 30.5v695q0 19 12.5 31t30.5 12h464q18 0 30.5 -11.5t12.5 -30.5q0 -17 -12.5 -28.5t-30.5 -11.5h-420v-265h304q19 0 31 -12t12 -29q0 -18 -12 -30t-31 -12h-304v-269h420q18 0 30.5 -11.5t12.5 -28.5q0 -19 -12.5 -30.5t-30.5 -11.5h-464
zM489 856q-21 0 -31 21l-60 125q-3 8 -3 17q0 16 12.5 29t31.5 13q13 0 24.5 -7.5t15.5 -19.5l40 -132q3 -6 3 -13q0 -16 -11 -24.5t-22 -8.5zM341 856q-21 0 -32 21l-59 125q-2 5 -2.5 9t-1.5 8q0 16 12.5 29t31.5 13q13 0 24 -7.5t15 -19.5l42 -132q1 -3 1.5 -6.5
t0.5 -6.5q0 -16 -10.5 -24.5t-21.5 -8.5z" />
    <glyph glyph-name="Edieresis" unicode="&#xcb;" horiz-adv-x="695" 
d="M143 0q-18 0 -30.5 12.5t-12.5 30.5v695q0 19 12.5 31t30.5 12h464q18 0 30.5 -11.5t12.5 -30.5q0 -17 -12.5 -28.5t-30.5 -11.5h-420v-265h304q19 0 31 -12t12 -29q0 -18 -12 -30t-31 -12h-304v-269h420q18 0 30.5 -11.5t12.5 -28.5q0 -19 -12.5 -30.5t-30.5 -11.5h-464
zM277 876q-25 0 -41 16t-16 40q0 23 16 40t41 17q23 0 39.5 -17t16.5 -40q0 -24 -16.5 -40t-39.5 -16zM490 876q-24 0 -40.5 16t-16.5 40q0 23 16.5 40t40.5 17q23 0 40 -17t17 -40q0 -24 -17 -40t-40 -16z" />
    <glyph glyph-name="Edotaccent" unicode="&#x116;" horiz-adv-x="695" 
d="M143 0q-18 0 -30.5 12.5t-12.5 30.5v695q0 19 12.5 31t30.5 12h464q18 0 30.5 -11.5t12.5 -30.5q0 -17 -12.5 -28.5t-30.5 -11.5h-420v-265h304q19 0 31 -12t12 -29q0 -18 -12 -30t-31 -12h-304v-269h420q18 0 30.5 -11.5t12.5 -28.5q0 -19 -12.5 -30.5t-30.5 -11.5h-464
zM383 880q-24 0 -41 17t-17 42t17.5 41.5t41.5 16.5q23 0 40.5 -16.5t17.5 -41.5t-17.5 -42t-41.5 -17z" />
    <glyph glyph-name="uni1EB8" unicode="&#x1eb8;" horiz-adv-x="695" 
d="M143 0q-18 0 -30.5 12.5t-12.5 30.5v695q0 19 12.5 31t30.5 12h464q18 0 30.5 -11.5t12.5 -30.5q0 -17 -12.5 -28.5t-30.5 -11.5h-420v-265h304q19 0 31 -12t12 -29q0 -18 -12 -30t-31 -12h-304v-269h420q18 0 30.5 -11.5t12.5 -28.5q0 -19 -12.5 -30.5t-30.5 -11.5h-464
zM363 -214q-24 0 -41 17t-17 42t17.5 41.5t41.5 16.5q23 0 40.5 -16.5t17.5 -41.5t-17.5 -42t-41.5 -17z" />
    <glyph glyph-name="Egrave" unicode="&#xc8;" horiz-adv-x="695" 
d="M143 0q-18 0 -30.5 12.5t-12.5 30.5v695q0 19 12.5 31t30.5 12h464q18 0 30.5 -11.5t12.5 -30.5q0 -17 -12.5 -28.5t-30.5 -11.5h-420v-265h304q19 0 31 -12t12 -29q0 -18 -12 -30t-31 -12h-304v-269h420q18 0 30.5 -11.5t12.5 -28.5q0 -19 -12.5 -30.5t-30.5 -11.5h-464
zM382 869q-17 0 -29 12l-108 107q-11 12 -11 30t12 31t30 13t31 -13l107 -108q11 -10 11 -28q0 -19 -12 -31.5t-31 -12.5z" />
    <glyph glyph-name="uni1EBA" unicode="&#x1eba;" horiz-adv-x="695" 
d="M143 0q-18 0 -30.5 12.5t-12.5 30.5v695q0 19 12.5 31t30.5 12h464q18 0 30.5 -11.5t12.5 -30.5q0 -17 -12.5 -28.5t-30.5 -11.5h-420v-265h304q19 0 31 -12t12 -29q0 -18 -12 -30t-31 -12h-304v-269h420q18 0 30.5 -11.5t12.5 -28.5q0 -19 -12.5 -30.5t-30.5 -11.5h-464
zM383 833q-16 0 -27.5 11.5t-11.5 27.5v26q0 35 35 42l25 6q20 4 30.5 14.5t10.5 27.5q0 22 -13.5 33t-34.5 11q-13 0 -24.5 -5t-20.5 -11q-5 -5 -12.5 -7.5t-14.5 -2.5q-14 0 -24 8.5t-10 24.5q0 19 13 30q20 15 42 23t50 8q51 0 85 -30t34 -77q0 -48 -31 -71.5t-74 -29.5
l11 -8q0 -25 -11 -38t-27 -13z" />
    <glyph glyph-name="uni0206" unicode="&#x206;" horiz-adv-x="695" 
d="M143 0q-18 0 -30.5 12.5t-12.5 30.5v695q0 19 12.5 31t30.5 12h464q18 0 30.5 -11.5t12.5 -30.5q0 -17 -12.5 -28.5t-30.5 -11.5h-420v-265h304q19 0 31 -12t12 -29q0 -18 -12 -30t-31 -12h-304v-269h420q18 0 30.5 -11.5t12.5 -28.5q0 -19 -12.5 -30.5t-30.5 -11.5h-464
zM265 856q-18 0 -29.5 12.5t-11.5 30.5q0 34 21.5 61t57.5 42.5t80 15.5q42 0 77.5 -15t57.5 -42t23 -62q0 -18 -11 -30.5t-29 -12.5q-17 0 -29.5 10t-12.5 27q0 23 -20.5 39t-55.5 16q-32 0 -54.5 -16t-22.5 -39q0 -17 -12.5 -27t-28.5 -10z" />
    <glyph glyph-name="Emacron" unicode="&#x112;" horiz-adv-x="695" 
d="M143 0q-18 0 -30.5 12.5t-12.5 30.5v695q0 19 12.5 31t30.5 12h464q18 0 30.5 -11.5t12.5 -30.5q0 -17 -12.5 -28.5t-30.5 -11.5h-420v-265h304q19 0 31 -12t12 -29q0 -18 -12 -30t-31 -12h-304v-269h420q18 0 30.5 -11.5t12.5 -28.5q0 -19 -12.5 -30.5t-30.5 -11.5h-464
zM256 887q-18 0 -30.5 10.5t-12.5 28.5t12.5 28.5t30.5 10.5h256q18 0 30.5 -10.5t12.5 -28.5t-12.5 -28.5t-30.5 -10.5h-256z" />
    <glyph glyph-name="Eogonek" unicode="&#x118;" horiz-adv-x="695" 
d="M143 0q-18 0 -30.5 12.5t-12.5 30.5v695q0 19 12.5 31t30.5 12h464q18 0 30.5 -11.5t12.5 -30.5q0 -17 -12.5 -28.5t-30.5 -11.5h-420v-265h304q19 0 31 -12t12 -29q0 -18 -12 -30t-31 -12h-304v-269h420q18 0 30.5 -11.5t12.5 -28.5q0 -19 -12.5 -30.5t-30.5 -11.5h-464
zM627 -267q-32 0 -59 16t-43.5 43.5t-16.5 60.5q0 56 50 98q13 9 20.5 18.5t11.5 18.5q12 22 37 22q19 0 30.5 -11.5t12.5 -30.5q0 -22 -15.5 -43t-46.5 -44q-7 -5 -10.5 -13t-3.5 -15q0 -14 9.5 -24t23.5 -10q5 0 10 1.5t8 4.5l33 24q13 9 26 9q19 0 31 -12.5t12 -30.5
q0 -20 -15 -35l-39 -25q-30 -22 -66 -22z" />
    <glyph glyph-name="uni1EBC" unicode="&#x1ebc;" horiz-adv-x="695" 
d="M143 0q-18 0 -30.5 12.5t-12.5 30.5v695q0 19 12.5 31t30.5 12h464q18 0 30.5 -11.5t12.5 -30.5q0 -17 -12.5 -28.5t-30.5 -11.5h-420v-265h304q19 0 31 -12t12 -29q0 -18 -12 -30t-31 -12h-304v-269h420q18 0 30.5 -11.5t12.5 -28.5q0 -19 -12.5 -30.5t-30.5 -11.5h-464
zM489 859q-32 0 -56.5 11.5t-41.5 21.5q-22 12 -36 17.5t-26 5.5q-17 0 -31.5 -7.5t-28.5 -25.5q-10 -14 -25 -19t-30 3q-14 7 -16.5 23t7.5 30q24 32 57 49.5t70 17.5q32 0 55.5 -11t39.5 -20q21 -13 33.5 -18.5t27.5 -5.5t26 5t20 14q12 12 24 17t27 -4q14 -8 16.5 -24.5
t-8.5 -30.5q-39 -49 -104 -49z" />
    <glyph glyph-name="F" unicode="F" horiz-adv-x="625" 
d="M81 0q-18 0 -30.5 12.5t-12.5 30.5v695q0 19 12 31t31 12h463q19 0 31 -11.5t12 -30.5q0 -17 -12 -28.5t-31 -11.5h-420v-265h305q19 0 31 -12t12 -29q0 -18 -12 -30t-31 -12h-305v-308q0 -18 -12 -30.5t-31 -12.5z" />
    <glyph glyph-name="G" unicode="G" horiz-adv-x="773" 
d="M451 -10q-81 0 -151.5 31t-124 86t-83 127.5t-29.5 156.5q0 83 29.5 155.5t82.5 127t123.5 86t152.5 31.5q73 0 131 -20.5t113 -66.5q9 -7 11.5 -15.5t0.5 -16.5t-8 -13q-1 -12 -11 -19t-23.5 -6.5t-25.5 10.5q-38 33 -82 49.5t-106 16.5q-63 0 -118 -25t-97 -69
t-65.5 -102t-23.5 -123q0 -67 23.5 -124.5t65.5 -101.5t97 -69t118 -25q53 0 101 18t91 51q14 11 29 9t25.5 -13t10.5 -29q0 -8 -2.5 -15.5t-9.5 -15.5q-52 -46 -114.5 -66t-130.5 -20zM708 107l-84 18v193h-150q-18 0 -30.5 11t-12.5 28t12.5 27.5t30.5 10.5h191
q19 0 31 -12t12 -31v-245z" />
    <glyph glyph-name="Gbreve" unicode="&#x11e;" horiz-adv-x="773" 
d="M451 -10q-81 0 -151.5 31t-124 86t-83 127.5t-29.5 156.5q0 83 29.5 155.5t82.5 127t123.5 86t152.5 31.5q73 0 131 -20.5t113 -66.5q9 -7 11.5 -15.5t0.5 -16.5t-8 -13q-1 -12 -11 -19t-23.5 -6.5t-25.5 10.5q-38 33 -82 49.5t-106 16.5q-63 0 -118 -25t-97 -69
t-65.5 -102t-23.5 -123q0 -67 23.5 -124.5t65.5 -101.5t97 -69t118 -25q53 0 101 18t91 51q14 11 29 9t25.5 -13t10.5 -29q0 -8 -2.5 -15.5t-9.5 -15.5q-52 -46 -114.5 -66t-130.5 -20zM708 107l-84 18v193h-150q-18 0 -30.5 11t-12.5 28t12.5 27.5t30.5 10.5h191
q19 0 31 -12t12 -31v-245zM442 856q-43 0 -79 16t-57.5 43t-21.5 60q0 18 11.5 31t29.5 13q16 0 28.5 -10.5t12.5 -27.5q0 -23 22.5 -38.5t53.5 -15.5q36 0 56.5 15.5t20.5 38.5q0 17 12.5 27.5t29.5 10.5q18 0 29 -12.5t11 -30.5q-1 -35 -23 -62t-57.5 -42.5t-78.5 -15.5z
" />
    <glyph glyph-name="Gcaron" unicode="&#x1e6;" horiz-adv-x="773" 
d="M451 -10q-81 0 -151.5 31t-124 86t-83 127.5t-29.5 156.5q0 83 29.5 155.5t82.5 127t123.5 86t152.5 31.5q73 0 131 -20.5t113 -66.5q9 -7 11.5 -15.5t0.5 -16.5t-8 -13q-1 -12 -11 -19t-23.5 -6.5t-25.5 10.5q-38 33 -82 49.5t-106 16.5q-63 0 -118 -25t-97 -69
t-65.5 -102t-23.5 -123q0 -67 23.5 -124.5t65.5 -101.5t97 -69t118 -25q53 0 101 18t91 51q14 11 29 9t25.5 -13t10.5 -29q0 -8 -2.5 -15.5t-9.5 -15.5q-52 -46 -114.5 -66t-130.5 -20zM708 107l-84 18v193h-150q-18 0 -30.5 11t-12.5 28t12.5 27.5t30.5 10.5h191
q19 0 31 -12t12 -31v-245zM443 868q-14 0 -21 6l-116 77q-21 15 -21 36q0 20 21 28.5t49 -11.5l88 -59l88 59q32 21 51 11.5t19 -28.5q0 -21 -21 -36l-115 -77q-8 -6 -22 -6z" />
    <glyph glyph-name="Gcircumflex" unicode="&#x11c;" horiz-adv-x="773" 
d="M451 -10q-81 0 -151.5 31t-124 86t-83 127.5t-29.5 156.5q0 83 29.5 155.5t82.5 127t123.5 86t152.5 31.5q73 0 131 -20.5t113 -66.5q9 -7 11.5 -15.5t0.5 -16.5t-8 -13q-1 -12 -11 -19t-23.5 -6.5t-25.5 10.5q-38 33 -82 49.5t-106 16.5q-63 0 -118 -25t-97 -69
t-65.5 -102t-23.5 -123q0 -67 23.5 -124.5t65.5 -101.5t97 -69t118 -25q53 0 101 18t91 51q14 11 29 9t25.5 -13t10.5 -29q0 -8 -2.5 -15.5t-9.5 -15.5q-52 -46 -114.5 -66t-130.5 -20zM708 107l-84 18v193h-150q-18 0 -30.5 11t-12.5 28t12.5 27.5t30.5 10.5h191
q19 0 31 -12t12 -31v-245zM329 862q-19 0 -31.5 10t-12.5 27q0 22 21 37l116 76q9 6 21 6q7 0 12 -1.5t10 -4.5l115 -76q21 -15 21 -37q0 -16 -12 -26.5t-31 -10.5q-8 0 -14 2t-13 7l-88 61l-88 -61q-12 -9 -26 -9z" />
    <glyph glyph-name="uni0122" unicode="&#x122;" horiz-adv-x="773" 
d="M451 -10q-81 0 -151.5 31t-124 86t-83 127.5t-29.5 156.5q0 83 29.5 155.5t82.5 127t123.5 86t152.5 31.5q73 0 131 -20.5t113 -66.5q9 -7 11.5 -15.5t0.5 -16.5t-8 -13q-1 -12 -11 -19t-23.5 -6.5t-25.5 10.5q-38 33 -82 49.5t-106 16.5q-63 0 -118 -25t-97 -69
t-65.5 -102t-23.5 -123q0 -67 23.5 -124.5t65.5 -101.5t97 -69t118 -25q53 0 101 18t91 51q14 11 29 9t25.5 -13t10.5 -29q0 -8 -2.5 -15.5t-9.5 -15.5q-52 -46 -114.5 -66t-130.5 -20zM708 107l-84 18v193h-150q-18 0 -30.5 11t-12.5 28t12.5 27.5t30.5 10.5h191
q19 0 31 -12t12 -31v-245zM436 -241q-26 0 -54.5 8.5t-48 25t-19.5 40.5q0 13 8.5 21t22.5 8t23.5 -6t18 -15t21 -15.5t34.5 -6.5q29 0 42.5 10t13.5 30q0 19 -17 30t-54 11q-21 0 -33.5 7.5t-12.5 22.5q0 31 51 31q57 0 93 -28t36 -72q0 -47 -36 -74.5t-89 -27.5z" />
    <glyph glyph-name="Gdotaccent" unicode="&#x120;" horiz-adv-x="773" 
d="M451 -10q-81 0 -151.5 31t-124 86t-83 127.5t-29.5 156.5q0 83 29.5 155.5t82.5 127t123.5 86t152.5 31.5q73 0 131 -20.5t113 -66.5q9 -7 11.5 -15.5t0.5 -16.5t-8 -13q-1 -12 -11 -19t-23.5 -6.5t-25.5 10.5q-38 33 -82 49.5t-106 16.5q-63 0 -118 -25t-97 -69
t-65.5 -102t-23.5 -123q0 -67 23.5 -124.5t65.5 -101.5t97 -69t118 -25q53 0 101 18t91 51q14 11 29 9t25.5 -13t10.5 -29q0 -8 -2.5 -15.5t-9.5 -15.5q-52 -46 -114.5 -66t-130.5 -20zM708 107l-84 18v193h-150q-18 0 -30.5 11t-12.5 28t12.5 27.5t30.5 10.5h191
q19 0 31 -12t12 -31v-245zM442 880q-24 0 -41 17t-17 42t17.5 41.5t41.5 16.5q23 0 40.5 -16.5t17.5 -41.5t-17.5 -42t-41.5 -17z" />
    <glyph glyph-name="H" unicode="H" horiz-adv-x="853" 
d="M143 0q-18 0 -30.5 12.5t-12.5 30.5v695q0 19 12.5 31t30.5 12q19 0 31.5 -12t12.5 -31v-304h480v304q0 19 12 31t31 12t31 -12t12 -31v-695q0 -18 -12 -30.5t-31 -12.5t-31 12.5t-12 30.5v314h-480v-314q0 -18 -12.5 -30.5t-31.5 -12.5z" />
    <glyph glyph-name="Hbar" unicode="&#x126;" horiz-adv-x="853" 
d="M143 0q-18 0 -30.5 12.5t-12.5 30.5v695q0 19 12.5 31t30.5 12q19 0 31.5 -12t12.5 -31v-304h480v304q0 19 12 31t31 12t31 -12t12 -31v-695q0 -18 -12 -30.5t-31 -12.5t-31 12.5t-12 30.5v314h-480v-314q0 -18 -12.5 -30.5t-31.5 -12.5zM64 582q-18 0 -30 7t-12 24
q0 18 12 25t30 7h728q19 0 30.5 -7t11.5 -25q0 -17 -11.5 -24t-30.5 -7h-728z" />
    <glyph glyph-name="Hcircumflex" unicode="&#x124;" horiz-adv-x="853" 
d="M143 0q-18 0 -30.5 12.5t-12.5 30.5v695q0 19 12.5 31t30.5 12q19 0 31.5 -12t12.5 -31v-304h480v304q0 19 12 31t31 12t31 -12t12 -31v-695q0 -18 -12 -30.5t-31 -12.5t-31 12.5t-12 30.5v314h-480v-314q0 -18 -12.5 -30.5t-31.5 -12.5zM313 862q-19 0 -31.5 10
t-12.5 27q0 22 21 37l116 76q9 6 21 6q7 0 12 -1.5t10 -4.5l115 -76q21 -15 21 -37q0 -16 -12 -26.5t-31 -10.5q-8 0 -14 2t-13 7l-88 61l-88 -61q-12 -9 -26 -9z" />
    <glyph glyph-name="I" unicode="I" horiz-adv-x="287" 
d="M143 0q-18 0 -30.5 12.5t-12.5 30.5v695q0 19 12.5 31t30.5 12q19 0 31.5 -12t12.5 -31v-695q0 -18 -12.5 -30.5t-31.5 -12.5z" />
    <glyph glyph-name="IJ" unicode="&#x132;" horiz-adv-x="643" 
d="M315 -10q-62 0 -110.5 22.5t-76.5 63.5t-28 98q0 19 12.5 31t30.5 12q19 0 31.5 -12t12.5 -31q0 -34 16.5 -57t45.5 -34.5t66 -11.5q40 0 72 20.5t50.5 55.5t18.5 79v512q0 19 12.5 31t30.5 12q19 0 31.5 -12t12.5 -31v-512q0 -67 -30 -120.5t-81.5 -84.5t-116.5 -31z
M143 290q-18 0 -30.5 12.5t-12.5 30.5v405q0 19 12.5 31t30.5 12q19 0 31.5 -12t12.5 -31v-405q0 -18 -12.5 -30.5t-31.5 -12.5z" />
    <glyph glyph-name="Iacute" unicode="&#xcd;" horiz-adv-x="287" 
d="M143 0q-18 0 -30.5 12.5t-12.5 30.5v695q0 19 12.5 31t30.5 12q19 0 31.5 -12t12.5 -31v-695q0 -18 -12.5 -30.5t-31.5 -12.5zM140 865q-18 0 -30.5 12.5t-12.5 30.5t10 29l108 108q12 12 30 12q19 0 31 -12.5t12 -31.5q0 -8 -3 -15.5t-9 -13.5l-107 -108
q-12 -11 -29 -11z" />
    <glyph glyph-name="Ibreve" unicode="&#x12c;" horiz-adv-x="287" 
d="M143 0q-18 0 -30.5 12.5t-12.5 30.5v695q0 19 12.5 31t30.5 12q19 0 31.5 -12t12.5 -31v-695q0 -18 -12.5 -30.5t-31.5 -12.5zM142 856q-43 0 -79 16t-57.5 43t-21.5 60q0 18 11.5 31t29.5 13q16 0 28.5 -10.5t12.5 -27.5q0 -23 22.5 -38.5t53.5 -15.5q36 0 56.5 15.5
t20.5 38.5q0 17 12.5 27.5t29.5 10.5q18 0 29 -12.5t11 -30.5q-1 -35 -23 -62t-57.5 -42.5t-78.5 -15.5z" />
    <glyph glyph-name="Icircumflex" unicode="&#xce;" horiz-adv-x="287" 
d="M143 0q-18 0 -30.5 12.5t-12.5 30.5v695q0 19 12.5 31t30.5 12q19 0 31.5 -12t12.5 -31v-695q0 -18 -12.5 -30.5t-31.5 -12.5zM29 862q-19 0 -31.5 10t-12.5 27q0 22 21 37l116 76q9 6 21 6q7 0 12 -1.5t10 -4.5l115 -76q21 -15 21 -37q0 -16 -12 -26.5t-31 -10.5
q-8 0 -14 2t-13 7l-88 61l-88 -61q-12 -9 -26 -9z" />
    <glyph glyph-name="uni0208" unicode="&#x208;" horiz-adv-x="287" 
d="M143 0q-18 0 -30.5 12.5t-12.5 30.5v695q0 19 12.5 31t30.5 12q19 0 31.5 -12t12.5 -31v-695q0 -18 -12.5 -30.5t-31.5 -12.5zM248 856q-21 0 -31 21l-60 125q-3 8 -3 17q0 16 12.5 29t31.5 13q13 0 24.5 -7.5t15.5 -19.5l40 -132q3 -6 3 -13q0 -16 -11 -24.5t-22 -8.5z
M100 856q-21 0 -32 21l-59 125q-2 5 -2.5 9t-1.5 8q0 16 12.5 29t31.5 13q13 0 24 -7.5t15 -19.5l42 -132q1 -3 1.5 -6.5t0.5 -6.5q0 -16 -10.5 -24.5t-21.5 -8.5z" />
    <glyph glyph-name="Idieresis" unicode="&#xcf;" horiz-adv-x="287" 
d="M143 0q-18 0 -30.5 12.5t-12.5 30.5v695q0 19 12.5 31t30.5 12q19 0 31.5 -12t12.5 -31v-695q0 -18 -12.5 -30.5t-31.5 -12.5zM37 876q-25 0 -41 16t-16 40q0 23 16 40t41 17q23 0 39.5 -17t16.5 -40q0 -24 -16.5 -40t-39.5 -16zM250 876q-24 0 -40.5 16t-16.5 40
q0 23 16.5 40t40.5 17q23 0 40 -17t17 -40q0 -24 -17 -40t-40 -16z" />
    <glyph glyph-name="Idotaccent" unicode="&#x130;" horiz-adv-x="287" 
d="M143 0q-18 0 -30.5 12.5t-12.5 30.5v695q0 19 12.5 31t30.5 12q19 0 31.5 -12t12.5 -31v-695q0 -18 -12.5 -30.5t-31.5 -12.5zM143 880q-24 0 -41 17t-17 42t17.5 41.5t41.5 16.5q23 0 40.5 -16.5t17.5 -41.5t-17.5 -42t-41.5 -17z" />
    <glyph glyph-name="uni1ECA" unicode="&#x1eca;" horiz-adv-x="287" 
d="M143 0q-18 0 -30.5 12.5t-12.5 30.5v695q0 19 12.5 31t30.5 12q19 0 31.5 -12t12.5 -31v-695q0 -18 -12.5 -30.5t-31.5 -12.5zM143 -214q-24 0 -41 17t-17 42t17.5 41.5t41.5 16.5q23 0 40.5 -16.5t17.5 -41.5t-17.5 -42t-41.5 -17z" />
    <glyph glyph-name="Igrave" unicode="&#xcc;" horiz-adv-x="287" 
d="M143 0q-18 0 -30.5 12.5t-12.5 30.5v695q0 19 12.5 31t30.5 12q19 0 31.5 -12t12.5 -31v-695q0 -18 -12.5 -30.5t-31.5 -12.5zM141 869q-17 0 -29 12l-108 107q-11 12 -11 30t12 31t30 13t31 -13l107 -108q11 -10 11 -28q0 -19 -12 -31.5t-31 -12.5z" />
    <glyph glyph-name="uni1EC8" unicode="&#x1ec8;" horiz-adv-x="287" 
d="M143 0q-18 0 -30.5 12.5t-12.5 30.5v695q0 19 12.5 31t30.5 12q19 0 31.5 -12t12.5 -31v-695q0 -18 -12.5 -30.5t-31.5 -12.5zM143 833q-16 0 -27.5 11.5t-11.5 27.5v26q0 35 35 42l25 6q20 4 30.5 14.5t10.5 27.5q0 22 -13.5 33t-34.5 11q-13 0 -24.5 -5t-20.5 -11
q-5 -5 -12.5 -7.5t-14.5 -2.5q-14 0 -24 8.5t-10 24.5q0 19 13 30q20 15 42 23t50 8q51 0 85 -30t34 -77q0 -48 -31 -71.5t-74 -29.5l11 -8q0 -25 -11 -38t-27 -13z" />
    <glyph glyph-name="uni020A" unicode="&#x20a;" horiz-adv-x="287" 
d="M143 0q-18 0 -30.5 12.5t-12.5 30.5v695q0 19 12.5 31t30.5 12q19 0 31.5 -12t12.5 -31v-695q0 -18 -12.5 -30.5t-31.5 -12.5zM25 856q-18 0 -29.5 12.5t-11.5 30.5q0 34 21.5 61t57.5 42.5t80 15.5q42 0 77.5 -15t57.5 -42t23 -62q0 -18 -11 -30.5t-29 -12.5
q-17 0 -29.5 10t-12.5 27q0 23 -20.5 39t-55.5 16q-32 0 -54.5 -16t-22.5 -39q0 -17 -12.5 -27t-28.5 -10z" />
    <glyph glyph-name="Imacron" unicode="&#x12a;" horiz-adv-x="287" 
d="M143 0q-18 0 -30.5 12.5t-12.5 30.5v695q0 19 12.5 31t30.5 12q19 0 31.5 -12t12.5 -31v-695q0 -18 -12.5 -30.5t-31.5 -12.5zM15 887q-18 0 -30.5 10.5t-12.5 28.5t12.5 28.5t30.5 10.5h256q18 0 30.5 -10.5t12.5 -28.5t-12.5 -28.5t-30.5 -10.5h-256z" />
    <glyph glyph-name="Iogonek" unicode="&#x12e;" horiz-adv-x="287" 
d="M143 0q-18 0 -30.5 12.5t-12.5 30.5v695q0 19 12.5 31t30.5 12q19 0 31.5 -12t12.5 -31v-695q0 -18 -12.5 -30.5t-31.5 -12.5zM143 -267q-32 0 -59 16t-43.5 43.5t-16.5 60.5q0 56 50 98q13 9 20.5 18.5t11.5 18.5q12 22 37 22q19 0 30.5 -11.5t12.5 -30.5
q0 -22 -15.5 -43t-46.5 -44q-7 -5 -10.5 -13t-3.5 -15q0 -14 9.5 -24t23.5 -10q5 0 10 1.5t8 4.5l33 24q13 9 26 9q19 0 31 -12.5t12 -30.5q0 -20 -15 -35l-39 -25q-30 -22 -66 -22z" />
    <glyph glyph-name="Itilde" unicode="&#x128;" horiz-adv-x="287" 
d="M143 0q-18 0 -30.5 12.5t-12.5 30.5v695q0 19 12.5 31t30.5 12q19 0 31.5 -12t12.5 -31v-695q0 -18 -12.5 -30.5t-31.5 -12.5zM209 871q-25 0 -45.5 11.5t-35.5 27.5q-13 13 -22 19.5t-20 6.5q-12 0 -20 -9.5t-16 -24.5q-8 -14 -21.5 -19.5t-28.5 0.5t-20 20t3 29
q19 39 43 56.5t54 17.5q31 0 49.5 -14t32.5 -26q15 -13 23.5 -17.5t15.5 -4.5q13 0 24 21q8 14 22 20.5t28 1.5q17 -7 22.5 -21.5t-2.5 -29.5q-18 -35 -39 -50t-47 -15z" />
    <glyph glyph-name="J" unicode="J" horiz-adv-x="618" 
d="M282 -10q-68 0 -121.5 31t-84.5 84.5t-31 120.5q0 19 12.5 31t30.5 12q19 0 31.5 -12t12.5 -31q0 -44 19.5 -79.5t53.5 -55.5t77 -20q42 0 76 20.5t53.5 55.5t19.5 79v512q0 19 12.5 31t30.5 12q19 0 31.5 -12t12.5 -31v-512q0 -67 -31 -120.5t-84.5 -84.5t-120.5 -31z
" />
    <glyph glyph-name="Jcircumflex" unicode="&#x134;" horiz-adv-x="618" 
d="M282 -10q-68 0 -121.5 31t-84.5 84.5t-31 120.5q0 19 12.5 31t30.5 12q19 0 31.5 -12t12.5 -31q0 -44 19.5 -79.5t53.5 -55.5t77 -20q42 0 76 20.5t53.5 55.5t19.5 79v512q0 19 12.5 31t30.5 12q19 0 31.5 -12t12.5 -31v-512q0 -67 -31 -120.5t-84.5 -84.5t-120.5 -31z
M361 862q-19 0 -31.5 10t-12.5 27q0 22 21 37l116 76q9 6 21 6q7 0 12 -1.5t10 -4.5l115 -76q21 -15 21 -37q0 -16 -12 -26.5t-31 -10.5q-8 0 -14 2t-13 7l-88 61l-88 -61q-12 -9 -26 -9z" />
    <glyph glyph-name="K" unicode="K" horiz-adv-x="659" 
d="M143 0q-17 0 -30 12.5t-13 30.5v695q0 18 13 30.5t30 12.5q18 0 31 -12.5t13 -30.5v-327l353 354q10 9 18 12.5t17 3.5q21 0 30.5 -12.5t8 -29.5t-14.5 -32l-268 -268l272 -370q10 -14 8 -30.5t-12.5 -27.5t-26.5 -11q-24 0 -36 19l-266 359l-83 -84v-251
q0 -18 -13 -30.5t-31 -12.5z" />
    <glyph glyph-name="uni0136" unicode="&#x136;" horiz-adv-x="659" 
d="M143 0q-17 0 -30 12.5t-13 30.5v695q0 18 13 30.5t30 12.5q18 0 31 -12.5t13 -30.5v-327l353 354q10 9 18 12.5t17 3.5q21 0 30.5 -12.5t8 -29.5t-14.5 -32l-268 -268l272 -370q10 -14 8 -30.5t-12.5 -27.5t-26.5 -11q-24 0 -36 19l-266 359l-83 -84v-251
q0 -18 -13 -30.5t-31 -12.5zM335 -241q-26 0 -54.5 8.5t-48 25t-19.5 40.5q0 13 8.5 21t22.5 8t23.5 -6t18 -15t21 -15.5t34.5 -6.5q29 0 42.5 10t13.5 30q0 19 -17 30t-54 11q-21 0 -33.5 7.5t-12.5 22.5q0 31 51 31q57 0 93 -28t36 -72q0 -47 -36 -74.5t-89 -27.5z" />
    <glyph glyph-name="L" unicode="L" horiz-adv-x="636" 
d="M143 0q-18 0 -30.5 12.5t-12.5 30.5v695q0 18 12.5 30.5t30.5 12.5t30.5 -12.5t12.5 -30.5v-654h382q18 0 30.5 -12t12.5 -30t-12.5 -30t-30.5 -12h-425z" />
    <glyph glyph-name="Lacute" unicode="&#x139;" horiz-adv-x="636" 
d="M143 0q-18 0 -30.5 12.5t-12.5 30.5v695q0 18 12.5 30.5t30.5 12.5t30.5 -12.5t12.5 -30.5v-654h382q18 0 30.5 -12t12.5 -30t-12.5 -30t-30.5 -12h-425zM140 865q-18 0 -30.5 12.5t-12.5 30.5t10 29l108 108q12 12 30 12q19 0 31 -12.5t12 -31.5q0 -8 -3 -15.5t-9 -13.5
l-107 -108q-12 -11 -29 -11z" />
    <glyph glyph-name="Lcaron" unicode="&#x13d;" horiz-adv-x="636" 
d="M143 0q-18 0 -30.5 12.5t-12.5 30.5v695q0 18 12.5 30.5t30.5 12.5t30.5 -12.5t12.5 -30.5v-654h382q18 0 30.5 -12t12.5 -30t-12.5 -30t-30.5 -12h-425zM382 517q-11 2 -17 8.5t-5 17.5q2 14 13.5 30.5t23.5 36t15 45.5q2 20 -2.5 32.5t-9.5 25.5t-5 33q0 21 14 30.5
t33 9.5q31 0 46 -29t9 -68q-3 -30 -16.5 -61t-32 -57t-36.5 -41t-30 -13z" />
    <glyph glyph-name="uni013B" unicode="&#x13b;" horiz-adv-x="636" 
d="M143 0q-18 0 -30.5 12.5t-12.5 30.5v695q0 18 12.5 30.5t30.5 12.5t30.5 -12.5t12.5 -30.5v-654h382q18 0 30.5 -12t12.5 -30t-12.5 -30t-30.5 -12h-425zM333 -241q-26 0 -54.5 8.5t-48 25t-19.5 40.5q0 13 8.5 21t22.5 8t23.5 -6t18 -15t21 -15.5t34.5 -6.5
q29 0 42.5 10t13.5 30q0 19 -17 30t-54 11q-21 0 -33.5 7.5t-12.5 22.5q0 31 51 31q57 0 93 -28t36 -72q0 -47 -36 -74.5t-89 -27.5z" />
    <glyph glyph-name="Ldot" unicode="&#x13f;" horiz-adv-x="586" 
d="M143 0q-18 0 -30.5 12.5t-12.5 30.5v695q0 18 12.5 30.5t30.5 12.5t30.5 -12.5t12.5 -30.5v-654h382q18 0 30.5 -12t12.5 -30t-12.5 -30t-30.5 -12h-425zM443 308q-26 0 -44.5 17.5t-18.5 44.5q0 26 18.5 44t44.5 18q25 0 43 -18.5t18 -44.5q0 -25 -18 -43t-43 -18z" />
    <glyph glyph-name="Lslash" unicode="&#x141;" horiz-adv-x="664" 
d="M159 0q-19 0 -31.5 12.5t-12.5 30.5v246l-30 -31q-11 -12 -29 -12t-31 12.5t-13 30.5t12 31l91 91v327q0 19 12.5 31t31.5 12q18 0 30.5 -12t12.5 -31v-243l117 115q7 6 14.5 9.5t16.5 3.5q18 0 31 -13.5t13 -31.5q0 -17 -13 -30l-179 -174v-287h381q18 0 31 -13t13 -31
t-13 -30.5t-31 -12.5h-424z" />
    <glyph glyph-name="M" unicode="M" horiz-adv-x="981" 
d="M143 0q-18 0 -30.5 12.5t-12.5 30.5v695q0 19 12.5 31t30.5 12q26 0 39 -23l329 -655h-33l322 655q13 23 39 23q18 0 30 -12t12 -31v-695q0 -18 -12.5 -30.5t-29.5 -12.5q-19 0 -31.5 12.5t-12.5 30.5v579l18 1l-284 -580q-13 -21 -38 -21q-28 0 -40 26l-284 569l20 5
v-579q0 -18 -13 -30.5t-31 -12.5z" />
    <glyph glyph-name="N" unicode="N" horiz-adv-x="827" 
d="M143 0q-19 0 -31 12.5t-12 30.5v695q0 19 12 31t31 12q20 0 33 -16l464 -612v585q0 19 12.5 31t31.5 12q18 0 30.5 -12t12.5 -31v-695q0 -18 -12.5 -30.5t-30.5 -12.5q-9 0 -18 3.5t-15 11.5l-465 612v-584q0 -18 -12.5 -30.5t-30.5 -12.5z" />
    <glyph glyph-name="Nacute" unicode="&#x143;" horiz-adv-x="827" 
d="M143 0q-19 0 -31 12.5t-12 30.5v695q0 19 12 31t31 12q20 0 33 -16l464 -612v585q0 19 12.5 31t31.5 12q18 0 30.5 -12t12.5 -31v-695q0 -18 -12.5 -30.5t-30.5 -12.5q-9 0 -18 3.5t-15 11.5l-465 612v-584q0 -18 -12.5 -30.5t-30.5 -12.5zM411 865q-18 0 -30.5 12.5
t-12.5 30.5t10 29l108 108q12 12 30 12q19 0 31 -12.5t12 -31.5q0 -8 -3 -15.5t-9 -13.5l-107 -108q-12 -11 -29 -11z" />
    <glyph glyph-name="Ncaron" unicode="&#x147;" horiz-adv-x="827" 
d="M143 0q-19 0 -31 12.5t-12 30.5v695q0 19 12 31t31 12q20 0 33 -16l464 -612v585q0 19 12.5 31t31.5 12q18 0 30.5 -12t12.5 -31v-695q0 -18 -12.5 -30.5t-30.5 -12.5q-9 0 -18 3.5t-15 11.5l-465 612v-584q0 -18 -12.5 -30.5t-30.5 -12.5zM414 868q-14 0 -21 6l-116 77
q-21 15 -21 36q0 20 21 28.5t49 -11.5l88 -59l88 59q32 21 51 11.5t19 -28.5q0 -21 -21 -36l-115 -77q-8 -6 -22 -6z" />
    <glyph glyph-name="uni0145" unicode="&#x145;" horiz-adv-x="827" 
d="M143 0q-19 0 -31 12.5t-12 30.5v695q0 19 12 31t31 12q20 0 33 -16l464 -612v585q0 19 12.5 31t31.5 12q18 0 30.5 -12t12.5 -31v-695q0 -18 -12.5 -30.5t-30.5 -12.5q-9 0 -18 3.5t-15 11.5l-465 612v-584q0 -18 -12.5 -30.5t-30.5 -12.5zM418 -241q-26 0 -54.5 8.5
t-48 25t-19.5 40.5q0 13 8.5 21t22.5 8t23.5 -6t18 -15t21 -15.5t34.5 -6.5q29 0 42.5 10t13.5 30q0 19 -17 30t-54 11q-21 0 -33.5 7.5t-12.5 22.5q0 31 51 31q57 0 93 -28t36 -72q0 -47 -36 -74.5t-89 -27.5z" />
    <glyph glyph-name="Eng" unicode="&#x14a;" horiz-adv-x="727" 
d="M428 -9q-40 0 -76 12.5t-62.5 37.5t-38.5 60q-5 17 2 30t22 17t28.5 -4t20.5 -24q11 -24 40 -36t61 -12q79 0 112.5 70t33.5 212v114q0 71 -22.5 122.5t-65.5 80t-107 28.5q-57 0 -100 -20t-66.5 -55.5t-23.5 -82.5v141q34 47 82 73t112 26q83 0 145.5 -39t97 -108.5
t34.5 -161.5v-118q0 -179 -59.5 -271t-169.5 -92zM143 0q-19 0 -31 12.5t-12 30.5v695q0 19 12 31t31 12q18 0 30.5 -12t12.5 -31v-695q0 -18 -12.5 -30.5t-30.5 -12.5z" />
    <glyph glyph-name="Ntilde" unicode="&#xd1;" horiz-adv-x="827" 
d="M143 0q-19 0 -31 12.5t-12 30.5v695q0 19 12 31t31 12q20 0 33 -16l464 -612v585q0 19 12.5 31t31.5 12q18 0 30.5 -12t12.5 -31v-695q0 -18 -12.5 -30.5t-30.5 -12.5q-9 0 -18 3.5t-15 11.5l-465 612v-584q0 -18 -12.5 -30.5t-30.5 -12.5zM519 859q-32 0 -56.5 11.5
t-41.5 21.5q-22 12 -36 17.5t-26 5.5q-17 0 -31.5 -7.5t-28.5 -25.5q-10 -14 -25 -19t-30 3q-14 7 -16.5 23t7.5 30q24 32 57 49.5t70 17.5q32 0 55.5 -11t39.5 -20q21 -13 33.5 -18.5t27.5 -5.5t26 5t20 14q12 12 24 17t27 -4q14 -8 16.5 -24.5t-8.5 -30.5
q-39 -49 -104 -49z" />
    <glyph glyph-name="O" unicode="O" horiz-adv-x="921" 
d="M461 -10q-87 0 -160 30t-126.5 83.5t-82.5 127t-29 160.5t29 160t82.5 126.5t126.5 83.5t160 30t159.5 -30t126.5 -83.5t83 -126.5t29 -160t-29 -160.5t-83 -127t-126.5 -83.5t-159.5 -30zM461 71q68 0 125.5 24t99.5 67.5t65.5 102t23.5 126.5t-23.5 126t-65.5 101.5
t-99.5 67.5t-125.5 24t-125.5 -24t-100 -67.5t-65.5 -101.5t-23 -126t23 -126.5t65.5 -102t100 -67.5t125.5 -24z" />
    <glyph glyph-name="Oacute" unicode="&#xd3;" horiz-adv-x="921" 
d="M461 -10q-87 0 -160 30t-126.5 83.5t-82.5 127t-29 160.5t29 160t82.5 126.5t126.5 83.5t160 30t159.5 -30t126.5 -83.5t83 -126.5t29 -160t-29 -160.5t-83 -127t-126.5 -83.5t-159.5 -30zM461 71q68 0 125.5 24t99.5 67.5t65.5 102t23.5 126.5t-23.5 126t-65.5 101.5
t-99.5 67.5t-125.5 24t-125.5 -24t-100 -67.5t-65.5 -101.5t-23 -126t23 -126.5t65.5 -102t100 -67.5t125.5 -24zM458 865q-18 0 -30.5 12.5t-12.5 30.5t10 29l108 108q12 12 30 12q19 0 31 -12.5t12 -31.5q0 -8 -3 -15.5t-9 -13.5l-107 -108q-12 -11 -29 -11z" />
    <glyph glyph-name="Obreve" unicode="&#x14e;" horiz-adv-x="921" 
d="M461 -10q-87 0 -160 30t-126.5 83.5t-82.5 127t-29 160.5t29 160t82.5 126.5t126.5 83.5t160 30t159.5 -30t126.5 -83.5t83 -126.5t29 -160t-29 -160.5t-83 -127t-126.5 -83.5t-159.5 -30zM461 71q68 0 125.5 24t99.5 67.5t65.5 102t23.5 126.5t-23.5 126t-65.5 101.5
t-99.5 67.5t-125.5 24t-125.5 -24t-100 -67.5t-65.5 -101.5t-23 -126t23 -126.5t65.5 -102t100 -67.5t125.5 -24zM460 856q-43 0 -79 16t-57.5 43t-21.5 60q0 18 11.5 31t29.5 13q16 0 28.5 -10.5t12.5 -27.5q0 -23 22.5 -38.5t53.5 -15.5q36 0 56.5 15.5t20.5 38.5
q0 17 12.5 27.5t29.5 10.5q18 0 29 -12.5t11 -30.5q-1 -35 -23 -62t-57.5 -42.5t-78.5 -15.5z" />
    <glyph glyph-name="Ocircumflex" unicode="&#xd4;" horiz-adv-x="921" 
d="M461 -10q-87 0 -160 30t-126.5 83.5t-82.5 127t-29 160.5t29 160t82.5 126.5t126.5 83.5t160 30t159.5 -30t126.5 -83.5t83 -126.5t29 -160t-29 -160.5t-83 -127t-126.5 -83.5t-159.5 -30zM461 71q68 0 125.5 24t99.5 67.5t65.5 102t23.5 126.5t-23.5 126t-65.5 101.5
t-99.5 67.5t-125.5 24t-125.5 -24t-100 -67.5t-65.5 -101.5t-23 -126t23 -126.5t65.5 -102t100 -67.5t125.5 -24zM347 862q-19 0 -31.5 10t-12.5 27q0 22 21 37l116 76q9 6 21 6q7 0 12 -1.5t10 -4.5l115 -76q21 -15 21 -37q0 -16 -12 -26.5t-31 -10.5q-8 0 -14 2t-13 7
l-88 61l-88 -61q-12 -9 -26 -9z" />
    <glyph glyph-name="uni1ED0" unicode="&#x1ed0;" horiz-adv-x="921" 
d="M461 -10q-87 0 -160 30t-126.5 83.5t-82.5 127t-29 160.5t29 160t82.5 126.5t126.5 83.5t160 30t159.5 -30t126.5 -83.5t83 -126.5t29 -160t-29 -160.5t-83 -127t-126.5 -83.5t-159.5 -30zM461 71q68 0 125.5 24t99.5 67.5t65.5 102t23.5 126.5t-23.5 126t-65.5 101.5
t-99.5 67.5t-125.5 24t-125.5 -24t-100 -67.5t-65.5 -101.5t-23 -126t23 -126.5t65.5 -102t100 -67.5t125.5 -24zM347 862q-19 0 -31.5 10t-12.5 27q0 22 21 37l116 76q9 6 21 6q7 0 12 -1.5t10 -4.5l115 -76q21 -15 21 -37q0 -16 -12 -26.5t-31 -10.5q-8 0 -14 2t-13 7
l-88 61l-88 -61q-12 -9 -26 -9zM556 1026q-18 0 -30.5 12t-12.5 31q0 17 10 28l108 108q13 13 30 13q20 0 31.5 -13t11.5 -31q0 -8 -2.5 -16t-9.5 -13l-107 -108q-11 -11 -29 -11z" />
    <glyph glyph-name="uni1ED8" unicode="&#x1ed8;" horiz-adv-x="921" 
d="M461 -10q-87 0 -160 30t-126.5 83.5t-82.5 127t-29 160.5t29 160t82.5 126.5t126.5 83.5t160 30t159.5 -30t126.5 -83.5t83 -126.5t29 -160t-29 -160.5t-83 -127t-126.5 -83.5t-159.5 -30zM461 71q68 0 125.5 24t99.5 67.5t65.5 102t23.5 126.5t-23.5 126t-65.5 101.5
t-99.5 67.5t-125.5 24t-125.5 -24t-100 -67.5t-65.5 -101.5t-23 -126t23 -126.5t65.5 -102t100 -67.5t125.5 -24zM347 862q-19 0 -31.5 10t-12.5 27q0 22 21 37l116 76q9 6 21 6q7 0 12 -1.5t10 -4.5l115 -76q21 -15 21 -37q0 -16 -12 -26.5t-31 -10.5q-8 0 -14 2t-13 7
l-88 61l-88 -61q-12 -9 -26 -9zM460 -214q-24 0 -41 17t-17 42t17.5 41.5t41.5 16.5q23 0 40.5 -16.5t17.5 -41.5t-17.5 -42t-41.5 -17z" />
    <glyph glyph-name="uni1ED2" unicode="&#x1ed2;" horiz-adv-x="921" 
d="M461 -10q-87 0 -160 30t-126.5 83.5t-82.5 127t-29 160.5t29 160t82.5 126.5t126.5 83.5t160 30t159.5 -30t126.5 -83.5t83 -126.5t29 -160t-29 -160.5t-83 -127t-126.5 -83.5t-159.5 -30zM461 71q68 0 125.5 24t99.5 67.5t65.5 102t23.5 126.5t-23.5 126t-65.5 101.5
t-99.5 67.5t-125.5 24t-125.5 -24t-100 -67.5t-65.5 -101.5t-23 -126t23 -126.5t65.5 -102t100 -67.5t125.5 -24zM347 862q-19 0 -31.5 10t-12.5 27q0 22 21 37l116 76q9 6 21 6q7 0 12 -1.5t10 -4.5l115 -76q21 -15 21 -37q0 -16 -12 -26.5t-31 -10.5q-8 0 -14 2t-13 7
l-88 61l-88 -61q-12 -9 -26 -9zM559 1030q-18 0 -29 12l-108 107q-11 11 -11 29q0 19 12 31.5t30 12.5q17 0 31 -13l107 -108q11 -10 11 -28t-12.5 -30.5t-30.5 -12.5z" />
    <glyph glyph-name="uni1ED4" unicode="&#x1ed4;" horiz-adv-x="921" 
d="M461 -10q-87 0 -160 30t-126.5 83.5t-82.5 127t-29 160.5t29 160t82.5 126.5t126.5 83.5t160 30t159.5 -30t126.5 -83.5t83 -126.5t29 -160t-29 -160.5t-83 -127t-126.5 -83.5t-159.5 -30zM461 71q68 0 125.5 24t99.5 67.5t65.5 102t23.5 126.5t-23.5 126t-65.5 101.5
t-99.5 67.5t-125.5 24t-125.5 -24t-100 -67.5t-65.5 -101.5t-23 -126t23 -126.5t65.5 -102t100 -67.5t125.5 -24zM351 862q-19 0 -31.5 10t-12.5 27q0 22 21 37l116 76q9 6 21 6q7 0 12 -1.5t10 -4.5l115 -76q21 -15 21 -37q0 -16 -12 -26.5t-31 -10.5q-8 0 -14 2t-13 7
l-88 61l-88 -61q-12 -9 -26 -9zM564 994q-17 0 -28 11t-11 28v26q0 34 34 42l26 5q19 5 30 15.5t11 27.5q0 21 -14 32t-34 11q-13 0 -24.5 -4.5t-20.5 -11.5q-5 -5 -13 -7t-15 -2q-13 0 -23 8.5t-10 24.5q0 18 13 29q19 16 41 24t51 8q51 0 84.5 -30.5t33.5 -77.5
q1 -48 -30.5 -71t-74.5 -29l12 -8q0 -26 -11.5 -38.5t-26.5 -12.5z" />
    <glyph glyph-name="uni1ED6" unicode="&#x1ed6;" horiz-adv-x="921" 
d="M461 -10q-87 0 -160 30t-126.5 83.5t-82.5 127t-29 160.5t29 160t82.5 126.5t126.5 83.5t160 30t159.5 -30t126.5 -83.5t83 -126.5t29 -160t-29 -160.5t-83 -127t-126.5 -83.5t-159.5 -30zM461 71q68 0 125.5 24t99.5 67.5t65.5 102t23.5 126.5t-23.5 126t-65.5 101.5
t-99.5 67.5t-125.5 24t-125.5 -24t-100 -67.5t-65.5 -101.5t-23 -126t23 -126.5t65.5 -102t100 -67.5t125.5 -24zM350 862q-19 0 -31.5 10t-12.5 27q0 22 21 37l116 76q10 6 21 6q7 0 12.5 -1.5t10.5 -4.5l115 -76q20 -15 20 -37q0 -16 -12 -26.5t-30 -10.5q-8 0 -14.5 2
t-12.5 7l-89 61l-88 -61q-12 -9 -26 -9zM523 1045q-25 0 -45 11.5t-36 26.5q-13 12 -22.5 19t-20.5 7t-19 -9t-17 -25q-7 -14 -21 -19.5t-28 0.5t-19.5 20t2.5 29q19 39 43 56.5t54 17.5q31 0 49.5 -14t32.5 -26q15 -13 23.5 -17.5t15.5 -4.5q13 0 24 21q8 14 22 20.5
t28 1.5q17 -7 23 -21t-3 -29q-18 -35 -39 -50t-47 -15z" />
    <glyph glyph-name="uni020C" unicode="&#x20c;" horiz-adv-x="921" 
d="M461 -10q-87 0 -160 30t-126.5 83.5t-82.5 127t-29 160.5t29 160t82.5 126.5t126.5 83.5t160 30t159.5 -30t126.5 -83.5t83 -126.5t29 -160t-29 -160.5t-83 -127t-126.5 -83.5t-159.5 -30zM461 71q68 0 125.5 24t99.5 67.5t65.5 102t23.5 126.5t-23.5 126t-65.5 101.5
t-99.5 67.5t-125.5 24t-125.5 -24t-100 -67.5t-65.5 -101.5t-23 -126t23 -126.5t65.5 -102t100 -67.5t125.5 -24zM566 856q-21 0 -31 21l-60 125q-3 8 -3 17q0 16 12.5 29t31.5 13q13 0 24.5 -7.5t15.5 -19.5l40 -132q3 -6 3 -13q0 -16 -11 -24.5t-22 -8.5zM418 856
q-21 0 -32 21l-59 125q-2 5 -2.5 9t-1.5 8q0 16 12.5 29t31.5 13q13 0 24 -7.5t15 -19.5l42 -132q1 -3 1.5 -6.5t0.5 -6.5q0 -16 -10.5 -24.5t-21.5 -8.5z" />
    <glyph glyph-name="Odieresis" unicode="&#xd6;" horiz-adv-x="921" 
d="M461 -10q-87 0 -160 30t-126.5 83.5t-82.5 127t-29 160.5t29 160t82.5 126.5t126.5 83.5t160 30t159.5 -30t126.5 -83.5t83 -126.5t29 -160t-29 -160.5t-83 -127t-126.5 -83.5t-159.5 -30zM461 71q68 0 125.5 24t99.5 67.5t65.5 102t23.5 126.5t-23.5 126t-65.5 101.5
t-99.5 67.5t-125.5 24t-125.5 -24t-100 -67.5t-65.5 -101.5t-23 -126t23 -126.5t65.5 -102t100 -67.5t125.5 -24zM355 876q-25 0 -41 16t-16 40q0 23 16 40t41 17q23 0 39.5 -17t16.5 -40q0 -24 -16.5 -40t-39.5 -16zM568 876q-24 0 -40.5 16t-16.5 40q0 23 16.5 40t40.5 17
q23 0 40 -17t17 -40q0 -24 -17 -40t-40 -16z" />
    <glyph glyph-name="uni022A" unicode="&#x22a;" horiz-adv-x="921" 
d="M461 -10q-87 0 -160 30t-126.5 83.5t-82.5 127t-29 160.5t29 160t82.5 126.5t126.5 83.5t160 30t159.5 -30t126.5 -83.5t83 -126.5t29 -160t-29 -160.5t-83 -127t-126.5 -83.5t-159.5 -30zM461 71q68 0 125.5 24t99.5 67.5t65.5 102t23.5 126.5t-23.5 126t-65.5 101.5
t-99.5 67.5t-125.5 24t-125.5 -24t-100 -67.5t-65.5 -101.5t-23 -126t23 -126.5t65.5 -102t100 -67.5t125.5 -24zM355 876q-25 0 -41 16t-16 40q0 23 16 40t41 17q23 0 39.5 -17t16.5 -40q0 -24 -16.5 -40t-39.5 -16zM568 876q-24 0 -40.5 16t-16.5 40q0 23 16.5 40t40.5 17
q23 0 40 -17t17 -40q0 -24 -17 -40t-40 -16zM333 1083q-18 0 -30.5 10.5t-12.5 28.5t12.5 28.5t30.5 10.5h256q18 0 30.5 -10.5t12.5 -28.5t-12.5 -28.5t-30.5 -10.5h-256z" />
    <glyph glyph-name="uni0230" unicode="&#x230;" horiz-adv-x="921" 
d="M461 -10q-87 0 -160 30t-126.5 83.5t-82.5 127t-29 160.5t29 160t82.5 126.5t126.5 83.5t160 30t159.5 -30t126.5 -83.5t83 -126.5t29 -160t-29 -160.5t-83 -127t-126.5 -83.5t-159.5 -30zM461 71q68 0 125.5 24t99.5 67.5t65.5 102t23.5 126.5t-23.5 126t-65.5 101.5
t-99.5 67.5t-125.5 24t-125.5 -24t-100 -67.5t-65.5 -101.5t-23 -126t23 -126.5t65.5 -102t100 -67.5t125.5 -24zM460 880q-24 0 -41 17t-17 42t17.5 41.5t41.5 16.5q23 0 40.5 -16.5t17.5 -41.5t-17.5 -42t-41.5 -17zM333 1060q-18 0 -30.5 10.5t-12.5 28.5t12.5 28.5
t30.5 10.5h256q18 0 30.5 -10.5t12.5 -28.5t-12.5 -28.5t-30.5 -10.5h-256z" />
    <glyph glyph-name="uni1ECC" unicode="&#x1ecc;" horiz-adv-x="921" 
d="M461 -10q-87 0 -160 30t-126.5 83.5t-82.5 127t-29 160.5t29 160t82.5 126.5t126.5 83.5t160 30t159.5 -30t126.5 -83.5t83 -126.5t29 -160t-29 -160.5t-83 -127t-126.5 -83.5t-159.5 -30zM461 71q68 0 125.5 24t99.5 67.5t65.5 102t23.5 126.5t-23.5 126t-65.5 101.5
t-99.5 67.5t-125.5 24t-125.5 -24t-100 -67.5t-65.5 -101.5t-23 -126t23 -126.5t65.5 -102t100 -67.5t125.5 -24zM460 -214q-24 0 -41 17t-17 42t17.5 41.5t41.5 16.5q23 0 40.5 -16.5t17.5 -41.5t-17.5 -42t-41.5 -17z" />
    <glyph glyph-name="Ograve" unicode="&#xd2;" horiz-adv-x="921" 
d="M461 -10q-87 0 -160 30t-126.5 83.5t-82.5 127t-29 160.5t29 160t82.5 126.5t126.5 83.5t160 30t159.5 -30t126.5 -83.5t83 -126.5t29 -160t-29 -160.5t-83 -127t-126.5 -83.5t-159.5 -30zM461 71q68 0 125.5 24t99.5 67.5t65.5 102t23.5 126.5t-23.5 126t-65.5 101.5
t-99.5 67.5t-125.5 24t-125.5 -24t-100 -67.5t-65.5 -101.5t-23 -126t23 -126.5t65.5 -102t100 -67.5t125.5 -24zM459 869q-17 0 -29 12l-108 107q-11 12 -11 30t12 31t30 13t31 -13l107 -108q11 -10 11 -28q0 -19 -12 -31.5t-31 -12.5z" />
    <glyph glyph-name="uni1ECE" unicode="&#x1ece;" horiz-adv-x="921" 
d="M461 -10q-87 0 -160 30t-126.5 83.5t-82.5 127t-29 160.5t29 160t82.5 126.5t126.5 83.5t160 30t159.5 -30t126.5 -83.5t83 -126.5t29 -160t-29 -160.5t-83 -127t-126.5 -83.5t-159.5 -30zM461 71q68 0 125.5 24t99.5 67.5t65.5 102t23.5 126.5t-23.5 126t-65.5 101.5
t-99.5 67.5t-125.5 24t-125.5 -24t-100 -67.5t-65.5 -101.5t-23 -126t23 -126.5t65.5 -102t100 -67.5t125.5 -24zM460 833q-16 0 -27.5 11.5t-11.5 27.5v26q0 35 35 42l25 6q20 4 30.5 14.5t10.5 27.5q0 22 -13.5 33t-34.5 11q-13 0 -24.5 -5t-20.5 -11q-5 -5 -12.5 -7.5
t-14.5 -2.5q-14 0 -24 8.5t-10 24.5q0 19 13 30q20 15 42 23t50 8q51 0 85 -30t34 -77q0 -48 -31 -71.5t-74 -29.5l11 -8q0 -25 -11 -38t-27 -13z" />
    <glyph glyph-name="Ohorn" unicode="&#x1a0;" horiz-adv-x="921" 
d="M461 -10q-87 0 -160 30t-126.5 83.5t-82.5 127t-29 160.5t29 160t82.5 126.5t126.5 83.5t160 30t159.5 -30t126.5 -83.5t83 -126.5t29 -160t-29 -160.5t-83 -127t-126.5 -83.5t-159.5 -30zM461 71q68 0 125.5 24t99.5 67.5t65.5 102t23.5 126.5t-23.5 126t-65.5 101.5
t-99.5 67.5t-125.5 24t-125.5 -24t-100 -67.5t-65.5 -101.5t-23 -126t23 -126.5t65.5 -102t100 -67.5t125.5 -24zM652 668v77h45q18 0 31 16t13 43v20q0 19 10.5 30.5t27.5 11.5q19 0 29 -14t10 -34v-14q0 -39 -16 -70t-43 -48.5t-62 -17.5h-45z" />
    <glyph glyph-name="uni1EDA" unicode="&#x1eda;" horiz-adv-x="921" 
d="M461 -10q-87 0 -160 30t-126.5 83.5t-82.5 127t-29 160.5t29 160t82.5 126.5t126.5 83.5t160 30t159.5 -30t126.5 -83.5t83 -126.5t29 -160t-29 -160.5t-83 -127t-126.5 -83.5t-159.5 -30zM461 71q68 0 125.5 24t99.5 67.5t65.5 102t23.5 126.5t-23.5 126t-65.5 101.5
t-99.5 67.5t-125.5 24t-125.5 -24t-100 -67.5t-65.5 -101.5t-23 -126t23 -126.5t65.5 -102t100 -67.5t125.5 -24zM652 668v77h45q18 0 31 16t13 43v20q0 19 10.5 30.5t27.5 11.5q19 0 29 -14t10 -34v-14q0 -39 -16 -70t-43 -48.5t-62 -17.5h-45zM458 865q-18 0 -30.5 12.5
t-12.5 30.5t10 29l108 108q12 12 30 12q19 0 31 -12.5t12 -31.5q0 -8 -3 -15.5t-9 -13.5l-107 -108q-12 -11 -29 -11z" />
    <glyph glyph-name="uni1EE2" unicode="&#x1ee2;" horiz-adv-x="921" 
d="M461 -10q-87 0 -160 30t-126.5 83.5t-82.5 127t-29 160.5t29 160t82.5 126.5t126.5 83.5t160 30t159.5 -30t126.5 -83.5t83 -126.5t29 -160t-29 -160.5t-83 -127t-126.5 -83.5t-159.5 -30zM461 71q68 0 125.5 24t99.5 67.5t65.5 102t23.5 126.5t-23.5 126t-65.5 101.5
t-99.5 67.5t-125.5 24t-125.5 -24t-100 -67.5t-65.5 -101.5t-23 -126t23 -126.5t65.5 -102t100 -67.5t125.5 -24zM652 668v77h45q18 0 31 16t13 43v20q0 19 10.5 30.5t27.5 11.5q19 0 29 -14t10 -34v-14q0 -39 -16 -70t-43 -48.5t-62 -17.5h-45zM460 -214q-24 0 -41 17
t-17 42t17.5 41.5t41.5 16.5q23 0 40.5 -16.5t17.5 -41.5t-17.5 -42t-41.5 -17z" />
    <glyph glyph-name="uni1EDC" unicode="&#x1edc;" horiz-adv-x="921" 
d="M461 -10q-87 0 -160 30t-126.5 83.5t-82.5 127t-29 160.5t29 160t82.5 126.5t126.5 83.5t160 30t159.5 -30t126.5 -83.5t83 -126.5t29 -160t-29 -160.5t-83 -127t-126.5 -83.5t-159.5 -30zM461 71q68 0 125.5 24t99.5 67.5t65.5 102t23.5 126.5t-23.5 126t-65.5 101.5
t-99.5 67.5t-125.5 24t-125.5 -24t-100 -67.5t-65.5 -101.5t-23 -126t23 -126.5t65.5 -102t100 -67.5t125.5 -24zM652 668v77h45q18 0 31 16t13 43v20q0 19 10.5 30.5t27.5 11.5q19 0 29 -14t10 -34v-14q0 -39 -16 -70t-43 -48.5t-62 -17.5h-45zM459 869q-17 0 -29 12
l-108 107q-11 12 -11 30t12 31t30 13t31 -13l107 -108q11 -10 11 -28q0 -19 -12 -31.5t-31 -12.5z" />
    <glyph glyph-name="uni1EDE" unicode="&#x1ede;" horiz-adv-x="921" 
d="M461 -10q-87 0 -160 30t-126.5 83.5t-82.5 127t-29 160.5t29 160t82.5 126.5t126.5 83.5t160 30t159.5 -30t126.5 -83.5t83 -126.5t29 -160t-29 -160.5t-83 -127t-126.5 -83.5t-159.5 -30zM461 71q68 0 125.5 24t99.5 67.5t65.5 102t23.5 126.5t-23.5 126t-65.5 101.5
t-99.5 67.5t-125.5 24t-125.5 -24t-100 -67.5t-65.5 -101.5t-23 -126t23 -126.5t65.5 -102t100 -67.5t125.5 -24zM652 668v77h45q18 0 31 16t13 43v20q0 19 10.5 30.5t27.5 11.5q19 0 29 -14t10 -34v-14q0 -39 -16 -70t-43 -48.5t-62 -17.5h-45zM460 833q-16 0 -27.5 11.5
t-11.5 27.5v26q0 35 35 42l25 6q20 4 30.5 14.5t10.5 27.5q0 22 -13.5 33t-34.5 11q-13 0 -24.5 -5t-20.5 -11q-5 -5 -12.5 -7.5t-14.5 -2.5q-14 0 -24 8.5t-10 24.5q0 19 13 30q20 15 42 23t50 8q51 0 85 -30t34 -77q0 -48 -31 -71.5t-74 -29.5l11 -8q0 -25 -11 -38
t-27 -13z" />
    <glyph glyph-name="uni1EE0" unicode="&#x1ee0;" horiz-adv-x="921" 
d="M461 -10q-87 0 -160 30t-126.5 83.5t-82.5 127t-29 160.5t29 160t82.5 126.5t126.5 83.5t160 30t159.5 -30t126.5 -83.5t83 -126.5t29 -160t-29 -160.5t-83 -127t-126.5 -83.5t-159.5 -30zM461 71q68 0 125.5 24t99.5 67.5t65.5 102t23.5 126.5t-23.5 126t-65.5 101.5
t-99.5 67.5t-125.5 24t-125.5 -24t-100 -67.5t-65.5 -101.5t-23 -126t23 -126.5t65.5 -102t100 -67.5t125.5 -24zM652 668v77h45q18 0 31 16t13 43v20q0 19 10.5 30.5t27.5 11.5q19 0 29 -14t10 -34v-14q0 -39 -16 -70t-43 -48.5t-62 -17.5h-45zM566 859q-32 0 -56.5 11.5
t-41.5 21.5q-22 12 -36 17.5t-26 5.5q-17 0 -31.5 -7.5t-28.5 -25.5q-10 -14 -25 -19t-30 3q-14 7 -16.5 23t7.5 30q24 32 57 49.5t70 17.5q32 0 55.5 -11t39.5 -20q21 -13 33.5 -18.5t27.5 -5.5t26 5t20 14q12 12 24 17t27 -4q14 -8 16.5 -24.5t-8.5 -30.5
q-39 -49 -104 -49z" />
    <glyph glyph-name="Ohungarumlaut" unicode="&#x150;" horiz-adv-x="921" 
d="M461 -10q-87 0 -160 30t-126.5 83.5t-82.5 127t-29 160.5t29 160t82.5 126.5t126.5 83.5t160 30t159.5 -30t126.5 -83.5t83 -126.5t29 -160t-29 -160.5t-83 -127t-126.5 -83.5t-159.5 -30zM461 71q68 0 125.5 24t99.5 67.5t65.5 102t23.5 126.5t-23.5 126t-65.5 101.5
t-99.5 67.5t-125.5 24t-125.5 -24t-100 -67.5t-65.5 -101.5t-23 -126t23 -126.5t65.5 -102t100 -67.5t125.5 -24zM533 856q-11 0 -21.5 8.5t-10.5 24.5q0 3 0.5 6.5t1.5 6.5l42 132q4 12 15 19.5t24 7.5q19 0 31.5 -13t12.5 -30q-1 -3 -1.5 -7t-2.5 -9l-59 -125
q-11 -21 -32 -21zM385 856q-11 0 -22 8.5t-11 24.5q0 3 1 6.5t2 6.5l40 132q4 12 15.5 19.5t24.5 7.5q20 0 32 -13t12 -30q0 -7 -3 -16l-60 -125q-10 -21 -31 -21z" />
    <glyph glyph-name="uni020E" unicode="&#x20e;" horiz-adv-x="921" 
d="M461 -10q-87 0 -160 30t-126.5 83.5t-82.5 127t-29 160.5t29 160t82.5 126.5t126.5 83.5t160 30t159.5 -30t126.5 -83.5t83 -126.5t29 -160t-29 -160.5t-83 -127t-126.5 -83.5t-159.5 -30zM461 71q68 0 125.5 24t99.5 67.5t65.5 102t23.5 126.5t-23.5 126t-65.5 101.5
t-99.5 67.5t-125.5 24t-125.5 -24t-100 -67.5t-65.5 -101.5t-23 -126t23 -126.5t65.5 -102t100 -67.5t125.5 -24zM343 856q-18 0 -29.5 12.5t-11.5 30.5q0 34 21.5 61t57.5 42.5t80 15.5q42 0 77.5 -15t57.5 -42t23 -62q0 -18 -11 -30.5t-29 -12.5q-17 0 -29.5 10t-12.5 27
q0 23 -20.5 39t-55.5 16q-32 0 -54.5 -16t-22.5 -39q0 -17 -12.5 -27t-28.5 -10z" />
    <glyph glyph-name="Omacron" unicode="&#x14c;" horiz-adv-x="921" 
d="M461 -10q-87 0 -160 30t-126.5 83.5t-82.5 127t-29 160.5t29 160t82.5 126.5t126.5 83.5t160 30t159.5 -30t126.5 -83.5t83 -126.5t29 -160t-29 -160.5t-83 -127t-126.5 -83.5t-159.5 -30zM461 71q68 0 125.5 24t99.5 67.5t65.5 102t23.5 126.5t-23.5 126t-65.5 101.5
t-99.5 67.5t-125.5 24t-125.5 -24t-100 -67.5t-65.5 -101.5t-23 -126t23 -126.5t65.5 -102t100 -67.5t125.5 -24zM333 887q-18 0 -30.5 10.5t-12.5 28.5t12.5 28.5t30.5 10.5h256q18 0 30.5 -10.5t12.5 -28.5t-12.5 -28.5t-30.5 -10.5h-256z" />
    <glyph glyph-name="uni01EA" unicode="&#x1ea;" horiz-adv-x="921" 
d="M461 -10q-87 0 -160 30t-126.5 83.5t-82.5 127t-29 160.5t29 160t82.5 126.5t126.5 83.5t160 30t159.5 -30t126.5 -83.5t83 -126.5t29 -160t-29 -160.5t-83 -127t-126.5 -83.5t-159.5 -30zM461 71q68 0 125.5 24t99.5 67.5t65.5 102t23.5 126.5t-23.5 126t-65.5 101.5
t-99.5 67.5t-125.5 24t-125.5 -24t-100 -67.5t-65.5 -101.5t-23 -126t23 -126.5t65.5 -102t100 -67.5t125.5 -24zM459 -267q-32 0 -59 16t-43.5 43.5t-16.5 60.5q0 56 50 98q13 9 20.5 18.5t11.5 18.5q12 22 37 22q19 0 30.5 -11.5t12.5 -30.5q0 -22 -15.5 -43t-46.5 -44
q-7 -5 -10.5 -13t-3.5 -15q0 -14 9.5 -24t23.5 -10q5 0 10 1.5t8 4.5l33 24q13 9 26 9q19 0 31 -12.5t12 -30.5q0 -20 -15 -35l-39 -25q-30 -22 -66 -22z" />
    <glyph glyph-name="Oslash" unicode="&#xd8;" horiz-adv-x="896" 
d="M89 0q-22 0 -29 19t6 32l93 93l32 24l504 504l28 21l81 80q8 8 21 8q19 0 29 -17t-6 -33l-81 -81l-26 -19l-509 -509l-28 -20l-94 -94q-8 -8 -21 -8zM461 -10q-87 0 -160 30t-126.5 83.5t-82.5 127t-29 160.5t29 160t82.5 126.5t126.5 83.5t160 30t159.5 -30t126.5 -83.5
t83 -126.5t29 -160t-29 -160.5t-83 -127t-126.5 -83.5t-159.5 -30zM461 71q68 0 125.5 24t99.5 67.5t65.5 102t23.5 126.5t-23.5 126t-65.5 101.5t-99.5 67.5t-125.5 24t-125.5 -24t-100 -67.5t-65.5 -101.5t-23 -126t23 -126.5t65.5 -102t100 -67.5t125.5 -24z" />
    <glyph glyph-name="Oslashacute" unicode="&#x1fe;" horiz-adv-x="896" 
d="M89 0q-22 0 -29 19t6 32l93 93l32 24l504 504l28 21l81 80q8 8 21 8q19 0 29 -17t-6 -33l-81 -81l-26 -19l-509 -509l-28 -20l-94 -94q-8 -8 -21 -8zM461 -10q-87 0 -160 30t-126.5 83.5t-82.5 127t-29 160.5t29 160t82.5 126.5t126.5 83.5t160 30t159.5 -30t126.5 -83.5
t83 -126.5t29 -160t-29 -160.5t-83 -127t-126.5 -83.5t-159.5 -30zM461 71q68 0 125.5 24t99.5 67.5t65.5 102t23.5 126.5t-23.5 126t-65.5 101.5t-99.5 67.5t-125.5 24t-125.5 -24t-100 -67.5t-65.5 -101.5t-23 -126t23 -126.5t65.5 -102t100 -67.5t125.5 -24zM458 865
q-18 0 -30.5 12.5t-12.5 30.5t10 29l108 108q12 12 30 12q19 0 31 -12.5t12 -31.5q0 -8 -3 -15.5t-9 -13.5l-107 -108q-12 -11 -29 -11z" />
    <glyph glyph-name="Otilde" unicode="&#xd5;" horiz-adv-x="921" 
d="M461 -10q-87 0 -160 30t-126.5 83.5t-82.5 127t-29 160.5t29 160t82.5 126.5t126.5 83.5t160 30t159.5 -30t126.5 -83.5t83 -126.5t29 -160t-29 -160.5t-83 -127t-126.5 -83.5t-159.5 -30zM461 71q68 0 125.5 24t99.5 67.5t65.5 102t23.5 126.5t-23.5 126t-65.5 101.5
t-99.5 67.5t-125.5 24t-125.5 -24t-100 -67.5t-65.5 -101.5t-23 -126t23 -126.5t65.5 -102t100 -67.5t125.5 -24zM566 859q-32 0 -56.5 11.5t-41.5 21.5q-22 12 -36 17.5t-26 5.5q-17 0 -31.5 -7.5t-28.5 -25.5q-10 -14 -25 -19t-30 3q-14 7 -16.5 23t7.5 30q24 32 57 49.5
t70 17.5q32 0 55.5 -11t39.5 -20q21 -13 33.5 -18.5t27.5 -5.5t26 5t20 14q12 12 24 17t27 -4q14 -8 16.5 -24.5t-8.5 -30.5q-39 -49 -104 -49z" />
    <glyph glyph-name="uni022C" unicode="&#x22c;" horiz-adv-x="921" 
d="M461 -10q-87 0 -160 30t-126.5 83.5t-82.5 127t-29 160.5t29 160t82.5 126.5t126.5 83.5t160 30t159.5 -30t126.5 -83.5t83 -126.5t29 -160t-29 -160.5t-83 -127t-126.5 -83.5t-159.5 -30zM461 71q68 0 125.5 24t99.5 67.5t65.5 102t23.5 126.5t-23.5 126t-65.5 101.5
t-99.5 67.5t-125.5 24t-125.5 -24t-100 -67.5t-65.5 -101.5t-23 -126t23 -126.5t65.5 -102t100 -67.5t125.5 -24zM566 859q-32 0 -56.5 11.5t-41.5 21.5q-22 12 -36 17.5t-26 5.5q-17 0 -31.5 -7.5t-28.5 -25.5q-10 -14 -25 -19t-30 3q-14 7 -16.5 23t7.5 30q24 32 57 49.5
t70 17.5q32 0 55.5 -11t39.5 -20q21 -13 33.5 -18.5t27.5 -5.5t26 5t20 14q12 12 24 17t27 -4q14 -8 16.5 -24.5t-8.5 -30.5q-39 -49 -104 -49zM343 1053q-18 0 -30.5 10.5t-12.5 28.5t12.5 28.5t30.5 10.5h256q18 0 30.5 -10.5t12.5 -28.5t-12.5 -28.5t-30.5 -10.5h-256z
" />
    <glyph glyph-name="OE" unicode="&#x152;" horiz-adv-x="1156" 
d="M461 -10q-87 0 -160 30t-126.5 83.5t-82.5 127t-29 160.5t29 160t82.5 126.5t126.5 83.5t160 30q55 0 105.5 -5t93.5 -5v-97q-40 13 -90 19.5t-109 6.5q-68 0 -125.5 -24t-100 -67.5t-65.5 -101.5t-23 -126t23 -126.5t65.5 -102t100 -67.5t125.5 -24q119 0 198 25v-95
q-44 0 -93 -5.5t-105 -5.5zM638 0q-18 0 -30.5 12.5t-12.5 30.5v695q0 19 12.5 31t30.5 12h430q18 0 30.5 -11.5t12.5 -30.5q0 -17 -12.5 -28.5t-30.5 -11.5h-386v-265h270q19 0 31 -12t12 -29q0 -18 -12 -30t-31 -12h-270v-269h386q18 0 30.5 -11.5t12.5 -28.5
q0 -19 -12.5 -30.5t-30.5 -11.5h-430z" />
    <glyph glyph-name="P" unicode="P" horiz-adv-x="616" 
d="M143 0q-18 0 -30.5 12.5t-12.5 30.5v695q0 19 12.5 31t30.5 12h200q75 0 132 -32.5t89.5 -90t32.5 -133.5q0 -73 -32.5 -129.5t-89.5 -89t-132 -32.5h-156v-231q0 -18 -12.5 -30.5t-31.5 -12.5zM187 356h156q50 0 88 22t60 60t22 87q0 52 -22 90.5t-60 61t-88 22.5h-156
v-343z" />
    <glyph glyph-name="Thorn" unicode="&#xde;" horiz-adv-x="616" 
d="M143 0q-18 0 -30.5 12.5t-12.5 30.5v695q0 19 12.5 31t30.5 12q19 0 31.5 -12t12.5 -31v-97h156q75 0 132 -29t89.5 -81.5t32.5 -121.5q0 -67 -32.5 -118t-89.5 -80t-132 -29h-156v-139q0 -18 -12.5 -30.5t-31.5 -12.5zM187 258h156q50 0 88 19.5t60 54t22 77.5
q0 45 -22 80.5t-60 56t-88 20.5h-156v-308z" />
    <glyph glyph-name="Q" unicode="Q" horiz-adv-x="921" 
d="M748 13l-214 213q-13 14 -13 30.5t13 29.5t29.5 13t29.5 -13l215 -214q12 -13 12 -29t-12 -30q-14 -13 -30.5 -13t-29.5 13zM461 -10q-87 0 -160 30t-126.5 83.5t-82.5 127t-29 160.5t29 160t82.5 126.5t126.5 83.5t160 30t159.5 -30t126.5 -83.5t83 -126.5t29 -160
t-29 -160.5t-83 -127t-126.5 -83.5t-159.5 -30zM461 71q68 0 125.5 24t99.5 67.5t65.5 102t23.5 126.5t-23.5 126t-65.5 101.5t-99.5 67.5t-125.5 24t-125.5 -24t-100 -67.5t-65.5 -101.5t-23 -126t23 -126.5t65.5 -102t100 -67.5t125.5 -24z" />
    <glyph glyph-name="R" unicode="R" horiz-adv-x="623" 
d="M143 0q-18 0 -30.5 12.5t-12.5 30.5v695q0 19 12.5 31t30.5 12h185q74 0 131 -31t89.5 -85.5t32.5 -126.5q0 -68 -32.5 -121t-89.5 -83t-131 -30h-141v-261q0 -18 -12.5 -30.5t-31.5 -12.5zM560 0q-13 0 -22 5.5t-15 16.5l-188 300l85 23l174 -278q16 -26 5.5 -46.5
t-39.5 -20.5zM187 386h141q49 0 87 19.5t60 54t22 78.5q0 48 -22 84t-60 56.5t-87 20.5h-141v-313z" />
    <glyph glyph-name="Racute" unicode="&#x154;" horiz-adv-x="623" 
d="M143 0q-18 0 -30.5 12.5t-12.5 30.5v695q0 19 12.5 31t30.5 12h185q74 0 131 -31t89.5 -85.5t32.5 -126.5q0 -68 -32.5 -121t-89.5 -83t-131 -30h-141v-261q0 -18 -12.5 -30.5t-31.5 -12.5zM560 0q-13 0 -22 5.5t-15 16.5l-188 300l85 23l174 -278q16 -26 5.5 -46.5
t-39.5 -20.5zM187 386h141q49 0 87 19.5t60 54t22 78.5q0 48 -22 84t-60 56.5t-87 20.5h-141v-313zM328 865q-18 0 -30.5 12.5t-12.5 30.5t10 29l108 108q12 12 30 12q19 0 31 -12.5t12 -31.5q0 -8 -3 -15.5t-9 -13.5l-107 -108q-12 -11 -29 -11z" />
    <glyph glyph-name="Rcaron" unicode="&#x158;" horiz-adv-x="623" 
d="M143 0q-18 0 -30.5 12.5t-12.5 30.5v695q0 19 12.5 31t30.5 12h185q74 0 131 -31t89.5 -85.5t32.5 -126.5q0 -68 -32.5 -121t-89.5 -83t-131 -30h-141v-261q0 -18 -12.5 -30.5t-31.5 -12.5zM560 0q-13 0 -22 5.5t-15 16.5l-188 300l85 23l174 -278q16 -26 5.5 -46.5
t-39.5 -20.5zM187 386h141q49 0 87 19.5t60 54t22 78.5q0 48 -22 84t-60 56.5t-87 20.5h-141v-313zM331 868q-14 0 -21 6l-116 77q-21 15 -21 36q0 20 21 28.5t49 -11.5l88 -59l88 59q32 21 51 11.5t19 -28.5q0 -21 -21 -36l-115 -77q-8 -6 -22 -6z" />
    <glyph glyph-name="uni0156" unicode="&#x156;" horiz-adv-x="623" 
d="M143 0q-18 0 -30.5 12.5t-12.5 30.5v695q0 19 12.5 31t30.5 12h185q74 0 131 -31t89.5 -85.5t32.5 -126.5q0 -68 -32.5 -121t-89.5 -83t-131 -30h-141v-261q0 -18 -12.5 -30.5t-31.5 -12.5zM560 0q-13 0 -22 5.5t-15 16.5l-188 300l85 23l174 -278q16 -26 5.5 -46.5
t-39.5 -20.5zM187 386h141q49 0 87 19.5t60 54t22 78.5q0 48 -22 84t-60 56.5t-87 20.5h-141v-313zM336 -241q-26 0 -54.5 8.5t-48 25t-19.5 40.5q0 13 8.5 21t22.5 8t23.5 -6t18 -15t21 -15.5t34.5 -6.5q29 0 42.5 10t13.5 30q0 19 -17 30t-54 11q-21 0 -33.5 7.5
t-12.5 22.5q0 31 51 31q57 0 93 -28t36 -72q0 -47 -36 -74.5t-89 -27.5z" />
    <glyph glyph-name="uni0210" unicode="&#x210;" horiz-adv-x="623" 
d="M143 0q-18 0 -30.5 12.5t-12.5 30.5v695q0 19 12.5 31t30.5 12h185q74 0 131 -31t89.5 -85.5t32.5 -126.5q0 -68 -32.5 -121t-89.5 -83t-131 -30h-141v-261q0 -18 -12.5 -30.5t-31.5 -12.5zM560 0q-13 0 -22 5.5t-15 16.5l-188 300l85 23l174 -278q16 -26 5.5 -46.5
t-39.5 -20.5zM187 386h141q49 0 87 19.5t60 54t22 78.5q0 48 -22 84t-60 56.5t-87 20.5h-141v-313zM435 856q-21 0 -31 21l-60 125q-3 8 -3 17q0 16 12.5 29t31.5 13q13 0 24.5 -7.5t15.5 -19.5l40 -132q3 -6 3 -13q0 -16 -11 -24.5t-22 -8.5zM287 856q-21 0 -32 21l-59 125
q-2 5 -2.5 9t-1.5 8q0 16 12.5 29t31.5 13q13 0 24 -7.5t15 -19.5l42 -132q1 -3 1.5 -6.5t0.5 -6.5q0 -16 -10.5 -24.5t-21.5 -8.5z" />
    <glyph glyph-name="uni0212" unicode="&#x212;" horiz-adv-x="623" 
d="M143 0q-18 0 -30.5 12.5t-12.5 30.5v695q0 19 12.5 31t30.5 12h185q74 0 131 -31t89.5 -85.5t32.5 -126.5q0 -68 -32.5 -121t-89.5 -83t-131 -30h-141v-261q0 -18 -12.5 -30.5t-31.5 -12.5zM560 0q-13 0 -22 5.5t-15 16.5l-188 300l85 23l174 -278q16 -26 5.5 -46.5
t-39.5 -20.5zM187 386h141q49 0 87 19.5t60 54t22 78.5q0 48 -22 84t-60 56.5t-87 20.5h-141v-313zM213 856q-18 0 -29.5 12.5t-11.5 30.5q0 34 21.5 61t57.5 42.5t80 15.5q42 0 77.5 -15t57.5 -42t23 -62q0 -18 -11 -30.5t-29 -12.5q-17 0 -29.5 10t-12.5 27q0 23 -20.5 39
t-55.5 16q-32 0 -54.5 -16t-22.5 -39q0 -17 -12.5 -27t-28.5 -10z" />
    <glyph glyph-name="S" unicode="S" horiz-adv-x="671" 
d="M343 -10q-64 0 -120 19t-97 53.5t-61 80.5q-9 18 -0.5 33t28.5 20q16 4 30.5 -4t22.5 -24q14 -27 42.5 -49.5t68 -35t86.5 -12.5q51 0 92 16.5t65 48.5t24 78q0 58 -44 101.5t-140 54.5q-119 13 -186.5 72.5t-67.5 146.5q0 62 34 107.5t93 70t134 24.5q57 0 102.5 -17.5
t79 -46.5t55.5 -65q12 -18 8.5 -34.5t-18.5 -25.5q-16 -9 -33.5 -3.5t-26.5 21.5q-16 25 -38.5 45.5t-54 32t-75.5 12.5q-78 0 -126.5 -31.5t-48.5 -94.5q0 -32 17 -60.5t58.5 -48.5t114.5 -30q123 -16 185.5 -75t62.5 -155q0 -55 -21 -97t-57.5 -70.5t-85 -43t-102.5 -14.5
z" />
    <glyph glyph-name="Sacute" unicode="&#x15a;" horiz-adv-x="671" 
d="M343 -10q-64 0 -120 19t-97 53.5t-61 80.5q-9 18 -0.5 33t28.5 20q16 4 30.5 -4t22.5 -24q14 -27 42.5 -49.5t68 -35t86.5 -12.5q51 0 92 16.5t65 48.5t24 78q0 58 -44 101.5t-140 54.5q-119 13 -186.5 72.5t-67.5 146.5q0 62 34 107.5t93 70t134 24.5q57 0 102.5 -17.5
t79 -46.5t55.5 -65q12 -18 8.5 -34.5t-18.5 -25.5q-16 -9 -33.5 -3.5t-26.5 21.5q-16 25 -38.5 45.5t-54 32t-75.5 12.5q-78 0 -126.5 -31.5t-48.5 -94.5q0 -32 17 -60.5t58.5 -48.5t114.5 -30q123 -16 185.5 -75t62.5 -155q0 -55 -21 -97t-57.5 -70.5t-85 -43t-102.5 -14.5
zM332 865q-18 0 -30.5 12.5t-12.5 30.5t10 29l108 108q12 12 30 12q19 0 31 -12.5t12 -31.5q0 -8 -3 -15.5t-9 -13.5l-107 -108q-12 -11 -29 -11z" />
    <glyph glyph-name="Scaron" unicode="&#x160;" horiz-adv-x="671" 
d="M343 -10q-64 0 -120 19t-97 53.5t-61 80.5q-9 18 -0.5 33t28.5 20q16 4 30.5 -4t22.5 -24q14 -27 42.5 -49.5t68 -35t86.5 -12.5q51 0 92 16.5t65 48.5t24 78q0 58 -44 101.5t-140 54.5q-119 13 -186.5 72.5t-67.5 146.5q0 62 34 107.5t93 70t134 24.5q57 0 102.5 -17.5
t79 -46.5t55.5 -65q12 -18 8.5 -34.5t-18.5 -25.5q-16 -9 -33.5 -3.5t-26.5 21.5q-16 25 -38.5 45.5t-54 32t-75.5 12.5q-78 0 -126.5 -31.5t-48.5 -94.5q0 -32 17 -60.5t58.5 -48.5t114.5 -30q123 -16 185.5 -75t62.5 -155q0 -55 -21 -97t-57.5 -70.5t-85 -43t-102.5 -14.5
zM335 868q-14 0 -21 6l-116 77q-21 15 -21 36q0 20 21 28.5t49 -11.5l88 -59l88 59q32 21 51 11.5t19 -28.5q0 -21 -21 -36l-115 -77q-8 -6 -22 -6z" />
    <glyph glyph-name="Scedilla" unicode="&#x15e;" horiz-adv-x="671" 
d="M343 -10q-64 0 -120 19t-97 53.5t-61 80.5q-9 18 -0.5 33t28.5 20q16 4 30.5 -4t22.5 -24q14 -27 42.5 -49.5t68 -35t86.5 -12.5q51 0 92 16.5t65 48.5t24 78q0 58 -44 101.5t-140 54.5q-119 13 -186.5 72.5t-67.5 146.5q0 62 34 107.5t93 70t134 24.5q57 0 102.5 -17.5
t79 -46.5t55.5 -65q12 -18 8.5 -34.5t-18.5 -25.5q-16 -9 -33.5 -3.5t-26.5 21.5q-16 25 -38.5 45.5t-54 32t-75.5 12.5q-78 0 -126.5 -31.5t-48.5 -94.5q0 -32 17 -60.5t58.5 -48.5t114.5 -30q123 -16 185.5 -75t62.5 -155q0 -55 -21 -97t-57.5 -70.5t-85 -43t-102.5 -14.5
zM333 -233q-56 0 -91.5 23.5t-35.5 53.5q0 17 12 29t28 12q12 0 20.5 -5.5t14.5 -17.5q8 -13 21 -20t32 -7q22 0 36.5 9.5t14.5 27.5t-11 29t-39 17q-26 5 -37 18t-1 42l14 36q6 16 17.5 25t31.5 9q21 0 31.5 -14.5t1.5 -33.5l-15 -36q52 -12 73.5 -35.5t21.5 -57.5
q0 -28 -18 -51.5t-49.5 -38t-72.5 -14.5z" />
    <glyph glyph-name="Scircumflex" unicode="&#x15c;" horiz-adv-x="671" 
d="M343 -10q-64 0 -120 19t-97 53.5t-61 80.5q-9 18 -0.5 33t28.5 20q16 4 30.5 -4t22.5 -24q14 -27 42.5 -49.5t68 -35t86.5 -12.5q51 0 92 16.5t65 48.5t24 78q0 58 -44 101.5t-140 54.5q-119 13 -186.5 72.5t-67.5 146.5q0 62 34 107.5t93 70t134 24.5q57 0 102.5 -17.5
t79 -46.5t55.5 -65q12 -18 8.5 -34.5t-18.5 -25.5q-16 -9 -33.5 -3.5t-26.5 21.5q-16 25 -38.5 45.5t-54 32t-75.5 12.5q-78 0 -126.5 -31.5t-48.5 -94.5q0 -32 17 -60.5t58.5 -48.5t114.5 -30q123 -16 185.5 -75t62.5 -155q0 -55 -21 -97t-57.5 -70.5t-85 -43t-102.5 -14.5
zM221 862q-19 0 -31.5 10t-12.5 27q0 22 21 37l116 76q9 6 21 6q7 0 12 -1.5t10 -4.5l115 -76q21 -15 21 -37q0 -16 -12 -26.5t-31 -10.5q-8 0 -14 2t-13 7l-88 61l-88 -61q-12 -9 -26 -9z" />
    <glyph glyph-name="uni0218" unicode="&#x218;" horiz-adv-x="671" 
d="M343 -10q-64 0 -120 19t-97 53.5t-61 80.5q-9 18 -0.5 33t28.5 20q16 4 30.5 -4t22.5 -24q14 -27 42.5 -49.5t68 -35t86.5 -12.5q51 0 92 16.5t65 48.5t24 78q0 58 -44 101.5t-140 54.5q-119 13 -186.5 72.5t-67.5 146.5q0 62 34 107.5t93 70t134 24.5q57 0 102.5 -17.5
t79 -46.5t55.5 -65q12 -18 8.5 -34.5t-18.5 -25.5q-16 -9 -33.5 -3.5t-26.5 21.5q-16 25 -38.5 45.5t-54 32t-75.5 12.5q-78 0 -126.5 -31.5t-48.5 -94.5q0 -32 17 -60.5t58.5 -48.5t114.5 -30q123 -16 185.5 -75t62.5 -155q0 -55 -21 -97t-57.5 -70.5t-85 -43t-102.5 -14.5
zM341 -241q-26 0 -54.5 8.5t-48 25t-19.5 40.5q0 13 8.5 21t22.5 8t23.5 -6t18 -15t21 -15.5t34.5 -6.5q29 0 42.5 10t13.5 30q0 19 -17 30t-54 11q-21 0 -33.5 7.5t-12.5 22.5q0 31 51 31q57 0 93 -28t36 -72q0 -47 -36 -74.5t-89 -27.5z" />
    <glyph glyph-name="uni1E9E" unicode="&#x1e9e;" horiz-adv-x="704" 
d="M142 0q-22 0 -32 11.5t-10 27.5v505q0 73 33 126.5t90 82t129 28.5q56 0 104.5 -18t79.5 -47t37 -60q3 -24 -4 -38.5t-19 -28.5l-177 -187l-42 53l168 185q-24 29 -62.5 45t-85.5 16q-48 0 -85 -20t-58 -57t-21 -90v-495q0 -17 -12 -28t-33 -11zM403 -3q-33 0 -63 7
t-53 19q-10 5 -15 13.5t-5 25.5q0 20 15.5 30t38.5 3q13 -4 25.5 -8t26 -6t30.5 -2q47 0 83.5 19.5t57.5 55t21 83.5q0 46 -20 79.5t-56.5 52t-85.5 18.5h-42q-17 0 -28.5 11.5t-11.5 28.5q0 18 11.5 29.5t28.5 11.5h55q66 0 119 -28.5t83.5 -80.5t30.5 -122
q0 -69 -31.5 -123t-87.5 -85.5t-127 -31.5z" />
    <glyph glyph-name="uni018F" unicode="&#x18f;" horiz-adv-x="842" 
d="M426 -10q-80 0 -147 29t-115.5 81.5t-74.5 122.5t-26 153q0 24 16 39t41 15h611v-77h-632l48 18q1 -86 37 -153.5t99 -107t143 -39.5q79 0 140 41t96 112.5t35 162.5q0 94 -40.5 167t-111.5 114.5t-163 41.5q-52 0 -100.5 -15.5t-87.5 -44.5q-14 -10 -29 -9t-27 12
q-11 13 -10 28.5t13 24.5q48 40 109.5 62.5t137.5 22.5q85 0 156.5 -30t124.5 -84.5t82 -128t29 -161.5q0 -86 -26.5 -158.5t-74 -125.5t-112 -83t-141.5 -30z" />
    <glyph glyph-name="T" unicode="T" horiz-adv-x="657" 
d="M328 0q-18 0 -30.5 12.5t-12.5 30.5v738h87v-738q0 -18 -12.5 -30.5t-31.5 -12.5zM55 702q-18 0 -29 11t-11 28q0 18 11 29t29 11h547q18 0 29 -11t11 -29q0 -17 -11 -28t-29 -11h-547z" />
    <glyph glyph-name="Tbar" unicode="&#x166;" horiz-adv-x="657" 
d="M328 0q-18 0 -30.5 12.5t-12.5 30.5v738h87v-738q0 -18 -12.5 -30.5t-31.5 -12.5zM55 702q-18 0 -29 11t-11 28q0 18 11 29t29 11h547q18 0 29 -11t11 -29q0 -17 -11 -28t-29 -11h-547zM170 354q-18 0 -30 10t-12 27q0 18 12 28t30 10h320q19 0 30.5 -10t11.5 -28
q0 -17 -11.5 -27t-30.5 -10h-320z" />
    <glyph glyph-name="Tcaron" unicode="&#x164;" horiz-adv-x="657" 
d="M328 0q-18 0 -30.5 12.5t-12.5 30.5v738h87v-738q0 -18 -12.5 -30.5t-31.5 -12.5zM55 702q-18 0 -29 11t-11 28q0 18 11 29t29 11h547q18 0 29 -11t11 -29q0 -17 -11 -28t-29 -11h-547zM328 868q-14 0 -21 6l-116 77q-21 15 -21 36q0 20 21 28.5t49 -11.5l88 -59l88 59
q32 21 51 11.5t19 -28.5q0 -21 -21 -36l-115 -77q-8 -6 -22 -6z" />
    <glyph glyph-name="uni0162" unicode="&#x162;" horiz-adv-x="657" 
d="M328 0q-18 0 -30.5 12.5t-12.5 30.5v738h87v-738q0 -18 -12.5 -30.5t-31.5 -12.5zM55 702q-18 0 -29 11t-11 28q0 18 11 29t29 11h547q18 0 29 -11t11 -29q0 -17 -11 -28t-29 -11h-547zM326 -233q-56 0 -91.5 23.5t-35.5 53.5q0 17 12 29t28 12q12 0 20.5 -5.5
t14.5 -17.5q8 -13 21 -20t32 -7q22 0 36.5 9.5t14.5 27.5t-11 29t-39 17q-26 5 -37 18t-1 42l14 36q6 16 17.5 25t31.5 9q21 0 31.5 -14.5t1.5 -33.5l-15 -36q52 -12 73.5 -35.5t21.5 -57.5q0 -28 -18 -51.5t-49.5 -38t-72.5 -14.5z" />
    <glyph glyph-name="uni021A" unicode="&#x21a;" horiz-adv-x="657" 
d="M328 0q-18 0 -30.5 12.5t-12.5 30.5v738h87v-738q0 -18 -12.5 -30.5t-31.5 -12.5zM55 702q-18 0 -29 11t-11 28q0 18 11 29t29 11h547q18 0 29 -11t11 -29q0 -17 -11 -28t-29 -11h-547zM334 -241q-26 0 -54.5 8.5t-48 25t-19.5 40.5q0 13 8.5 21t22.5 8t23.5 -6t18 -15
t21 -15.5t34.5 -6.5q29 0 42.5 10t13.5 30q0 19 -17 30t-54 11q-21 0 -33.5 7.5t-12.5 22.5q0 31 51 31q57 0 93 -28t36 -72q0 -47 -36 -74.5t-89 -27.5z" />
    <glyph glyph-name="U" unicode="U" horiz-adv-x="828" 
d="M416 -16q-92 0 -164 35t-112 97.5t-40 142.5v479q0 19 12.5 31t30.5 12q19 0 31.5 -12t12.5 -31v-479q0 -57 29 -101t81 -68.5t119 -24.5q66 0 117 24.5t79.5 68.5t28.5 101v479q0 19 12.5 31t31.5 12t31 -12t12 -31v-479q0 -80 -40 -142.5t-110.5 -97.5t-161.5 -35z" />
    <glyph glyph-name="Uacute" unicode="&#xda;" horiz-adv-x="828" 
d="M416 -16q-92 0 -164 35t-112 97.5t-40 142.5v479q0 19 12.5 31t30.5 12q19 0 31.5 -12t12.5 -31v-479q0 -57 29 -101t81 -68.5t119 -24.5q66 0 117 24.5t79.5 68.5t28.5 101v479q0 19 12.5 31t31.5 12t31 -12t12 -31v-479q0 -80 -40 -142.5t-110.5 -97.5t-161.5 -35z
M411 865q-18 0 -30.5 12.5t-12.5 30.5t10 29l108 108q12 12 30 12q19 0 31 -12.5t12 -31.5q0 -8 -3 -15.5t-9 -13.5l-107 -108q-12 -11 -29 -11z" />
    <glyph glyph-name="Ubreve" unicode="&#x16c;" horiz-adv-x="828" 
d="M416 -16q-92 0 -164 35t-112 97.5t-40 142.5v479q0 19 12.5 31t30.5 12q19 0 31.5 -12t12.5 -31v-479q0 -57 29 -101t81 -68.5t119 -24.5q66 0 117 24.5t79.5 68.5t28.5 101v479q0 19 12.5 31t31.5 12t31 -12t12 -31v-479q0 -80 -40 -142.5t-110.5 -97.5t-161.5 -35z
M413 856q-43 0 -79 16t-57.5 43t-21.5 60q0 18 11.5 31t29.5 13q16 0 28.5 -10.5t12.5 -27.5q0 -23 22.5 -38.5t53.5 -15.5q36 0 56.5 15.5t20.5 38.5q0 17 12.5 27.5t29.5 10.5q18 0 29 -12.5t11 -30.5q-1 -35 -23 -62t-57.5 -42.5t-78.5 -15.5z" />
    <glyph glyph-name="Ucircumflex" unicode="&#xdb;" horiz-adv-x="828" 
d="M416 -16q-92 0 -164 35t-112 97.5t-40 142.5v479q0 19 12.5 31t30.5 12q19 0 31.5 -12t12.5 -31v-479q0 -57 29 -101t81 -68.5t119 -24.5q66 0 117 24.5t79.5 68.5t28.5 101v479q0 19 12.5 31t31.5 12t31 -12t12 -31v-479q0 -80 -40 -142.5t-110.5 -97.5t-161.5 -35z
M300 862q-19 0 -31.5 10t-12.5 27q0 22 21 37l116 76q9 6 21 6q7 0 12 -1.5t10 -4.5l115 -76q21 -15 21 -37q0 -16 -12 -26.5t-31 -10.5q-8 0 -14 2t-13 7l-88 61l-88 -61q-12 -9 -26 -9z" />
    <glyph glyph-name="uni0214" unicode="&#x214;" horiz-adv-x="828" 
d="M416 -16q-92 0 -164 35t-112 97.5t-40 142.5v479q0 19 12.5 31t30.5 12q19 0 31.5 -12t12.5 -31v-479q0 -57 29 -101t81 -68.5t119 -24.5q66 0 117 24.5t79.5 68.5t28.5 101v479q0 19 12.5 31t31.5 12t31 -12t12 -31v-479q0 -80 -40 -142.5t-110.5 -97.5t-161.5 -35z
M519 856q-21 0 -31 21l-60 125q-3 8 -3 17q0 16 12.5 29t31.5 13q13 0 24.5 -7.5t15.5 -19.5l40 -132q3 -6 3 -13q0 -16 -11 -24.5t-22 -8.5zM371 856q-21 0 -32 21l-59 125q-2 5 -2.5 9t-1.5 8q0 16 12.5 29t31.5 13q13 0 24 -7.5t15 -19.5l42 -132q1 -3 1.5 -6.5t0.5 -6.5
q0 -16 -10.5 -24.5t-21.5 -8.5z" />
    <glyph glyph-name="Udieresis" unicode="&#xdc;" horiz-adv-x="828" 
d="M416 -16q-92 0 -164 35t-112 97.5t-40 142.5v479q0 19 12.5 31t30.5 12q19 0 31.5 -12t12.5 -31v-479q0 -57 29 -101t81 -68.5t119 -24.5q66 0 117 24.5t79.5 68.5t28.5 101v479q0 19 12.5 31t31.5 12t31 -12t12 -31v-479q0 -80 -40 -142.5t-110.5 -97.5t-161.5 -35z
M308 876q-25 0 -41 16t-16 40q0 23 16 40t41 17q23 0 39.5 -17t16.5 -40q0 -24 -16.5 -40t-39.5 -16zM521 876q-24 0 -40.5 16t-16.5 40q0 23 16.5 40t40.5 17q23 0 40 -17t17 -40q0 -24 -17 -40t-40 -16z" />
    <glyph glyph-name="uni1EE4" unicode="&#x1ee4;" horiz-adv-x="828" 
d="M416 -16q-92 0 -164 35t-112 97.5t-40 142.5v479q0 19 12.5 31t30.5 12q19 0 31.5 -12t12.5 -31v-479q0 -57 29 -101t81 -68.5t119 -24.5q66 0 117 24.5t79.5 68.5t28.5 101v479q0 19 12.5 31t31.5 12t31 -12t12 -31v-479q0 -80 -40 -142.5t-110.5 -97.5t-161.5 -35z
M414 -214q-24 0 -41 17t-17 42t17.5 41.5t41.5 16.5q23 0 40.5 -16.5t17.5 -41.5t-17.5 -42t-41.5 -17z" />
    <glyph glyph-name="Ugrave" unicode="&#xd9;" horiz-adv-x="828" 
d="M416 -16q-92 0 -164 35t-112 97.5t-40 142.5v479q0 19 12.5 31t30.5 12q19 0 31.5 -12t12.5 -31v-479q0 -57 29 -101t81 -68.5t119 -24.5q66 0 117 24.5t79.5 68.5t28.5 101v479q0 19 12.5 31t31.5 12t31 -12t12 -31v-479q0 -80 -40 -142.5t-110.5 -97.5t-161.5 -35z
M412 869q-17 0 -29 12l-108 107q-11 12 -11 30t12 31t30 13t31 -13l107 -108q11 -10 11 -28q0 -19 -12 -31.5t-31 -12.5z" />
    <glyph glyph-name="uni1EE6" unicode="&#x1ee6;" horiz-adv-x="828" 
d="M416 -16q-92 0 -164 35t-112 97.5t-40 142.5v479q0 19 12.5 31t30.5 12q19 0 31.5 -12t12.5 -31v-479q0 -57 29 -101t81 -68.5t119 -24.5q66 0 117 24.5t79.5 68.5t28.5 101v479q0 19 12.5 31t31.5 12t31 -12t12 -31v-479q0 -80 -40 -142.5t-110.5 -97.5t-161.5 -35z
M414 833q-16 0 -27.5 11.5t-11.5 27.5v26q0 35 35 42l25 6q20 4 30.5 14.5t10.5 27.5q0 22 -13.5 33t-34.5 11q-13 0 -24.5 -5t-20.5 -11q-5 -5 -12.5 -7.5t-14.5 -2.5q-14 0 -24 8.5t-10 24.5q0 19 13 30q20 15 42 23t50 8q51 0 85 -30t34 -77q0 -48 -31 -71.5t-74 -29.5
l11 -8q0 -25 -11 -38t-27 -13z" />
    <glyph glyph-name="Uhorn" unicode="&#x1af;" horiz-adv-x="828" 
d="M416 -16q-92 0 -164 35t-112 97.5t-40 142.5v479q0 19 12.5 31t30.5 12q19 0 31.5 -12t12.5 -31v-479q0 -57 29 -101t81 -68.5t119 -24.5q66 0 117 24.5t79.5 68.5t28.5 101v479q0 19 12.5 31t31.5 12t31 -12t12 -31v-479q0 -80 -40 -142.5t-110.5 -97.5t-161.5 -35z
M685 704v77h45q18 0 31 16t13 43v20q0 19 10.5 30.5t27.5 11.5q19 0 29 -14t10 -34v-14q0 -39 -16 -70t-43 -48.5t-62 -17.5h-45z" />
    <glyph glyph-name="uni1EE8" unicode="&#x1ee8;" horiz-adv-x="828" 
d="M416 -16q-92 0 -164 35t-112 97.5t-40 142.5v479q0 19 12.5 31t30.5 12q19 0 31.5 -12t12.5 -31v-479q0 -57 29 -101t81 -68.5t119 -24.5q66 0 117 24.5t79.5 68.5t28.5 101v479q0 19 12.5 31t31.5 12t31 -12t12 -31v-479q0 -80 -40 -142.5t-110.5 -97.5t-161.5 -35z
M685 704v77h45q18 0 31 16t13 43v20q0 19 10.5 30.5t27.5 11.5q19 0 29 -14t10 -34v-14q0 -39 -16 -70t-43 -48.5t-62 -17.5h-45zM411 865q-18 0 -30.5 12.5t-12.5 30.5t10 29l108 108q12 12 30 12q19 0 31 -12.5t12 -31.5q0 -8 -3 -15.5t-9 -13.5l-107 -108
q-12 -11 -29 -11z" />
    <glyph glyph-name="uni1EF0" unicode="&#x1ef0;" horiz-adv-x="828" 
d="M416 -16q-92 0 -164 35t-112 97.5t-40 142.5v479q0 19 12.5 31t30.5 12q19 0 31.5 -12t12.5 -31v-479q0 -57 29 -101t81 -68.5t119 -24.5q66 0 117 24.5t79.5 68.5t28.5 101v479q0 19 12.5 31t31.5 12t31 -12t12 -31v-479q0 -80 -40 -142.5t-110.5 -97.5t-161.5 -35z
M685 704v77h45q18 0 31 16t13 43v20q0 19 10.5 30.5t27.5 11.5q19 0 29 -14t10 -34v-14q0 -39 -16 -70t-43 -48.5t-62 -17.5h-45zM414 -214q-24 0 -41 17t-17 42t17.5 41.5t41.5 16.5q23 0 40.5 -16.5t17.5 -41.5t-17.5 -42t-41.5 -17z" />
    <glyph glyph-name="uni1EEA" unicode="&#x1eea;" horiz-adv-x="828" 
d="M416 -16q-92 0 -164 35t-112 97.5t-40 142.5v479q0 19 12.5 31t30.5 12q19 0 31.5 -12t12.5 -31v-479q0 -57 29 -101t81 -68.5t119 -24.5q66 0 117 24.5t79.5 68.5t28.5 101v479q0 19 12.5 31t31.5 12t31 -12t12 -31v-479q0 -80 -40 -142.5t-110.5 -97.5t-161.5 -35z
M685 704v77h45q18 0 31 16t13 43v20q0 19 10.5 30.5t27.5 11.5q19 0 29 -14t10 -34v-14q0 -39 -16 -70t-43 -48.5t-62 -17.5h-45zM412 869q-17 0 -29 12l-108 107q-11 12 -11 30t12 31t30 13t31 -13l107 -108q11 -10 11 -28q0 -19 -12 -31.5t-31 -12.5z" />
    <glyph glyph-name="uni1EEC" unicode="&#x1eec;" horiz-adv-x="828" 
d="M416 -16q-92 0 -164 35t-112 97.5t-40 142.5v479q0 19 12.5 31t30.5 12q19 0 31.5 -12t12.5 -31v-479q0 -57 29 -101t81 -68.5t119 -24.5q66 0 117 24.5t79.5 68.5t28.5 101v479q0 19 12.5 31t31.5 12t31 -12t12 -31v-479q0 -80 -40 -142.5t-110.5 -97.5t-161.5 -35z
M685 704v77h45q18 0 31 16t13 43v20q0 19 10.5 30.5t27.5 11.5q19 0 29 -14t10 -34v-14q0 -39 -16 -70t-43 -48.5t-62 -17.5h-45zM414 833q-16 0 -27.5 11.5t-11.5 27.5v26q0 35 35 42l25 6q20 4 30.5 14.5t10.5 27.5q0 22 -13.5 33t-34.5 11q-13 0 -24.5 -5t-20.5 -11
q-5 -5 -12.5 -7.5t-14.5 -2.5q-14 0 -24 8.5t-10 24.5q0 19 13 30q20 15 42 23t50 8q51 0 85 -30t34 -77q0 -48 -31 -71.5t-74 -29.5l11 -8q0 -25 -11 -38t-27 -13z" />
    <glyph glyph-name="uni1EEE" unicode="&#x1eee;" horiz-adv-x="828" 
d="M416 -16q-92 0 -164 35t-112 97.5t-40 142.5v479q0 19 12.5 31t30.5 12q19 0 31.5 -12t12.5 -31v-479q0 -57 29 -101t81 -68.5t119 -24.5q66 0 117 24.5t79.5 68.5t28.5 101v479q0 19 12.5 31t31.5 12t31 -12t12 -31v-479q0 -80 -40 -142.5t-110.5 -97.5t-161.5 -35z
M685 704v77h45q18 0 31 16t13 43v20q0 19 10.5 30.5t27.5 11.5q19 0 29 -14t10 -34v-14q0 -39 -16 -70t-43 -48.5t-62 -17.5h-45zM520 859q-32 0 -56.5 11.5t-41.5 21.5q-22 12 -36 17.5t-26 5.5q-17 0 -31.5 -7.5t-28.5 -25.5q-10 -14 -25 -19t-30 3q-14 7 -16.5 23t7.5 30
q24 32 57 49.5t70 17.5q32 0 55.5 -11t39.5 -20q21 -13 33.5 -18.5t27.5 -5.5t26 5t20 14q12 12 24 17t27 -4q14 -8 16.5 -24.5t-8.5 -30.5q-39 -49 -104 -49z" />
    <glyph glyph-name="Uhungarumlaut" unicode="&#x170;" horiz-adv-x="828" 
d="M416 -16q-92 0 -164 35t-112 97.5t-40 142.5v479q0 19 12.5 31t30.5 12q19 0 31.5 -12t12.5 -31v-479q0 -57 29 -101t81 -68.5t119 -24.5q66 0 117 24.5t79.5 68.5t28.5 101v479q0 19 12.5 31t31.5 12t31 -12t12 -31v-479q0 -80 -40 -142.5t-110.5 -97.5t-161.5 -35z
M487 856q-11 0 -21.5 8.5t-10.5 24.5q0 3 0.5 6.5t1.5 6.5l42 132q4 12 15 19.5t24 7.5q19 0 31.5 -13t12.5 -30q-1 -3 -1.5 -7t-2.5 -9l-59 -125q-11 -21 -32 -21zM339 856q-11 0 -22 8.5t-11 24.5q0 3 1 6.5t2 6.5l40 132q4 12 15.5 19.5t24.5 7.5q20 0 32 -13t12 -30
q0 -7 -3 -16l-60 -125q-10 -21 -31 -21z" />
    <glyph glyph-name="uni0216" unicode="&#x216;" horiz-adv-x="828" 
d="M416 -16q-92 0 -164 35t-112 97.5t-40 142.5v479q0 19 12.5 31t30.5 12q19 0 31.5 -12t12.5 -31v-479q0 -57 29 -101t81 -68.5t119 -24.5q66 0 117 24.5t79.5 68.5t28.5 101v479q0 19 12.5 31t31.5 12t31 -12t12 -31v-479q0 -80 -40 -142.5t-110.5 -97.5t-161.5 -35z
M296 856q-18 0 -29.5 12.5t-11.5 30.5q0 34 21.5 61t57.5 42.5t80 15.5q42 0 77.5 -15t57.5 -42t23 -62q0 -18 -11 -30.5t-29 -12.5q-17 0 -29.5 10t-12.5 27q0 23 -20.5 39t-55.5 16q-32 0 -54.5 -16t-22.5 -39q0 -17 -12.5 -27t-28.5 -10z" />
    <glyph glyph-name="Umacron" unicode="&#x16a;" horiz-adv-x="828" 
d="M416 -16q-92 0 -164 35t-112 97.5t-40 142.5v479q0 19 12.5 31t30.5 12q19 0 31.5 -12t12.5 -31v-479q0 -57 29 -101t81 -68.5t119 -24.5q66 0 117 24.5t79.5 68.5t28.5 101v479q0 19 12.5 31t31.5 12t31 -12t12 -31v-479q0 -80 -40 -142.5t-110.5 -97.5t-161.5 -35z
M286 887q-18 0 -30.5 10.5t-12.5 28.5t12.5 28.5t30.5 10.5h256q18 0 30.5 -10.5t12.5 -28.5t-12.5 -28.5t-30.5 -10.5h-256z" />
    <glyph glyph-name="Uogonek" unicode="&#x172;" horiz-adv-x="828" 
d="M416 -16q-92 0 -164 35t-112 97.5t-40 142.5v479q0 19 12.5 31t30.5 12q19 0 31.5 -12t12.5 -31v-479q0 -57 29 -101t81 -68.5t119 -24.5q66 0 117 24.5t79.5 68.5t28.5 101v479q0 19 12.5 31t31.5 12t31 -12t12 -31v-479q0 -80 -40 -142.5t-110.5 -97.5t-161.5 -35z
M513 -214q-32 0 -59 16t-43.5 43.5t-16.5 60.5q0 56 50 98q13 9 20.5 18.5t11.5 18.5q12 22 37 22q19 0 30.5 -11.5t12.5 -30.5q0 -22 -15.5 -43t-46.5 -44q-7 -5 -10.5 -13t-3.5 -15q0 -14 9.5 -24t23.5 -10q5 0 10 1.5t8 4.5l33 24q13 9 26 9q19 0 31 -12.5t12 -30.5
q0 -20 -15 -35l-39 -25q-30 -22 -66 -22z" />
    <glyph glyph-name="Uring" unicode="&#x16e;" horiz-adv-x="828" 
d="M416 -16q-92 0 -164 35t-112 97.5t-40 142.5v479q0 19 12.5 31t30.5 12q19 0 31.5 -12t12.5 -31v-479q0 -57 29 -101t81 -68.5t119 -24.5q66 0 117 24.5t79.5 68.5t28.5 101v479q0 19 12.5 31t31.5 12t31 -12t12 -31v-479q0 -80 -40 -142.5t-110.5 -97.5t-161.5 -35z
M415 825q-43 0 -72 28.5t-29 72.5q0 43 29 72t72 29t72 -29t29 -72t-28.5 -72t-72.5 -29zM415 873q23 0 37.5 15.5t14.5 37.5q0 23 -14.5 37.5t-37.5 14.5q-22 0 -37 -14.5t-15 -37.5q0 -22 15 -37.5t37 -15.5z" />
    <glyph glyph-name="Utilde" unicode="&#x168;" horiz-adv-x="828" 
d="M416 -16q-92 0 -164 35t-112 97.5t-40 142.5v479q0 19 12.5 31t30.5 12q19 0 31.5 -12t12.5 -31v-479q0 -57 29 -101t81 -68.5t119 -24.5q66 0 117 24.5t79.5 68.5t28.5 101v479q0 19 12.5 31t31.5 12t31 -12t12 -31v-479q0 -80 -40 -142.5t-110.5 -97.5t-161.5 -35z
M520 859q-32 0 -56.5 11.5t-41.5 21.5q-22 12 -36 17.5t-26 5.5q-17 0 -31.5 -7.5t-28.5 -25.5q-10 -14 -25 -19t-30 3q-14 7 -16.5 23t7.5 30q24 32 57 49.5t70 17.5q32 0 55.5 -11t39.5 -20q21 -13 33.5 -18.5t27.5 -5.5t26 5t20 14q12 12 24 17t27 -4q14 -8 16.5 -24.5
t-8.5 -30.5q-39 -49 -104 -49z" />
    <glyph glyph-name="V" unicode="V" horiz-adv-x="723" 
d="M362 0q-27 0 -40 28l-295 686q-12 30 -2 48.5t36 18.5q28 0 40 -27l270 -646h-19l271 645q7 16 16.5 22t25.5 6q25 0 34 -19t-1 -42l-297 -692q-6 -15 -16 -21.5t-23 -6.5z" />
    <glyph glyph-name="W" unicode="W" horiz-adv-x="938" 
d="M267 0q-16 0 -27.5 9.5t-16.5 25.5l-203 685q-8 27 2 44t33 17q13 0 25 -7.5t17 -25.5l182 -633h-23l171 620q3 12 14.5 20t26.5 8q13 0 25.5 -7t15.5 -22l172 -619h-22l182 637q8 29 43 29q23 0 31 -18t1 -43l-203 -684q-5 -17 -16.5 -26.5t-27.5 -9.5q-15 0 -26.5 10
t-16.5 25l-170 631h24l-169 -630q-6 -16 -17.5 -26t-26.5 -10z" />
    <glyph glyph-name="Wacute" unicode="&#x1e82;" horiz-adv-x="938" 
d="M267 0q-16 0 -27.5 9.5t-16.5 25.5l-203 685q-8 27 2 44t33 17q13 0 25 -7.5t17 -25.5l182 -633h-23l171 620q3 12 14.5 20t26.5 8q13 0 25.5 -7t15.5 -22l172 -619h-22l182 637q8 29 43 29q23 0 31 -18t1 -43l-203 -684q-5 -17 -16.5 -26.5t-27.5 -9.5q-15 0 -26.5 10
t-16.5 25l-170 631h24l-169 -630q-6 -16 -17.5 -26t-26.5 -10zM466 865q-18 0 -30.5 12.5t-12.5 30.5t10 29l108 108q12 12 30 12q19 0 31 -12.5t12 -31.5q0 -8 -3 -15.5t-9 -13.5l-107 -108q-12 -11 -29 -11z" />
    <glyph glyph-name="Wcircumflex" unicode="&#x174;" horiz-adv-x="938" 
d="M267 0q-16 0 -27.5 9.5t-16.5 25.5l-203 685q-8 27 2 44t33 17q13 0 25 -7.5t17 -25.5l182 -633h-23l171 620q3 12 14.5 20t26.5 8q13 0 25.5 -7t15.5 -22l172 -619h-22l182 637q8 29 43 29q23 0 31 -18t1 -43l-203 -684q-5 -17 -16.5 -26.5t-27.5 -9.5q-15 0 -26.5 10
t-16.5 25l-170 631h24l-169 -630q-6 -16 -17.5 -26t-26.5 -10zM355 862q-19 0 -31.5 10t-12.5 27q0 22 21 37l116 76q9 6 21 6q7 0 12 -1.5t10 -4.5l115 -76q21 -15 21 -37q0 -16 -12 -26.5t-31 -10.5q-8 0 -14 2t-13 7l-88 61l-88 -61q-12 -9 -26 -9z" />
    <glyph glyph-name="Wdieresis" unicode="&#x1e84;" horiz-adv-x="938" 
d="M267 0q-16 0 -27.5 9.5t-16.5 25.5l-203 685q-8 27 2 44t33 17q13 0 25 -7.5t17 -25.5l182 -633h-23l171 620q3 12 14.5 20t26.5 8q13 0 25.5 -7t15.5 -22l172 -619h-22l182 637q8 29 43 29q23 0 31 -18t1 -43l-203 -684q-5 -17 -16.5 -26.5t-27.5 -9.5q-15 0 -26.5 10
t-16.5 25l-170 631h24l-169 -630q-6 -16 -17.5 -26t-26.5 -10zM363 876q-25 0 -41 16t-16 40q0 23 16 40t41 17q23 0 39.5 -17t16.5 -40q0 -24 -16.5 -40t-39.5 -16zM576 876q-24 0 -40.5 16t-16.5 40q0 23 16.5 40t40.5 17q23 0 40 -17t17 -40q0 -24 -17 -40t-40 -16z" />
    <glyph glyph-name="Wgrave" unicode="&#x1e80;" horiz-adv-x="938" 
d="M267 0q-16 0 -27.5 9.5t-16.5 25.5l-203 685q-8 27 2 44t33 17q13 0 25 -7.5t17 -25.5l182 -633h-23l171 620q3 12 14.5 20t26.5 8q13 0 25.5 -7t15.5 -22l172 -619h-22l182 637q8 29 43 29q23 0 31 -18t1 -43l-203 -684q-5 -17 -16.5 -26.5t-27.5 -9.5q-15 0 -26.5 10
t-16.5 25l-170 631h24l-169 -630q-6 -16 -17.5 -26t-26.5 -10zM467 869q-17 0 -29 12l-108 107q-11 12 -11 30t12 31t30 13t31 -13l107 -108q11 -10 11 -28q0 -19 -12 -31.5t-31 -12.5z" />
    <glyph glyph-name="X" unicode="X" horiz-adv-x="710" 
d="M88 0q-19 0 -29 11.5t-11 28t10 30.5l258 349l39 33l233 315q12 14 32 14q18 0 28 -11.5t11 -27.5t-8 -29l-245 -331l-37 -31l-250 -338q-12 -13 -31 -13zM623 0q-9 0 -17.5 4t-15.5 12l-244 337l-33 26l-240 334q-10 13 -8.5 29t12 27.5t27.5 11.5q22 0 33 -14l230 -320
l32 -23l255 -354q10 -13 9.5 -30t-11 -28.5t-29.5 -11.5z" />
    <glyph glyph-name="Y" unicode="Y" horiz-adv-x="655" 
d="M327 0q-17 0 -30 12.5t-13 30.5v245l-270 425q-11 17 -8.5 32.5t14 25.5t28.5 10q13 0 21.5 -6t15.5 -16l265 -425h-42l266 425q7 11 16.5 16.5t22.5 5.5q15 0 25.5 -10.5t12 -26t-8.5 -31.5l-271 -425v-245q0 -18 -13 -30.5t-31 -12.5z" />
    <glyph glyph-name="Yacute" unicode="&#xdd;" horiz-adv-x="655" 
d="M327 0q-17 0 -30 12.5t-13 30.5v245l-270 425q-11 17 -8.5 32.5t14 25.5t28.5 10q13 0 21.5 -6t15.5 -16l265 -425h-42l266 425q7 11 16.5 16.5t22.5 5.5q15 0 25.5 -10.5t12 -26t-8.5 -31.5l-271 -425v-245q0 -18 -13 -30.5t-31 -12.5zM325 865q-18 0 -30.5 12.5
t-12.5 30.5t10 29l108 108q12 12 30 12q19 0 31 -12.5t12 -31.5q0 -8 -3 -15.5t-9 -13.5l-107 -108q-12 -11 -29 -11z" />
    <glyph glyph-name="Ycircumflex" unicode="&#x176;" horiz-adv-x="655" 
d="M327 0q-17 0 -30 12.5t-13 30.5v245l-270 425q-11 17 -8.5 32.5t14 25.5t28.5 10q13 0 21.5 -6t15.5 -16l265 -425h-42l266 425q7 11 16.5 16.5t22.5 5.5q15 0 25.5 -10.5t12 -26t-8.5 -31.5l-271 -425v-245q0 -18 -13 -30.5t-31 -12.5zM214 862q-19 0 -31.5 10t-12.5 27
q0 22 21 37l116 76q9 6 21 6q7 0 12 -1.5t10 -4.5l115 -76q21 -15 21 -37q0 -16 -12 -26.5t-31 -10.5q-8 0 -14 2t-13 7l-88 61l-88 -61q-12 -9 -26 -9z" />
    <glyph glyph-name="Ydieresis" unicode="&#x178;" horiz-adv-x="655" 
d="M327 0q-17 0 -30 12.5t-13 30.5v245l-270 425q-11 17 -8.5 32.5t14 25.5t28.5 10q13 0 21.5 -6t15.5 -16l265 -425h-42l266 425q7 11 16.5 16.5t22.5 5.5q15 0 25.5 -10.5t12 -26t-8.5 -31.5l-271 -425v-245q0 -18 -13 -30.5t-31 -12.5zM222 876q-25 0 -41 16t-16 40
q0 23 16 40t41 17q23 0 39.5 -17t16.5 -40q0 -24 -16.5 -40t-39.5 -16zM435 876q-24 0 -40.5 16t-16.5 40q0 23 16.5 40t40.5 17q23 0 40 -17t17 -40q0 -24 -17 -40t-40 -16z" />
    <glyph glyph-name="uni1EF4" unicode="&#x1ef4;" horiz-adv-x="655" 
d="M327 0q-17 0 -30 12.5t-13 30.5v245l-270 425q-11 17 -8.5 32.5t14 25.5t28.5 10q13 0 21.5 -6t15.5 -16l265 -425h-42l266 425q7 11 16.5 16.5t22.5 5.5q15 0 25.5 -10.5t12 -26t-8.5 -31.5l-271 -425v-245q0 -18 -13 -30.5t-31 -12.5zM328 -214q-24 0 -41 17t-17 42
t17.5 41.5t41.5 16.5q23 0 40.5 -16.5t17.5 -41.5t-17.5 -42t-41.5 -17z" />
    <glyph glyph-name="Ygrave" unicode="&#x1ef2;" horiz-adv-x="655" 
d="M327 0q-17 0 -30 12.5t-13 30.5v245l-270 425q-11 17 -8.5 32.5t14 25.5t28.5 10q13 0 21.5 -6t15.5 -16l265 -425h-42l266 425q7 11 16.5 16.5t22.5 5.5q15 0 25.5 -10.5t12 -26t-8.5 -31.5l-271 -425v-245q0 -18 -13 -30.5t-31 -12.5zM326 869q-17 0 -29 12l-108 107
q-11 12 -11 30t12 31t30 13t31 -13l107 -108q11 -10 11 -28q0 -19 -12 -31.5t-31 -12.5z" />
    <glyph glyph-name="uni1EF6" unicode="&#x1ef6;" horiz-adv-x="655" 
d="M327 0q-17 0 -30 12.5t-13 30.5v245l-270 425q-11 17 -8.5 32.5t14 25.5t28.5 10q13 0 21.5 -6t15.5 -16l265 -425h-42l266 425q7 11 16.5 16.5t22.5 5.5q15 0 25.5 -10.5t12 -26t-8.5 -31.5l-271 -425v-245q0 -18 -13 -30.5t-31 -12.5zM328 833q-16 0 -27.5 11.5
t-11.5 27.5v26q0 35 35 42l25 6q20 4 30.5 14.5t10.5 27.5q0 22 -13.5 33t-34.5 11q-13 0 -24.5 -5t-20.5 -11q-5 -5 -12.5 -7.5t-14.5 -2.5q-14 0 -24 8.5t-10 24.5q0 19 13 30q20 15 42 23t50 8q51 0 85 -30t34 -77q0 -48 -31 -71.5t-74 -29.5l11 -8q0 -25 -11 -38
t-27 -13z" />
    <glyph glyph-name="uni0232" unicode="&#x232;" horiz-adv-x="655" 
d="M327 0q-17 0 -30 12.5t-13 30.5v245l-270 425q-11 17 -8.5 32.5t14 25.5t28.5 10q13 0 21.5 -6t15.5 -16l265 -425h-42l266 425q7 11 16.5 16.5t22.5 5.5q15 0 25.5 -10.5t12 -26t-8.5 -31.5l-271 -425v-245q0 -18 -13 -30.5t-31 -12.5zM200 887q-18 0 -30.5 10.5
t-12.5 28.5t12.5 28.5t30.5 10.5h256q18 0 30.5 -10.5t12.5 -28.5t-12.5 -28.5t-30.5 -10.5h-256z" />
    <glyph glyph-name="uni1EF8" unicode="&#x1ef8;" horiz-adv-x="655" 
d="M327 0q-17 0 -30 12.5t-13 30.5v245l-270 425q-11 17 -8.5 32.5t14 25.5t28.5 10q13 0 21.5 -6t15.5 -16l265 -425h-42l266 425q7 11 16.5 16.5t22.5 5.5q15 0 25.5 -10.5t12 -26t-8.5 -31.5l-271 -425v-245q0 -18 -13 -30.5t-31 -12.5zM434 859q-32 0 -56.5 11.5
t-41.5 21.5q-22 12 -36 17.5t-26 5.5q-17 0 -31.5 -7.5t-28.5 -25.5q-10 -14 -25 -19t-30 3q-14 7 -16.5 23t7.5 30q24 32 57 49.5t70 17.5q32 0 55.5 -11t39.5 -20q21 -13 33.5 -18.5t27.5 -5.5t26 5t20 14q12 12 24 17t27 -4q14 -8 16.5 -24.5t-8.5 -30.5
q-39 -49 -104 -49z" />
    <glyph glyph-name="Z" unicode="Z" horiz-adv-x="730" 
d="M94 0q-19 0 -30.5 12.5t-12.5 28.5t9 29l507 634h-467q-20 0 -31 10t-11 27t12.5 28.5t30.5 11.5h534q19 0 30.5 -12t13 -28t-8.5 -28l-510 -636h475q18 0 30.5 -10.5t12.5 -27.5t-12.5 -28t-30.5 -11h-541z" />
    <glyph glyph-name="Zacute" unicode="&#x179;" horiz-adv-x="730" 
d="M94 0q-19 0 -30.5 12.5t-12.5 28.5t9 29l507 634h-467q-20 0 -31 10t-11 27t12.5 28.5t30.5 11.5h534q19 0 30.5 -12t13 -28t-8.5 -28l-510 -636h475q18 0 30.5 -10.5t12.5 -27.5t-12.5 -28t-30.5 -11h-541zM362 865q-18 0 -30.5 12.5t-12.5 30.5t10 29l108 108
q12 12 30 12q19 0 31 -12.5t12 -31.5q0 -8 -3 -15.5t-9 -13.5l-107 -108q-12 -11 -29 -11z" />
    <glyph glyph-name="Zcaron" unicode="&#x17d;" horiz-adv-x="730" 
d="M94 0q-19 0 -30.5 12.5t-12.5 28.5t9 29l507 634h-467q-20 0 -31 10t-11 27t12.5 28.5t30.5 11.5h534q19 0 30.5 -12t13 -28t-8.5 -28l-510 -636h475q18 0 30.5 -10.5t12.5 -27.5t-12.5 -28t-30.5 -11h-541zM365 868q-14 0 -21 6l-116 77q-21 15 -21 36q0 20 21 28.5
t49 -11.5l88 -59l88 59q32 21 51 11.5t19 -28.5q0 -21 -21 -36l-115 -77q-8 -6 -22 -6z" />
    <glyph glyph-name="Zdotaccent" unicode="&#x17b;" horiz-adv-x="730" 
d="M94 0q-19 0 -30.5 12.5t-12.5 28.5t9 29l507 634h-467q-20 0 -31 10t-11 27t12.5 28.5t30.5 11.5h534q19 0 30.5 -12t13 -28t-8.5 -28l-510 -636h475q18 0 30.5 -10.5t12.5 -27.5t-12.5 -28t-30.5 -11h-541zM364 880q-24 0 -41 17t-17 42t17.5 41.5t41.5 16.5
q23 0 40.5 -16.5t17.5 -41.5t-17.5 -42t-41.5 -17z" />
    <glyph glyph-name="a" unicode="a" 
d="M327 -5q-76 0 -136 36.5t-95 99.5t-35 142q0 80 36.5 143t99.5 99.5t142 36.5q78 0 140.5 -36.5t99 -99.5t37.5 -143l-34 -16q0 -74 -33.5 -133.5t-91 -94t-130.5 -34.5zM339 72q55 0 99 26t69 72t25 103q0 58 -25 103.5t-69 72t-99 26.5t-99 -26.5t-70 -72t-26 -103.5
q0 -57 26 -103t70 -72t99 -26zM573 0q-19 0 -31 11.5t-12 30.5v165l19 88l67 -22v-231q0 -19 -12.5 -30.5t-30.5 -11.5z" />
    <glyph glyph-name="aacute" unicode="&#xe1;" 
d="M327 -5q-76 0 -136 36.5t-95 99.5t-35 142q0 80 36.5 143t99.5 99.5t142 36.5q78 0 140.5 -36.5t99 -99.5t37.5 -143l-34 -16q0 -74 -33.5 -133.5t-91 -94t-130.5 -34.5zM339 72q55 0 99 26t69 72t25 103q0 58 -25 103.5t-69 72t-99 26.5t-99 -26.5t-70 -72t-26 -103.5
q0 -57 26 -103t70 -72t99 -26zM573 0q-19 0 -31 11.5t-12 30.5v165l19 88l67 -22v-231q0 -19 -12.5 -30.5t-30.5 -11.5zM336 631q-18 0 -30.5 12.5t-12.5 30.5t10 29l108 108q12 12 30 12q19 0 31 -12.5t12 -31.5q0 -8 -3 -15.5t-9 -13.5l-107 -108q-12 -11 -29 -11z" />
    <glyph glyph-name="abreve" unicode="&#x103;" 
d="M327 -5q-76 0 -136 36.5t-95 99.5t-35 142q0 80 36.5 143t99.5 99.5t142 36.5q78 0 140.5 -36.5t99 -99.5t37.5 -143l-34 -16q0 -74 -33.5 -133.5t-91 -94t-130.5 -34.5zM339 72q55 0 99 26t69 72t25 103q0 58 -25 103.5t-69 72t-99 26.5t-99 -26.5t-70 -72t-26 -103.5
q0 -57 26 -103t70 -72t99 -26zM573 0q-19 0 -31 11.5t-12 30.5v165l19 88l67 -22v-231q0 -19 -12.5 -30.5t-30.5 -11.5zM338 622q-43 0 -79 16t-57.5 43t-21.5 60q0 18 11.5 31t29.5 13q16 0 28.5 -10.5t12.5 -27.5q0 -23 22.5 -38.5t53.5 -15.5q36 0 56.5 15.5t20.5 38.5
q0 17 12.5 27.5t29.5 10.5q18 0 29 -12.5t11 -30.5q-1 -35 -23 -62t-57.5 -42.5t-78.5 -15.5z" />
    <glyph glyph-name="uni1EAF" unicode="&#x1eaf;" 
d="M327 -5q-76 0 -136 36.5t-95 99.5t-35 142q0 80 36.5 143t99.5 99.5t142 36.5q78 0 140.5 -36.5t99 -99.5t37.5 -143l-34 -16q0 -74 -33.5 -133.5t-91 -94t-130.5 -34.5zM339 72q55 0 99 26t69 72t25 103q0 58 -25 103.5t-69 72t-99 26.5t-99 -26.5t-70 -72t-26 -103.5
q0 -57 26 -103t70 -72t99 -26zM573 0q-19 0 -31 11.5t-12 30.5v165l19 88l67 -22v-231q0 -19 -12.5 -30.5t-30.5 -11.5zM338 622q-43 0 -79 16t-57.5 43t-21.5 60q0 19 11.5 31.5t29.5 12.5q16 0 28.5 -10.5t12.5 -27.5q0 -22 22.5 -38t53.5 -16q36 0 56.5 15.5t20.5 38.5
q0 17 12.5 27.5t29.5 10.5q18 0 29 -12.5t11 -30.5q-1 -35 -23 -62t-57.5 -42.5t-78.5 -15.5zM336 801q-18 0 -30.5 12t-12.5 31q0 17 10 29l108 108q12 12 30 12q19 0 31 -12.5t12 -31.5q0 -8 -3 -15.5t-9 -13.5l-107 -108q-12 -11 -29 -11z" />
    <glyph glyph-name="uni1EB7" unicode="&#x1eb7;" 
d="M327 -5q-76 0 -136 36.5t-95 99.5t-35 142q0 80 36.5 143t99.5 99.5t142 36.5q78 0 140.5 -36.5t99 -99.5t37.5 -143l-34 -16q0 -74 -33.5 -133.5t-91 -94t-130.5 -34.5zM339 72q55 0 99 26t69 72t25 103q0 58 -25 103.5t-69 72t-99 26.5t-99 -26.5t-70 -72t-26 -103.5
q0 -57 26 -103t70 -72t99 -26zM573 0q-19 0 -31 11.5t-12 30.5v165l19 88l67 -22v-231q0 -19 -12.5 -30.5t-30.5 -11.5zM338 622q-43 0 -79 16t-57.5 43t-21.5 60q0 18 11.5 31t29.5 13q16 0 28.5 -10.5t12.5 -27.5q0 -23 22.5 -38.5t53.5 -15.5q36 0 56.5 15.5t20.5 38.5
q0 17 12.5 27.5t29.5 10.5q18 0 29 -12.5t11 -30.5q-1 -35 -23 -62t-57.5 -42.5t-78.5 -15.5zM338 -214q-24 0 -41 17t-17 42t17.5 41.5t41.5 16.5q23 0 40.5 -16.5t17.5 -41.5t-17.5 -42t-41.5 -17z" />
    <glyph glyph-name="uni1EB1" unicode="&#x1eb1;" 
d="M327 -5q-76 0 -136 36.5t-95 99.5t-35 142q0 80 36.5 143t99.5 99.5t142 36.5q78 0 140.5 -36.5t99 -99.5t37.5 -143l-34 -16q0 -74 -33.5 -133.5t-91 -94t-130.5 -34.5zM339 72q55 0 99 26t69 72t25 103q0 58 -25 103.5t-69 72t-99 26.5t-99 -26.5t-70 -72t-26 -103.5
q0 -57 26 -103t70 -72t99 -26zM573 0q-19 0 -31 11.5t-12 30.5v165l19 88l67 -22v-231q0 -19 -12.5 -30.5t-30.5 -11.5zM338 622q-43 0 -79 16t-57.5 43t-21.5 60q0 19 11.5 31.5t29.5 12.5q16 0 28.5 -10.5t12.5 -27.5q0 -22 22.5 -38t53.5 -16q36 0 56.5 15.5t20.5 38.5
q0 17 12.5 27.5t29.5 10.5q18 0 29 -12.5t11 -30.5q-1 -35 -23 -62t-57.5 -42.5t-78.5 -15.5zM337 805q-17 0 -29 12l-108 107q-11 12 -11 30t12 31t30 13t31 -13l107 -108q11 -11 11 -28q0 -20 -12 -32t-31 -12z" />
    <glyph glyph-name="uni1EB3" unicode="&#x1eb3;" 
d="M327 -5q-76 0 -136 36.5t-95 99.5t-35 142q0 80 36.5 143t99.5 99.5t142 36.5q78 0 140.5 -36.5t99 -99.5t37.5 -143l-34 -16q0 -74 -33.5 -133.5t-91 -94t-130.5 -34.5zM339 72q55 0 99 26t69 72t25 103q0 58 -25 103.5t-69 72t-99 26.5t-99 -26.5t-70 -72t-26 -103.5
q0 -57 26 -103t70 -72t99 -26zM573 0q-19 0 -31 11.5t-12 30.5v165l19 88l67 -22v-231q0 -19 -12.5 -30.5t-30.5 -11.5zM338 622q-43 0 -79 16t-57.5 43t-21.5 60q0 19 11.5 31.5t29.5 12.5q16 0 28.5 -10.5t12.5 -27.5q0 -22 22.5 -38t53.5 -16q36 0 56.5 15.5t20.5 38.5
q0 17 12.5 27.5t29.5 10.5q18 0 29 -12.5t11 -30.5q-1 -35 -23 -62t-57.5 -42.5t-78.5 -15.5zM338 769q-16 0 -27.5 11.5t-11.5 27.5v26q0 34 35 42l25 6q20 4 30.5 14.5t10.5 27.5q0 22 -13 33t-34 11q-13 0 -25 -5t-20 -11q-5 -5 -13 -7.5t-15 -2.5q-13 0 -23.5 8.5
t-10.5 24.5q0 18 14 30q19 15 41.5 23t49.5 8q52 0 85.5 -30t33.5 -77q0 -48 -30.5 -71.5t-74.5 -29.5l12 -8q0 -25 -11 -38t-28 -13z" />
    <glyph glyph-name="uni1EB5" unicode="&#x1eb5;" 
d="M327 -5q-76 0 -136 36.5t-95 99.5t-35 142q0 80 36.5 143t99.5 99.5t142 36.5q78 0 140.5 -36.5t99 -99.5t37.5 -143l-34 -16q0 -74 -33.5 -133.5t-91 -94t-130.5 -34.5zM339 72q55 0 99 26t69 72t25 103q0 58 -25 103.5t-69 72t-99 26.5t-99 -26.5t-70 -72t-26 -103.5
q0 -57 26 -103t70 -72t99 -26zM573 0q-19 0 -31 11.5t-12 30.5v165l19 88l67 -22v-231q0 -19 -12.5 -30.5t-30.5 -11.5zM339 622q-44 0 -79.5 16t-57.5 43t-22 60q0 19 11.5 31.5t30.5 12.5q16 0 28 -10.5t12 -27.5q0 -22 22.5 -38t54.5 -16q35 0 55.5 15.5t20.5 38.5
q0 17 12.5 27.5t29.5 10.5q18 0 29 -12.5t11 -30.5q-1 -35 -22.5 -62t-57.5 -42.5t-78 -15.5zM405 807q-24 0 -44.5 11.5t-36.5 27.5q-13 12 -22 19t-20 7q-12 0 -20 -9.5t-16 -24.5q-8 -14 -21.5 -20t-28.5 1q-14 6 -19.5 19.5t2.5 29.5q20 39 43.5 56.5t53.5 17.5
q32 0 50 -14t32 -26q16 -14 24 -18t15 -4q13 0 24 21q8 14 22.5 20.5t27.5 1.5q17 -7 23 -21.5t-3 -29.5q-18 -35 -38.5 -50t-47.5 -15z" />
    <glyph glyph-name="uni01CE" unicode="&#x1ce;" 
d="M327 -5q-76 0 -136 36.5t-95 99.5t-35 142q0 80 36.5 143t99.5 99.5t142 36.5q78 0 140.5 -36.5t99 -99.5t37.5 -143l-34 -16q0 -74 -33.5 -133.5t-91 -94t-130.5 -34.5zM339 72q55 0 99 26t69 72t25 103q0 58 -25 103.5t-69 72t-99 26.5t-99 -26.5t-70 -72t-26 -103.5
q0 -57 26 -103t70 -72t99 -26zM573 0q-19 0 -31 11.5t-12 30.5v165l19 88l67 -22v-231q0 -19 -12.5 -30.5t-30.5 -11.5zM339 634q-14 0 -21 6l-116 77q-21 15 -21 36q0 20 21 28.5t49 -11.5l88 -59l88 59q32 21 51 11.5t19 -28.5q0 -21 -21 -36l-115 -77q-8 -6 -22 -6z" />
    <glyph glyph-name="acircumflex" unicode="&#xe2;" 
d="M327 -5q-76 0 -136 36.5t-95 99.5t-35 142q0 80 36.5 143t99.5 99.5t142 36.5q78 0 140.5 -36.5t99 -99.5t37.5 -143l-34 -16q0 -74 -33.5 -133.5t-91 -94t-130.5 -34.5zM339 72q55 0 99 26t69 72t25 103q0 58 -25 103.5t-69 72t-99 26.5t-99 -26.5t-70 -72t-26 -103.5
q0 -57 26 -103t70 -72t99 -26zM573 0q-19 0 -31 11.5t-12 30.5v165l19 88l67 -22v-231q0 -19 -12.5 -30.5t-30.5 -11.5zM225 628q-19 0 -31.5 10t-12.5 27q0 22 21 37l116 76q9 6 21 6q7 0 12 -1.5t10 -4.5l115 -76q21 -15 21 -37q0 -16 -12 -26.5t-31 -10.5q-8 0 -14 2
t-13 7l-88 61l-88 -61q-12 -9 -26 -9z" />
    <glyph glyph-name="uni1EA5" unicode="&#x1ea5;" 
d="M327 -5q-76 0 -136 36.5t-95 99.5t-35 142q0 80 36.5 143t99.5 99.5t142 36.5q78 0 140.5 -36.5t99 -99.5t37.5 -143l-34 -16q0 -74 -33.5 -133.5t-91 -94t-130.5 -34.5zM339 72q55 0 99 26t69 72t25 103q0 58 -25 103.5t-69 72t-99 26.5t-99 -26.5t-70 -72t-26 -103.5
q0 -57 26 -103t70 -72t99 -26zM573 0q-19 0 -31 11.5t-12 30.5v165l19 88l67 -22v-231q0 -19 -12.5 -30.5t-30.5 -11.5zM225 628q-19 0 -31.5 10t-12.5 27q0 22 21 37l116 76q9 6 21 6q7 0 12 -1.5t10 -4.5l115 -76q21 -15 21 -37q0 -16 -12 -26.5t-31 -10.5q-8 0 -14 2
t-13 7l-88 61l-88 -61q-12 -9 -26 -9zM434 792q-18 0 -30.5 12t-12.5 31q0 17 10 28l108 108q13 13 30 13q20 0 31.5 -13t11.5 -31q0 -8 -2.5 -16t-9.5 -13l-107 -108q-11 -11 -29 -11z" />
    <glyph glyph-name="uni1EAD" unicode="&#x1ead;" 
d="M327 -5q-76 0 -136 36.5t-95 99.5t-35 142q0 80 36.5 143t99.5 99.5t142 36.5q78 0 140.5 -36.5t99 -99.5t37.5 -143l-34 -16q0 -74 -33.5 -133.5t-91 -94t-130.5 -34.5zM339 72q55 0 99 26t69 72t25 103q0 58 -25 103.5t-69 72t-99 26.5t-99 -26.5t-70 -72t-26 -103.5
q0 -57 26 -103t70 -72t99 -26zM573 0q-19 0 -31 11.5t-12 30.5v165l19 88l67 -22v-231q0 -19 -12.5 -30.5t-30.5 -11.5zM225 628q-19 0 -31.5 10t-12.5 27q0 22 21 37l116 76q9 6 21 6q7 0 12 -1.5t10 -4.5l115 -76q21 -15 21 -37q0 -16 -12 -26.5t-31 -10.5q-8 0 -14 2
t-13 7l-88 61l-88 -61q-12 -9 -26 -9zM338 -214q-24 0 -41 17t-17 42t17.5 41.5t41.5 16.5q23 0 40.5 -16.5t17.5 -41.5t-17.5 -42t-41.5 -17z" />
    <glyph glyph-name="uni1EA7" unicode="&#x1ea7;" 
d="M327 -5q-76 0 -136 36.5t-95 99.5t-35 142q0 80 36.5 143t99.5 99.5t142 36.5q78 0 140.5 -36.5t99 -99.5t37.5 -143l-34 -16q0 -74 -33.5 -133.5t-91 -94t-130.5 -34.5zM339 72q55 0 99 26t69 72t25 103q0 58 -25 103.5t-69 72t-99 26.5t-99 -26.5t-70 -72t-26 -103.5
q0 -57 26 -103t70 -72t99 -26zM573 0q-19 0 -31 11.5t-12 30.5v165l19 88l67 -22v-231q0 -19 -12.5 -30.5t-30.5 -11.5zM225 628q-19 0 -31.5 10t-12.5 27q0 22 21 37l116 76q9 6 21 6q7 0 12 -1.5t10 -4.5l115 -76q21 -15 21 -37q0 -16 -12 -26.5t-31 -10.5q-8 0 -14 2
t-13 7l-88 61l-88 -61q-12 -9 -26 -9zM437 796q-18 0 -29 12l-108 107q-11 11 -11 29q0 19 12 31.5t30 12.5q17 0 31 -13l107 -108q11 -10 11 -28t-12.5 -30.5t-30.5 -12.5z" />
    <glyph glyph-name="uni1EA9" unicode="&#x1ea9;" 
d="M327 -5q-76 0 -136 36.5t-95 99.5t-35 142q0 80 36.5 143t99.5 99.5t142 36.5q78 0 140.5 -36.5t99 -99.5t37.5 -143l-34 -16q0 -74 -33.5 -133.5t-91 -94t-130.5 -34.5zM339 72q55 0 99 26t69 72t25 103q0 58 -25 103.5t-69 72t-99 26.5t-99 -26.5t-70 -72t-26 -103.5
q0 -57 26 -103t70 -72t99 -26zM573 0q-19 0 -31 11.5t-12 30.5v165l19 88l67 -22v-231q0 -19 -12.5 -30.5t-30.5 -11.5zM228 628q-19 0 -31.5 10t-12.5 27q0 22 21 37l116 76q9 6 21 6q7 0 12 -1.5t10 -4.5l115 -76q21 -15 21 -37q0 -16 -12 -26.5t-31 -10.5q-8 0 -14 2
t-13 7l-88 61l-88 -61q-12 -9 -26 -9zM441 760q-17 0 -28 11t-11 28v26q0 34 34 42l26 5q19 5 30 15.5t11 27.5q0 21 -14 32t-34 11q-13 0 -24.5 -4.5t-20.5 -11.5q-5 -5 -13 -7t-15 -2q-13 0 -23 8.5t-10 24.5q0 18 13 29q19 16 41 24t51 8q51 0 84.5 -30.5t33.5 -77.5
q1 -48 -30.5 -71t-74.5 -29l12 -8q0 -26 -11.5 -38.5t-26.5 -12.5z" />
    <glyph glyph-name="uni1EAB" unicode="&#x1eab;" 
d="M327 -5q-76 0 -136 36.5t-95 99.5t-35 142q0 80 36.5 143t99.5 99.5t142 36.5q78 0 140.5 -36.5t99 -99.5t37.5 -143l-34 -16q0 -74 -33.5 -133.5t-91 -94t-130.5 -34.5zM339 72q55 0 99 26t69 72t25 103q0 58 -25 103.5t-69 72t-99 26.5t-99 -26.5t-70 -72t-26 -103.5
q0 -57 26 -103t70 -72t99 -26zM573 0q-19 0 -31 11.5t-12 30.5v165l19 88l67 -22v-231q0 -19 -12.5 -30.5t-30.5 -11.5zM227 628q-19 0 -31.5 10t-12.5 27q0 22 21 37l116 76q10 6 21 6q7 0 12.5 -1.5t10.5 -4.5l115 -76q20 -15 20 -37q0 -16 -12 -26.5t-30 -10.5
q-8 0 -14.5 2t-12.5 7l-89 61l-88 -61q-12 -9 -26 -9zM400 811q-25 0 -45 11.5t-36 26.5q-13 12 -22.5 19t-20.5 7t-19 -9t-17 -25q-7 -14 -21 -19.5t-28 0.5t-19.5 20t2.5 29q19 39 43 56.5t54 17.5q31 0 49.5 -14t32.5 -26q15 -13 23.5 -17.5t15.5 -4.5q13 0 24 21
q8 14 22 20.5t28 1.5q17 -7 23 -21t-3 -29q-18 -35 -39 -50t-47 -15z" />
    <glyph glyph-name="uni0201" unicode="&#x201;" 
d="M327 -5q-76 0 -136 36.5t-95 99.5t-35 142q0 80 36.5 143t99.5 99.5t142 36.5q78 0 140.5 -36.5t99 -99.5t37.5 -143l-34 -16q0 -74 -33.5 -133.5t-91 -94t-130.5 -34.5zM339 72q55 0 99 26t69 72t25 103q0 58 -25 103.5t-69 72t-99 26.5t-99 -26.5t-70 -72t-26 -103.5
q0 -57 26 -103t70 -72t99 -26zM573 0q-19 0 -31 11.5t-12 30.5v165l19 88l67 -22v-231q0 -19 -12.5 -30.5t-30.5 -11.5zM443 622q-21 0 -31 21l-60 125q-3 8 -3 17q0 16 12.5 29t31.5 13q13 0 24.5 -7.5t15.5 -19.5l40 -132q3 -6 3 -13q0 -16 -11 -24.5t-22 -8.5zM295 622
q-21 0 -32 21l-59 125q-2 5 -2.5 9t-1.5 8q0 16 12.5 29t31.5 13q13 0 24 -7.5t15 -19.5l42 -132q1 -3 1.5 -6.5t0.5 -6.5q0 -16 -10.5 -24.5t-21.5 -8.5z" />
    <glyph glyph-name="adieresis" unicode="&#xe4;" 
d="M327 -5q-76 0 -136 36.5t-95 99.5t-35 142q0 80 36.5 143t99.5 99.5t142 36.5q78 0 140.5 -36.5t99 -99.5t37.5 -143l-34 -16q0 -74 -33.5 -133.5t-91 -94t-130.5 -34.5zM339 72q55 0 99 26t69 72t25 103q0 58 -25 103.5t-69 72t-99 26.5t-99 -26.5t-70 -72t-26 -103.5
q0 -57 26 -103t70 -72t99 -26zM573 0q-19 0 -31 11.5t-12 30.5v165l19 88l67 -22v-231q0 -19 -12.5 -30.5t-30.5 -11.5zM233 642q-25 0 -41 16t-16 40q0 23 16 40t41 17q23 0 39.5 -17t16.5 -40q0 -24 -16.5 -40t-39.5 -16zM446 642q-24 0 -40.5 16t-16.5 40q0 23 16.5 40
t40.5 17q23 0 40 -17t17 -40q0 -24 -17 -40t-40 -16z" />
    <glyph glyph-name="uni1EA1" unicode="&#x1ea1;" 
d="M327 -5q-76 0 -136 36.5t-95 99.5t-35 142q0 80 36.5 143t99.5 99.5t142 36.5q78 0 140.5 -36.5t99 -99.5t37.5 -143l-34 -16q0 -74 -33.5 -133.5t-91 -94t-130.5 -34.5zM339 72q55 0 99 26t69 72t25 103q0 58 -25 103.5t-69 72t-99 26.5t-99 -26.5t-70 -72t-26 -103.5
q0 -57 26 -103t70 -72t99 -26zM573 0q-19 0 -31 11.5t-12 30.5v165l19 88l67 -22v-231q0 -19 -12.5 -30.5t-30.5 -11.5zM338 -214q-24 0 -41 17t-17 42t17.5 41.5t41.5 16.5q23 0 40.5 -16.5t17.5 -41.5t-17.5 -42t-41.5 -17z" />
    <glyph glyph-name="agrave" unicode="&#xe0;" 
d="M327 -5q-76 0 -136 36.5t-95 99.5t-35 142q0 80 36.5 143t99.5 99.5t142 36.5q78 0 140.5 -36.5t99 -99.5t37.5 -143l-34 -16q0 -74 -33.5 -133.5t-91 -94t-130.5 -34.5zM339 72q55 0 99 26t69 72t25 103q0 58 -25 103.5t-69 72t-99 26.5t-99 -26.5t-70 -72t-26 -103.5
q0 -57 26 -103t70 -72t99 -26zM573 0q-19 0 -31 11.5t-12 30.5v165l19 88l67 -22v-231q0 -19 -12.5 -30.5t-30.5 -11.5zM337 635q-17 0 -29 12l-108 107q-11 12 -11 30t12 31t30 13t31 -13l107 -108q11 -10 11 -28q0 -19 -12 -31.5t-31 -12.5z" />
    <glyph glyph-name="uni1EA3" unicode="&#x1ea3;" 
d="M327 -5q-76 0 -136 36.5t-95 99.5t-35 142q0 80 36.5 143t99.5 99.5t142 36.5q78 0 140.5 -36.5t99 -99.5t37.5 -143l-34 -16q0 -74 -33.5 -133.5t-91 -94t-130.5 -34.5zM339 72q55 0 99 26t69 72t25 103q0 58 -25 103.5t-69 72t-99 26.5t-99 -26.5t-70 -72t-26 -103.5
q0 -57 26 -103t70 -72t99 -26zM573 0q-19 0 -31 11.5t-12 30.5v165l19 88l67 -22v-231q0 -19 -12.5 -30.5t-30.5 -11.5zM338 599q-16 0 -27.5 11.5t-11.5 27.5v26q0 35 35 42l25 6q20 4 30.5 14.5t10.5 27.5q0 22 -13.5 33t-34.5 11q-13 0 -24.5 -5t-20.5 -11
q-5 -5 -12.5 -7.5t-14.5 -2.5q-14 0 -24 8.5t-10 24.5q0 19 13 30q20 15 42 23t50 8q51 0 85 -30t34 -77q0 -48 -31 -71.5t-74 -29.5l11 -8q0 -25 -11 -38t-27 -13z" />
    <glyph glyph-name="uni0203" unicode="&#x203;" 
d="M327 -5q-76 0 -136 36.5t-95 99.5t-35 142q0 80 36.5 143t99.5 99.5t142 36.5q78 0 140.5 -36.5t99 -99.5t37.5 -143l-34 -16q0 -74 -33.5 -133.5t-91 -94t-130.5 -34.5zM339 72q55 0 99 26t69 72t25 103q0 58 -25 103.5t-69 72t-99 26.5t-99 -26.5t-70 -72t-26 -103.5
q0 -57 26 -103t70 -72t99 -26zM573 0q-19 0 -31 11.5t-12 30.5v165l19 88l67 -22v-231q0 -19 -12.5 -30.5t-30.5 -11.5zM221 622q-18 0 -29.5 12.5t-11.5 30.5q0 34 21.5 61t57.5 42.5t80 15.5q42 0 77.5 -15t57.5 -42t23 -62q0 -18 -11 -30.5t-29 -12.5q-17 0 -29.5 10
t-12.5 27q0 23 -20.5 39t-55.5 16q-32 0 -54.5 -16t-22.5 -39q0 -17 -12.5 -27t-28.5 -10z" />
    <glyph glyph-name="amacron" unicode="&#x101;" 
d="M327 -5q-76 0 -136 36.5t-95 99.5t-35 142q0 80 36.5 143t99.5 99.5t142 36.5q78 0 140.5 -36.5t99 -99.5t37.5 -143l-34 -16q0 -74 -33.5 -133.5t-91 -94t-130.5 -34.5zM339 72q55 0 99 26t69 72t25 103q0 58 -25 103.5t-69 72t-99 26.5t-99 -26.5t-70 -72t-26 -103.5
q0 -57 26 -103t70 -72t99 -26zM573 0q-19 0 -31 11.5t-12 30.5v165l19 88l67 -22v-231q0 -19 -12.5 -30.5t-30.5 -11.5zM210 653q-18 0 -30.5 10.5t-12.5 28.5t12.5 28.5t30.5 10.5h256q18 0 30.5 -10.5t12.5 -28.5t-12.5 -28.5t-30.5 -10.5h-256z" />
    <glyph glyph-name="aogonek" unicode="&#x105;" 
d="M327 -5q-76 0 -136 36.5t-95 99.5t-35 142q0 80 36.5 143t99.5 99.5t142 36.5q78 0 140.5 -36.5t99 -99.5t37.5 -143l-34 -16q0 -74 -33.5 -133.5t-91 -94t-130.5 -34.5zM339 72q55 0 99 26t69 72t25 103q0 58 -25 103.5t-69 72t-99 26.5t-99 -26.5t-70 -72t-26 -103.5
q0 -57 26 -103t70 -72t99 -26zM573 0q-19 0 -31 11.5t-12 30.5v165l19 88l67 -22v-231q0 -19 -12.5 -30.5t-30.5 -11.5zM609 -267q-32 0 -59 16t-43.5 43.5t-16.5 60.5q0 56 50 98q13 9 20.5 18.5t11.5 18.5q12 22 37 22q19 0 30.5 -11.5t12.5 -30.5q0 -22 -15.5 -43
t-46.5 -44q-7 -5 -10.5 -13t-3.5 -15q0 -14 9.5 -24t23.5 -10q5 0 10 1.5t8 4.5l33 24q13 9 26 9q19 0 31 -12.5t12 -30.5q0 -20 -15 -35l-39 -25q-30 -22 -66 -22z" />
    <glyph glyph-name="aring" unicode="&#xe5;" 
d="M327 -5q-76 0 -136 36.5t-95 99.5t-35 142q0 80 36.5 143t99.5 99.5t142 36.5q78 0 140.5 -36.5t99 -99.5t37.5 -143l-34 -16q0 -74 -33.5 -133.5t-91 -94t-130.5 -34.5zM339 72q55 0 99 26t69 72t25 103q0 58 -25 103.5t-69 72t-99 26.5t-99 -26.5t-70 -72t-26 -103.5
q0 -57 26 -103t70 -72t99 -26zM573 0q-19 0 -31 11.5t-12 30.5v165l19 88l67 -22v-231q0 -19 -12.5 -30.5t-30.5 -11.5zM339 591q-43 0 -72 28.5t-29 72.5q0 43 29 72t72 29t72 -29t29 -72t-28.5 -72t-72.5 -29zM339 639q23 0 37.5 15.5t14.5 37.5q0 23 -14.5 37.5
t-37.5 14.5q-22 0 -37 -14.5t-15 -37.5q0 -22 15 -37.5t37 -15.5z" />
    <glyph glyph-name="aringacute" unicode="&#x1fb;" 
d="M327 -5q-76 0 -136 36.5t-95 99.5t-35 142q0 80 36.5 143t99.5 99.5t142 36.5q78 0 140.5 -36.5t99 -99.5t37.5 -143l-34 -16q0 -74 -33.5 -133.5t-91 -94t-130.5 -34.5zM339 72q55 0 99 26t69 72t25 103q0 58 -25 103.5t-69 72t-99 26.5t-99 -26.5t-70 -72t-26 -103.5
q0 -57 26 -103t70 -72t99 -26zM573 0q-19 0 -31 11.5t-12 30.5v165l19 88l67 -22v-231q0 -19 -12.5 -30.5t-30.5 -11.5zM339 591q-43 0 -72 28.5t-29 72.5q0 43 29 72t72 29t72 -29t29 -72t-28.5 -72t-72.5 -29zM339 639q23 0 37.5 15.5t14.5 37.5q0 23 -14.5 37.5
t-37.5 14.5q-22 0 -37 -14.5t-15 -37.5q0 -22 15 -37.5t37 -15.5zM336 831q-18 0 -30.5 12.5t-12.5 30.5t10 29l108 108q12 12 30 12q19 0 31 -12.5t12 -31.5q0 -8 -3 -15.5t-9 -13.5l-107 -108q-12 -11 -29 -11z" />
    <glyph glyph-name="atilde" unicode="&#xe3;" 
d="M327 -5q-76 0 -136 36.5t-95 99.5t-35 142q0 80 36.5 143t99.5 99.5t142 36.5q78 0 140.5 -36.5t99 -99.5t37.5 -143l-34 -16q0 -74 -33.5 -133.5t-91 -94t-130.5 -34.5zM339 72q55 0 99 26t69 72t25 103q0 58 -25 103.5t-69 72t-99 26.5t-99 -26.5t-70 -72t-26 -103.5
q0 -57 26 -103t70 -72t99 -26zM573 0q-19 0 -31 11.5t-12 30.5v165l19 88l67 -22v-231q0 -19 -12.5 -30.5t-30.5 -11.5zM445 625q-32 0 -56.5 11.5t-41.5 21.5q-22 12 -36 17.5t-26 5.5q-17 0 -31.5 -7.5t-28.5 -25.5q-10 -14 -25 -19t-30 3q-14 7 -16.5 23t7.5 30
q24 32 57 49.5t70 17.5q32 0 55.5 -11t39.5 -20q21 -13 33.5 -18.5t27.5 -5.5t26 5t20 14q12 12 24 17t27 -4q14 -8 16.5 -24.5t-8.5 -30.5q-39 -49 -104 -49z" />
    <glyph glyph-name="ae" unicode="&#xe6;" horiz-adv-x="1090" 
d="M815 -5q-79 0 -139.5 35.5t-95.5 98.5t-35 144q0 82 33 144.5t90 98.5t132 36q77 0 133 -34.5t86.5 -95.5t30.5 -139q0 -17 -11 -27.5t-28 -10.5h-418v69h422l-41 -30q-1 55 -22 99t-59.5 69t-92.5 25q-57 0 -99 -26.5t-65 -72.5t-23 -105t26 -104.5t71.5 -72
t104.5 -26.5q38 0 71.5 12t54.5 30q12 10 27.5 11t26.5 -9q14 -14 14.5 -29t-12.5 -26q-34 -27 -84.5 -45.5t-97.5 -18.5zM327 -5q-76 0 -136 36.5t-95 99.5t-35 142q0 80 36.5 143t99.5 99.5t142 36.5q78 0 140.5 -36.5t99 -99.5t37.5 -143l-34 -16q0 -74 -33.5 -133.5
t-91 -94t-130.5 -34.5zM339 72q55 0 99 26t69 72t25 103q0 58 -25 103.5t-69 72t-99 26.5t-99 -26.5t-70 -72t-26 -103.5q0 -57 26 -103t70 -72t99 -26zM573 0q-19 0 -31 11.5t-12 30.5v165l19 88l67 -22v-231q0 -19 -12.5 -30.5t-30.5 -11.5z" />
    <glyph glyph-name="aeacute" unicode="&#x1fd;" horiz-adv-x="1090" 
d="M815 -5q-79 0 -139.5 35.5t-95.5 98.5t-35 144q0 82 33 144.5t90 98.5t132 36q77 0 133 -34.5t86.5 -95.5t30.5 -139q0 -17 -11 -27.5t-28 -10.5h-418v69h422l-41 -30q-1 55 -22 99t-59.5 69t-92.5 25q-57 0 -99 -26.5t-65 -72.5t-23 -105t26 -104.5t71.5 -72
t104.5 -26.5q38 0 71.5 12t54.5 30q12 10 27.5 11t26.5 -9q14 -14 14.5 -29t-12.5 -26q-34 -27 -84.5 -45.5t-97.5 -18.5zM327 -5q-76 0 -136 36.5t-95 99.5t-35 142q0 80 36.5 143t99.5 99.5t142 36.5q78 0 140.5 -36.5t99 -99.5t37.5 -143l-34 -16q0 -74 -33.5 -133.5
t-91 -94t-130.5 -34.5zM339 72q55 0 99 26t69 72t25 103q0 58 -25 103.5t-69 72t-99 26.5t-99 -26.5t-70 -72t-26 -103.5q0 -57 26 -103t70 -72t99 -26zM573 0q-19 0 -31 11.5t-12 30.5v165l19 88l67 -22v-231q0 -19 -12.5 -30.5t-30.5 -11.5zM553 631q-18 0 -30.5 12.5
t-12.5 30.5t10 29l108 108q12 12 30 12q19 0 31 -12.5t12 -31.5q0 -8 -3 -15.5t-9 -13.5l-107 -108q-12 -11 -29 -11z" />
    <glyph glyph-name="b" unicode="b" horiz-adv-x="706" 
d="M366 -5q-78 0 -140 36.5t-98.5 99t-37.5 140.5v467q0 20 12 31.5t31 11.5t30.5 -11.5t11.5 -31.5v-286q34 45 87 72.5t117 27.5q76 0 136 -36.5t94.5 -99.5t34.5 -142q0 -80 -36.5 -143t-99 -99.5t-142.5 -36.5zM366 72q56 0 100 26.5t69.5 72t25.5 103.5q0 57 -25.5 103
t-69.5 72t-100 26q-54 0 -98.5 -26t-69.5 -72t-25 -103q0 -58 25 -103.5t69.5 -72t98.5 -26.5z" />
    <glyph glyph-name="c" unicode="c" horiz-adv-x="598" 
d="M335 -5q-79 0 -141 36.5t-97.5 99.5t-35.5 142q0 80 34.5 143t94 99.5t137.5 36.5q60 0 111 -23.5t90 -70.5q12 -14 8.5 -28.5t-18.5 -25.5q-12 -9 -27 -6t-26 16q-55 61 -138 61q-54 0 -95.5 -26t-64.5 -71t-23 -105q0 -58 24 -103.5t67.5 -71.5t99.5 -26q38 0 68.5 10
t54.5 30q13 11 27.5 12.5t26.5 -8.5q13 -12 15 -27t-10 -27q-73 -67 -182 -67z" />
    <glyph glyph-name="cacute" unicode="&#x107;" horiz-adv-x="598" 
d="M335 -5q-79 0 -141 36.5t-97.5 99.5t-35.5 142q0 80 34.5 143t94 99.5t137.5 36.5q60 0 111 -23.5t90 -70.5q12 -14 8.5 -28.5t-18.5 -25.5q-12 -9 -27 -6t-26 16q-55 61 -138 61q-54 0 -95.5 -26t-64.5 -71t-23 -105q0 -58 24 -103.5t67.5 -71.5t99.5 -26q38 0 68.5 10
t54.5 30q13 11 27.5 12.5t26.5 -8.5q13 -12 15 -27t-10 -27q-73 -67 -182 -67zM324 631q-18 0 -30.5 12.5t-12.5 30.5t10 29l108 108q12 12 30 12q19 0 31 -12.5t12 -31.5q0 -8 -3 -15.5t-9 -13.5l-107 -108q-12 -11 -29 -11z" />
    <glyph glyph-name="ccaron" unicode="&#x10d;" horiz-adv-x="598" 
d="M335 -5q-79 0 -141 36.5t-97.5 99.5t-35.5 142q0 80 34.5 143t94 99.5t137.5 36.5q60 0 111 -23.5t90 -70.5q12 -14 8.5 -28.5t-18.5 -25.5q-12 -9 -27 -6t-26 16q-55 61 -138 61q-54 0 -95.5 -26t-64.5 -71t-23 -105q0 -58 24 -103.5t67.5 -71.5t99.5 -26q38 0 68.5 10
t54.5 30q13 11 27.5 12.5t26.5 -8.5q13 -12 15 -27t-10 -27q-73 -67 -182 -67zM327 634q-14 0 -21 6l-116 77q-21 15 -21 36q0 20 21 28.5t49 -11.5l88 -59l88 59q32 21 51 11.5t19 -28.5q0 -21 -21 -36l-115 -77q-8 -6 -22 -6z" />
    <glyph glyph-name="ccedilla" unicode="&#xe7;" horiz-adv-x="598" 
d="M335 -5q-79 0 -141 36.5t-97.5 99.5t-35.5 142q0 80 34.5 143t94 99.5t137.5 36.5q60 0 111 -23.5t90 -70.5q12 -14 8.5 -28.5t-18.5 -25.5q-12 -9 -27 -6t-26 16q-55 61 -138 61q-54 0 -95.5 -26t-64.5 -71t-23 -105q0 -58 24 -103.5t67.5 -71.5t99.5 -26q38 0 68.5 10
t54.5 30q13 11 27.5 12.5t26.5 -8.5q13 -12 15 -27t-10 -27q-73 -67 -182 -67zM313 -233q-56 0 -91.5 23.5t-35.5 53.5q0 17 12 29t28 12q12 0 20.5 -5.5t14.5 -17.5q8 -13 21 -20t32 -7q22 0 36.5 9.5t14.5 27.5t-11 29t-39 17q-26 5 -37 18t-1 42l14 36q6 16 17.5 25
t31.5 9q21 0 31.5 -14.5t1.5 -33.5l-15 -36q52 -12 73.5 -35.5t21.5 -57.5q0 -28 -18 -51.5t-49.5 -38t-72.5 -14.5z" />
    <glyph glyph-name="ccircumflex" unicode="&#x109;" horiz-adv-x="598" 
d="M335 -5q-79 0 -141 36.5t-97.5 99.5t-35.5 142q0 80 34.5 143t94 99.5t137.5 36.5q60 0 111 -23.5t90 -70.5q12 -14 8.5 -28.5t-18.5 -25.5q-12 -9 -27 -6t-26 16q-55 61 -138 61q-54 0 -95.5 -26t-64.5 -71t-23 -105q0 -58 24 -103.5t67.5 -71.5t99.5 -26q38 0 68.5 10
t54.5 30q13 11 27.5 12.5t26.5 -8.5q13 -12 15 -27t-10 -27q-73 -67 -182 -67zM213 628q-19 0 -31.5 10t-12.5 27q0 22 21 37l116 76q9 6 21 6q7 0 12 -1.5t10 -4.5l115 -76q21 -15 21 -37q0 -16 -12 -26.5t-31 -10.5q-8 0 -14 2t-13 7l-88 61l-88 -61q-12 -9 -26 -9z" />
    <glyph glyph-name="cdotaccent" unicode="&#x10b;" horiz-adv-x="598" 
d="M335 -5q-79 0 -141 36.5t-97.5 99.5t-35.5 142q0 80 34.5 143t94 99.5t137.5 36.5q60 0 111 -23.5t90 -70.5q12 -14 8.5 -28.5t-18.5 -25.5q-12 -9 -27 -6t-26 16q-55 61 -138 61q-54 0 -95.5 -26t-64.5 -71t-23 -105q0 -58 24 -103.5t67.5 -71.5t99.5 -26q38 0 68.5 10
t54.5 30q13 11 27.5 12.5t26.5 -8.5q13 -12 15 -27t-10 -27q-73 -67 -182 -67zM326 646q-24 0 -41 17t-17 42t17.5 41.5t41.5 16.5q23 0 40.5 -16.5t17.5 -41.5t-17.5 -42t-41.5 -17z" />
    <glyph glyph-name="d" unicode="d" horiz-adv-x="706" 
d="M339 -5q-79 0 -142 36.5t-99.5 99.5t-36.5 143q0 79 35 142t95 99.5t136 36.5q64 0 116.5 -27.5t86.5 -72.5v286q0 20 12 31.5t31 11.5t31 -11.5t12 -31.5v-467q-2 -78 -38.5 -140.5t-98.5 -99t-140 -36.5zM339 72q55 0 99 26.5t69 72t25 103.5q0 57 -25 103t-69 72
t-99 26t-99 -26t-70 -72t-26 -103q0 -58 26 -103.5t70 -72t99 -26.5z" />
    <glyph glyph-name="eth" unicode="&#xf0;" horiz-adv-x="669" 
d="M327 -5q-78 0 -138 33.5t-94 92.5t-34 136q0 76 32.5 134.5t90 91.5t131.5 33q71 0 125 -32t84.5 -87.5t30.5 -127.5h44q0 -80 -35 -142t-96 -97t-141 -35zM327 72q56 0 98.5 23.5t66.5 65t24 96.5q0 53 -24 94.5t-66.5 64.5t-98.5 23q-53 0 -94.5 -23t-65 -64.5
t-23.5 -94.5q0 -55 23.5 -96.5t65 -65t94.5 -23.5zM534 267l-1 82q-1 82 -16.5 141t-51 101t-93.5 74t-144 60q-21 7 -30.5 19t-3.5 28q6 17 21 19.5t33 -3.5q99 -35 166.5 -74.5t108 -89.5t58.5 -115t18 -150v-92h-65zM254 608q-12 5 -16 14.5t4 22.5l92 176
q6 13 16.5 15.5t21.5 -4.5q13 -8 16 -18t-2 -20l-92 -176q-6 -11 -17 -14.5t-23 4.5z" />
    <glyph glyph-name="dcaron" unicode="&#x10f;" horiz-adv-x="795" 
d="M339 -5q-79 0 -142 36.5t-99.5 99.5t-36.5 143q0 79 35 142t95 99.5t136 36.5q64 0 116.5 -27.5t86.5 -72.5v286q0 20 12 31.5t31 11.5t31 -11.5t12 -31.5v-467q-2 -78 -38.5 -140.5t-98.5 -99t-140 -36.5zM339 72q55 0 99 26.5t69 72t25 103.5q0 57 -25 103t-69 72
t-99 26t-99 -26t-70 -72t-26 -103q0 -58 26 -103.5t70 -72t99 -26.5zM688 517q-11 2 -17 8.5t-5 17.5q2 14 13.5 30.5t23.5 36t15 45.5q2 20 -2.5 32.5t-9.5 25.5t-5 33q0 21 14 30.5t33 9.5q31 0 46 -29t9 -68q-3 -30 -16.5 -61t-32 -57t-36.5 -41t-30 -13z" />
    <glyph glyph-name="dcroat" unicode="&#x111;" horiz-adv-x="706" 
d="M375 617q-18 0 -30 10.5t-12 24.5q0 17 12 26t30 9h288q19 0 31 -9t12 -26q0 -14 -12 -24.5t-31 -10.5h-288zM339 -5q-79 0 -142 36.5t-99.5 99.5t-36.5 143q0 79 35 142t95 99.5t136 36.5q64 0 116.5 -27.5t86.5 -72.5v286q0 20 12 31.5t31 11.5t31 -11.5t12 -31.5v-467
q-2 -78 -38.5 -140.5t-98.5 -99t-140 -36.5zM339 72q55 0 99 26.5t69 72t25 103.5q0 57 -25 103t-69 72t-99 26t-99 -26t-70 -72t-26 -103q0 -58 26 -103.5t70 -72t99 -26.5z" />
    <glyph glyph-name="e" unicode="e" horiz-adv-x="616" 
d="M341 -5q-82 0 -145 35.5t-99 98.5t-36 144q0 82 34 144.5t93.5 98.5t137.5 36q77 0 133 -34.5t86.5 -95.5t30.5 -139q0 -17 -11 -27.5t-28 -10.5h-418v69h422l-42 -30q0 55 -21 99t-59.5 69t-92.5 25q-57 0 -99 -26.5t-65 -72.5t-23 -105t26 -104.5t71.5 -72t104.5 -26.5
q34 0 69.5 12t56.5 30q12 10 27.5 10.5t26.5 -8.5q14 -13 14.5 -28.5t-12.5 -26.5q-34 -28 -84.5 -46t-97.5 -18z" />
    <glyph glyph-name="eacute" unicode="&#xe9;" horiz-adv-x="616" 
d="M341 -5q-82 0 -145 35.5t-99 98.5t-36 144q0 82 34 144.5t93.5 98.5t137.5 36q77 0 133 -34.5t86.5 -95.5t30.5 -139q0 -17 -11 -27.5t-28 -10.5h-418v69h422l-42 -30q0 55 -21 99t-59.5 69t-92.5 25q-57 0 -99 -26.5t-65 -72.5t-23 -105t26 -104.5t71.5 -72t104.5 -26.5
q34 0 69.5 12t56.5 30q12 10 27.5 10.5t26.5 -8.5q14 -13 14.5 -28.5t-12.5 -26.5q-34 -28 -84.5 -46t-97.5 -18zM316 631q-18 0 -30.5 12.5t-12.5 30.5t10 29l108 108q12 12 30 12q19 0 31 -12.5t12 -31.5q0 -8 -3 -15.5t-9 -13.5l-107 -108q-12 -11 -29 -11z" />
    <glyph glyph-name="ebreve" unicode="&#x115;" horiz-adv-x="616" 
d="M341 -5q-82 0 -145 35.5t-99 98.5t-36 144q0 82 34 144.5t93.5 98.5t137.5 36q77 0 133 -34.5t86.5 -95.5t30.5 -139q0 -17 -11 -27.5t-28 -10.5h-418v69h422l-42 -30q0 55 -21 99t-59.5 69t-92.5 25q-57 0 -99 -26.5t-65 -72.5t-23 -105t26 -104.5t71.5 -72t104.5 -26.5
q34 0 69.5 12t56.5 30q12 10 27.5 10.5t26.5 -8.5q14 -13 14.5 -28.5t-12.5 -26.5q-34 -28 -84.5 -46t-97.5 -18zM318 622q-43 0 -79 16t-57.5 43t-21.5 60q0 18 11.5 31t29.5 13q16 0 28.5 -10.5t12.5 -27.5q0 -23 22.5 -38.5t53.5 -15.5q36 0 56.5 15.5t20.5 38.5
q0 17 12.5 27.5t29.5 10.5q18 0 29 -12.5t11 -30.5q-1 -35 -23 -62t-57.5 -42.5t-78.5 -15.5z" />
    <glyph glyph-name="ecaron" unicode="&#x11b;" horiz-adv-x="616" 
d="M341 -5q-82 0 -145 35.5t-99 98.5t-36 144q0 82 34 144.5t93.5 98.5t137.5 36q77 0 133 -34.5t86.5 -95.5t30.5 -139q0 -17 -11 -27.5t-28 -10.5h-418v69h422l-42 -30q0 55 -21 99t-59.5 69t-92.5 25q-57 0 -99 -26.5t-65 -72.5t-23 -105t26 -104.5t71.5 -72t104.5 -26.5
q34 0 69.5 12t56.5 30q12 10 27.5 10.5t26.5 -8.5q14 -13 14.5 -28.5t-12.5 -26.5q-34 -28 -84.5 -46t-97.5 -18zM319 634q-14 0 -21 6l-116 77q-21 15 -21 36q0 20 21 28.5t49 -11.5l88 -59l88 59q32 21 51 11.5t19 -28.5q0 -21 -21 -36l-115 -77q-8 -6 -22 -6z" />
    <glyph glyph-name="ecircumflex" unicode="&#xea;" horiz-adv-x="616" 
d="M341 -5q-82 0 -145 35.5t-99 98.5t-36 144q0 82 34 144.5t93.5 98.5t137.5 36q77 0 133 -34.5t86.5 -95.5t30.5 -139q0 -17 -11 -27.5t-28 -10.5h-418v69h422l-42 -30q0 55 -21 99t-59.5 69t-92.5 25q-57 0 -99 -26.5t-65 -72.5t-23 -105t26 -104.5t71.5 -72t104.5 -26.5
q34 0 69.5 12t56.5 30q12 10 27.5 10.5t26.5 -8.5q14 -13 14.5 -28.5t-12.5 -26.5q-34 -28 -84.5 -46t-97.5 -18zM205 628q-19 0 -31.5 10t-12.5 27q0 22 21 37l116 76q9 6 21 6q7 0 12 -1.5t10 -4.5l115 -76q21 -15 21 -37q0 -16 -12 -26.5t-31 -10.5q-8 0 -14 2t-13 7
l-88 61l-88 -61q-12 -9 -26 -9z" />
    <glyph glyph-name="uni1EBF" unicode="&#x1ebf;" horiz-adv-x="616" 
d="M341 -5q-82 0 -145 35.5t-99 98.5t-36 144q0 82 34 144.5t93.5 98.5t137.5 36q77 0 133 -34.5t86.5 -95.5t30.5 -139q0 -17 -11 -27.5t-28 -10.5h-418v69h422l-42 -30q0 55 -21 99t-59.5 69t-92.5 25q-57 0 -99 -26.5t-65 -72.5t-23 -105t26 -104.5t71.5 -72t104.5 -26.5
q34 0 69.5 12t56.5 30q12 10 27.5 10.5t26.5 -8.5q14 -13 14.5 -28.5t-12.5 -26.5q-34 -28 -84.5 -46t-97.5 -18zM205 628q-19 0 -31.5 10t-12.5 27q0 22 21 37l116 76q9 6 21 6q7 0 12 -1.5t10 -4.5l115 -76q21 -15 21 -37q0 -16 -12 -26.5t-31 -10.5q-8 0 -14 2t-13 7
l-88 61l-88 -61q-12 -9 -26 -9zM414 792q-18 0 -30.5 12t-12.5 31q0 17 10 28l108 108q13 13 30 13q20 0 31.5 -13t11.5 -31q0 -8 -2.5 -16t-9.5 -13l-107 -108q-11 -11 -29 -11z" />
    <glyph glyph-name="uni1EC7" unicode="&#x1ec7;" horiz-adv-x="616" 
d="M341 -5q-82 0 -145 35.5t-99 98.5t-36 144q0 82 34 144.5t93.5 98.5t137.5 36q77 0 133 -34.5t86.5 -95.5t30.5 -139q0 -17 -11 -27.5t-28 -10.5h-418v69h422l-42 -30q0 55 -21 99t-59.5 69t-92.5 25q-57 0 -99 -26.5t-65 -72.5t-23 -105t26 -104.5t71.5 -72t104.5 -26.5
q34 0 69.5 12t56.5 30q12 10 27.5 10.5t26.5 -8.5q14 -13 14.5 -28.5t-12.5 -26.5q-34 -28 -84.5 -46t-97.5 -18zM205 628q-19 0 -31.5 10t-12.5 27q0 22 21 37l116 76q9 6 21 6q7 0 12 -1.5t10 -4.5l115 -76q21 -15 21 -37q0 -16 -12 -26.5t-31 -10.5q-8 0 -14 2t-13 7
l-88 61l-88 -61q-12 -9 -26 -9zM319 -214q-24 0 -41 17t-17 42t17.5 41.5t41.5 16.5q23 0 40.5 -16.5t17.5 -41.5t-17.5 -42t-41.5 -17z" />
    <glyph glyph-name="uni1EC1" unicode="&#x1ec1;" horiz-adv-x="616" 
d="M341 -5q-82 0 -145 35.5t-99 98.5t-36 144q0 82 34 144.5t93.5 98.5t137.5 36q77 0 133 -34.5t86.5 -95.5t30.5 -139q0 -17 -11 -27.5t-28 -10.5h-418v69h422l-42 -30q0 55 -21 99t-59.5 69t-92.5 25q-57 0 -99 -26.5t-65 -72.5t-23 -105t26 -104.5t71.5 -72t104.5 -26.5
q34 0 69.5 12t56.5 30q12 10 27.5 10.5t26.5 -8.5q14 -13 14.5 -28.5t-12.5 -26.5q-34 -28 -84.5 -46t-97.5 -18zM205 628q-19 0 -31.5 10t-12.5 27q0 22 21 37l116 76q9 6 21 6q7 0 12 -1.5t10 -4.5l115 -76q21 -15 21 -37q0 -16 -12 -26.5t-31 -10.5q-8 0 -14 2t-13 7
l-88 61l-88 -61q-12 -9 -26 -9zM417 796q-18 0 -29 12l-108 107q-11 11 -11 29q0 19 12 31.5t30 12.5q17 0 31 -13l107 -108q11 -10 11 -28t-12.5 -30.5t-30.5 -12.5z" />
    <glyph glyph-name="uni1EC3" unicode="&#x1ec3;" horiz-adv-x="616" 
d="M341 -5q-82 0 -145 35.5t-99 98.5t-36 144q0 82 34 144.5t93.5 98.5t137.5 36q77 0 133 -34.5t86.5 -95.5t30.5 -139q0 -17 -11 -27.5t-28 -10.5h-418v69h422l-42 -30q0 55 -21 99t-59.5 69t-92.5 25q-57 0 -99 -26.5t-65 -72.5t-23 -105t26 -104.5t71.5 -72t104.5 -26.5
q34 0 69.5 12t56.5 30q12 10 27.5 10.5t26.5 -8.5q14 -13 14.5 -28.5t-12.5 -26.5q-34 -28 -84.5 -46t-97.5 -18zM208 628q-19 0 -31.5 10t-12.5 27q0 22 21 37l116 76q9 6 21 6q7 0 12 -1.5t10 -4.5l115 -76q21 -15 21 -37q0 -16 -12 -26.5t-31 -10.5q-8 0 -14 2t-13 7
l-88 61l-88 -61q-12 -9 -26 -9zM421 760q-17 0 -28 11t-11 28v26q0 34 34 42l26 5q19 5 30 15.5t11 27.5q0 21 -14 32t-34 11q-13 0 -24.5 -4.5t-20.5 -11.5q-5 -5 -13 -7t-15 -2q-13 0 -23 8.5t-10 24.5q0 18 13 29q19 16 41 24t51 8q51 0 84.5 -30.5t33.5 -77.5
q1 -48 -30.5 -71t-74.5 -29l12 -8q0 -26 -11.5 -38.5t-26.5 -12.5z" />
    <glyph glyph-name="uni1EC5" unicode="&#x1ec5;" horiz-adv-x="616" 
d="M341 -5q-82 0 -145 35.5t-99 98.5t-36 144q0 82 34 144.5t93.5 98.5t137.5 36q77 0 133 -34.5t86.5 -95.5t30.5 -139q0 -17 -11 -27.5t-28 -10.5h-418v69h422l-42 -30q0 55 -21 99t-59.5 69t-92.5 25q-57 0 -99 -26.5t-65 -72.5t-23 -105t26 -104.5t71.5 -72t104.5 -26.5
q34 0 69.5 12t56.5 30q12 10 27.5 10.5t26.5 -8.5q14 -13 14.5 -28.5t-12.5 -26.5q-34 -28 -84.5 -46t-97.5 -18zM208 628q-19 0 -31.5 10t-12.5 27q0 22 21 37l116 76q10 6 21 6q7 0 12.5 -1.5t10.5 -4.5l115 -76q20 -15 20 -37q0 -16 -12 -26.5t-30 -10.5q-8 0 -14.5 2
t-12.5 7l-89 61l-88 -61q-12 -9 -26 -9zM381 811q-25 0 -45 11.5t-36 26.5q-13 12 -22.5 19t-20.5 7t-19 -9t-17 -25q-7 -14 -21 -19.5t-28 0.5t-19.5 20t2.5 29q19 39 43 56.5t54 17.5q31 0 49.5 -14t32.5 -26q15 -13 23.5 -17.5t15.5 -4.5q13 0 24 21q8 14 22 20.5t28 1.5
q17 -7 23 -21t-3 -29q-18 -35 -39 -50t-47 -15z" />
    <glyph glyph-name="uni0205" unicode="&#x205;" horiz-adv-x="616" 
d="M341 -5q-82 0 -145 35.5t-99 98.5t-36 144q0 82 34 144.5t93.5 98.5t137.5 36q77 0 133 -34.5t86.5 -95.5t30.5 -139q0 -17 -11 -27.5t-28 -10.5h-418v69h422l-42 -30q0 55 -21 99t-59.5 69t-92.5 25q-57 0 -99 -26.5t-65 -72.5t-23 -105t26 -104.5t71.5 -72t104.5 -26.5
q34 0 69.5 12t56.5 30q12 10 27.5 10.5t26.5 -8.5q14 -13 14.5 -28.5t-12.5 -26.5q-34 -28 -84.5 -46t-97.5 -18zM424 622q-21 0 -31 21l-60 125q-3 8 -3 17q0 16 12.5 29t31.5 13q13 0 24.5 -7.5t15.5 -19.5l40 -132q3 -6 3 -13q0 -16 -11 -24.5t-22 -8.5zM276 622
q-21 0 -32 21l-59 125q-2 5 -2.5 9t-1.5 8q0 16 12.5 29t31.5 13q13 0 24 -7.5t15 -19.5l42 -132q1 -3 1.5 -6.5t0.5 -6.5q0 -16 -10.5 -24.5t-21.5 -8.5z" />
    <glyph glyph-name="edieresis" unicode="&#xeb;" horiz-adv-x="616" 
d="M341 -5q-82 0 -145 35.5t-99 98.5t-36 144q0 82 34 144.5t93.5 98.5t137.5 36q77 0 133 -34.5t86.5 -95.5t30.5 -139q0 -17 -11 -27.5t-28 -10.5h-418v69h422l-42 -30q0 55 -21 99t-59.5 69t-92.5 25q-57 0 -99 -26.5t-65 -72.5t-23 -105t26 -104.5t71.5 -72t104.5 -26.5
q34 0 69.5 12t56.5 30q12 10 27.5 10.5t26.5 -8.5q14 -13 14.5 -28.5t-12.5 -26.5q-34 -28 -84.5 -46t-97.5 -18zM213 642q-25 0 -41 16t-16 40q0 23 16 40t41 17q23 0 39.5 -17t16.5 -40q0 -24 -16.5 -40t-39.5 -16zM426 642q-24 0 -40.5 16t-16.5 40q0 23 16.5 40t40.5 17
q23 0 40 -17t17 -40q0 -24 -17 -40t-40 -16z" />
    <glyph glyph-name="edotaccent" unicode="&#x117;" horiz-adv-x="616" 
d="M341 -5q-82 0 -145 35.5t-99 98.5t-36 144q0 82 34 144.5t93.5 98.5t137.5 36q77 0 133 -34.5t86.5 -95.5t30.5 -139q0 -17 -11 -27.5t-28 -10.5h-418v69h422l-42 -30q0 55 -21 99t-59.5 69t-92.5 25q-57 0 -99 -26.5t-65 -72.5t-23 -105t26 -104.5t71.5 -72t104.5 -26.5
q34 0 69.5 12t56.5 30q12 10 27.5 10.5t26.5 -8.5q14 -13 14.5 -28.5t-12.5 -26.5q-34 -28 -84.5 -46t-97.5 -18zM319 646q-24 0 -41 17t-17 42t17.5 41.5t41.5 16.5q23 0 40.5 -16.5t17.5 -41.5t-17.5 -42t-41.5 -17z" />
    <glyph glyph-name="uni1EB9" unicode="&#x1eb9;" horiz-adv-x="616" 
d="M341 -5q-82 0 -145 35.5t-99 98.5t-36 144q0 82 34 144.5t93.5 98.5t137.5 36q77 0 133 -34.5t86.5 -95.5t30.5 -139q0 -17 -11 -27.5t-28 -10.5h-418v69h422l-42 -30q0 55 -21 99t-59.5 69t-92.5 25q-57 0 -99 -26.5t-65 -72.5t-23 -105t26 -104.5t71.5 -72t104.5 -26.5
q34 0 69.5 12t56.5 30q12 10 27.5 10.5t26.5 -8.5q14 -13 14.5 -28.5t-12.5 -26.5q-34 -28 -84.5 -46t-97.5 -18zM319 -214q-24 0 -41 17t-17 42t17.5 41.5t41.5 16.5q23 0 40.5 -16.5t17.5 -41.5t-17.5 -42t-41.5 -17z" />
    <glyph glyph-name="egrave" unicode="&#xe8;" horiz-adv-x="616" 
d="M341 -5q-82 0 -145 35.5t-99 98.5t-36 144q0 82 34 144.5t93.5 98.5t137.5 36q77 0 133 -34.5t86.5 -95.5t30.5 -139q0 -17 -11 -27.5t-28 -10.5h-418v69h422l-42 -30q0 55 -21 99t-59.5 69t-92.5 25q-57 0 -99 -26.5t-65 -72.5t-23 -105t26 -104.5t71.5 -72t104.5 -26.5
q34 0 69.5 12t56.5 30q12 10 27.5 10.5t26.5 -8.5q14 -13 14.5 -28.5t-12.5 -26.5q-34 -28 -84.5 -46t-97.5 -18zM317 635q-17 0 -29 12l-108 107q-11 12 -11 30t12 31t30 13t31 -13l107 -108q11 -10 11 -28q0 -19 -12 -31.5t-31 -12.5z" />
    <glyph glyph-name="uni1EBB" unicode="&#x1ebb;" horiz-adv-x="616" 
d="M341 -5q-82 0 -145 35.5t-99 98.5t-36 144q0 82 34 144.5t93.5 98.5t137.5 36q77 0 133 -34.5t86.5 -95.5t30.5 -139q0 -17 -11 -27.5t-28 -10.5h-418v69h422l-42 -30q0 55 -21 99t-59.5 69t-92.5 25q-57 0 -99 -26.5t-65 -72.5t-23 -105t26 -104.5t71.5 -72t104.5 -26.5
q34 0 69.5 12t56.5 30q12 10 27.5 10.5t26.5 -8.5q14 -13 14.5 -28.5t-12.5 -26.5q-34 -28 -84.5 -46t-97.5 -18zM319 599q-16 0 -27.5 11.5t-11.5 27.5v26q0 35 35 42l25 6q20 4 30.5 14.5t10.5 27.5q0 22 -13.5 33t-34.5 11q-13 0 -24.5 -5t-20.5 -11q-5 -5 -12.5 -7.5
t-14.5 -2.5q-14 0 -24 8.5t-10 24.5q0 19 13 30q20 15 42 23t50 8q51 0 85 -30t34 -77q0 -48 -31 -71.5t-74 -29.5l11 -8q0 -25 -11 -38t-27 -13z" />
    <glyph glyph-name="uni0207" unicode="&#x207;" horiz-adv-x="616" 
d="M341 -5q-82 0 -145 35.5t-99 98.5t-36 144q0 82 34 144.5t93.5 98.5t137.5 36q77 0 133 -34.5t86.5 -95.5t30.5 -139q0 -17 -11 -27.5t-28 -10.5h-418v69h422l-42 -30q0 55 -21 99t-59.5 69t-92.5 25q-57 0 -99 -26.5t-65 -72.5t-23 -105t26 -104.5t71.5 -72t104.5 -26.5
q34 0 69.5 12t56.5 30q12 10 27.5 10.5t26.5 -8.5q14 -13 14.5 -28.5t-12.5 -26.5q-34 -28 -84.5 -46t-97.5 -18zM201 622q-18 0 -29.5 12.5t-11.5 30.5q0 34 21.5 61t57.5 42.5t80 15.5q42 0 77.5 -15t57.5 -42t23 -62q0 -18 -11 -30.5t-29 -12.5q-17 0 -29.5 10t-12.5 27
q0 23 -20.5 39t-55.5 16q-32 0 -54.5 -16t-22.5 -39q0 -17 -12.5 -27t-28.5 -10z" />
    <glyph glyph-name="emacron" unicode="&#x113;" horiz-adv-x="616" 
d="M341 -5q-82 0 -145 35.5t-99 98.5t-36 144q0 82 34 144.5t93.5 98.5t137.5 36q77 0 133 -34.5t86.5 -95.5t30.5 -139q0 -17 -11 -27.5t-28 -10.5h-418v69h422l-42 -30q0 55 -21 99t-59.5 69t-92.5 25q-57 0 -99 -26.5t-65 -72.5t-23 -105t26 -104.5t71.5 -72t104.5 -26.5
q34 0 69.5 12t56.5 30q12 10 27.5 10.5t26.5 -8.5q14 -13 14.5 -28.5t-12.5 -26.5q-34 -28 -84.5 -46t-97.5 -18zM191 653q-18 0 -30.5 10.5t-12.5 28.5t12.5 28.5t30.5 10.5h256q18 0 30.5 -10.5t12.5 -28.5t-12.5 -28.5t-30.5 -10.5h-256z" />
    <glyph glyph-name="eogonek" unicode="&#x119;" horiz-adv-x="616" 
d="M341 -5q-82 0 -145 35.5t-99 98.5t-36 144q0 82 34 144.5t93.5 98.5t137.5 36q77 0 133 -34.5t86.5 -95.5t30.5 -139q0 -17 -11 -27.5t-28 -10.5h-418v69h422l-42 -30q0 55 -21 99t-59.5 69t-92.5 25q-57 0 -99 -26.5t-65 -72.5t-23 -105t26 -104.5t71.5 -72t104.5 -26.5
q34 0 69.5 12t56.5 30q12 10 27.5 10.5t26.5 -8.5q14 -13 14.5 -28.5t-12.5 -26.5q-34 -28 -84.5 -46t-97.5 -18zM409 -197q-32 0 -59 16t-43.5 43.5t-16.5 60.5q0 56 50 98q13 9 20.5 18.5t11.5 18.5q12 22 37 22q19 0 30.5 -11.5t12.5 -30.5q0 -22 -15.5 -43t-46.5 -44
q-7 -5 -10.5 -13t-3.5 -15q0 -14 9.5 -24t23.5 -10q5 0 10 1.5t8 4.5l33 24q13 9 26 9q19 0 31 -12.5t12 -30.5q0 -20 -15 -35l-39 -25q-30 -22 -66 -22z" />
    <glyph glyph-name="uni1EBD" unicode="&#x1ebd;" horiz-adv-x="616" 
d="M341 -5q-82 0 -145 35.5t-99 98.5t-36 144q0 82 34 144.5t93.5 98.5t137.5 36q77 0 133 -34.5t86.5 -95.5t30.5 -139q0 -17 -11 -27.5t-28 -10.5h-418v69h422l-42 -30q0 55 -21 99t-59.5 69t-92.5 25q-57 0 -99 -26.5t-65 -72.5t-23 -105t26 -104.5t71.5 -72t104.5 -26.5
q34 0 69.5 12t56.5 30q12 10 27.5 10.5t26.5 -8.5q14 -13 14.5 -28.5t-12.5 -26.5q-34 -28 -84.5 -46t-97.5 -18zM425 625q-32 0 -56.5 11.5t-41.5 21.5q-22 12 -36 17.5t-26 5.5q-17 0 -31.5 -7.5t-28.5 -25.5q-10 -14 -25 -19t-30 3q-14 7 -16.5 23t7.5 30q24 32 57 49.5
t70 17.5q32 0 55.5 -11t39.5 -20q21 -13 33.5 -18.5t27.5 -5.5t26 5t20 14q12 12 24 17t27 -4q14 -8 16.5 -24.5t-8.5 -30.5q-39 -49 -104 -49z" />
    <glyph glyph-name="uni0259" unicode="&#x259;" horiz-adv-x="616" 
d="M290 -4q-76 0 -132 34.5t-87 95t-31 139.5q0 17 11 27t28 10h418v-68h-422l42 30q0 -56 21 -100t59.5 -69t92.5 -25q58 0 100 26.5t64.5 72.5t22.5 105t-26 104.5t-71.5 72t-104.5 26.5q-34 0 -69 -12t-57 -30q-12 -10 -27 -10t-26 8q-15 13 -15.5 28.5t13.5 26.5
q33 28 84 46t97 18q82 0 145 -35.5t99 -98.5t36 -144t-34 -144t-93.5 -98.5t-137.5 -35.5z" />
    <glyph glyph-name="f" unicode="f" horiz-adv-x="366" 
d="M155 0q-16 0 -28.5 11.5t-12.5 31.5v502q0 71 25.5 124t74 82.5t115.5 29.5q19 0 31 -11t12 -28q0 -16 -12 -27t-31 -11q-42 0 -71 -19.5t-44 -54t-15 -79.5v-508q0 -20 -11.5 -31.5t-32.5 -11.5zM57 454q-18 0 -28.5 10t-10.5 26t10.5 26.5t28.5 10.5h256
q18 0 28.5 -10.5t10.5 -26.5t-10.5 -26t-28.5 -10h-256z" />
    <glyph glyph-name="g" unicode="g" 
d="M327 -5q-78 0 -138 35.5t-94 98.5t-34 144q0 82 36 145t98.5 98.5t143.5 35.5q80 0 142.5 -35.5t98 -98.5t36.5 -145l-50 -16q0 -76 -31 -135.5t-85 -93t-123 -33.5zM339 -220q-76 0 -136.5 29t-101.5 81q-11 14 -9 29.5t16 24.5q15 10 32 7t27 -17q28 -35 72 -56
t102 -21q53 0 96.5 25.5t69 73.5t25.5 113v149l31 68l53 -13v-208q0 -80 -36 -144.5t-98 -102.5t-143 -38zM339 72q56 0 100 25.5t68.5 71t24.5 104.5t-24.5 105t-68.5 71.5t-100 25.5q-57 0 -101 -25.5t-69 -71.5t-25 -105t25 -104.5t69 -71t101 -25.5z" />
    <glyph glyph-name="gbreve" unicode="&#x11f;" 
d="M327 -5q-78 0 -138 35.5t-94 98.5t-34 144q0 82 36 145t98.5 98.5t143.5 35.5q80 0 142.5 -35.5t98 -98.5t36.5 -145l-50 -16q0 -76 -31 -135.5t-85 -93t-123 -33.5zM339 -220q-76 0 -136.5 29t-101.5 81q-11 14 -9 29.5t16 24.5q15 10 32 7t27 -17q28 -35 72 -56
t102 -21q53 0 96.5 25.5t69 73.5t25.5 113v149l31 68l53 -13v-208q0 -80 -36 -144.5t-98 -102.5t-143 -38zM339 72q56 0 100 25.5t68.5 71t24.5 104.5t-24.5 105t-68.5 71.5t-100 25.5q-57 0 -101 -25.5t-69 -71.5t-25 -105t25 -104.5t69 -71t101 -25.5zM338 622
q-43 0 -79 16t-57.5 43t-21.5 60q0 18 11.5 31t29.5 13q16 0 28.5 -10.5t12.5 -27.5q0 -23 22.5 -38.5t53.5 -15.5q36 0 56.5 15.5t20.5 38.5q0 17 12.5 27.5t29.5 10.5q18 0 29 -12.5t11 -30.5q-1 -35 -23 -62t-57.5 -42.5t-78.5 -15.5z" />
    <glyph glyph-name="gcaron" unicode="&#x1e7;" 
d="M327 -5q-78 0 -138 35.5t-94 98.5t-34 144q0 82 36 145t98.5 98.5t143.5 35.5q80 0 142.5 -35.5t98 -98.5t36.5 -145l-50 -16q0 -76 -31 -135.5t-85 -93t-123 -33.5zM339 -220q-76 0 -136.5 29t-101.5 81q-11 14 -9 29.5t16 24.5q15 10 32 7t27 -17q28 -35 72 -56
t102 -21q53 0 96.5 25.5t69 73.5t25.5 113v149l31 68l53 -13v-208q0 -80 -36 -144.5t-98 -102.5t-143 -38zM339 72q56 0 100 25.5t68.5 71t24.5 104.5t-24.5 105t-68.5 71.5t-100 25.5q-57 0 -101 -25.5t-69 -71.5t-25 -105t25 -104.5t69 -71t101 -25.5zM339 634
q-14 0 -21 6l-116 77q-21 15 -21 36q0 20 21 28.5t49 -11.5l88 -59l88 59q32 21 51 11.5t19 -28.5q0 -21 -21 -36l-115 -77q-8 -6 -22 -6z" />
    <glyph glyph-name="gcircumflex" unicode="&#x11d;" 
d="M327 -5q-78 0 -138 35.5t-94 98.5t-34 144q0 82 36 145t98.5 98.5t143.5 35.5q80 0 142.5 -35.5t98 -98.5t36.5 -145l-50 -16q0 -76 -31 -135.5t-85 -93t-123 -33.5zM339 -220q-76 0 -136.5 29t-101.5 81q-11 14 -9 29.5t16 24.5q15 10 32 7t27 -17q28 -35 72 -56
t102 -21q53 0 96.5 25.5t69 73.5t25.5 113v149l31 68l53 -13v-208q0 -80 -36 -144.5t-98 -102.5t-143 -38zM339 72q56 0 100 25.5t68.5 71t24.5 104.5t-24.5 105t-68.5 71.5t-100 25.5q-57 0 -101 -25.5t-69 -71.5t-25 -105t25 -104.5t69 -71t101 -25.5zM225 628
q-19 0 -31.5 10t-12.5 27q0 22 21 37l116 76q9 6 21 6q7 0 12 -1.5t10 -4.5l115 -76q21 -15 21 -37q0 -16 -12 -26.5t-31 -10.5q-8 0 -14 2t-13 7l-88 61l-88 -61q-12 -9 -26 -9z" />
    <glyph glyph-name="uni0123" unicode="&#x123;" 
d="M327 -5q-78 0 -138 35.5t-94 98.5t-34 144q0 82 36 145t98.5 98.5t143.5 35.5q80 0 142.5 -35.5t98 -98.5t36.5 -145l-50 -16q0 -76 -31 -135.5t-85 -93t-123 -33.5zM339 -220q-76 0 -136.5 29t-101.5 81q-11 14 -9 29.5t16 24.5q15 10 32 7t27 -17q28 -35 72 -56
t102 -21q53 0 96.5 25.5t69 73.5t25.5 113v149l31 68l53 -13v-208q0 -80 -36 -144.5t-98 -102.5t-143 -38zM339 72q56 0 100 25.5t68.5 71t24.5 104.5t-24.5 105t-68.5 71.5t-100 25.5q-57 0 -101 -25.5t-69 -71.5t-25 -105t25 -104.5t69 -71t101 -25.5zM374 916
q12 0 17.5 -6.5t5.5 -15.5q0 -17 -10 -30t-20 -28t-10 -37q0 -17 7 -29t17 -21.5t17 -21t7 -28.5q0 -26 -17 -42t-44 -16q-33 0 -52 24.5t-19 66.5q0 30 9 62t24 59.5t33 45t35 17.5z" />
    <glyph glyph-name="gdotaccent" unicode="&#x121;" 
d="M327 -5q-78 0 -138 35.5t-94 98.5t-34 144q0 82 36 145t98.5 98.5t143.5 35.5q80 0 142.5 -35.5t98 -98.5t36.5 -145l-50 -16q0 -76 -31 -135.5t-85 -93t-123 -33.5zM339 -220q-76 0 -136.5 29t-101.5 81q-11 14 -9 29.5t16 24.5q15 10 32 7t27 -17q28 -35 72 -56
t102 -21q53 0 96.5 25.5t69 73.5t25.5 113v149l31 68l53 -13v-208q0 -80 -36 -144.5t-98 -102.5t-143 -38zM339 72q56 0 100 25.5t68.5 71t24.5 104.5t-24.5 105t-68.5 71.5t-100 25.5q-57 0 -101 -25.5t-69 -71.5t-25 -105t25 -104.5t69 -71t101 -25.5zM338 646
q-24 0 -41 17t-17 42t17.5 41.5t41.5 16.5q23 0 40.5 -16.5t17.5 -41.5t-17.5 -42t-41.5 -17z" />
    <glyph glyph-name="h" unicode="h" horiz-adv-x="679" 
d="M557 0q-19 0 -31 12t-12 30v255q0 61 -23 99.5t-61.5 57.5t-88.5 19q-46 0 -84 -18t-60 -49.5t-22 -72.5h-57q1 63 32.5 112.5t84.5 78.5t118 29q71 0 126.5 -29.5t87.5 -86.5t32 -140v-255q0 -18 -12 -30t-30 -12zM133 0q-19 0 -31 11.5t-12 30.5v462q0 20 12 31.5
t31 11.5t30.5 -11.5t11.5 -31.5v-462q0 -19 -11.5 -30.5t-30.5 -11.5zM133 215q-19 0 -31 12t-12 31v480q0 20 12 31.5t31 11.5t30.5 -11.5t11.5 -31.5v-480q0 -19 -11.5 -31t-30.5 -12z" />
    <glyph glyph-name="hbar" unicode="&#x127;" horiz-adv-x="679" 
d="M557 0q-19 0 -31 12t-12 30v255q0 61 -23 99.5t-61.5 57.5t-88.5 19q-46 0 -84 -18t-60 -49.5t-22 -72.5h-57q1 63 32.5 112.5t84.5 78.5t118 29q71 0 126.5 -29.5t87.5 -86.5t32 -140v-255q0 -18 -12 -30t-30 -12zM133 0q-19 0 -31 11.5t-12 30.5v462q0 20 12 31.5
t31 11.5t30.5 -11.5t11.5 -31.5v-462q0 -19 -11.5 -30.5t-30.5 -11.5zM133 215q-19 0 -31 12t-12 31v480q0 20 12 31.5t31 11.5t30.5 -11.5t11.5 -31.5v-480q0 -19 -11.5 -31t-30.5 -12zM39 609q-18 0 -30 10t-12 27q0 18 12 28t30 10h320q19 0 30.5 -10t11.5 -28
q0 -17 -11.5 -27t-30.5 -10h-320z" />
    <glyph glyph-name="hcircumflex" unicode="&#x125;" horiz-adv-x="679" 
d="M557 0q-19 0 -31 12t-12 30v255q0 61 -23 99.5t-61.5 57.5t-88.5 19q-46 0 -84 -18t-60 -49.5t-22 -72.5h-57q1 63 32.5 112.5t84.5 78.5t118 29q71 0 126.5 -29.5t87.5 -86.5t32 -140v-255q0 -18 -12 -30t-30 -12zM133 0q-19 0 -31 11.5t-12 30.5v462q0 20 12 31.5
t31 11.5t30.5 -11.5t11.5 -31.5v-462q0 -19 -11.5 -30.5t-30.5 -11.5zM133 215q-19 0 -31 12t-12 31v480q0 20 12 31.5t31 11.5t30.5 -11.5t11.5 -31.5v-480q0 -19 -11.5 -31t-30.5 -12zM19 862q-19 0 -31.5 10t-12.5 27q0 22 21 37l116 76q9 6 21 6q7 0 12 -1.5t10 -4.5
l115 -76q21 -15 21 -37q0 -16 -12 -26.5t-31 -10.5q-8 0 -14 2t-13 7l-88 61l-88 -61q-12 -9 -26 -9z" />
    <glyph glyph-name="i" unicode="i" horiz-adv-x="293" 
d="M147 0q-19 0 -31 12t-12 31v461q0 20 12 31.5t31 11.5t30.5 -11.5t11.5 -31.5v-461q0 -19 -11.5 -31t-30.5 -12zM146 646q-24 0 -41 17t-17 42t17.5 41.5t41.5 16.5q23 0 40.5 -16.5t17.5 -41.5t-17.5 -42t-41.5 -17z" />
    <glyph glyph-name="dotlessi" unicode="&#x131;" horiz-adv-x="293" 
d="M147 0q-19 0 -31 12t-12 31v461q0 20 12 31.5t31 11.5t30.5 -11.5t11.5 -31.5v-461q0 -19 -11.5 -31t-30.5 -12z" />
    <glyph glyph-name="iacute" unicode="&#xed;" horiz-adv-x="293" 
d="M147 0q-19 0 -31 12t-12 31v461q0 20 12 31.5t31 11.5t30.5 -11.5t11.5 -31.5v-461q0 -19 -11.5 -31t-30.5 -12zM143 631q-18 0 -30.5 12.5t-12.5 30.5t10 29l108 108q12 12 30 12q19 0 31 -12.5t12 -31.5q0 -8 -3 -15.5t-9 -13.5l-107 -108q-12 -11 -29 -11z" />
    <glyph glyph-name="ibreve" unicode="&#x12d;" horiz-adv-x="293" 
d="M147 0q-19 0 -31 12t-12 31v461q0 20 12 31.5t31 11.5t30.5 -11.5t11.5 -31.5v-461q0 -19 -11.5 -31t-30.5 -12zM148.504 622q-38.7012 0 -71.1016 16q-32.4014 16 -51.752 43t-19.3506 60q0 18 10.3506 31t26.5508 13q14.4004 0 25.6504 -10.5
q11.251 -10.5 11.251 -27.5q0 -23 20.25 -38.5q20.251 -15.5 48.1514 -15.5q32.4014 0 50.8516 15.5t18.4502 38.5q0 17 11.251 27.5q11.25 10.5 26.5508 10.5q16.2002 0 26.1006 -12.5q9.89941 -12.5 9.89941 -30.5q-0.899414 -35 -20.7002 -62t-51.751 -42.5
q-31.9512 -15.5 -70.6523 -15.5z" />
    <glyph glyph-name="icircumflex" unicode="&#xee;" horiz-adv-x="293" 
d="M147 0q-19 0 -31 12t-12 31v461q0 20 12 31.5t31 11.5t30.5 -11.5t11.5 -31.5v-461q0 -19 -11.5 -31t-30.5 -12zM46.8008 628q-17.0996 0 -28.3506 10q-11.25 10 -11.25 27q0 22 18.9004 37l104.403 76q8.09961 6 18.9004 6q6.2998 0 10.7998 -1.5t9.00098 -4.5
l103.502 -76q18.9004 -15 18.9004 -37q0 -16 -10.7998 -26.5t-27.9004 -10.5q-7.2002 0 -12.6006 2t-11.7002 7l-79.2021 61l-79.2021 -61q-10.8008 -9 -23.4014 -9z" />
    <glyph glyph-name="uni0209" unicode="&#x209;" horiz-adv-x="293" 
d="M147 0q-19 0 -31 12t-12 31v461q0 20 12 31.5t31 11.5t30.5 -11.5t11.5 -31.5v-461q0 -19 -11.5 -31t-30.5 -12zM252 622q-21 0 -31 21l-60 125q-3 8 -3 17q0 16 12.5 29t31.5 13q13 0 24.5 -7.5t15.5 -19.5l40 -132q3 -6 3 -13q0 -16 -11 -24.5t-22 -8.5zM104 622
q-21 0 -32 21l-59 125q-2 5 -2.5 9t-1.5 8q0 16 12.5 29t31.5 13q13 0 24 -7.5t15 -19.5l42 -132q1 -3 1.5 -6.5t0.5 -6.5q0 -16 -10.5 -24.5t-21.5 -8.5z" />
    <glyph glyph-name="idieresis" unicode="&#xef;" horiz-adv-x="293" 
d="M50 667q-24 0 -41 16.5t-17 40.5q0 23 17 39.5t41 16.5q23 0 40 -16.5t17 -39.5q0 -24 -17 -40.5t-40 -16.5zM243 667q-23 0 -39.5 16.5t-16.5 40.5q0 23 16.5 39.5t39.5 16.5q24 0 40.5 -16.5t16.5 -39.5q0 -24 -16.5 -40.5t-40.5 -16.5zM147 0q-19 0 -31 12t-12 31v461
q0 20 12 31.5t31 11.5t30.5 -11.5t11.5 -31.5v-461q0 -19 -11.5 -31t-30.5 -12z" />
    <glyph glyph-name="i.loclTRK" horiz-adv-x="293" 
d="M147 0q-19 0 -31 12t-12 31v461q0 20 12 31.5t31 11.5t30.5 -11.5t11.5 -31.5v-461q0 -19 -11.5 -31t-30.5 -12zM146 646q-24 0 -41 17t-17 42t17.5 41.5t41.5 16.5q23 0 40.5 -16.5t17.5 -41.5t-17.5 -42t-41.5 -17z" />
    <glyph glyph-name="uni1ECB" unicode="&#x1ecb;" horiz-adv-x="293" 
d="M147 0q-19 0 -31 12t-12 31v461q0 20 12 31.5t31 11.5t30.5 -11.5t11.5 -31.5v-461q0 -19 -11.5 -31t-30.5 -12zM146 646q-24 0 -41 17t-17 42t17.5 41.5t41.5 16.5q23 0 40.5 -16.5t17.5 -41.5t-17.5 -42t-41.5 -17zM146 -214q-24 0 -41 17t-17 42t17.5 41.5t41.5 16.5
q23 0 40.5 -16.5t17.5 -41.5t-17.5 -42t-41.5 -17z" />
    <glyph glyph-name="igrave" unicode="&#xec;" horiz-adv-x="293" 
d="M147 0q-19 0 -31 12t-12 31v461q0 20 12 31.5t31 11.5t30.5 -11.5t11.5 -31.5v-461q0 -19 -11.5 -31t-30.5 -12zM145 635q-17 0 -29 12l-108 107q-11 12 -11 30t12 31t30 13t31 -13l107 -108q11 -10 11 -28q0 -19 -12 -31.5t-31 -12.5z" />
    <glyph glyph-name="uni1EC9" unicode="&#x1ec9;" horiz-adv-x="293" 
d="M147 0q-19 0 -31 12t-12 31v461q0 20 12 31.5t31 11.5t30.5 -11.5t11.5 -31.5v-461q0 -19 -11.5 -31t-30.5 -12zM146 599q-16 0 -27.5 11.5t-11.5 27.5v26q0 35 35 42l25 6q20 4 30.5 14.5t10.5 27.5q0 22 -13.5 33t-34.5 11q-13 0 -24.5 -5t-20.5 -11q-5 -5 -12.5 -7.5
t-14.5 -2.5q-14 0 -24 8.5t-10 24.5q0 19 13 30q20 15 42 23t50 8q51 0 85 -30t34 -77q0 -48 -31 -71.5t-74 -29.5l11 -8q0 -25 -11 -38t-27 -13z" />
    <glyph glyph-name="uni020B" unicode="&#x20b;" horiz-adv-x="293" 
d="M147 0q-19 0 -31 12t-12 31v461q0 20 12 31.5t31 11.5t30.5 -11.5t11.5 -31.5v-461q0 -19 -11.5 -31t-30.5 -12zM44.1016 622q-16.2012 0 -26.5508 12.5q-10.3506 12.5 -10.3506 30.5q0 34 19.3506 61t51.751 42.5q32.4014 15.5 72.002 15.5q37.8018 0 69.752 -15
q31.9512 -15 51.752 -42q19.7998 -27 20.7002 -62q0 -18 -9.90039 -30.5t-26.1006 -12.5q-15.2998 0 -26.5508 10q-11.25 10 -11.25 27q0 23 -18.4502 39q-18.4512 16 -49.9521 16q-28.8008 0 -49.0508 -16q-20.251 -16 -20.251 -39q0 -17 -11.25 -27t-25.6504 -10z" />
    <glyph glyph-name="ij" unicode="&#x133;" horiz-adv-x="579" 
d="M147 0q-19 0 -31 12t-12 31v461q0 20 12 31.5t31 11.5t30.5 -11.5t11.5 -31.5v-461q0 -19 -11.5 -31t-30.5 -12zM146 646q-24 0 -41 17t-17 42t17.5 41.5t41.5 16.5q23 0 40.5 -16.5t17.5 -41.5t-17.5 -42t-41.5 -17zM240 -234q-19 0 -31 12t-12 31t12 31t31 12
q44 0 77 19t52.5 52.5t19.5 77.5v503q0 20 12 31.5t31 11.5t31 -11.5t12 -31.5v-503q0 -69 -30.5 -122t-83.5 -83t-121 -30zM431 646q-24 0 -41 17t-17 42t17.5 41.5t41.5 16.5q23 0 40.5 -16.5t17.5 -41.5t-17.5 -42t-41.5 -17z" />
    <glyph glyph-name="imacron" unicode="&#x12b;" horiz-adv-x="293" 
d="M147 0q-19 0 -31 12t-12 31v461q0 20 12 31.5t31 11.5t30.5 -11.5t11.5 -31.5v-461q0 -19 -11.5 -31t-30.5 -12zM58.3994 653q-14.4004 0 -24.4004 10.5q-9.99902 10.5 -9.99902 28.5t9.99902 28.5q10 10.5 24.4004 10.5h204.797q14.3994 0 24.3994 -10.5t10 -28.5
t-10 -28.5t-24.3994 -10.5h-204.797z" />
    <glyph glyph-name="iogonek" unicode="&#x12f;" horiz-adv-x="293" 
d="M147 0q-19 0 -31 12t-12 31v461q0 20 12 31.5t31 11.5t30.5 -11.5t11.5 -31.5v-461q0 -19 -11.5 -31t-30.5 -12zM146 646q-24 0 -41 17t-17 42t17.5 41.5t41.5 16.5q23 0 40.5 -16.5t17.5 -41.5t-17.5 -42t-41.5 -17zM147 -267q-32 0 -59 16t-43.5 43.5t-16.5 60.5
q0 56 50 98q13 9 20.5 18.5t11.5 18.5q12 22 37 22q19 0 30.5 -11.5t12.5 -30.5q0 -22 -15.5 -43t-46.5 -44q-7 -5 -10.5 -13t-3.5 -15q0 -14 9.5 -24t23.5 -10q5 0 10 1.5t8 4.5l33 24q13 9 26 9q19 0 31 -12.5t12 -30.5q0 -20 -15 -35l-39 -25q-30 -22 -66 -22z" />
    <glyph glyph-name="itilde" unicode="&#x129;" horiz-adv-x="293" 
d="M147 0q-19 0 -31 12t-12 31v461q0 20 12 31.5t31 11.5t30.5 -11.5t11.5 -31.5v-461q0 -19 -11.5 -31t-30.5 -12zM213 637q-25 0 -45.5 11.5t-35.5 27.5q-13 13 -22 19.5t-20 6.5q-12 0 -20 -9.5t-16 -24.5q-8 -14 -21.5 -19.5t-28.5 0.5t-20 20t3 29q19 39 43 56.5
t54 17.5q31 0 49.5 -14t32.5 -26q15 -13 23.5 -17.5t15.5 -4.5q13 0 24 21q8 14 22 20.5t28 1.5q17 -7 22.5 -21.5t-2.5 -29.5q-18 -35 -39 -50t-47 -15z" />
    <glyph glyph-name="j" unicode="j" horiz-adv-x="286" 
d="M-53 -234q-19 0 -31 12t-12 31t12 31t31 12q44 0 77 19t52.5 52.5t19.5 77.5v503q0 20 12 31.5t31 11.5t31 -11.5t12 -31.5v-503q0 -69 -30.5 -122t-83.5 -83t-121 -30zM138 646q-24 0 -41 17t-17 42t17.5 41.5t41.5 16.5q23 0 40.5 -16.5t17.5 -41.5t-17.5 -42
t-41.5 -17z" />
    <glyph glyph-name="uni0237" unicode="&#x237;" horiz-adv-x="286" 
d="M-53 -234q-19 0 -31 12t-12 31t12 31t31 12q44 0 77 19t52.5 52.5t19.5 77.5v503q0 20 12 31.5t31 11.5t31 -11.5t12 -31.5v-503q0 -69 -30.5 -122t-83.5 -83t-121 -30z" />
    <glyph glyph-name="jcircumflex" unicode="&#x135;" horiz-adv-x="286" 
d="M-53 -234q-19 0 -31 12t-12 31t12 31t31 12q44 0 77 19t52.5 52.5t19.5 77.5v503q0 20 12 31.5t31 11.5t31 -11.5t12 -31.5v-503q0 -69 -30.5 -122t-83.5 -83t-121 -30zM39.6016 628q-17.1006 0 -28.3516 10q-11.25 10 -11.25 27q0 22 18.9004 37l104.403 76
q8.09961 6 18.9004 6q6.2998 0 10.7998 -1.5t9 -4.5l103.503 -76q18.9014 -15 18.9014 -37q0 -16 -10.8008 -26.5t-27.9004 -10.5q-7.2002 0 -12.6006 2t-11.7002 7l-79.2021 61l-79.2021 -61q-10.8008 -9 -23.4004 -9z" />
    <glyph glyph-name="k" unicode="k" horiz-adv-x="571" 
d="M164 189l-52 56l330 298q13 12 28 11t27 -14t11 -28t-14 -26zM132 0q-19 0 -30.5 11.5t-11.5 30.5v697q0 19 11.5 30.5t30.5 11.5q18 0 29.5 -11.5t11.5 -30.5v-697q0 -19 -11.5 -30.5t-29.5 -11.5zM497 5q-14 -12 -29.5 -10.5t-26.5 15.5l-217 267l60 54l219 -270
q11 -14 10 -29t-16 -27z" />
    <glyph glyph-name="uni0137" unicode="&#x137;" horiz-adv-x="571" 
d="M164 189l-52 56l330 298q13 12 28 11t27 -14t11 -28t-14 -26zM132 0q-19 0 -30.5 11.5t-11.5 30.5v697q0 19 11.5 30.5t30.5 11.5q18 0 29.5 -11.5t11.5 -30.5v-697q0 -19 -11.5 -30.5t-29.5 -11.5zM497 5q-14 -12 -29.5 -10.5t-26.5 15.5l-217 267l60 54l219 -270
q11 -14 10 -29t-16 -27zM285 -241q-26 0 -54.5 8.5t-48 25t-19.5 40.5q0 13 8.5 21t22.5 8t23.5 -6t18 -15t21 -15.5t34.5 -6.5q29 0 42.5 10t13.5 30q0 19 -17 30t-54 11q-21 0 -33.5 7.5t-12.5 22.5q0 31 51 31q57 0 93 -28t36 -72q0 -47 -36 -74.5t-89 -27.5z" />
    <glyph glyph-name="kgreenlandic" unicode="&#x138;" horiz-adv-x="571" 
d="M164 189l-52 56l330 298q13 12 28 11t27 -14t11 -28t-14 -26zM132 0q-19 0 -30.5 11.5t-11.5 30.5v463q0 19 11.5 30.5t30.5 11.5q18 0 29.5 -11.5t11.5 -30.5v-463q0 -19 -11.5 -30.5t-29.5 -11.5zM497 5q-14 -12 -29.5 -10.5t-26.5 15.5l-217 267l60 54l219 -270
q11 -14 10 -29t-16 -27z" />
    <glyph glyph-name="l" unicode="l" horiz-adv-x="288" 
d="M212 0q-41 0 -73.5 22.5t-50.5 62.5t-18 92v562q0 19 11.5 30.5t30.5 11.5t30.5 -11.5t11.5 -30.5v-562q0 -41 16.5 -67t41.5 -26h25q17 0 27 -11.5t10 -30.5t-14.5 -30.5t-38.5 -11.5h-9z" />
    <glyph glyph-name="lacute" unicode="&#x13a;" horiz-adv-x="288" 
d="M212 0q-41 0 -73.5 22.5t-50.5 62.5t-18 92v462q0 19 11.5 30.5t30.5 11.5t30.5 -11.5t11.5 -30.5v-462q0 -41 16.5 -67t41.5 -26h25q17 0 27 -11.5t10 -30.5t-14.5 -30.5t-38.5 -11.5h-9zM109 753q-19 0 -31 12t-12 31q0 17 10 29l108 108q12 12 30 12q19 0 31 -12.5
t12 -31.5q0 -17 -12 -29l-107 -108q-12 -11 -29 -11z" />
    <glyph glyph-name="lcaron" unicode="&#x13e;" horiz-adv-x="374" 
d="M212 0q-41 0 -73.5 22.5t-50.5 62.5t-18 92v562q0 19 11.5 30.5t30.5 11.5t30.5 -11.5t11.5 -30.5v-562q0 -41 16.5 -67t41.5 -26h25q17 0 27 -11.5t10 -30.5t-14.5 -30.5t-38.5 -11.5h-9zM276 517q-11 2 -17 8.5t-5 17.5q2 14 13.5 30.5t23.5 36t15 45.5q2 20 -2.5 32.5
t-9.5 25.5t-5 33q0 21 14 30.5t33 9.5q31 0 46 -29t9 -68q-3 -30 -16.5 -61t-32 -57t-36.5 -41t-30 -13z" />
    <glyph glyph-name="uni013C" unicode="&#x13c;" horiz-adv-x="288" 
d="M212 0q-41 0 -73.5 22.5t-50.5 62.5t-18 92v562q0 19 11.5 30.5t30.5 11.5t30.5 -11.5t11.5 -30.5v-562q0 -41 16.5 -67t41.5 -26h25q17 0 27 -11.5t10 -30.5t-14.5 -30.5t-38.5 -11.5h-9zM219 -241q-26 0 -54.5 8.5t-48 25t-19.5 40.5q0 13 8.5 21t22.5 8t23.5 -6
t18 -15t21 -15.5t34.5 -6.5q29 0 42.5 10t13.5 30q0 19 -17 30t-54 11q-21 0 -33.5 7.5t-12.5 22.5q0 31 51 31q57 0 93 -28t36 -72q0 -47 -36 -74.5t-89 -27.5z" />
    <glyph glyph-name="ldot" unicode="&#x140;" horiz-adv-x="360" 
d="M212 0q-41 0 -73.5 22.5t-50.5 62.5t-18 92v562q0 19 11.5 30.5t30.5 11.5t30.5 -11.5t11.5 -30.5v-562q0 -41 16.5 -67t41.5 -26h25q17 0 27 -11.5t10 -30.5t-14.5 -30.5t-38.5 -11.5h-9zM301 308q-26 0 -44.5 17.5t-18.5 44.5q0 26 18.5 44t44.5 18q25 0 43 -18.5
t18 -44.5q0 -25 -18 -43t-43 -18z" />
    <glyph glyph-name="lslash" unicode="&#x142;" horiz-adv-x="352" 
d="M157 0q-18 0 -30.5 12.5t-12.5 30.5v244l-30 -30q-12 -12 -29 -12t-30.5 11.5t-13.5 31.5q0 17 12 30l91 90v327q0 18 12.5 30.5t30.5 12.5t30.5 -12.5t12.5 -30.5v-242l42 42q14 12 30 12q18 0 30.5 -12.5t12.5 -30.5q0 -17 -12 -30l-103 -102v-286h34q19 0 31 -12.5
t12 -30.5t-12.5 -30.5t-30.5 -12.5h-77z" />
    <glyph glyph-name="m" unicode="m" horiz-adv-x="944" 
d="M822 0q-19 0 -31 11.5t-12 30.5v287q0 69 -35 106.5t-90 37.5q-59 0 -96.5 -39.5t-36.5 -104.5h-74q1 67 29 117.5t77.5 78.5t112.5 28q58 0 103 -27t70 -77.5t25 -119.5v-287q0 -19 -11.5 -30.5t-30.5 -11.5zM133 0q-19 0 -31 11.5t-12 30.5v462q0 19 12 31t31 12
t30.5 -12t11.5 -31v-462q0 -19 -11.5 -30.5t-30.5 -11.5zM478 0q-18 0 -30.5 11.5t-12.5 30.5v287q0 69 -35 106.5t-90 37.5q-59 0 -97 -39t-38 -101h-57q1 65 27.5 114.5t72.5 77.5t104 28t103 -27t70.5 -77.5t25.5 -119.5v-287q0 -19 -12 -30.5t-31 -11.5z" />
    <glyph glyph-name="n" unicode="n" horiz-adv-x="679" 
d="M557 0q-19 0 -31 12t-12 30v255q0 61 -23 99.5t-61.5 57.5t-88.5 19q-46 0 -84 -18t-60 -49.5t-22 -72.5h-57q1 63 32.5 112.5t84.5 78.5t118 29q71 0 126.5 -29.5t87.5 -86.5t32 -140v-255q0 -18 -12 -30t-30 -12zM133 0q-19 0 -31 11.5t-12 30.5v462q0 20 12 31.5
t31 11.5t30.5 -11.5t11.5 -31.5v-462q0 -19 -11.5 -30.5t-30.5 -11.5z" />
    <glyph glyph-name="nacute" unicode="&#x144;" horiz-adv-x="679" 
d="M557 0q-19 0 -31 12t-12 30v255q0 61 -23 99.5t-61.5 57.5t-88.5 19q-46 0 -84 -18t-60 -49.5t-22 -72.5h-57q1 63 32.5 112.5t84.5 78.5t118 29q71 0 126.5 -29.5t87.5 -86.5t32 -140v-255q0 -18 -12 -30t-30 -12zM133 0q-19 0 -31 11.5t-12 30.5v462q0 20 12 31.5
t31 11.5t30.5 -11.5t11.5 -31.5v-462q0 -19 -11.5 -30.5t-30.5 -11.5zM337 631q-18 0 -30.5 12.5t-12.5 30.5t10 29l108 108q12 12 30 12q19 0 31 -12.5t12 -31.5q0 -8 -3 -15.5t-9 -13.5l-107 -108q-12 -11 -29 -11z" />
    <glyph glyph-name="ncaron" unicode="&#x148;" horiz-adv-x="679" 
d="M557 0q-19 0 -31 12t-12 30v255q0 61 -23 99.5t-61.5 57.5t-88.5 19q-46 0 -84 -18t-60 -49.5t-22 -72.5h-57q1 63 32.5 112.5t84.5 78.5t118 29q71 0 126.5 -29.5t87.5 -86.5t32 -140v-255q0 -18 -12 -30t-30 -12zM133 0q-19 0 -31 11.5t-12 30.5v462q0 20 12 31.5
t31 11.5t30.5 -11.5t11.5 -31.5v-462q0 -19 -11.5 -30.5t-30.5 -11.5zM340 634q-14 0 -21 6l-116 77q-21 15 -21 36q0 20 21 28.5t49 -11.5l88 -59l88 59q32 21 51 11.5t19 -28.5q0 -21 -21 -36l-115 -77q-8 -6 -22 -6z" />
    <glyph glyph-name="uni0146" unicode="&#x146;" horiz-adv-x="679" 
d="M557 0q-19 0 -31 12t-12 30v255q0 61 -23 99.5t-61.5 57.5t-88.5 19q-46 0 -84 -18t-60 -49.5t-22 -72.5h-57q1 63 32.5 112.5t84.5 78.5t118 29q71 0 126.5 -29.5t87.5 -86.5t32 -140v-255q0 -18 -12 -30t-30 -12zM133 0q-19 0 -31 11.5t-12 30.5v462q0 20 12 31.5
t31 11.5t30.5 -11.5t11.5 -31.5v-462q0 -19 -11.5 -30.5t-30.5 -11.5zM344 -241q-26 0 -54.5 8.5t-48 25t-19.5 40.5q0 13 8.5 21t22.5 8t23.5 -6t18 -15t21 -15.5t34.5 -6.5q29 0 42.5 10t13.5 30q0 19 -17 30t-54 11q-21 0 -33.5 7.5t-12.5 22.5q0 31 51 31q57 0 93 -28
t36 -72q0 -47 -36 -74.5t-89 -27.5z" />
    <glyph glyph-name="eng" unicode="&#x14b;" horiz-adv-x="673" 
d="M384 -206q-65 0 -112.5 27.5t-64.5 79.5q-5 15 1.5 26.5t20.5 14.5q12 4 25 -3.5t19 -22.5q11 -24 37.5 -36.5t67.5 -12.5q62 0 99 62.5t37 197.5v170q0 52 -22.5 91.5t-61 62t-89.5 22.5q-48 0 -85.5 -17.5t-59 -49t-21.5 -73.5v-291q0 -19 -11.5 -30.5t-30.5 -11.5
t-31 11.5t-12 30.5v462q0 20 12 31.5t31 11.5t30.5 -11.5t11.5 -31.5v-32q31 38 76.5 59.5t101.5 21.5q73 0 128 -32.5t86.5 -90.5t31.5 -133v-170q0 -110 -27.5 -184t-76 -111.5t-111.5 -37.5z" />
    <glyph glyph-name="ntilde" unicode="&#xf1;" horiz-adv-x="679" 
d="M557 0q-19 0 -31 12t-12 30v255q0 61 -23 99.5t-61.5 57.5t-88.5 19q-46 0 -84 -18t-60 -49.5t-22 -72.5h-57q1 63 32.5 112.5t84.5 78.5t118 29q71 0 126.5 -29.5t87.5 -86.5t32 -140v-255q0 -18 -12 -30t-30 -12zM133 0q-19 0 -31 11.5t-12 30.5v462q0 20 12 31.5
t31 11.5t30.5 -11.5t11.5 -31.5v-462q0 -19 -11.5 -30.5t-30.5 -11.5zM445 625q-32 0 -56.5 11.5t-41.5 21.5q-22 12 -36 17.5t-26 5.5q-17 0 -31.5 -7.5t-28.5 -25.5q-10 -14 -25 -19t-30 3q-14 7 -16.5 23t7.5 30q24 32 57 49.5t70 17.5q32 0 55.5 -11t39.5 -20
q21 -13 33.5 -18.5t27.5 -5.5t26 5t20 14q12 12 24 17t27 -4q14 -8 16.5 -24.5t-8.5 -30.5q-39 -49 -104 -49z" />
    <glyph glyph-name="o" unicode="o" 
d="M339 -5q-81 0 -143.5 36t-98.5 99t-36 143q0 81 36 144t98.5 99t143.5 36q80 0 142 -36t98 -99t37 -144q0 -80 -36 -143t-98.5 -99t-142.5 -36zM339 72q56 0 100 26t68.5 71.5t24.5 103.5t-24.5 104t-68.5 72t-100 26t-100 -26t-69.5 -72t-25.5 -104t25.5 -103.5
t69.5 -71.5t100 -26z" />
    <glyph glyph-name="oacute" unicode="&#xf3;" 
d="M339 -5q-81 0 -143.5 36t-98.5 99t-36 143q0 81 36 144t98.5 99t143.5 36q80 0 142 -36t98 -99t37 -144q0 -80 -36 -143t-98.5 -99t-142.5 -36zM339 72q56 0 100 26t68.5 71.5t24.5 103.5t-24.5 104t-68.5 72t-100 26t-100 -26t-69.5 -72t-25.5 -104t25.5 -103.5
t69.5 -71.5t100 -26zM336 631q-18 0 -30.5 12.5t-12.5 30.5t10 29l108 108q12 12 30 12q19 0 31 -12.5t12 -31.5q0 -8 -3 -15.5t-9 -13.5l-107 -108q-12 -11 -29 -11z" />
    <glyph glyph-name="obreve" unicode="&#x14f;" 
d="M339 -5q-81 0 -143.5 36t-98.5 99t-36 143q0 81 36 144t98.5 99t143.5 36q80 0 142 -36t98 -99t37 -144q0 -80 -36 -143t-98.5 -99t-142.5 -36zM339 72q56 0 100 26t68.5 71.5t24.5 103.5t-24.5 104t-68.5 72t-100 26t-100 -26t-69.5 -72t-25.5 -104t25.5 -103.5
t69.5 -71.5t100 -26zM338 622q-43 0 -79 16t-57.5 43t-21.5 60q0 18 11.5 31t29.5 13q16 0 28.5 -10.5t12.5 -27.5q0 -23 22.5 -38.5t53.5 -15.5q36 0 56.5 15.5t20.5 38.5q0 17 12.5 27.5t29.5 10.5q18 0 29 -12.5t11 -30.5q-1 -35 -23 -62t-57.5 -42.5t-78.5 -15.5z" />
    <glyph glyph-name="ocircumflex" unicode="&#xf4;" 
d="M339 -5q-81 0 -143.5 36t-98.5 99t-36 143q0 81 36 144t98.5 99t143.5 36q80 0 142 -36t98 -99t37 -144q0 -80 -36 -143t-98.5 -99t-142.5 -36zM339 72q56 0 100 26t68.5 71.5t24.5 103.5t-24.5 104t-68.5 72t-100 26t-100 -26t-69.5 -72t-25.5 -104t25.5 -103.5
t69.5 -71.5t100 -26zM225 628q-19 0 -31.5 10t-12.5 27q0 22 21 37l116 76q9 6 21 6q7 0 12 -1.5t10 -4.5l115 -76q21 -15 21 -37q0 -16 -12 -26.5t-31 -10.5q-8 0 -14 2t-13 7l-88 61l-88 -61q-12 -9 -26 -9z" />
    <glyph glyph-name="uni1ED1" unicode="&#x1ed1;" 
d="M339 -5q-81 0 -143.5 36t-98.5 99t-36 143q0 81 36 144t98.5 99t143.5 36q80 0 142 -36t98 -99t37 -144q0 -80 -36 -143t-98.5 -99t-142.5 -36zM339 72q56 0 100 26t68.5 71.5t24.5 103.5t-24.5 104t-68.5 72t-100 26t-100 -26t-69.5 -72t-25.5 -104t25.5 -103.5
t69.5 -71.5t100 -26zM225 628q-19 0 -31.5 10t-12.5 27q0 22 21 37l116 76q9 6 21 6q7 0 12 -1.5t10 -4.5l115 -76q21 -15 21 -37q0 -16 -12 -26.5t-31 -10.5q-8 0 -14 2t-13 7l-88 61l-88 -61q-12 -9 -26 -9zM434 792q-18 0 -30.5 12t-12.5 31q0 17 10 28l108 108
q13 13 30 13q20 0 31.5 -13t11.5 -31q0 -8 -2.5 -16t-9.5 -13l-107 -108q-11 -11 -29 -11z" />
    <glyph glyph-name="uni1ED9" unicode="&#x1ed9;" 
d="M339 -5q-81 0 -143.5 36t-98.5 99t-36 143q0 81 36 144t98.5 99t143.5 36q80 0 142 -36t98 -99t37 -144q0 -80 -36 -143t-98.5 -99t-142.5 -36zM339 72q56 0 100 26t68.5 71.5t24.5 103.5t-24.5 104t-68.5 72t-100 26t-100 -26t-69.5 -72t-25.5 -104t25.5 -103.5
t69.5 -71.5t100 -26zM225 628q-19 0 -31.5 10t-12.5 27q0 22 21 37l116 76q9 6 21 6q7 0 12 -1.5t10 -4.5l115 -76q21 -15 21 -37q0 -16 -12 -26.5t-31 -10.5q-8 0 -14 2t-13 7l-88 61l-88 -61q-12 -9 -26 -9zM338 -214q-24 0 -41 17t-17 42t17.5 41.5t41.5 16.5
q23 0 40.5 -16.5t17.5 -41.5t-17.5 -42t-41.5 -17z" />
    <glyph glyph-name="uni1ED3" unicode="&#x1ed3;" 
d="M339 -5q-81 0 -143.5 36t-98.5 99t-36 143q0 81 36 144t98.5 99t143.5 36q80 0 142 -36t98 -99t37 -144q0 -80 -36 -143t-98.5 -99t-142.5 -36zM339 72q56 0 100 26t68.5 71.5t24.5 103.5t-24.5 104t-68.5 72t-100 26t-100 -26t-69.5 -72t-25.5 -104t25.5 -103.5
t69.5 -71.5t100 -26zM225 628q-19 0 -31.5 10t-12.5 27q0 22 21 37l116 76q9 6 21 6q7 0 12 -1.5t10 -4.5l115 -76q21 -15 21 -37q0 -16 -12 -26.5t-31 -10.5q-8 0 -14 2t-13 7l-88 61l-88 -61q-12 -9 -26 -9zM437 796q-18 0 -29 12l-108 107q-11 11 -11 29q0 19 12 31.5
t30 12.5q17 0 31 -13l107 -108q11 -10 11 -28t-12.5 -30.5t-30.5 -12.5z" />
    <glyph glyph-name="uni1ED5" unicode="&#x1ed5;" 
d="M339 -5q-81 0 -143.5 36t-98.5 99t-36 143q0 81 36 144t98.5 99t143.5 36q80 0 142 -36t98 -99t37 -144q0 -80 -36 -143t-98.5 -99t-142.5 -36zM339 72q56 0 100 26t68.5 71.5t24.5 103.5t-24.5 104t-68.5 72t-100 26t-100 -26t-69.5 -72t-25.5 -104t25.5 -103.5
t69.5 -71.5t100 -26zM228 628q-19 0 -31.5 10t-12.5 27q0 22 21 37l116 76q9 6 21 6q7 0 12 -1.5t10 -4.5l115 -76q21 -15 21 -37q0 -16 -12 -26.5t-31 -10.5q-8 0 -14 2t-13 7l-88 61l-88 -61q-12 -9 -26 -9zM441 760q-17 0 -28 11t-11 28v26q0 34 34 42l26 5q19 5 30 15.5
t11 27.5q0 21 -14 32t-34 11q-13 0 -24.5 -4.5t-20.5 -11.5q-5 -5 -13 -7t-15 -2q-13 0 -23 8.5t-10 24.5q0 18 13 29q19 16 41 24t51 8q51 0 84.5 -30.5t33.5 -77.5q1 -48 -30.5 -71t-74.5 -29l12 -8q0 -26 -11.5 -38.5t-26.5 -12.5z" />
    <glyph glyph-name="uni1ED7" unicode="&#x1ed7;" 
d="M339 -5q-81 0 -143.5 36t-98.5 99t-36 143q0 81 36 144t98.5 99t143.5 36q80 0 142 -36t98 -99t37 -144q0 -80 -36 -143t-98.5 -99t-142.5 -36zM339 72q56 0 100 26t68.5 71.5t24.5 103.5t-24.5 104t-68.5 72t-100 26t-100 -26t-69.5 -72t-25.5 -104t25.5 -103.5
t69.5 -71.5t100 -26zM227 628q-19 0 -31.5 10t-12.5 27q0 22 21 37l116 76q10 6 21 6q7 0 12.5 -1.5t10.5 -4.5l115 -76q20 -15 20 -37q0 -16 -12 -26.5t-30 -10.5q-8 0 -14.5 2t-12.5 7l-89 61l-88 -61q-12 -9 -26 -9zM400 811q-25 0 -45 11.5t-36 26.5q-13 12 -22.5 19
t-20.5 7t-19 -9t-17 -25q-7 -14 -21 -19.5t-28 0.5t-19.5 20t2.5 29q19 39 43 56.5t54 17.5q31 0 49.5 -14t32.5 -26q15 -13 23.5 -17.5t15.5 -4.5q13 0 24 21q8 14 22 20.5t28 1.5q17 -7 23 -21t-3 -29q-18 -35 -39 -50t-47 -15z" />
    <glyph glyph-name="uni020D" unicode="&#x20d;" 
d="M339 -5q-81 0 -143.5 36t-98.5 99t-36 143q0 81 36 144t98.5 99t143.5 36q80 0 142 -36t98 -99t37 -144q0 -80 -36 -143t-98.5 -99t-142.5 -36zM339 72q56 0 100 26t68.5 71.5t24.5 103.5t-24.5 104t-68.5 72t-100 26t-100 -26t-69.5 -72t-25.5 -104t25.5 -103.5
t69.5 -71.5t100 -26zM443 622q-21 0 -31 21l-60 125q-3 8 -3 17q0 16 12.5 29t31.5 13q13 0 24.5 -7.5t15.5 -19.5l40 -132q3 -6 3 -13q0 -16 -11 -24.5t-22 -8.5zM295 622q-21 0 -32 21l-59 125q-2 5 -2.5 9t-1.5 8q0 16 12.5 29t31.5 13q13 0 24 -7.5t15 -19.5l42 -132
q1 -3 1.5 -6.5t0.5 -6.5q0 -16 -10.5 -24.5t-21.5 -8.5z" />
    <glyph glyph-name="odieresis" unicode="&#xf6;" 
d="M339 -5q-81 0 -143.5 36t-98.5 99t-36 143q0 81 36 144t98.5 99t143.5 36q80 0 142 -36t98 -99t37 -144q0 -80 -36 -143t-98.5 -99t-142.5 -36zM339 72q56 0 100 26t68.5 71.5t24.5 103.5t-24.5 104t-68.5 72t-100 26t-100 -26t-69.5 -72t-25.5 -104t25.5 -103.5
t69.5 -71.5t100 -26zM233 642q-25 0 -41 16t-16 40q0 23 16 40t41 17q23 0 39.5 -17t16.5 -40q0 -24 -16.5 -40t-39.5 -16zM446 642q-24 0 -40.5 16t-16.5 40q0 23 16.5 40t40.5 17q23 0 40 -17t17 -40q0 -24 -17 -40t-40 -16z" />
    <glyph glyph-name="uni022B" unicode="&#x22b;" 
d="M339 -5q-81 0 -143.5 36t-98.5 99t-36 143q0 81 36 144t98.5 99t143.5 36q80 0 142 -36t98 -99t37 -144q0 -80 -36 -143t-98.5 -99t-142.5 -36zM339 72q56 0 100 26t68.5 71.5t24.5 103.5t-24.5 104t-68.5 72t-100 26t-100 -26t-69.5 -72t-25.5 -104t25.5 -103.5
t69.5 -71.5t100 -26zM233 642q-25 0 -41 16t-16 40q0 23 16 40t41 17q23 0 39.5 -17t16.5 -40q0 -24 -16.5 -40t-39.5 -16zM446 642q-24 0 -40.5 16t-16.5 40q0 23 16.5 40t40.5 17q23 0 40 -17t17 -40q0 -24 -17 -40t-40 -16zM210 849q-18 0 -30.5 10.5t-12.5 28.5
t12.5 28.5t30.5 10.5h256q18 0 30.5 -10.5t12.5 -28.5t-12.5 -28.5t-30.5 -10.5h-256z" />
    <glyph glyph-name="uni0231" unicode="&#x231;" 
d="M339 -5q-81 0 -143.5 36t-98.5 99t-36 143q0 81 36 144t98.5 99t143.5 36q80 0 142 -36t98 -99t37 -144q0 -80 -36 -143t-98.5 -99t-142.5 -36zM339 72q56 0 100 26t68.5 71.5t24.5 103.5t-24.5 104t-68.5 72t-100 26t-100 -26t-69.5 -72t-25.5 -104t25.5 -103.5
t69.5 -71.5t100 -26zM338 646q-24 0 -41 17t-17 42t17.5 41.5t41.5 16.5q23 0 40.5 -16.5t17.5 -41.5t-17.5 -42t-41.5 -17zM210 826q-18 0 -30.5 10.5t-12.5 28.5t12.5 28.5t30.5 10.5h256q18 0 30.5 -10.5t12.5 -28.5t-12.5 -28.5t-30.5 -10.5h-256z" />
    <glyph glyph-name="uni1ECD" unicode="&#x1ecd;" 
d="M339 -5q-81 0 -143.5 36t-98.5 99t-36 143q0 81 36 144t98.5 99t143.5 36q80 0 142 -36t98 -99t37 -144q0 -80 -36 -143t-98.5 -99t-142.5 -36zM339 72q56 0 100 26t68.5 71.5t24.5 103.5t-24.5 104t-68.5 72t-100 26t-100 -26t-69.5 -72t-25.5 -104t25.5 -103.5
t69.5 -71.5t100 -26zM338 -214q-24 0 -41 17t-17 42t17.5 41.5t41.5 16.5q23 0 40.5 -16.5t17.5 -41.5t-17.5 -42t-41.5 -17z" />
    <glyph glyph-name="ograve" unicode="&#xf2;" 
d="M339 -5q-81 0 -143.5 36t-98.5 99t-36 143q0 81 36 144t98.5 99t143.5 36q80 0 142 -36t98 -99t37 -144q0 -80 -36 -143t-98.5 -99t-142.5 -36zM339 72q56 0 100 26t68.5 71.5t24.5 103.5t-24.5 104t-68.5 72t-100 26t-100 -26t-69.5 -72t-25.5 -104t25.5 -103.5
t69.5 -71.5t100 -26zM337 635q-17 0 -29 12l-108 107q-11 12 -11 30t12 31t30 13t31 -13l107 -108q11 -10 11 -28q0 -19 -12 -31.5t-31 -12.5z" />
    <glyph glyph-name="uni1ECF" unicode="&#x1ecf;" 
d="M339 -5q-81 0 -143.5 36t-98.5 99t-36 143q0 81 36 144t98.5 99t143.5 36q80 0 142 -36t98 -99t37 -144q0 -80 -36 -143t-98.5 -99t-142.5 -36zM339 72q56 0 100 26t68.5 71.5t24.5 103.5t-24.5 104t-68.5 72t-100 26t-100 -26t-69.5 -72t-25.5 -104t25.5 -103.5
t69.5 -71.5t100 -26zM338 599q-16 0 -27.5 11.5t-11.5 27.5v26q0 35 35 42l25 6q20 4 30.5 14.5t10.5 27.5q0 22 -13.5 33t-34.5 11q-13 0 -24.5 -5t-20.5 -11q-5 -5 -12.5 -7.5t-14.5 -2.5q-14 0 -24 8.5t-10 24.5q0 19 13 30q20 15 42 23t50 8q51 0 85 -30t34 -77
q0 -48 -31 -71.5t-74 -29.5l11 -8q0 -25 -11 -38t-27 -13z" />
    <glyph glyph-name="ohorn" unicode="&#x1a1;" 
d="M339 -5q-81 0 -143.5 36t-98.5 99t-36 143q0 81 36 144t98.5 99t143.5 36q80 0 142 -36t98 -99t37 -144q0 -80 -36 -143t-98.5 -99t-142.5 -36zM339 72q56 0 100 26t68.5 71.5t24.5 103.5t-24.5 104t-68.5 72t-100 26t-100 -26t-69.5 -72t-25.5 -104t25.5 -103.5
t69.5 -71.5t100 -26zM460 448v77h45q18 0 31 16t13 43v20q0 19 10.5 30.5t27.5 11.5q19 0 29 -14t10 -34v-14q0 -39 -16 -70t-43 -48.5t-62 -17.5h-45z" />
    <glyph glyph-name="uni1EDB" unicode="&#x1edb;" 
d="M339 -5q-81 0 -143.5 36t-98.5 99t-36 143q0 81 36 144t98.5 99t143.5 36q80 0 142 -36t98 -99t37 -144q0 -80 -36 -143t-98.5 -99t-142.5 -36zM339 72q56 0 100 26t68.5 71.5t24.5 103.5t-24.5 104t-68.5 72t-100 26t-100 -26t-69.5 -72t-25.5 -104t25.5 -103.5
t69.5 -71.5t100 -26zM460 448v77h45q18 0 31 16t13 43v20q0 19 10.5 30.5t27.5 11.5q19 0 29 -14t10 -34v-14q0 -39 -16 -70t-43 -48.5t-62 -17.5h-45zM336 631q-18 0 -30.5 12.5t-12.5 30.5t10 29l108 108q12 12 30 12q19 0 31 -12.5t12 -31.5q0 -8 -3 -15.5t-9 -13.5
l-107 -108q-12 -11 -29 -11z" />
    <glyph glyph-name="uni1EE3" unicode="&#x1ee3;" 
d="M339 -5q-81 0 -143.5 36t-98.5 99t-36 143q0 81 36 144t98.5 99t143.5 36q80 0 142 -36t98 -99t37 -144q0 -80 -36 -143t-98.5 -99t-142.5 -36zM339 72q56 0 100 26t68.5 71.5t24.5 103.5t-24.5 104t-68.5 72t-100 26t-100 -26t-69.5 -72t-25.5 -104t25.5 -103.5
t69.5 -71.5t100 -26zM460 448v77h45q18 0 31 16t13 43v20q0 19 10.5 30.5t27.5 11.5q19 0 29 -14t10 -34v-14q0 -39 -16 -70t-43 -48.5t-62 -17.5h-45zM338 -214q-24 0 -41 17t-17 42t17.5 41.5t41.5 16.5q23 0 40.5 -16.5t17.5 -41.5t-17.5 -42t-41.5 -17z" />
    <glyph glyph-name="uni1EDD" unicode="&#x1edd;" 
d="M339 -5q-81 0 -143.5 36t-98.5 99t-36 143q0 81 36 144t98.5 99t143.5 36q80 0 142 -36t98 -99t37 -144q0 -80 -36 -143t-98.5 -99t-142.5 -36zM339 72q56 0 100 26t68.5 71.5t24.5 103.5t-24.5 104t-68.5 72t-100 26t-100 -26t-69.5 -72t-25.5 -104t25.5 -103.5
t69.5 -71.5t100 -26zM460 448v77h45q18 0 31 16t13 43v20q0 19 10.5 30.5t27.5 11.5q19 0 29 -14t10 -34v-14q0 -39 -16 -70t-43 -48.5t-62 -17.5h-45zM337 635q-17 0 -29 12l-108 107q-11 12 -11 30t12 31t30 13t31 -13l107 -108q11 -10 11 -28q0 -19 -12 -31.5t-31 -12.5z
" />
    <glyph glyph-name="uni1EDF" unicode="&#x1edf;" 
d="M339 -5q-81 0 -143.5 36t-98.5 99t-36 143q0 81 36 144t98.5 99t143.5 36q80 0 142 -36t98 -99t37 -144q0 -80 -36 -143t-98.5 -99t-142.5 -36zM339 72q56 0 100 26t68.5 71.5t24.5 103.5t-24.5 104t-68.5 72t-100 26t-100 -26t-69.5 -72t-25.5 -104t25.5 -103.5
t69.5 -71.5t100 -26zM460 448v77h45q18 0 31 16t13 43v20q0 19 10.5 30.5t27.5 11.5q19 0 29 -14t10 -34v-14q0 -39 -16 -70t-43 -48.5t-62 -17.5h-45zM338 599q-16 0 -27.5 11.5t-11.5 27.5v26q0 35 35 42l25 6q20 4 30.5 14.5t10.5 27.5q0 22 -13.5 33t-34.5 11
q-13 0 -24.5 -5t-20.5 -11q-5 -5 -12.5 -7.5t-14.5 -2.5q-14 0 -24 8.5t-10 24.5q0 19 13 30q20 15 42 23t50 8q51 0 85 -30t34 -77q0 -48 -31 -71.5t-74 -29.5l11 -8q0 -25 -11 -38t-27 -13z" />
    <glyph glyph-name="uni1EE1" unicode="&#x1ee1;" 
d="M339 -5q-81 0 -143.5 36t-98.5 99t-36 143q0 81 36 144t98.5 99t143.5 36q80 0 142 -36t98 -99t37 -144q0 -80 -36 -143t-98.5 -99t-142.5 -36zM339 72q56 0 100 26t68.5 71.5t24.5 103.5t-24.5 104t-68.5 72t-100 26t-100 -26t-69.5 -72t-25.5 -104t25.5 -103.5
t69.5 -71.5t100 -26zM460 448v77h45q18 0 31 16t13 43v20q0 19 10.5 30.5t27.5 11.5q19 0 29 -14t10 -34v-14q0 -39 -16 -70t-43 -48.5t-62 -17.5h-45zM445 625q-32 0 -56.5 11.5t-41.5 21.5q-22 12 -36 17.5t-26 5.5q-17 0 -31.5 -7.5t-28.5 -25.5q-10 -14 -25 -19t-30 3
q-14 7 -16.5 23t7.5 30q24 32 57 49.5t70 17.5q32 0 55.5 -11t39.5 -20q21 -13 33.5 -18.5t27.5 -5.5t26 5t20 14q12 12 24 17t27 -4q14 -8 16.5 -24.5t-8.5 -30.5q-39 -49 -104 -49z" />
    <glyph glyph-name="ohungarumlaut" unicode="&#x151;" 
d="M339 -5q-81 0 -143.5 36t-98.5 99t-36 143q0 81 36 144t98.5 99t143.5 36q80 0 142 -36t98 -99t37 -144q0 -80 -36 -143t-98.5 -99t-142.5 -36zM339 72q56 0 100 26t68.5 71.5t24.5 103.5t-24.5 104t-68.5 72t-100 26t-100 -26t-69.5 -72t-25.5 -104t25.5 -103.5
t69.5 -71.5t100 -26zM411 622q-11 0 -21.5 8.5t-10.5 24.5q0 3 0.5 6.5t1.5 6.5l42 132q4 12 15 19.5t24 7.5q19 0 31.5 -13t12.5 -30q-1 -3 -1.5 -7t-2.5 -9l-59 -125q-11 -21 -32 -21zM263 622q-11 0 -22 8.5t-11 24.5q0 3 1 6.5t2 6.5l40 132q4 12 15.5 19.5t24.5 7.5
q20 0 32 -13t12 -30q0 -7 -3 -16l-60 -125q-10 -21 -31 -21z" />
    <glyph glyph-name="uni020F" unicode="&#x20f;" 
d="M339 -5q-81 0 -143.5 36t-98.5 99t-36 143q0 81 36 144t98.5 99t143.5 36q80 0 142 -36t98 -99t37 -144q0 -80 -36 -143t-98.5 -99t-142.5 -36zM339 72q56 0 100 26t68.5 71.5t24.5 103.5t-24.5 104t-68.5 72t-100 26t-100 -26t-69.5 -72t-25.5 -104t25.5 -103.5
t69.5 -71.5t100 -26zM221 622q-18 0 -29.5 12.5t-11.5 30.5q0 34 21.5 61t57.5 42.5t80 15.5q42 0 77.5 -15t57.5 -42t23 -62q0 -18 -11 -30.5t-29 -12.5q-17 0 -29.5 10t-12.5 27q0 23 -20.5 39t-55.5 16q-32 0 -54.5 -16t-22.5 -39q0 -17 -12.5 -27t-28.5 -10z" />
    <glyph glyph-name="omacron" unicode="&#x14d;" 
d="M339 -5q-81 0 -143.5 36t-98.5 99t-36 143q0 81 36 144t98.5 99t143.5 36q80 0 142 -36t98 -99t37 -144q0 -80 -36 -143t-98.5 -99t-142.5 -36zM339 72q56 0 100 26t68.5 71.5t24.5 103.5t-24.5 104t-68.5 72t-100 26t-100 -26t-69.5 -72t-25.5 -104t25.5 -103.5
t69.5 -71.5t100 -26zM210 653q-18 0 -30.5 10.5t-12.5 28.5t12.5 28.5t30.5 10.5h256q18 0 30.5 -10.5t12.5 -28.5t-12.5 -28.5t-30.5 -10.5h-256z" />
    <glyph glyph-name="uni01EB" unicode="&#x1eb;" 
d="M339 -5q-81 0 -143.5 36t-98.5 99t-36 143q0 81 36 144t98.5 99t143.5 36q80 0 142 -36t98 -99t37 -144q0 -80 -36 -143t-98.5 -99t-142.5 -36zM339 72q56 0 100 26t68.5 71.5t24.5 103.5t-24.5 104t-68.5 72t-100 26t-100 -26t-69.5 -72t-25.5 -104t25.5 -103.5
t69.5 -71.5t100 -26zM431 -231q-32 0 -59 16t-43.5 43.5t-16.5 60.5q0 56 50 98q13 9 20.5 18.5t11.5 18.5q12 22 37 22q19 0 30.5 -11.5t12.5 -30.5q0 -22 -15.5 -43t-46.5 -44q-7 -5 -10.5 -13t-3.5 -15q0 -14 9.5 -24t23.5 -10q5 0 10 1.5t8 4.5l33 24q13 9 26 9
q19 0 31 -12.5t12 -30.5q0 -20 -15 -35l-39 -25q-30 -22 -66 -22z" />
    <glyph glyph-name="oslash" unicode="&#xf8;" horiz-adv-x="703" 
d="M93 -20q-21 0 -29.5 18.5t7.5 33.5l73 74l35 26l322 321l25 26l62 61q10 10 23 10q15 0 22.5 -9.5t7.5 -22t-8 -20.5l-66 -66l-24 -21l-323 -322l-27 -21l-78 -79q-10 -9 -22 -9zM357 -8q-81 0 -143.5 36t-98.5 99t-36 143q0 81 36 144t98.5 99t142.5 36q81 0 143 -36
t98 -99t37 -144q0 -80 -36 -143t-98.5 -99t-142.5 -36zM357 69q56 0 100 26t68.5 71.5t24.5 103.5t-24.5 104t-68.5 72t-100 26t-100 -26t-69.5 -72t-25.5 -104t25.5 -103.5t69.5 -71.5t100 -26z" />
    <glyph glyph-name="oslashacute" unicode="&#x1ff;" horiz-adv-x="703" 
d="M93 -20q-21 0 -29.5 18.5t7.5 33.5l73 74l35 26l322 321l25 26l62 61q10 10 23 10q15 0 22.5 -9.5t7.5 -22t-8 -20.5l-66 -66l-24 -21l-323 -322l-27 -21l-78 -79q-10 -9 -22 -9zM357 -8q-81 0 -143.5 36t-98.5 99t-36 143q0 81 36 144t98.5 99t142.5 36q81 0 143 -36
t98 -99t37 -144q0 -80 -36 -143t-98.5 -99t-142.5 -36zM357 69q56 0 100 26t68.5 71.5t24.5 103.5t-24.5 104t-68.5 72t-100 26t-100 -26t-69.5 -72t-25.5 -104t25.5 -103.5t69.5 -71.5t100 -26zM354 628q-18 0 -30.5 12.5t-12.5 30.5t10 29l108 108q12 12 30 12
q19 0 31 -12.5t12 -31.5q0 -8 -3 -15.5t-9 -13.5l-107 -108q-12 -11 -29 -11z" />
    <glyph glyph-name="otilde" unicode="&#xf5;" 
d="M339 -5q-81 0 -143.5 36t-98.5 99t-36 143q0 81 36 144t98.5 99t143.5 36q80 0 142 -36t98 -99t37 -144q0 -80 -36 -143t-98.5 -99t-142.5 -36zM339 72q56 0 100 26t68.5 71.5t24.5 103.5t-24.5 104t-68.5 72t-100 26t-100 -26t-69.5 -72t-25.5 -104t25.5 -103.5
t69.5 -71.5t100 -26zM445 625q-32 0 -56.5 11.5t-41.5 21.5q-22 12 -36 17.5t-26 5.5q-17 0 -31.5 -7.5t-28.5 -25.5q-10 -14 -25 -19t-30 3q-14 7 -16.5 23t7.5 30q24 32 57 49.5t70 17.5q32 0 55.5 -11t39.5 -20q21 -13 33.5 -18.5t27.5 -5.5t26 5t20 14q12 12 24 17
t27 -4q14 -8 16.5 -24.5t-8.5 -30.5q-39 -49 -104 -49z" />
    <glyph glyph-name="uni022D" unicode="&#x22d;" 
d="M339 -5q-81 0 -143.5 36t-98.5 99t-36 143q0 81 36 144t98.5 99t143.5 36q80 0 142 -36t98 -99t37 -144q0 -80 -36 -143t-98.5 -99t-142.5 -36zM339 72q56 0 100 26t68.5 71.5t24.5 103.5t-24.5 104t-68.5 72t-100 26t-100 -26t-69.5 -72t-25.5 -104t25.5 -103.5
t69.5 -71.5t100 -26zM445 625q-32 0 -56.5 11.5t-41.5 21.5q-22 12 -36 17.5t-26 5.5q-17 0 -31.5 -7.5t-28.5 -25.5q-10 -14 -25 -19t-30 3q-14 7 -16.5 23t7.5 30q24 32 57 49.5t70 17.5q32 0 55.5 -11t39.5 -20q21 -13 33.5 -18.5t27.5 -5.5t26 5t20 14q12 12 24 17
t27 -4q14 -8 16.5 -24.5t-8.5 -30.5q-39 -49 -104 -49zM220 819q-18 0 -30.5 10.5t-12.5 28.5t12.5 28.5t30.5 10.5h256q18 0 30.5 -10.5t12.5 -28.5t-12.5 -28.5t-30.5 -10.5h-256z" />
    <glyph glyph-name="oe" unicode="&#x153;" horiz-adv-x="1087" 
d="M339 -5q-81 0 -144 35.5t-98.5 98.5t-35.5 144q0 82 35.5 145t98.5 98.5t144 35.5q79 0 139 -35.5t94 -98.5t34 -145q0 -81 -34 -144t-94 -98.5t-139 -35.5zM339 72q56 0 100 25.5t68.5 71t24.5 104.5t-24.5 105t-68.5 71.5t-100 25.5q-57 0 -101 -25.5t-69 -71.5
t-25 -105t25 -104.5t69 -71t101 -25.5zM812 -5q-80 0 -141 35.5t-96 98.5t-35 144q0 82 33 144.5t91 98.5t133 36q77 0 133 -34.5t86.5 -95.5t30.5 -139q0 -17 -11 -27.5t-28 -10.5h-418v69h422l-41 -30q-1 55 -22 99t-59.5 69t-92.5 25q-57 0 -99 -26.5t-65 -72.5t-23 -105
t26 -104.5t71.5 -72t104.5 -26.5q34 0 69.5 12t56.5 30q12 10 27.5 10.5t26.5 -8.5q14 -13 14.5 -28.5t-12.5 -26.5q-34 -28 -84.5 -46t-97.5 -18z" />
    <glyph glyph-name="p" unicode="p" horiz-adv-x="706" 
d="M133 -234q-19 0 -31 12t-12 31v467q1 78 37.5 140.5t98.5 99t140 36.5q80 0 142.5 -36.5t99 -99.5t36.5 -143q0 -79 -34.5 -142t-94.5 -99.5t-136 -36.5q-64 0 -117 27.5t-87 72.5v-286q0 -19 -11.5 -31t-30.5 -12zM366 72q56 0 100 26t69.5 72t25.5 103
q0 58 -25.5 103.5t-69.5 72t-100 26.5q-54 0 -98.5 -26.5t-69.5 -72t-25 -103.5q0 -57 25 -103t69.5 -72t98.5 -26z" />
    <glyph glyph-name="thorn" unicode="&#xfe;" horiz-adv-x="706" 
d="M133 -234q-19 0 -31 12t-12 31v929q0 20 12 31.5t31 11.5t31 -11.5t11 -31.5l-7 -437l-31 -11q0 66 21 115.5t56 82t78 48.5t87 16q76 0 136 -35.5t94.5 -98.5t34.5 -145q0 -81 -33.5 -144t-93.5 -98.5t-138 -35.5q-68 0 -120.5 31.5t-83.5 85.5v-303q1 -19 -11 -31
t-31 -12zM366 72q58 0 101.5 25.5t68.5 71t25 104.5t-25 105t-68.5 71.5t-101.5 25.5q-56 0 -100 -25.5t-68.5 -71.5t-24.5 -105t24.5 -104.5t68.5 -71t100 -25.5z" />
    <glyph glyph-name="q" unicode="q" horiz-adv-x="706" 
d="M573 -234q-19 0 -31 12t-12 31v286q-34 -45 -86.5 -72.5t-116.5 -27.5q-76 0 -136 36.5t-95 99.5t-35 142q0 80 36.5 143t99.5 99.5t142 36.5q78 0 140 -36.5t98.5 -99t38.5 -140.5v-467q0 -19 -12 -31t-31 -12zM339 72q55 0 99 26t69 72t25 103q0 58 -25 103.5t-69 72
t-99 26.5t-99 -26.5t-70 -72t-26 -103.5q0 -57 26 -103t70 -72t99 -26z" />
    <glyph glyph-name="r" unicode="r" horiz-adv-x="467" 
d="M128 339q2 61 31.5 109.5t77.5 76.5t107 28q51 0 77.5 -15t19.5 -41q-3 -15 -12.5 -20.5t-22 -5.5t-28.5 1q-58 8 -104 -6.5t-73 -47.5t-27 -79h-46zM132 0q-20 0 -31 11t-11 31v463q0 20 11 31t31 11t31 -11t11 -31v-463q0 -20 -11 -31t-31 -11z" />
    <glyph glyph-name="racute" unicode="&#x155;" horiz-adv-x="467" 
d="M128 339q2 61 31.5 109.5t77.5 76.5t107 28q51 0 77.5 -15t19.5 -41q-3 -15 -12.5 -20.5t-22 -5.5t-28.5 1q-58 8 -104 -6.5t-73 -47.5t-27 -79h-46zM132 0q-20 0 -31 11t-11 31v463q0 20 11 31t31 11t31 -11t11 -31v-463q0 -20 -11 -31t-31 -11zM263 631
q-18 0 -30.5 12.5t-12.5 30.5t10 29l108 108q12 12 30 12q19 0 31 -12.5t12 -31.5q0 -8 -3 -15.5t-9 -13.5l-107 -108q-12 -11 -29 -11z" />
    <glyph glyph-name="rcaron" unicode="&#x159;" horiz-adv-x="467" 
d="M128 339q2 61 31.5 109.5t77.5 76.5t107 28q51 0 77.5 -15t19.5 -41q-3 -15 -12.5 -20.5t-22 -5.5t-28.5 1q-58 8 -104 -6.5t-73 -47.5t-27 -79h-46zM132 0q-20 0 -31 11t-11 31v463q0 20 11 31t31 11t31 -11t11 -31v-463q0 -20 -11 -31t-31 -11zM266 634q-14 0 -21 6
l-116 77q-21 15 -21 36q0 20 21 28.5t49 -11.5l88 -59l88 59q32 21 51 11.5t19 -28.5q0 -21 -21 -36l-115 -77q-8 -6 -22 -6z" />
    <glyph glyph-name="uni0157" unicode="&#x157;" horiz-adv-x="467" 
d="M128 339q2 61 31.5 109.5t77.5 76.5t107 28q51 0 77.5 -15t19.5 -41q-3 -15 -12.5 -20.5t-22 -5.5t-28.5 1q-58 8 -104 -6.5t-73 -47.5t-27 -79h-46zM132 0q-20 0 -31 11t-11 31v463q0 20 11 31t31 11t31 -11t11 -31v-463q0 -20 -11 -31t-31 -11zM137 -241
q-26 0 -54.5 8.5t-48 25t-19.5 40.5q0 13 8.5 21t22.5 8t23.5 -6t18 -15t21 -15.5t34.5 -6.5q29 0 42.5 10t13.5 30q0 19 -17 30t-54 11q-21 0 -33.5 7.5t-12.5 22.5q0 31 51 31q57 0 93 -28t36 -72q0 -47 -36 -74.5t-89 -27.5z" />
    <glyph glyph-name="uni0211" unicode="&#x211;" horiz-adv-x="467" 
d="M128 339q2 61 31.5 109.5t77.5 76.5t107 28q51 0 77.5 -15t19.5 -41q-3 -15 -12.5 -20.5t-22 -5.5t-28.5 1q-58 8 -104 -6.5t-73 -47.5t-27 -79h-46zM132 0q-20 0 -31 11t-11 31v463q0 20 11 31t31 11t31 -11t11 -31v-463q0 -20 -11 -31t-31 -11zM370 622q-21 0 -31 21
l-60 125q-3 8 -3 17q0 16 12.5 29t31.5 13q13 0 24.5 -7.5t15.5 -19.5l40 -132q3 -6 3 -13q0 -16 -11 -24.5t-22 -8.5zM222 622q-21 0 -32 21l-59 125q-2 5 -2.5 9t-1.5 8q0 16 12.5 29t31.5 13q13 0 24 -7.5t15 -19.5l42 -132q1 -3 1.5 -6.5t0.5 -6.5q0 -16 -10.5 -24.5
t-21.5 -8.5z" />
    <glyph glyph-name="uni0213" unicode="&#x213;" horiz-adv-x="467" 
d="M128 339q2 61 31.5 109.5t77.5 76.5t107 28q51 0 77.5 -15t19.5 -41q-3 -15 -12.5 -20.5t-22 -5.5t-28.5 1q-58 8 -104 -6.5t-73 -47.5t-27 -79h-46zM132 0q-20 0 -31 11t-11 31v463q0 20 11 31t31 11t31 -11t11 -31v-463q0 -20 -11 -31t-31 -11zM148 622
q-18 0 -29.5 12.5t-11.5 30.5q0 34 21.5 61t57.5 42.5t80 15.5q42 0 77.5 -15t57.5 -42t23 -62q0 -18 -11 -30.5t-29 -12.5q-17 0 -29.5 10t-12.5 27q0 23 -20.5 39t-55.5 16q-32 0 -54.5 -16t-22.5 -39q0 -17 -12.5 -27t-28.5 -10z" />
    <glyph glyph-name="s" unicode="s" horiz-adv-x="540" 
d="M284 -5q-63 0 -121.5 20.5t-93.5 58.5q-12 13 -10 30t16 29q16 12 32.5 9.5t28.5 -14.5q21 -25 60 -40.5t86 -15.5q69 0 101 23.5t33 57.5t-31.5 57t-110.5 36q-101 17 -147.5 57t-46.5 96q0 51 28 85t73.5 51t98.5 17q67 0 116 -22.5t79 -60.5q12 -14 10 -29.5
t-16 -25.5q-14 -8 -31.5 -5t-29.5 16q-25 27 -57 39t-73 12q-51 0 -83.5 -20t-32.5 -52q0 -22 11.5 -38t41.5 -28.5t84 -22.5q75 -13 118.5 -36t62.5 -54.5t19 -69.5q0 -46 -26.5 -82t-75 -57t-113.5 -21z" />
    <glyph glyph-name="sacute" unicode="&#x15b;" horiz-adv-x="540" 
d="M284 -5q-63 0 -121.5 20.5t-93.5 58.5q-12 13 -10 30t16 29q16 12 32.5 9.5t28.5 -14.5q21 -25 60 -40.5t86 -15.5q69 0 101 23.5t33 57.5t-31.5 57t-110.5 36q-101 17 -147.5 57t-46.5 96q0 51 28 85t73.5 51t98.5 17q67 0 116 -22.5t79 -60.5q12 -14 10 -29.5
t-16 -25.5q-14 -8 -31.5 -5t-29.5 16q-25 27 -57 39t-73 12q-51 0 -83.5 -20t-32.5 -52q0 -22 11.5 -38t41.5 -28.5t84 -22.5q75 -13 118.5 -36t62.5 -54.5t19 -69.5q0 -46 -26.5 -82t-75 -57t-113.5 -21zM275 631q-18 0 -30.5 12.5t-12.5 30.5t10 29l108 108q12 12 30 12
q19 0 31 -12.5t12 -31.5q0 -8 -3 -15.5t-9 -13.5l-107 -108q-12 -11 -29 -11z" />
    <glyph glyph-name="scaron" unicode="&#x161;" horiz-adv-x="540" 
d="M284 -5q-63 0 -121.5 20.5t-93.5 58.5q-12 13 -10 30t16 29q16 12 32.5 9.5t28.5 -14.5q21 -25 60 -40.5t86 -15.5q69 0 101 23.5t33 57.5t-31.5 57t-110.5 36q-101 17 -147.5 57t-46.5 96q0 51 28 85t73.5 51t98.5 17q67 0 116 -22.5t79 -60.5q12 -14 10 -29.5
t-16 -25.5q-14 -8 -31.5 -5t-29.5 16q-25 27 -57 39t-73 12q-51 0 -83.5 -20t-32.5 -52q0 -22 11.5 -38t41.5 -28.5t84 -22.5q75 -13 118.5 -36t62.5 -54.5t19 -69.5q0 -46 -26.5 -82t-75 -57t-113.5 -21zM278 634q-14 0 -21 6l-116 77q-21 15 -21 36q0 20 21 28.5t49 -11.5
l88 -59l88 59q32 21 51 11.5t19 -28.5q0 -21 -21 -36l-115 -77q-8 -6 -22 -6z" />
    <glyph glyph-name="scedilla" unicode="&#x15f;" horiz-adv-x="540" 
d="M284 -5q-63 0 -121.5 20.5t-93.5 58.5q-12 13 -10 30t16 29q16 12 32.5 9.5t28.5 -14.5q21 -25 60 -40.5t86 -15.5q69 0 101 23.5t33 57.5t-31.5 57t-110.5 36q-101 17 -147.5 57t-46.5 96q0 51 28 85t73.5 51t98.5 17q67 0 116 -22.5t79 -60.5q12 -14 10 -29.5
t-16 -25.5q-14 -8 -31.5 -5t-29.5 16q-25 27 -57 39t-73 12q-51 0 -83.5 -20t-32.5 -52q0 -22 11.5 -38t41.5 -28.5t84 -22.5q75 -13 118.5 -36t62.5 -54.5t19 -69.5q0 -46 -26.5 -82t-75 -57t-113.5 -21zM275 -233q-56 0 -91.5 23.5t-35.5 53.5q0 17 12 29t28 12
q12 0 20.5 -5.5t14.5 -17.5q8 -13 21 -20t32 -7q22 0 36.5 9.5t14.5 27.5t-11 29t-39 17q-26 5 -37 18t-1 42l14 36q6 16 17.5 25t31.5 9q21 0 31.5 -14.5t1.5 -33.5l-15 -36q52 -12 73.5 -35.5t21.5 -57.5q0 -28 -18 -51.5t-49.5 -38t-72.5 -14.5z" />
    <glyph glyph-name="scircumflex" unicode="&#x15d;" horiz-adv-x="540" 
d="M284 -5q-63 0 -121.5 20.5t-93.5 58.5q-12 13 -10 30t16 29q16 12 32.5 9.5t28.5 -14.5q21 -25 60 -40.5t86 -15.5q69 0 101 23.5t33 57.5t-31.5 57t-110.5 36q-101 17 -147.5 57t-46.5 96q0 51 28 85t73.5 51t98.5 17q67 0 116 -22.5t79 -60.5q12 -14 10 -29.5
t-16 -25.5q-14 -8 -31.5 -5t-29.5 16q-25 27 -57 39t-73 12q-51 0 -83.5 -20t-32.5 -52q0 -22 11.5 -38t41.5 -28.5t84 -22.5q75 -13 118.5 -36t62.5 -54.5t19 -69.5q0 -46 -26.5 -82t-75 -57t-113.5 -21zM164 628q-19 0 -31.5 10t-12.5 27q0 22 21 37l116 76q9 6 21 6
q7 0 12 -1.5t10 -4.5l115 -76q21 -15 21 -37q0 -16 -12 -26.5t-31 -10.5q-8 0 -14 2t-13 7l-88 61l-88 -61q-12 -9 -26 -9z" />
    <glyph glyph-name="uni0219" unicode="&#x219;" horiz-adv-x="540" 
d="M284 -5q-63 0 -121.5 20.5t-93.5 58.5q-12 13 -10 30t16 29q16 12 32.5 9.5t28.5 -14.5q21 -25 60 -40.5t86 -15.5q69 0 101 23.5t33 57.5t-31.5 57t-110.5 36q-101 17 -147.5 57t-46.5 96q0 51 28 85t73.5 51t98.5 17q67 0 116 -22.5t79 -60.5q12 -14 10 -29.5
t-16 -25.5q-14 -8 -31.5 -5t-29.5 16q-25 27 -57 39t-73 12q-51 0 -83.5 -20t-32.5 -52q0 -22 11.5 -38t41.5 -28.5t84 -22.5q75 -13 118.5 -36t62.5 -54.5t19 -69.5q0 -46 -26.5 -82t-75 -57t-113.5 -21zM282 -241q-26 0 -54.5 8.5t-48 25t-19.5 40.5q0 13 8.5 21t22.5 8
t23.5 -6t18 -15t21 -15.5t34.5 -6.5q29 0 42.5 10t13.5 30q0 19 -17 30t-54 11q-21 0 -33.5 7.5t-12.5 22.5q0 31 51 31q57 0 93 -28t36 -72q0 -47 -36 -74.5t-89 -27.5z" />
    <glyph glyph-name="germandbls" unicode="&#xdf;" horiz-adv-x="547" 
d="M90 0q-18 0 -30.5 12t-12.5 30v536q0 56 28 101t75.5 71t109.5 26q56 0 99.5 -23t68.5 -63t25 -92q0 -35 -13 -59.5t-30.5 -43.5t-30.5 -37.5t-13 -42.5q0 -22 15 -41t37 -39t44 -42.5t37 -52t15 -68.5q0 -50 -24.5 -89.5t-69 -62.5t-101.5 -23q-35 0 -69.5 13
t-57.5 33.5t-23 43.5q0 17 9.5 27t27.5 10q16 0 25 -7t18.5 -17t26.5 -17t49 -7q50 0 77.5 25.5t27.5 70.5q0 30 -14.5 53.5t-35.5 44t-42.5 41.5t-36 45.5t-14.5 56.5q0 34 13.5 55t30.5 38t30.5 37t13.5 53q0 49 -32 75.5t-85 26.5t-88.5 -34.5t-35.5 -89.5v-532
q0 -18 -12.5 -30t-31.5 -12z" />
    <glyph glyph-name="longs" unicode="&#x17f;" horiz-adv-x="318" 
d="M102 0q-17 0 -29.5 11.5t-12.5 31.5v502q0 71 25.5 124t74 82.5t116.5 29.5q19 0 30.5 -11t11.5 -28q0 -16 -11.5 -27t-30.5 -11q-43 0 -72 -19.5t-43.5 -54t-14.5 -79.5v-508q0 -20 -12 -31.5t-32 -11.5z" />
    <glyph glyph-name="t" unicode="t" horiz-adv-x="402" 
d="M299 0q-52 0 -93 25t-64.5 69t-23.5 99v485q0 19 11.5 31t30.5 12q18 0 30 -12t12 -31v-485q0 -47 27.5 -77.5t69.5 -30.5h29q17 0 28 -12t11 -31t-13.5 -30.5t-34.5 -11.5h-20zM59 454q-17 0 -28 10t-11 26t11 26.5t28 10.5h247q17 0 28 -10.5t11 -26.5t-11 -26t-28 -10
h-247z" />
    <glyph glyph-name="tbar" unicode="&#x167;" horiz-adv-x="402" 
d="M59 280q-17 0 -28 10t-11 26t11 26.5t28 10.5h239q18 0 28.5 -10.5t10.5 -26.5t-10.5 -26t-28.5 -10h-239zM299 0q-52 0 -93 25t-64.5 69t-23.5 99v485q0 19 11.5 31t30.5 12q18 0 30 -12t12 -31v-485q0 -47 27.5 -77.5t69.5 -30.5h29q17 0 28 -12t11 -31t-13.5 -30.5
t-34.5 -11.5h-20zM59 454q-17 0 -28 10t-11 26t11 26.5t28 10.5h247q17 0 28 -10.5t11 -26.5t-11 -26t-28 -10h-247z" />
    <glyph glyph-name="tcaron" unicode="&#x165;" horiz-adv-x="402" 
d="M299 0q-52 0 -93 25t-64.5 69t-23.5 99v485q0 19 11.5 31t30.5 12q18 0 30 -12t12 -31v-485q0 -47 27.5 -77.5t69.5 -30.5h29q17 0 28 -12t11 -31t-13.5 -30.5t-34.5 -11.5h-20zM59 454q-17 0 -28 10t-11 26t11 26.5t28 10.5h247q17 0 28 -10.5t11 -26.5t-11 -26t-28 -10
h-247zM266 611q-11 2 -17 8.5t-5 17.5q2 14 13.5 30.5t23.5 36t15 45.5q2 20 -2.5 32.5t-9.5 25.5t-5 33q0 21 14 30.5t33 9.5q31 0 46 -29t9 -68q-3 -30 -16.5 -61t-32 -57t-36.5 -41t-30 -13z" />
    <glyph glyph-name="uni0163" unicode="&#x163;" horiz-adv-x="402" 
d="M299 0q-52 0 -93 25t-64.5 69t-23.5 99v485q0 19 11.5 31t30.5 12q18 0 30 -12t12 -31v-485q0 -47 27.5 -77.5t69.5 -30.5h29q17 0 28 -12t11 -31t-13.5 -30.5t-34.5 -11.5h-20zM59 454q-17 0 -28 10t-11 26t11 26.5t28 10.5h247q17 0 28 -10.5t11 -26.5t-11 -26t-28 -10
h-247zM219 -233q-56 0 -91.5 23.5t-35.5 53.5q0 17 12 29t28 12q12 0 20.5 -5.5t14.5 -17.5q8 -13 21 -20t32 -7q22 0 36.5 9.5t14.5 27.5t-11 29t-39 17q-26 5 -37 18t-1 42l14 36q6 16 17.5 25t31.5 9q21 0 31.5 -14.5t1.5 -33.5l-15 -36q52 -12 73.5 -35.5t21.5 -57.5
q0 -28 -18 -51.5t-49.5 -38t-72.5 -14.5z" />
    <glyph glyph-name="uni021B" unicode="&#x21b;" horiz-adv-x="402" 
d="M299 0q-52 0 -93 25t-64.5 69t-23.5 99v485q0 19 11.5 31t30.5 12q18 0 30 -12t12 -31v-485q0 -47 27.5 -77.5t69.5 -30.5h29q17 0 28 -12t11 -31t-13.5 -30.5t-34.5 -11.5h-20zM59 454q-17 0 -28 10t-11 26t11 26.5t28 10.5h247q17 0 28 -10.5t11 -26.5t-11 -26t-28 -10
h-247zM226 -241q-26 0 -54.5 8.5t-48 25t-19.5 40.5q0 13 8.5 21t22.5 8t23.5 -6t18 -15t21 -15.5t34.5 -6.5q29 0 42.5 10t13.5 30q0 19 -17 30t-54 11q-21 0 -33.5 7.5t-12.5 22.5q0 31 51 31q57 0 93 -28t36 -72q0 -47 -36 -74.5t-89 -27.5z" />
    <glyph glyph-name="u" unicode="u" horiz-adv-x="679" 
d="M325 -6q-70 0 -125.5 29.5t-87.5 86.5t-32 140v255q0 18 12 30t30 12q19 0 31 -12t12 -30v-255q0 -60 22.5 -99t61.5 -58t88 -19q47 0 84.5 18t59.5 50t22 72h58q-2 -63 -33 -112.5t-84 -78.5t-119 -29zM546 0q-19 0 -31 12t-12 31v462q0 19 12 30.5t31 11.5t31 -11.5
t12 -30.5v-462q0 -19 -12 -31t-31 -12z" />
    <glyph glyph-name="uacute" unicode="&#xfa;" horiz-adv-x="679" 
d="M325 -6q-70 0 -125.5 29.5t-87.5 86.5t-32 140v255q0 18 12 30t30 12q19 0 31 -12t12 -30v-255q0 -60 22.5 -99t61.5 -58t88 -19q47 0 84.5 18t59.5 50t22 72h58q-2 -63 -33 -112.5t-84 -78.5t-119 -29zM546 0q-19 0 -31 12t-12 31v462q0 19 12 30.5t31 11.5t31 -11.5
t12 -30.5v-462q0 -19 -12 -31t-31 -12zM337 631q-18 0 -30.5 12.5t-12.5 30.5t10 29l108 108q12 12 30 12q19 0 31 -12.5t12 -31.5q0 -8 -3 -15.5t-9 -13.5l-107 -108q-12 -11 -29 -11z" />
    <glyph glyph-name="ubreve" unicode="&#x16d;" horiz-adv-x="679" 
d="M325 -6q-70 0 -125.5 29.5t-87.5 86.5t-32 140v255q0 18 12 30t30 12q19 0 31 -12t12 -30v-255q0 -60 22.5 -99t61.5 -58t88 -19q47 0 84.5 18t59.5 50t22 72h58q-2 -63 -33 -112.5t-84 -78.5t-119 -29zM546 0q-19 0 -31 12t-12 31v462q0 19 12 30.5t31 11.5t31 -11.5
t12 -30.5v-462q0 -19 -12 -31t-31 -12zM339 622q-43 0 -79 16t-57.5 43t-21.5 60q0 18 11.5 31t29.5 13q16 0 28.5 -10.5t12.5 -27.5q0 -23 22.5 -38.5t53.5 -15.5q36 0 56.5 15.5t20.5 38.5q0 17 12.5 27.5t29.5 10.5q18 0 29 -12.5t11 -30.5q-1 -35 -23 -62t-57.5 -42.5
t-78.5 -15.5z" />
    <glyph glyph-name="uni01D4" unicode="&#x1d4;" horiz-adv-x="679" 
d="M325 -6q-70 0 -125.5 29.5t-87.5 86.5t-32 140v255q0 18 12 30t30 12q19 0 31 -12t12 -30v-255q0 -60 22.5 -99t61.5 -58t88 -19q47 0 84.5 18t59.5 50t22 72h58q-2 -63 -33 -112.5t-84 -78.5t-119 -29zM546 0q-19 0 -31 12t-12 31v462q0 19 12 30.5t31 11.5t31 -11.5
t12 -30.5v-462q0 -19 -12 -31t-31 -12zM340 634q-14 0 -21 6l-116 77q-21 15 -21 36q0 20 21 28.5t49 -11.5l88 -59l88 59q32 21 51 11.5t19 -28.5q0 -21 -21 -36l-115 -77q-8 -6 -22 -6z" />
    </font>
</defs>
</svg>
