<svg xmlns="http://www.w3.org/2000/svg" viewBox="0 0 750 500"><defs><style>.cls-1,.cls-9{fill:#fff}.cls-10,.cls-11,.cls-12,.cls-13,.cls-14,.cls-15,.cls-16,.cls-17,.cls-18,.cls-19,.cls-20,.cls-22,.cls-24,.cls-26,.cls-29,.cls-3,.cls-30,.cls-31,.cls-37,.cls-38,.cls-47,.cls-9{fill-rule:evenodd}.cls-3{fill:#bfcce8}.cls-4{fill:#90a9d5}.cls-5{fill:#b6c7e6}.cls-6{fill:#e6e4eb}.cls-11{fill:#0f1630}.cls-10,.cls-25{fill:#e8685b}.cls-12{fill:#3d4155}.cls-13{fill:#545a6c}.cls-14{fill:#f4ad85}.cls-15{fill:#ed9072}.cls-16{fill:#0e1632}.cls-17{fill:#010518}.cls-18{fill:#05304b}.cls-19{fill:#0076bd}.cls-20{fill:#171c3a}.cls-22{fill:#1c2344}.cls-24,.cls-33{fill:#383d5d}.cls-26{fill:#01020e}.cls-27,.cls-31{fill:#e2e1e7}.cls-28,.cls-38{fill:#b92f6d}.cls-29{fill:#e74d91}.cls-30,.cls-32{fill:#acabbb}.cls-37{fill:#004a82}.cls-47{fill:#1a293d}</style></defs><g id="OBJECTS"><path d="M193.18 313.11H139a53.12 53.12 0 00-53 53 53.12 53.12 0 0053 53h457.7a86 86 0 0085.77-85.77 86 86 0 00-85.77-85.77 36.37 36.37 0 01-36.26-36.27 36.37 36.37 0 0136.31-36.3h43.65a37.81 37.81 0 0037.7-37.7 37.81 37.81 0 00-37.7-37.7h-55.2a14.72 14.72 0 01-14.68-14.68 14.72 14.72 0 0114.68-14.71h9.73a10.16 10.16 0 0010.13-10.13 10.16 10.16 0 00-10.13-10.13h-63.84c-13.45 0-14.94 15.88-48.9 15.88h-97.86A13.26 13.26 0 00371.11 79a13.26 13.26 0 0013.22 13.22H397a19.21 19.21 0 0119.15 19.15 19.21 19.21 0 01-19.15 19.2h-19.1c-51.59 0-58.88 13.48-67.91 40.3s-56 29-56 29h-64.12A29 29 0 00161 228.72a29 29 0 0028.86 28.86h3.3a27.85 27.85 0 0127.76 27.76 27.84 27.84 0 01-27.76 27.76zm430.18-242.9a10.13 10.13 0 1110.13-10.13 10.13 10.13 0 01-10.13 10.13z" fill-rule="evenodd" fill="#e2e8f5"/><path class="cls-3" d="M197.74 419h4.64v-28.12L220 408.46 209.37 419h4.37l8.4-8.39 8.39 8.39h4.37l-10.58-10.58 17.58-17.58V419h4.64V199.85h-4.64v5.34l-5.34-5.34h-4.36l9.71 9.71v.27l-19.77 19.77-19.77-19.77v-.27l9.71-9.71h-4.37l-5.34 5.34v-5.34h-4.64V258a27.46 27.46 0 014.64 1.2v-.79l1.28 1.27a28 28 0 0115.23 15.23L220 276l-.49.49a27.31 27.31 0 01.93 3.44l1.74-1.74 19.77 19.77v.27L222.18 318l-11.25-11.25a28 28 0 01-2.51 1.86L220 320.12l-17.63 17.58v-26.17a27.55 27.55 0 01-4.64 1.2V419zm4.64-37.17v-35.12L220 364.29l-17.58 17.58zm0-132.51V214.2L220 231.78l-17.58 17.58zm39.53-35.16v35.16l-17.58-17.58 17.58-17.58zm0 44.17v35.16L224.32 276l17.58-17.58zm0 44.17v35.2l-17.58-17.58 17.58-17.58zm0 44.17v35.16l-17.58-17.58 17.58-17.58zm-39.53-93L222.14 234l19.77 19.77v.23l-19.77 19.77L202.37 254v-.27zm0 88.34l19.77-19.77 19.77 19.77v.27l-19.77 19.77-19.77-19.77v-.27zm0 44.17l19.77-19.77 19.77 19.77v.27l-19.77 19.77-19.77-19.77zM522.05 419h4.64v-28.12l17.58 17.58L533.69 419h4.37l8.4-8.39 8.4 8.39h4.37l-10.58-10.58 17.58-17.58V419h4.64V236.57a36.68 36.68 0 01-4.64-5.81v18.6l-17.58-17.58 12.7-12.7a36.14 36.14 0 01-.63-3.74l-14.26 14.26-19.77-19.77v-.27l19.77-19.77 14.67 14.67q.34-1.79.86-3.51l-13.34-13.34L566.22 170v21.69a36.65 36.65 0 014.64-5.81V88a14.6 14.6 0 01-.34-3.13 14.59 14.59 0 01.34-3.13v-31.8h-4.64v22.74L548.64 55.1l5.15-5.15h-4.37l-3 3-3-3h-4.37l5.15 5.15-17.51 17.58v-22.1a19.9 19.9 0 00-4.64 2.15V419zm4.64-37.17v-35.12l17.58 17.58-17.58 17.58zm0-44.17v-35.12l17.58 17.58-17.58 17.58zm0-44.17v-35.12L544.27 276l-17.58 17.58zm0-44.17V214.2l17.58 17.58-17.58 17.58zm0-44.17V170l17.58 17.58-17.58 17.58zm0-44.17v-35.12l17.58 17.58L526.69 161zm0-44.17V81.69l17.58 17.58-17.58 17.58zm39.53-35.16v35.16l-17.58-17.54 17.58-17.58zm0 44.17V161l-17.58-17.58 17.58-17.58zm0 132.51v35.16L548.64 276l17.58-17.58zm0 44.17v35.2l-17.58-17.58 17.58-17.58zm0 44.17v35.16l-17.58-17.58 17.58-17.58zM526.69 77l19.77-19.77L566.22 77v.27l-19.76 19.81-19.77-19.76V77zm0 44.17l19.77-19.77 19.77 19.77v.27l-19.77 19.77-19.77-19.77v-.27zm0 44.17l19.77-19.77 19.77 19.77v.27l-19.77 19.77-19.77-19.77v-.27zm0 88.34L546.46 234l19.77 19.77v.23l-19.77 19.77L526.69 254v-.27zm0 44.17l19.77-19.77 19.77 19.77v.27l-19.77 19.77-19.77-19.77v-.27zm0 44.17l19.77-19.77 19.77 19.77v.27l-19.77 19.77-19.77-19.77v-.27zm0 44.17l19.77-19.77 19.77 19.77v.27l-19.77 19.77-19.77-19.77zm-345.37-73.08h-6.83v8.38l-8.38-8.38h-6.44l14.82 14.82v.39l-29.13 29.13-29.13-29.12v-.39l14.09-14.09a52.33 52.33 0 00-8.67 2.23l-5.42 5.42v-3.2a53 53 0 00-6.83 3.94v87.66a53 53 0 006.83 3.94v-14l19.06 19.07q1.86.13 3.75.13h2.83l-25.63-25.64v-.4l29.13-29.13L174.49 393v.39L148.84 419h6.44l19.2-19.2V419h6.83V313.11zm0-112A29.1 29.1 0 00165.06 214l9.42-9.42v48.52a28.82 28.82 0 006.83 3.17v-55.12zm-65.08 185.46v-51.81l25.91 25.9-25.91 25.91zm58.25-51.81v51.81l-25.91-25.91zM587.28 419h6.83v-19.2l17.84 17.84c1.79-.32 3.55-.71 5.3-1.14l-23.14-23.1v-.4l29.12-29.13L652.36 393v.39l-15.74 15.74a86.6 86.6 0 0022.57-17.23V274.64a87 87 0 00-9.51-8.73l-26.45 26.45-29.12-29.12v-.39l14.51-14.51q-2.88-.4-5.83-.61l-8.68 8.68v-9a36 36 0 01-6.83-1.17V419zm0-242.81a36 36 0 016.83-1.17v-35.51l25.89 25.9-9.55 9.59h6.44l6.34-6.34 6.34 6.34H636l-9.56-9.56 25.9-25.91V173a37.59 37.59 0 006.83-3.1v-65.28a37.57 37.57 0 00-6.83-3.1v24.71l-25.9-25.9.76-.76h-8l.76.76-25.9 25.9V99.56h-6.83v76.67zm0-106h7.65a10.13 10.13 0 001.32-.09l-2.14-2.1v-.39l10.5-10.5a10.16 10.16 0 00-2.4-4l-8.1 8.1V49.94h-6.83v20.27zm6.83 316.36v-51.79l25.9 25.9-25.9 25.91zm0-65.08v-51.8l25.9 25.9-25.9 25.91zm58.25-51.81v51.81l-25.9-25.91 25.9-25.9zm0 65.08v51.81l-25.9-25.91 25.9-25.9zm-58.25-202.07l29.12-29.12 29.12 29.13v.39l-29.12 29.13-29.12-29.13v-.39zm0 195.25l29.12-29.13 29.12 29.13v.39l-29.12 29.13-29.12-29.12z"/><rect class="cls-4" x="167.86" y="334.74" width="53.45" height="39.72" rx="3.43" ry="3.43"/><rect class="cls-5" x="198.43" y="334.74" width="53.45" height="39.72" rx="3.43" ry="3.43"/><rect class="cls-4" x="205.95" y="347.85" width="38.41" height="13.48" rx="1.96" ry="1.96"/><rect class="cls-6" x="209.95" y="350.14" width="17.82" height="2.94" rx=".43" ry=".43"/><rect class="cls-6" x="209.95" y="354.8" width="9.23" height="2.94" rx=".43" ry=".43"/><rect class="cls-4" x="197.68" y="374.45" width="64.05" height="47.6" rx="4.11" ry="4.11"/><rect class="cls-5" x="161.05" y="374.45" width="64.05" height="47.6" rx="4.11" ry="4.11"/><rect class="cls-4" x="170.06" y="390.17" width="46.03" height="16.16" rx="2.35" ry="2.35"/><rect class="cls-6" x="189.94" y="392.91" width="21.35" height="3.53" rx=".51" ry=".51"/><rect class="cls-6" x="200.23" y="398.5" width="11.07" height="3.53" rx=".51" ry=".51"/><path class="cls-3" d="M457.21 160.85a15 15 0 11-3.27 4.89 15.07 15.07 0 013.27-4.89zm5.42-2a13.74 13.74 0 105.23-1 13.68 13.68 0 00-5.23 1zM461 147.79a24.56 24.56 0 00-5.44 2.32 24.7 24.7 0 00-2.51 1.66 25 25 0 00-2.29 2 1.57 1.57 0 01-1.88.23c-2.21-1.28-4.54-2.54-6.7-3.87a.91.91 0 00-.33-.1 1 1 0 00-.37 0 1 1 0 00-.34.16.94.94 0 00-.24.28c-1.61 2.44-3.23 5.59-4.72 8.18a.94.94 0 00-.12.35 1 1 0 000 .38 1 1 0 00.17.34.93.93 0 00.28.24c2 1.31 4.55 2.63 6.66 3.85a1.57 1.57 0 01.76 1.07h.14l-.15.62c-.12.49-.23 1-.32 1.46s-.16 1-.22 1.49-.11 1-.14 1.5 0 1 0 1.51v1.51c0 .51.08 1 .14 1.5s.14 1 .22 1.48.2 1 .32 1.46a1.57 1.57 0 01-.81 1.78l-5.9 3.41-.7.4a.94.94 0 00-.28.24 1 1 0 00-.19.72.94.94 0 00.12.35l4.37 7.57.35.61a.94.94 0 00.24.28 1 1 0 00.72.19.93.93 0 00.35-.12c2.11-1.33 4.5-2.59 6.67-3.85a1.58 1.58 0 011.88.23 24.84 24.84 0 004.8 3.62 24.45 24.45 0 005.51 2.34 1.57 1.57 0 011.14 1.52v7.7a.94.94 0 00.07.36 1 1 0 00.21.31 1 1 0 00.31.21.93.93 0 00.36.07h9.44a.93.93 0 00.36-.07 1 1 0 00.31-.21 1 1 0 00.21-.31.94.94 0 00.07-.36v-7.7a1.59 1.59 0 011.21-1.54 23.92 23.92 0 002.77-1 24.54 24.54 0 005.17-3 24.81 24.81 0 002.29-2 1.58 1.58 0 012-.18l6.59 3.8a.91.91 0 00.35.12 1 1 0 00.72-.19 1 1 0 00.24-.28c1.57-2.73 3.16-5.45 4.72-8.18a.94.94 0 00.12-.35 1 1 0 00-.19-.72.9.9 0 00-.27-.24l-6.67-3.85a1.56 1.56 0 01-.66-.75 1.54 1.54 0 01-.08-.25h-.17l.17-.71c.12-.49.23-1 .32-1.46s.16-1 .23-1.49.11-1 .14-1.5 0-1 0-1.51v-1.51c0-.51-.08-1-.14-1.5s-.14-1-.23-1.49-.2-1-.32-1.46a1.57 1.57 0 01.1-1 1.59 1.59 0 01.71-.74l6.6-3.81a.9.9 0 00.27-.24 1 1 0 00.16-.34 1 1 0 000-.38.94.94 0 00-.12-.35c-1.61-2.4-3.23-5.6-4.72-8.18a1 1 0 00-.24-.28 1 1 0 00-.34-.16 1 1 0 00-.38 0 .92.92 0 00-.35.12l-6.66 3.9a1.56 1.56 0 01-1 .2 1.59 1.59 0 01-.9-.45 24.7 24.7 0 00-4.78-3.6 24.56 24.56 0 00-5.51-2.34 1.58 1.58 0 01-1.15-1.52v-7.7a1 1 0 00-.07-.36 1 1 0 00-.21-.31 1 1 0 00-.31-.21.94.94 0 00-.36-.07h-9.44a.94.94 0 00-.36.07 1 1 0 00-.31.21 1 1 0 00-.28.67v7.7a1.57 1.57 0 01-.34 1 1.59 1.59 0 01-.88.56zm-3.32-.29a26.11 26.11 0 00-5.47 3.16 26.39 26.39 0 00-2.42 2.07.18.18 0 01-.11 0 .19.19 0 01-.12 0l-6.73-3.88a2.32 2.32 0 00-.84-.26 2.37 2.37 0 00-1.71.47 2.31 2.31 0 00-.6.69c-1.62 2.63-3.17 5.48-4.72 8.17a2.32 2.32 0 00-.29.87 2.38 2.38 0 00.06.92 2.33 2.33 0 00.41.82 2.3 2.3 0 00.69.6c2.14 1.32 4.47 2.58 6.66 3.85a.18.18 0 01.08.09.19.19 0 010 .12l-.15.62q-.1.45-.19.92-.15.8-.24 1.57t-.14 1.58v3.19c0 .54.08 1.07.14 1.58s.14 1 .24 1.57.21 1 .33 1.55a.18.18 0 010 .12.19.19 0 01-.08.09c-2.45 1.31-4.94 2.85-7.36 4.25l.09.11-.07.09a2.35 2.35 0 00-.4.82 2.38 2.38 0 00-.06.92 2.3 2.3 0 00.29.87l5.07 8.79.09-.06.16.13a2.36 2.36 0 001.74.47 2.35 2.35 0 00.85-.28c2.22-1.18 4.5-2.6 6.7-3.87a.19.19 0 01.11 0 .2.2 0 01.11.05 26.1 26.1 0 005.07 3.82 26 26 0 005.82 2.48.19.19 0 01.1.07.17.17 0 010 .11v7.7a2.34 2.34 0 00.69 1.66 2.36 2.36 0 00.76.51 2.32 2.32 0 00.9.18h9.44a2.33 2.33 0 00.9-.18 2.35 2.35 0 001.27-1.27 2.34 2.34 0 00.18-.9v-7.7a.19.19 0 010-.12.19.19 0 01.1-.06 25.76 25.76 0 003-1.05 26 26 0 002.82-1.41 26.15 26.15 0 005.07-3.82.18.18 0 01.11-.05.19.19 0 01.12 0l6.66 3.85a2.3 2.3 0 00.87.29 2.36 2.36 0 001.74-.47 2.35 2.35 0 00.59-.67c1.75-2.82 3.41-5.9 5.08-8.79l-.09-.05a2.16 2.16 0 000-.22 2.39 2.39 0 00-.06-.91 2.35 2.35 0 00-.41-.82 2.32 2.32 0 00-.68-.6l-6.6-3.85a.19.19 0 01-.08-.09.2.2 0 010-.12l.17-.7q.09-.41.17-.84.15-.8.24-1.57t.14-1.58v-3.18q0-.81-.14-1.58t-.24-1.57c-.1-.53-.21-1-.33-1.54a.2.2 0 010-.12.19.19 0 01.08-.09l6.66-3.84a2.28 2.28 0 00.68-.6 2.36 2.36 0 00.18-2.58c-1.59-2.94-3.41-5.9-5.08-8.81l-.09.06-.16-.13a2.37 2.37 0 00-1.74-.47 2.33 2.33 0 00-.87.29l-.49.28-6.18 3.57a.19.19 0 01-.12 0 .18.18 0 01-.11-.05 26.29 26.29 0 00-5.05-3.8 25.9 25.9 0 00-5.82-2.47.18.18 0 01-.1-.07.17.17 0 010-.11v-7.7a2.34 2.34 0 00-.69-1.66 2.39 2.39 0 00-.76-.51 2.33 2.33 0 00-.9-.18h-9.44a2.32 2.32 0 00-.9.18 2.43 2.43 0 00-.76.51 2.34 2.34 0 00-.69 1.66v7.7a.2.2 0 010 .12.19.19 0 01-.1.06 26 26 0 00-3.08 1.03zM67 236.34a15 15 0 11-3.27 4.89 15.09 15.09 0 013.27-4.89zm5.42-2a13.74 13.74 0 105.23-1 13.68 13.68 0 00-5.23 1zm-1.66-11.08a24.55 24.55 0 00-8 4 24.73 24.73 0 00-2.29 2 1.57 1.57 0 01-.9.43 1.58 1.58 0 01-1-.2c-2.21-1.28-4.54-2.54-6.7-3.87a.92.92 0 00-.33-.1 1 1 0 00-.37 0 1 1 0 00-.34.16.94.94 0 00-.24.28c-1.61 2.44-3.23 5.59-4.72 8.18a.94.94 0 00-.12.35 1 1 0 000 .38 1 1 0 00.17.34.94.94 0 00.28.24c2 1.31 4.55 2.63 6.66 3.85a1.57 1.57 0 01.66.75 1.54 1.54 0 01.1.33h.14l-.15.62q-.18.73-.32 1.46t-.11 1.54c-.06.5-.11 1-.14 1.5s0 1 0 1.51v1.51c0 .51.08 1 .14 1.5s.14 1 .23 1.48.2 1 .32 1.46a1.57 1.57 0 01-.81 1.78L47 258.13l-.7.4a1 1 0 00-.28.24 1 1 0 00-.16.34 1 1 0 000 .38 1 1 0 00.12.35l4.37 7.56.35.61a.94.94 0 00.24.28 1 1 0 00.34.17 1 1 0 00.38 0 .92.92 0 00.35-.12c2.11-1.33 4.5-2.59 6.68-3.85a1.57 1.57 0 011.88.23 25 25 0 002.29 2 24.46 24.46 0 008 4 1.58 1.58 0 011.14 1.51v7.7a.94.94 0 00.07.36 1 1 0 00.52.52 1 1 0 00.36.07h9.45a1 1 0 00.36-.07 1 1 0 00.31-.21 1 1 0 00.21-.31.94.94 0 00.07-.36v-7.7a1.59 1.59 0 011.21-1.54 24.16 24.16 0 002.77-1 24.43 24.43 0 002.67-1.32 24.84 24.84 0 004.8-3.62 1.58 1.58 0 012-.18l6.59 3.8a.93.93 0 00.35.12 1 1 0 00.38 0 1 1 0 00.34-.17.94.94 0 00.24-.28c1.57-2.73 3.16-5.45 4.72-8.18a.94.94 0 00.12-.35 1 1 0 000-.38 1 1 0 00-.16-.34.9.9 0 00-.27-.24l-6.67-3.85a1.56 1.56 0 01-.66-.75 1.51 1.51 0 01-.08-.25h-.17l.17-.71c.12-.49.23-1 .32-1.46s.16-1 .23-1.49.11-1 .14-1.5 0-1 0-1.51v-1.51c0-.51-.08-1-.14-1.5s-.14-1-.23-1.49-.19-1-.32-1.46a1.57 1.57 0 01.81-1.78l6.6-3.81a.91.91 0 00.28-.24 1 1 0 00.16-.34 1 1 0 000-.38 1 1 0 00-.12-.35c-1.61-2.4-3.23-5.6-4.72-8.18a1 1 0 00-.24-.28 1 1 0 00-.34-.16 1 1 0 00-.38 0 .93.93 0 00-.35.12l-6.67 3.85a1.56 1.56 0 01-1 .2 1.59 1.59 0 01-.9-.44A24.64 24.64 0 0090 225.6a24.5 24.5 0 00-5.51-2.34 1.58 1.58 0 01-1.14-1.52V214a.94.94 0 00-.07-.36 1 1 0 00-.21-.31.93.93 0 00-.67-.28H73a1 1 0 00-.36.07 1 1 0 00-.31.21 1 1 0 00-.33.67v7.7a1.58 1.58 0 01-1.21 1.54zm-3.3-.26a26.13 26.13 0 00-7.89 5.23.18.18 0 01-.11 0 .19.19 0 01-.12 0l-6.73-3.88a2.32 2.32 0 00-.84-.26 2.38 2.38 0 00-1.71.47 2.32 2.32 0 00-.6.69c-1.62 2.63-3.17 5.48-4.72 8.17a2.32 2.32 0 00-.29.87 2.36 2.36 0 00.47 1.74 2.31 2.31 0 00.69.6c2.14 1.32 4.47 2.58 6.67 3.85a.18.18 0 01.08.09.19.19 0 010 .12l-.15.62q-.1.45-.19.92-.15.8-.24 1.57t-.14 1.58v3.19c0 .54.08 1.07.14 1.58s.14 1 .24 1.57.21 1 .33 1.55a.18.18 0 010 .12.18.18 0 01-.08.09c-2.45 1.31-4.94 2.85-7.36 4.25l.09.11-.07.09a2.36 2.36 0 00-.47 1.74 2.3 2.3 0 00.29.87l5.07 8.79.09-.06.16.13a2.36 2.36 0 001.74.46 2.33 2.33 0 00.85-.28c2.22-1.18 4.5-2.6 6.7-3.87a.19.19 0 01.11 0 .2.2 0 01.11 0 26 26 0 005.07 3.82 25.86 25.86 0 005.82 2.47.19.19 0 01.1.07.18.18 0 010 .11v7.7a2.34 2.34 0 00.69 1.66 2.37 2.37 0 00.76.51 2.32 2.32 0 00.9.18h9.48a2.32 2.32 0 00.9-.18 2.41 2.41 0 00.76-.51 2.36 2.36 0 00.51-.76 2.32 2.32 0 00.18-.9v-7.7a.19.19 0 010-.12.19.19 0 01.1-.06 26 26 0 008.44-4.22 26.36 26.36 0 002.42-2.07.19.19 0 01.11-.05.19.19 0 01.12 0l6.67 3.85a2.33 2.33 0 00.87.29 2.39 2.39 0 00.91-.06 2.35 2.35 0 001.42-1.07c1.75-2.82 3.41-5.9 5.08-8.79l-.09-.05v-.22a2.38 2.38 0 00-.06-.91 2.34 2.34 0 00-.41-.82 2.29 2.29 0 00-.69-.6l-6.67-3.85a.18.18 0 01-.08-.09.19.19 0 010-.12l.17-.7q.09-.41.17-.84c.1-.53.18-1.06.24-1.57s.11-1 .14-1.58 0-1.08 0-1.59v-1.59c0-.54-.08-1.07-.14-1.58s-.14-1-.24-1.57-.21-1-.33-1.54a.2.2 0 010-.12.18.18 0 01.08-.09l6.66-3.84a2.27 2.27 0 00.68-.6 2.36 2.36 0 00.18-2.58c-1.59-2.94-3.41-5.9-5.08-8.81l-.09.06-.16-.13a2.36 2.36 0 00-1.74-.47 2.31 2.31 0 00-.87.29l-.49.28-6.07 3.59a.19.19 0 01-.12 0 .18.18 0 01-.11-.05 26 26 0 00-10.87-6.28.18.18 0 01-.1-.07.17.17 0 010-.11V214a2.34 2.34 0 00-.69-1.66 2.36 2.36 0 00-.76-.51 2.33 2.33 0 00-.9-.18H73a2.33 2.33 0 00-.9.18 2.42 2.42 0 00-.76.51 2.34 2.34 0 00-.69 1.66v7.7a.2.2 0 010 .12.19.19 0 01-.1.06 26 26 0 00-3.09 1.12zm58.16 57.81zm3.32-12.65a6.39 6.39 0 11-1.87 4.52 6.37 6.37 0 011.87-4.52zm1.38-6.33a11.25 11.25 0 00-2.5 1.07 11.37 11.37 0 00-2.2 1.66.39.39 0 01-.47.06l-3-1.71a.74.74 0 00-1 .28l-2.09 3.62a.74.74 0 00.27 1l2.95 1.7a.39.39 0 01.19.43 11.38 11.38 0 000 5.45.39.39 0 01-.21.45l-2.94 1.7a.74.74 0 00-.27 1l2.1 3.64a.74.74 0 001 .27l2.95-1.7a.39.39 0 01.47.06 11.42 11.42 0 002.2 1.66 11.28 11.28 0 002.52 1.07.39.39 0 01.29.38v3.42a.74.74 0 00.73.74h4.2a.74.74 0 00.73-.74v-3.42a.39.39 0 01.3-.38 11.25 11.25 0 002.5-1.07 11.4 11.4 0 002.2-1.66.39.39 0 01.49 0l2.95 1.7a.74.74 0 001-.27l2.09-3.62a.74.74 0 00-.27-1l-3-1.71a.39.39 0 01-.19-.43 11.38 11.38 0 000-5.45.39.39 0 01.21-.44l2.95-1.7a.74.74 0 00.27-1l-2.09-3.62a.74.74 0 00-1-.27l-3 1.71a.39.39 0 01-.48-.07 11.35 11.35 0 00-2.19-1.65 11.22 11.22 0 00-2.52-1.07.39.39 0 01-.29-.38V258a.74.74 0 00-.73-.74h-4.2a.74.74 0 00-.73.74v3.42a.39.39 0 01-.19.41zM263 173.88a1.1 1.1 0 10-2.19 0v2.58h-2.58a1.1 1.1 0 100 2.19h2.58v2.58a1.1 1.1 0 002.19 0v-2.58h2.58a1.1 1.1 0 000-2.19H263zm67.31-71.24zM333.63 90a6.39 6.39 0 11-1.87 4.52 6.37 6.37 0 011.87-4.52zm1.37-6.34a11.25 11.25 0 00-2.5 1.07 11.37 11.37 0 00-2.2 1.66.39.39 0 01-.47.06l-3-1.71a.74.74 0 00-1 .28l-2.09 3.62a.74.74 0 00.27 1l2.95 1.7a.39.39 0 01.18.43 11.28 11.28 0 00-.25 1.35 11.46 11.46 0 000 2.75 11.24 11.24 0 00.25 1.35.39.39 0 01-.21.44L324 99.39a.74.74 0 00-.27 1l2.1 3.64a.74.74 0 001 .27l2.95-1.7a.39.39 0 01.47.06 11.32 11.32 0 002.2 1.66 11.19 11.19 0 002.52 1.07.39.39 0 01.29.38v3.43a.74.74 0 00.73.73h4.2a.74.74 0 00.73-.73v-3.43a.39.39 0 01.3-.38 11.2 11.2 0 002.5-1.07 11.36 11.36 0 002.2-1.66.39.39 0 01.49 0l2.95 1.7a.74.74 0 001-.27l2.09-3.62a.74.74 0 00-.27-1l-3-1.71a.39.39 0 01-.19-.43 11.39 11.39 0 000-5.45.39.39 0 01.21-.45l2.95-1.7a.74.74 0 00.27-1L350.44 85a.74.74 0 00-1-.27l-3 1.71a.39.39 0 01-.48-.06 11.38 11.38 0 00-2.19-1.65 11.21 11.21 0 00-2.52-1.07.39.39 0 01-.29-.38v-3.43a.74.74 0 00-.73-.73h-4.2a.74.74 0 00-.73.73v3.43a.39.39 0 01-.3.38zm354.73-9.9a1.1 1.1 0 10-2.19 0v2.58H685a1.1 1.1 0 100 2.19h2.58v2.58a1.1 1.1 0 102.19 0v-2.58h2.58a1.1 1.1 0 000-2.19h-2.58zM50.86 359.69a1.1 1.1 0 10-2.19 0v2.58H46.1a1.1 1.1 0 100 2.19h2.58V367a1.1 1.1 0 002.19 0v-2.58h2.58a1.1 1.1 0 000-2.19h-2.59zm349.41-199.08zm3.32-12.61a6.39 6.39 0 11-1.87 4.52 6.37 6.37 0 011.87-4.52zm1.38-6.33a11.29 11.29 0 00-4.7 2.72.39.39 0 01-.47.06l-3-1.71a.74.74 0 00-1 .28l-2.09 3.62a.74.74 0 00.27 1l2.95 1.7a.39.39 0 01.18.43 11.22 11.22 0 00-.25 1.35 11.6 11.6 0 000 2.75 11.23 11.23 0 00.25 1.35.39.39 0 01-.21.44l-2.94 1.7a.74.74 0 00-.27 1l2.1 3.64a.74.74 0 001 .27l2.95-1.7a.39.39 0 01.47.06 11.31 11.31 0 002.2 1.66 11.15 11.15 0 002.52 1.07.39.39 0 01.29.38v3.43a.74.74 0 00.74.73h4.2a.74.74 0 00.74-.73v-3.43a.39.39 0 01.3-.38 11.15 11.15 0 002.5-1.07 11.27 11.27 0 002.2-1.66.39.39 0 01.49 0l2.95 1.7a.74.74 0 001-.27l2.09-3.62a.74.74 0 00-.27-1l-3-1.71a.39.39 0 01-.18-.43 11.21 11.21 0 00.25-1.35 11.46 11.46 0 000-2.75 11.2 11.2 0 00-.25-1.35.39.39 0 01.21-.45l2.94-1.7a.74.74 0 00.27-1l-2.01-3.7a.74.74 0 00-1-.27l-3 1.71a.39.39 0 01-.48-.06 11.37 11.37 0 00-2.19-1.65 11.21 11.21 0 00-2.52-1.07.39.39 0 01-.29-.38v-3.43a.74.74 0 00-.74-.73H406a.74.74 0 00-.74.73v3.43a.39.39 0 01-.26.35zm-44.58 2.62a1.1 1.1 0 10-2.19 0v2.58h-2.58a1.1 1.1 0 100 2.19h2.58v2.58a1.1 1.1 0 002.19 0v-2.58H363a1.1 1.1 0 000-2.19h-2.58zm4.47 121.36a1.1 1.1 0 00-2.19 0v2.58h-2.58a1.1 1.1 0 000 2.19h2.58V273a1.1 1.1 0 102.19 0v-2.58h2.58a1.1 1.1 0 000-2.19h-2.58zM268.8 211.3a1.1 1.1 0 10-2.19 0v2.58H264a1.1 1.1 0 000 2.19h2.58v2.58a1.1 1.1 0 102.19 0v-2.58h2.58a1.1 1.1 0 000-2.19h-2.55zm364.34-6.49a1.1 1.1 0 00-2.19 0v2.58h-2.58a1.1 1.1 0 100 2.19h2.58v2.58a1.1 1.1 0 102.19 0v-2.58h2.58a1.1 1.1 0 100-2.19h-2.58z"/><path d="M472.38 285.65a28.46 28.46 0 0111.68 8.42c2.91 3.54 38.55 71.8 40.84 76.25s2.28 15.68-3.12 22.59c-2.1 2.69-8.12 10.2-14.71 18.39h-21.35c7.75-11.63 17.87-26.84 18.6-28.07 1.19-2 1.78-3.94-.38-7.32s-30.69-38.16-30.69-38.16-14.03-39.2-.87-52.1z" stroke="#0e1632" stroke-miterlimit="22.93" stroke-width=".22" fill="#0f1630" fill-rule="evenodd"/><path d="M434.9 280.16s35.93 5.11 37.48 5.49 4.17 4 5.58 6.44 3.07 37.51 3.88 47.33-2.36 52.63-1.42 64.13c.16 1.91.45 4.59.83 7.75H373.77c-1.38-12.72-11-52.5-11.75-62.06-.8-9.82-4.88-44.7-3.88-47.33s3-6.63 4.46-7.26 36.51-11.55 36.51-11.55l18 2z" fill="#cec9d0" fill-rule="evenodd"/><path class="cls-9" d="M434.9 280.16l5.94.85a5.15 5.15 0 01-1.23 2.44c-14 16-28.23 17.17-44.61 3.66a5.14 5.14 0 01-1.62-2.22l5.73-1.79 18 2z"/><path class="cls-10" d="M428.61 245.55l.31 8.95 1.72 21c.11 1.34 1.66 3.16 4.25 4.64-11.75 13.46-22 14.3-35.79 2.93 2.32-1.88 3.55-3.93 3.44-5.27l-1.72-21-1.15-8.88s7.21.56 14.69 1.58c7.23-2.22 14.25-3.95 14.25-3.95z"/><path class="cls-11" d="M437.87 280.58s-4.15 18-4.46 21.61-5.19 40.44-4.68 46.66c.23 2.83 5.85 31.57 12 62.45h49c-1.2-7.53-2.23-14-2.79-17.68-2-13.17-3.32-40.55-2.89-57.46s-3.77-42.29-4.27-44.7-5.3-5.42-6.79-6z"/><path class="cls-12" d="M432.51 309.88c-1.47 12.12-4.17 34.27-3.78 39 0 0 23.81-25.92 23.45-28.48s-10-21.63-10-21.63-4.18 4.76-9.67 11.11z"/><path class="cls-13" d="M436.67 280.41s1.05-.94 1.43-1 6.84 2.16 6.84 2.16 9.42 14.82 9.58 16.71-23.14 21-23.14 21l2.07-17.43s3.38-17 4.42-21.24z"/><path class="cls-11" d="M363 294.61a28.46 28.46 0 00-10.15 10.21c-2.3 4-26.34 77.12-27.88 81.88s.3 15.84 6.75 21.79l3.1 2.82h26.64c-7.06-7.57-13.45-14.44-14.09-15.21-1.5-1.78-2.4-3.6-.81-7.29s24.07-42.65 24.07-42.65 7.48-40.96-7.63-51.55z"/><path class="cls-11" d="M396.25 284s7 17 7.92 20.59 11.7 39.05 12.21 45.27c.23 2.76-.6 30.8-1.58 61.44h-48.42c0-3.2 0-5.88-.07-7.8-.18-13.32-3.32-40.55-6.51-57.17s-3.17-42.34-3.06-44.79 4.35-6.21 5.72-7z"/><path class="cls-12" d="M406.31 312c3.43 11.72 9.69 33.14 10.08 37.84 0 0-27.71-21.7-27.77-24.28s6.39-23 6.39-23 4.88 4.09 11.3 9.44z"/><path class="cls-13" d="M397.4 283.63a5.26 5.26 0 00-1.57-.73c-.38 0-6.4 3.24-6.4 3.24s-6.89 16.15-6.73 18 26.24 16.91 26.24 16.91l-4.87-16.86S398 288 396.25 284z"/><path class="cls-10" d="M384.2 251l-.53.14a7.39 7.39 0 106.28.92c.39 2.16.29 4.88-2.46 5.4l-.31-4.25a2.54 2.54 0 00-2.98-2.21zm53.13-4.84h.55a7.39 7.39 0 11-6 2c0 2.19.6 4.85 3.4 4.86l-.47-4.24a2.54 2.54 0 012.52-2.62z"/><path class="cls-14" d="M407.41 211.81a25.38 25.38 0 00-22.9 27.5l2.09 22.92a25.38 25.38 0 0027.5 22.9 25.38 25.38 0 0022.9-27.5l-2.09-22.92a25.38 25.38 0 00-27.5-22.9z"/><path class="cls-15" d="M386.07 228a25.07 25.07 0 00-1.56 11.28l2.09 22.92a25.39 25.39 0 0025.1 23c-14.65-1.13-17.36-18.44-18.48-27.56s2.3-11.16 3.65-11.61 22.63-4 27.34-4.53 7.08 2.07 7.08 2.07l2-2.88-1.9-6.16s1.62.05 3.54 0a25.2 25.2 0 00-.93-4.76 40.13 40.13 0 01-8.31-3.75c-5.61-3.62-32.41.91-36.76.91a6.81 6.81 0 00-2.86 1.07z"/><path class="cls-16" d="M433.34 246.87l.3 3.25c.14 1.56 1.75 3.18 3 3.07l-.32-3.55a3.55 3.55 0 013.5-3c8.88-12.31 5.92-30.29-5.53-38.71S400 201 396.16 202.71s-7.33 8.8-7.33 8.8-3.65-2.7-6.63-.85-11.65 22.54-11.2 27.47S381.89 252 381.89 252a3.54 3.54 0 014 2.28l.32 3.55c1.2-.11 2.49-2 2.35-3.55l-.3-3.25.33-.19c3.06-2 2.45-8.05 2.45-8.05l-2.82-3.94 5.59-7.35 6.43-2.12 14.61.56s17.23 2.14 15.72 7.16 2.77 9.77 2.77 9.77z"/><path class="cls-17" d="M433.34 246.87c.18 1.93 1.47 10.55 3.72 10.35 6.7-14.12 12.89-28.86 2.91-43.32-1.17 9.31-10.45 15-19.73 16.94 4.91 1.07 11.27 3.08 10.33 6.21-1.51 5 2.78 9.82 2.78 9.82zm-61.71-13.08a14.66 14.66 0 00-.64 4.33c.35 3.8 13 22.16 15.82 26.33 1.46-.13 1.66-11 1.43-13.47l.33-.19c3.06-2 2.45-8.05 2.45-8.05l-2.82-3.94 5.59-7.35 6.14-2c-3.09-1.25-4-2.56-4-2.56-12.66 12.82-20.02 12.11-24.29 6.9z"/><path class="cls-16" d="M382.09 247.27s-10.6-23 10.72-26.91c0 0 5.64-11.14 17-8.35s18.39 2.72 23.46-2.28c0 0 2.91 5.47-.62 10.26 10.71 8.31 7 19 2.61 24.7-1.75-11.91-33.14 1.35-37.24-10.1-.45 10.94-11.92 8.22-15.93 12.68z"/><path class="cls-17" d="M382.09 247.27a33.23 33.23 0 01-2.55-10c4.12-.39 9.47-3.35 16.42-10.38 0 0 2.84 4.17 15.93 4.71 8 .33 18.07-2.62 23.77-8.75 6.82 7.77 3.45 16.75-.45 21.86-1.75-11.91-33.13 1.35-37.24-10.1-.4 10.92-11.87 8.2-15.88 12.66z"/><path class="cls-18" d="M690.29 249.75c-4.48-16.81-20.15-7.57-26.85 6.83s-22.07 70.54-35.35 85.07c-5.15 5.63-3.57 6.11 1.16 3.36 23.6-13.68 67.21-72.12 61.04-95.26z"/><path class="cls-19" d="M624.91 346c-.16.76.55.79 1.89.23 35.79-30.27 54.79-97.93 54.85-98.14a.7.7 0 00-1.35-.38c-.05.24-19.3 68.82-55.39 98.29z"/><path class="cls-19" d="M650.63 258.71c-7.82-12.26-18-.94-19.66 12.22s.25 61.76-6.66 76.69c-2.68 5.79-1.3 5.77 1.77 2.39 15.35-16.86 35.32-74.43 24.55-91.3z"/><path class="cls-18" d="M622.89 351.92c.06.64.64.49 1.57-.29 20.86-33.15 18.9-91.84 18.89-92a.59.59 0 10-1.17 0c0 .19 1.99 59.68-19.29 92.29z"/><path class="cls-19" d="M689.4 300.42c13.51 1.41 8.29 14.62-2 21.55s-51.72 25.62-61.31 37.64c-3.72 4.66-4.28 3.5-2.74-.48 7.65-19.88 47.45-60.65 66.05-58.71z"/><path class="cls-18" d="M623.11 362.59c-.56.22-.68-.33-.41-1.43 19-31.29 68.86-54.2 69-54.28a.55.55 0 01.46 1c-.16.07-50.7 23.29-69.05 54.71z"/><path class="cls-16" d="M496.39 283.54L493 313s5.07 69.06 7.57 98.28h37.66l.83-117.53z"/><path class="cls-16" d="M516.36 309.11l-1.66 10.42 3.3 91.77h45.91c.77-6.35 1.46-11.78 2-15.7 3.45-24.14 4.63-57.68 4.61-65.62s-9.21-19.72-12.37-20.58-41.79-.29-41.79-.29z"/><path class="cls-20" d="M501 167.42s-1.57-2.92-2.81-2.37S455.39 226.77 454 232s-.83 14.59 7.22 27.54 25.24 44.76 25.85 45.46 10-5.69 11-7.47c0 0 .41-.59-.19-1.78s-21.07-49.67-22.36-53.15 35.18-46.6 36.92-50.1 8.44-21.56-11.44-25.08z"/><path d="M534.32 149.9l-18.1 12.93s-12.91 50.56-13 52.86-5 30.18-5 30.18 18.1 7.18 20.69.29 31.61-56.32 33-64.08-2-26.15-3.74-28.16-13.85-4.02-13.85-4.02z" fill="#c9c4d1" fill-rule="evenodd"/><path class="cls-20" d="M516.1 158.42s-16.4 5.77-17.9 6.63-10.36 33.13-11.08 36.15 4 58.33 4 63.22-6.18 65.95-6.32 67a1.81 1.81 0 001.87 2.16c1.44 0 17.53-30.32 18.82-33.76s-2.89-55.46-2.89-55.46l10.94-74.43z"/><path class="cls-22" d="M564.77 166.6s23.5 23.69 24.36 25.12-23.56 82.28-23.84 86.06 12.07 58.76 12.5 60.2a2.77 2.77 0 01-.36 1.44 5.35 5.35 0 01-1.94 1.72c-.5.36-58-8.91-62.57-11.78s-14.51-47.56-14.51-53.59 3.48-29.13 3.48-29.13l28.28-47.88s20.42-30.64 34.6-32.16z"/><path d="M561.05 162.88s27.22 27.41 28.08 28.85-23.56 82.27-23.84 86.05 12.07 58.76 12.5 60.2a2.77 2.77 0 01-.36 1.44 5.34 5.34 0 01-1.94 1.72c-.26.18-15.55-2.17-31-4.89C557.9 317 557.2 285 556 283c-1.36-2.26-8.51-7.15-7.42-7.51s8.42-.54 9-2.35 10.86-59.09 10.86-59.09l6.89-4.64s3.08-22.27.91-25.53-16.5-15.58-16.62-15.68c1.76-.85-.22-5.15 1.43-5.32z" fill="#101937" fill-rule="evenodd"/><path class="cls-24" d="M585.85 188.11a41 41 0 016 6c2.46 3.21 33.12 67.31 33.76 73.31S624 283.6 613 296.39s-35.42 44.61-36.21 45.28-10-8-10.78-10.09c0 0-.35-.71.52-1.91s31.65-50.76 33.67-54.35-30.47-57.15-31.78-61.23-4.95-25.55 17.43-25.98z"/><path class="cls-15" d="M551.52 127.4c.17 9-2.16 18.21-1.57 27.18.12 1.83 1 2.44 3.25 3.91 3.13 4.65-5.42 19.37-11 20.24-.37.06-9.53-7.13-16-8.79-3.33-.86-6.07 3.4-6.32 3.22-1.35-1 1.55-8.59.61-11.48 1.14-.31 2.16-2.86 3-3.6 5.26-4.85 3.54-17-.76-21.52-3.32-3.43 28.79-9.16 28.79-9.16z"/><path class="cls-9" d="M557.45 162c-.71 2-18.08 25.21-18.08 25.21s-.62.83-1.53-.22-11.61-16-11.61-16L550 153.28l-.54-4.07c.34-.37 8.72 10.71 7.99 12.79zm-31.85-7.54h-.09c-8.12-.57-9.35 22.44-7.93 27 0 0 4.94-7.53 8.33-10.54 1.54-1.44-3.27-11.84-.31-16.46z"/><path class="cls-24" d="M555.4 155.38s-30.4 37.67-32.54 40.83-18.68 42.1-21 50.43c0 0 25.43-31.75 29-34.63s16.88-13.94 16.88-13.94a1.92 1.92 0 00.18-1.22c-.18-.5-3.88-8.87-3.88-8.87s11.06 1.65 12.07 1.58 6-24.75 6.12-25.47-6.83-8.71-6.83-8.71z"/><path class="cls-24" d="M525.66 154.41s-8 1.86-9.33 2.58-11.49 17.67-11.78 19.11a.9.9 0 00.43 1 29.92 29.92 0 012.91 1.83c.21.22-3.56.65-3.56.65s-.43.16-.36.83-1.36 63.94-1.36 63.94 12.54-70 14.4-74.57 6.85-11.89 6.85-11.89z"/><circle class="cls-25" cx="512.03" cy="121.53" r="7.17" transform="rotate(-.32 506.378 119.587)"/><circle class="cls-25" cx="559.86" cy="121.25" r="7.17" transform="rotate(-.32 552.93 119.717)"/><path class="cls-14" d="M533.43 77.53c13.5-.08 24.61 11.9 24.68 26.62l.12 24.33c.07 14.72-10.91 26.83-24.41 26.92-13.5.08-24.61-11.9-24.68-26.62l-.14-24.33c-.05-14.73 10.93-26.84 24.43-26.92z"/><path class="cls-15" d="M557.16 96.92a28.84 28.84 0 011 7.23l.12 24.33c.07 13.54-9.21 24.87-21.2 26.67l-2.1.21c13.41-1.33 16.24-18.94 16.24-24.25v-13.79c0-13-7.21-14.39-12.14-14.39h-24.53a4.78 4.78 0 00-4.3 2.91l-1.22-.93v-.47a27.87 27.87 0 017.92-19.79c12.29 2.4 32.73 6.48 34.14 7.37.75.48 3.25 2.53 6.07 4.9z"/><path class="cls-26" d="M505.68 97.13l4.41 4.43s2.11-8.23 19.89-5.69-16.39-16.52-20.26-14.44-7.25 8.2-4.04 15.7z"/><path class="cls-16" d="M551.86 97.53s-17.5 1.92-26.4-3.73-16.44-8.27-18.72-5.2c-2.16 2.91 6.54 10.78 3 24.16-.19.73-.65 13.1-.92 13.86-.08-4.84-1.64-17.22-3.24-20.31-4.79-9.24-12.28-16.19-2.55-30.06 6-8.51 16.12-12.5 20.83-8.19 15.36 14 36.5-4.2 36.62 19 0 0 11.39 3.83.8 27.14a3 3 0 00-3.13 3.36l.09 12.44c-8.5 0-8.67-22.38-6.38-32.47z"/><rect class="cls-27" x="539.97" y="308.23" width="58.21" height="93.82" rx="4.35" ry="4.35"/><rect class="cls-1" x="591.26" y="308.23" width="47.37" height="93.82" rx="3.66" ry="3.66"/><path class="cls-9" d="M530.07 343.86h51.29c0-9.19 9.91-10.21 9.91-10.21H540s-9.93 1.02-9.93 10.21z"/><rect class="cls-28" x="537.11" y="386.95" width="58.81" height="24.35" rx="2.87" ry="2.87"/><path class="cls-29" d="M591.38 387H603c.26 0 3.1.11 4.69 3.58 1.67 3.64 1.49 7.28 6.45 7.28h2.13c5 0 4.81-3.73 6.45-7.28s4.43-3.58 4.7-3.58h11.06a2.87 2.87 0 012.87 2.87v18.62a2.87 2.87 0 01-2.87 2.87h-47.1a2.87 2.87 0 01-2.87-2.87v-18.67a2.87 2.87 0 012.87-2.82z"/><path class="cls-9" d="M530.07 376h51.29c0-9.19 9.91-10.21 9.91-10.21H540s-9.93 1.02-9.93 10.21z"/><path class="cls-30" d="M647 360.68h-46.67c0-9.19-9.07-10.21-9.07-10.21h46.64s9.1 1.02 9.1 10.21z"/><path class="cls-31" d="M598.69 318.42h35.75A1.58 1.58 0 01636 320a1.58 1.58 0 01-1.58 1.58h-35.73a1.58 1.58 0 01-1.58-1.58 1.58 1.58 0 011.58-1.58zm0 17.37h35.75a1.58 1.58 0 011.58 1.58 1.58 1.58 0 01-1.58 1.58h-35.75a1.58 1.58 0 01-1.58-1.58 1.58 1.58 0 011.58-1.58zm0 36.26h35.75a1.58 1.58 0 011.58 1.58 1.58 1.58 0 01-1.58 1.58h-35.75a1.58 1.58 0 01-1.58-1.58 1.58 1.58 0 011.58-1.58z"/><path class="cls-30" d="M547.55 317.14h34.54a1.58 1.58 0 011.58 1.58 1.58 1.58 0 01-1.58 1.58h-34.54a1.58 1.58 0 01-1.58-1.58 1.58 1.58 0 011.58-1.58z"/><rect class="cls-32" x="545.98" y="356.26" width="37.69" height="3.15" rx="1.58" ry="1.58"/><path class="cls-30" d="M547.55 381.29h34.54a1.58 1.58 0 011.58 1.58 1.58 1.58 0 01-1.58 1.58h-34.54a1.58 1.58 0 01-1.58-1.58 1.58 1.58 0 011.58-1.58z"/><rect class="cls-27" x="516.32" y="348.92" width="35.23" height="56.78" rx="2.63" ry="2.63"/><path class="cls-1" d="M549.58 348.92h24.24a2.21 2.21 0 012.21 2.21v52.35a2.22 2.22 0 01-2.22 2.22h-24.23a2.22 2.22 0 01-2.22-2.22v-52.34a2.22 2.22 0 012.22-2.22z"/><path class="cls-9" d="M510.33 370.49h31c0-5.56 6-6.18 6-6.18h-31s-6 .61-6 6.18z"/><rect class="cls-28" x="514.59" y="396.57" width="35.59" height="14.74" rx="1.73" ry="1.73"/><path class="cls-29" d="M547.43 396.57h7.05a3.32 3.32 0 012.84 2.17c1 2.2.9 4.41 3.9 4.41h1.29c3 0 2.91-2.25 3.9-4.41a3.24 3.24 0 012.84-2.17H576a1.74 1.74 0 011.73 1.73v11.27a1.74 1.74 0 01-1.73 1.73h-28.57a1.74 1.74 0 01-1.73-1.73V398.3a1.74 1.74 0 011.73-1.73z"/><path class="cls-9" d="M510.33 389.94h31c0-5.56 6-6.18 6-6.18h-31s-6 .62-6 6.18z"/><path class="cls-30" d="M581.08 380.67h-28.23c0-5.56-5.49-6.18-5.49-6.18h28.23s5.49.61 5.49 6.18z"/><path class="cls-31" d="M551.85 355.09h21.64a1 1 0 011 1 1 1 0 01-1 1h-21.64a1 1 0 01-1-1 1 1 0 011-1zm0 10.51h21.64a1 1 0 011 1 1 1 0 01-1 1h-21.64a1 1 0 01-1-1 1 1 0 011-1zm0 21.95h21.64a1 1 0 011 1 1 1 0 01-1 1h-21.64a1 1 0 01-1-1 1 1 0 011-1z"/><rect class="cls-32" x="519.96" y="354.32" width="22.81" height="1.91" rx=".95" ry=".95"/><rect class="cls-32" x="519.96" y="377.99" width="22.81" height="1.91" rx=".95" ry=".95"/><path class="cls-30" d="M520.91 393.14h20.9a1 1 0 011 1 1 1 0 01-1 1h-20.9a1 1 0 01-1-1 1 1 0 011-1z"/><path class="cls-16" d="M183 271.77l41 .19a1 1 0 011 1v4.29a1 1 0 01-1 1l-41-.25a1 1 0 01-1-1v-4.29a1 1 0 011-1zm40 2.15l-39-.19v2.33l39 .19z"/><path class="cls-16" d="M129.15 333l54.14-61.69a1 1 0 011.38-.09l3.22 2.83a1 1 0 01.09 1.38l-54.14 61.69a1 1 0 01-1.38.09l-3.22-2.83a1 1 0 01-.09-1.38zm55-59.67l-52.85 60.22 1.75 1.54 52.85-60.22z"/><circle class="cls-33" cx="184.23" cy="274.97" r="5.46" transform="rotate(-7.23 184.362 275.13)"/><path class="cls-16" d="M129.12 333.29L167.18 406a1 1 0 001.32.42l3.8-2a1 1 0 00.42-1.32l-38.07-72.7a1 1 0 00-1.32-.42l-3.8 2a1 1 0 00-.42 1.32zm39.35 70.95l-37.16-71 2.07-1.08 37.16 71z"/><circle class="cls-33" cx="168.96" cy="402.67" r="5.46" transform="rotate(-69.13 168.959 402.666)"/><circle class="cls-33" cx="132.91" cy="333.44" r="5.46" transform="rotate(-7.23 132.992 333.624)"/><rect class="cls-33" x="113.04" y="403.14" width="89.84" height="13.78" rx="6.89" ry="6.89"/><rect x="140.14" y="403.14" width="89.84" height="13.78" rx="6.89" ry="6.89" fill="#0e1632"/><path class="cls-9" d="M215.15 285.76h20a10.6 10.6 0 0010.57-10.57h-41.14a10.6 10.6 0 0010.57 10.57z"/><path d="M215.53 283.65h12a6.37 6.37 0 006.35-6.35h-24.7a6.37 6.37 0 006.35 6.35z" fill="#dff0f2" fill-rule="evenodd"/><path class="cls-24" d="M208.41 270.34h33.53a8.11 8.11 0 018.09 8.09h-49.7a8.11 8.11 0 018.08-8.09z"/><path class="cls-26" d="M208.41 270.34h15.33a8.11 8.11 0 018.09 8.09h-31.5a8.11 8.11 0 018.08-8.09z"/><path class="cls-16" d="M613.09 119.91a.74.74 0 01-1.21-.86 31.33 31.33 0 11-4.88 25.77.74.74 0 011.44-.35 29.89 29.89 0 104.69-24.56z"/><path class="cls-16" d="M651.79 123.5c-.83.72-3.08 3-4.5 7.93 1.23.82 4.62 3.41 3 6.17l-6.62 11.45c-1.61 2.68-5.5 1.06-6.82.41-3.54 3.68-4.41 6.79-4.62 7.86a10.36 10.36 0 006.07 1.28 6.53 6.53 0 004.83-2.71L656 133.63a6.57 6.57 0 00-.08-5.52 10.36 10.36 0 00-4.15-4.61zm-5.85 8c1.76-6.53 5.07-9.07 5.41-9.32a.64.64 0 01.72-.05 11.8 11.8 0 015 5.44 7.87 7.87 0 010 6.64l-12.85 22.26a7.85 7.85 0 01-5.78 3.35 11.78 11.78 0 01-7.21-1.63.64.64 0 01-.35-.62s.34-4.32 5.35-9.37a.64.64 0 01.79-.12s4.25 2.45 5.54.26l6.6-11.43c1.23-2.13-2.62-4.48-3-4.68a.64.64 0 01-.22-.68z"/><text transform="translate(611.73 142.06)" font-size="24.53" font-family="OpenSans-Extrabold,OpenSans Extrabold" font-weight="700" fill="#0e1632">24</text><path class="cls-3" d="M438.76 85.65h42.7a6.67 6.67 0 016.65 6.65v37.2a.74.74 0 01-1.27.52l-11.34-11.34h-36.74a6.67 6.67 0 01-6.65-6.65V92.3a6.67 6.67 0 016.65-6.65z"/><path class="cls-9" d="M433.72 81.32h42.7a7.55 7.55 0 017.58 7.54V126a1.62 1.62 0 01-1 1.5 1.61 1.61 0 01-1.77-.35l-11.13-11.04h-36.38a7.55 7.55 0 01-7.53-7.53V88.86a7.55 7.55 0 017.53-7.53zm42.7 1.76h-42.7a5.79 5.79 0 00-5.77 5.78v19.73a5.79 5.79 0 005.77 5.77h37.11l11.36 11.36V88.86a5.79 5.79 0 00-5.77-5.78z"/><path class="cls-9" d="M433.36 88.68a.48.48 0 110-1h43.41a.48.48 0 110 1zm0 4.69a.48.48 0 110-1H438a.48.48 0 010 1zm10.72 0a.48.48 0 010-1h32.69a.48.48 0 110 1zm-10.72 4.69a.48.48 0 110-1h43.41a.48.48 0 110 1zm12.08 6.36a.48.48 0 110-1h31.34a.48.48 0 110 1zm13.99 5.09a.48.48 0 010-1h17.34a.48.48 0 110 1zm-9.94 0a.48.48 0 110-1h6.2a.48.48 0 110 1z"/><path class="cls-3" d="M685.26 416.28a1.1 1.1 0 00-2.19 0v2.58h-2.58a1.1 1.1 0 100 2.19h2.58v2.58a1.1 1.1 0 002.19 0V421h2.58a1.1 1.1 0 100-2.19h-2.58z"/><path class="cls-19" d="M257.38 398.93h-37.13a5.55 5.55 0 000 11.1h37.13a5.55 5.55 0 000-11.1z"/><path class="cls-9" d="M174.32 399.58h47.48a4.92 4.92 0 014.9 4.9 4.92 4.92 0 01-4.9 4.9h-47.48z"/><path class="cls-37" d="M174.32 398.93a.65.65 0 100 1.29h47.48a4.26 4.26 0 010 8.51h-47.48a.65.65 0 100 1.29h47.48a5.55 5.55 0 000-11.1zm81.35 5.55a5.56 5.56 0 00-5.55-5.55h4.83a5.55 5.55 0 010 11.1h-4.83a5.56 5.56 0 005.55-5.55z"/><path class="cls-37" d="M248.67 404.48a5.56 5.56 0 00-5.55-5.55H248a5.55 5.55 0 010 11.1h-4.83a5.56 5.56 0 005.55-5.55z"/><path class="cls-29" d="M184.09 389.21h32.51a4.86 4.86 0 010 9.72h-32.51a4.86 4.86 0 010-9.72z"/><path class="cls-9" d="M256.81 389.78h-41.58a4.31 4.31 0 00-4.29 4.29 4.31 4.31 0 004.29 4.29h41.58z"/><path class="cls-38" d="M256.81 389.21a.57.57 0 010 1.13h-41.58a3.73 3.73 0 000 7.46h41.58a.57.57 0 010 1.13h-41.58a4.86 4.86 0 010-9.72zm-71.23 4.86a4.87 4.87 0 014.86-4.86h-4.23a4.86 4.86 0 000 9.72h4.23a4.87 4.87 0 01-4.86-4.86z"/><path class="cls-38" d="M191.71 394.07a4.87 4.87 0 014.86-4.86h-4.23a4.86 4.86 0 000 9.72h4.23a4.87 4.87 0 01-4.86-4.86z"/><rect x="312.61" y="401.16" width="169.83" height="10.14" rx="5.07" ry="5.07" fill="#a8a6b5"/><path d="M477.68 411.3H318a5.45 5.45 0 01-4.44-2.39 4.74 4.74 0 014.16-2.39h159.67a5.45 5.45 0 014.44 2.39 4.73 4.73 0 01-4.15 2.39zm3.32-10.14H353.28a6.17 6.17 0 01-6.22-6.64l5.23-82.73a7.19 7.19 0 017.05-6.63h127.74a6.17 6.17 0 016.22 6.63l-5.23 82.73a7.19 7.19 0 01-7.07 6.64z" fill="#96929f" fill-rule="evenodd"/><path class="cls-9" d="M481 401.16H357a6.17 6.17 0 01-6.22-6.64l5.23-82.73a7.19 7.19 0 017.05-6.63h124a6.17 6.17 0 016.21 6.63l-5.23 82.73a7.19 7.19 0 01-7.04 6.64z"/><path d="M474.26 401.16H461.5l-105.74-84.52.31-4.85a7 7 0 011.51-3.89l116.68 93.26zm-102.36-96l115.35 92.19a6.89 6.89 0 00.81-2.83l.81-12.87-95.72-76.5z" fill="#f0eef0" fill-rule="evenodd"/><rect class="cls-1" x="312.61" y="401.16" width="39.16" height="10.14" rx="5.07" ry="5.07"/><path d="M479.76 403.69H346.87a2.74 2.74 0 01-2.69-2.54 2.37 2.37 0 012.38-2.54h132.89a2.74 2.74 0 012.69 2.54 2.37 2.37 0 01-2.38 2.54z" fill="#d2ced6" fill-rule="evenodd"/><path class="cls-16" d="M328.53 298.65c-1-4.87-.73-7.6.2-12.23l-20.94-1.77 29.15-12.77s6.19-7.59 9.1-15-5-26.41-8-31.11-9.14-4-13.21-1.45c0 0-6.1-9.2-13.39-9.81S281 216 274.29 233s4.1 34-6.74 51.48a4.35 4.35 0 00.45 4.08c1.41 1.86 18.49 21.78 57.44 13.75 0 0 3.1-.72 3.09-3.63z"/><path class="cls-17" d="M301.08 303.86c2.14-23.42 3.66-43.77 3.66-43.77l-2-6.6s-17.93 14.49-30.66-.75c.6 10.46 2.1 21-4.54 31.71a4.35 4.35 0 00.45 4.08l.06.08v.06l.05.06.09.11.11.13.09.11.08.09.06.07.13.15.16.18.14.15.1.11.09.1.07.07.14.14.22.22.15.15.12.11c3.73 3.6 12.4 10.27 27 12.58q1.9.3 3.94.5z"/><path class="cls-17" d="M328.53 298.65c-1.33-6.62-.4-9.29 1.46-18.14l-33.32-5.24-14.56 2.82a97.67 97.67 0 01-5.08 18c8.87 5.49 24.53 11.08 48.42 6.16 0 0 3.1-.72 3.09-3.63z"/><path d="M284.32 300.09c9.22 2.89 21.83 6.35 32.7 11.69.75.37-.78 3.26-.08 3.65a25.49 25.49 0 014.77 3.88c5.08 5 15.41 44.31 14.48 48.22-1.48 6.3-14.53 23.6-14.53 23.6-2.59 5-5.81 12.3-9 20.18h-64.8c4.52-14.68 6.2-24.62 6.32-33.58 3.46-30.46-12.92-37.09-12.92-37.09l17-39.92c6.6-2.34 19.76-1.46 19.76-1.46 3.45-.01 3.18-.15 6.3.83z" fill="#ef8231" fill-rule="evenodd"/><path d="M312.69 411.3h-9.15c1.7-4.56 9.64-26.14 11.33-30.75-7.71-1.34-18.32-3.18-20.19-3.63s-9 3.65-9 3.65l.8-4.66-7.69 7.75 13.11-24.56s21.47 4.85 26 5.68 1.78.2 2.63.13c2.54-7.13-1.62-9.13-1.12-12.58s.64-36.94.64-36.94c2.77 1.44 4 4.56 5.6 9.49 1 3.24 6.51 24.56 8.78 37.16.54 3 1 5.24 1.24 7-5.07 12.96-16.49 26.06-22.98 42.26z" fill="#d8691e" fill-rule="evenodd"/><path class="cls-10" d="M300.32 263.29l-3.24 9.71s-4.91 23-6 26c-.39 1-1.69 1.35-3.69 1.3 2.87 4.11 8.45 10.39 16.51 11.92 5.15 1 8.75 0 11.19-1.43-1.72-.91-3.37-2-3.36-2.88.07-7.85 1.42-21.67 5.67-24.23 4.84-2.89-17.08-20.39-17.08-20.39z"/><path class="cls-9" d="M289 300.27a20.44 20.44 0 01-4.65-.18 35.08 35.08 0 0010.32 9.33c12.71 8.06 18.84 3.67 20.77 1.6a14.13 14.13 0 01-3.1-2c-11.87 5.8-23.35-8.75-23.35-8.75z"/><path class="cls-22" d="M316.5 311.53s5.07 51 4.45 55.33-8.68 25.54-15.74 44.44h12.15c2.4-4.62 4.23-8.23 4.57-9.1.22-.56 1.06-2.19 2.21-4.33 2.08-3.84 5.18-9.32 7.51-13.16 7.45-12.23 7.43-9.37 4.85-23.7-2.27-12.61-9.23-35.93-10.26-39.18-1.57-4.93-8.43-10.66-9.74-10.3z"/><path class="cls-16" d="M315.78 382.55c-1.67 4.67-3.61 10-5.63 15.44a40.61 40.61 0 017.69 1.1c3.69 1.45 4.08 3.11 4.08 3.11.22-.56 1.06-2.19 2.21-4.33 2.08-3.84 5.18-9.32 7.51-13.16 2.24-3.68 3.8-6 4.83-7.82-1.43 1.26-3.72 3.16-4.83 3.49-1.34.41-11.69 1.67-15.86 2.17z"/><path class="cls-22" d="M282.41 299s9.3 45.07 10.58 58.17-2.82 22.48-7.43 32.32c-1.55 3.32-6.54 11.79-12.67 21.81h-28.65l3.06-70.8-8.21-1.9c.49-3.56.89-6.5 1.16-8.57l16.17-28.59s6.1-4.94 25.99-2.44z"/><path class="cls-16" d="M265 320.69c-4.57 18.35-1.4 26-1.4 26l2.4-11.45s2.32 16.86 4.89 19c1.28 1.07 16.51 4 22.21 5.05a47.86 47.86 0 01-2.8 18.88c-4.1.42-28.73-3-29.91 4.91-.59 4-.45-8.8-.45-8.8l-1.46 37h-14.24l3.06-70.8-8.21-1.9V330l9.91-15.45z"/><path class="cls-24" d="M242.34 321.44c-5.24 14.33-6.67 63.47-2.35 89.86h23c-9.41-52.37 10.36-89.83 6-103.1-6.93-21.2-23.2 3.8-26.65 13.24z"/><path class="cls-17" d="M334.37 273l2.56-1.12a74 74 0 007.46-11.43c-.61 1.16-4.65 8.23-10.57 3.91-6.43-4.7-6.69 2.74-6.69 2.74s3.89 4.42 6.15 5.45c.29.13.66.29 1.08.45zm10.1-12.71z"/><circle class="cls-25" cx="330.89" cy="276.02" r="7.33" transform="rotate(-84.09 330.87 276.03)"/><path class="cls-10" d="M280.55 263.52h-.54a7.34 7.34 0 106 2c0 2.17-.56 4.81-3.34 4.85l.44-4.21a2.52 2.52 0 00-2.56-2.64z"/><path class="cls-14" d="M312.14 229.42a25.2 25.2 0 00-27.58 22.4l-2.35 22.71a25.2 25.2 0 0022.4 27.58 25.2 25.2 0 0027.58-22.4l2.35-22.71a25.2 25.2 0 00-22.4-27.58z"/><path class="cls-15" d="M284.15 255.8l-1.94 18.73a25.22 25.22 0 0016 26c-14.62-6.06-7.13-31.47-7.13-31.47 3-.5 7.63-6 10.35-9.24s4.82-6.45 9.5-6.36 14.59 2.55 14.59 2.55a27.55 27.55 0 008.05 10.2l1-9.27a24.92 24.92 0 00-.48-8.07l-1.89-1.09c-20.14-11.25-37.2-2.09-48.05 8.02z"/><path class="cls-17" d="M330.8 249.89l-4.06 1.73a12 12 0 00-8.19-1.32s-8.92-3.28-13.65-1.45-1.95-4.74-1.08-5 9.82-.86 13.73-.1 9.79 1.67 9.79 1.67zm-47.51 12.42l2.41.42s1.67 7.61-3.05 7.67l.44-4.21a2.38 2.38 0 000-.81z"/><path class="cls-16" d="M318.55 250.3c-3.67-5-9.67-6-14.34 1-4.26 6.36-10.59 17.36-21.25 16.46l-.05-.2.6-7.1s-.9.23-2 .49a45.88 45.88 0 01-.37-12.72c1.23-8.92 13.65-22 27.65-22.45S333 233.59 335 238.33s4 15.5 4 15.5l-2.46 3.52-2.65 7c-6.44-6.26-5.78-12.19-8.58-15.17-1.57-1.62-3.84-1.62-6.76 1.12z"/><path class="cls-17" d="M302.75 253.49c-4.22 6.39-10.29 15.06-19.79 14.26l-.05-.2.6-7.1s-.9.23-2 .49c-.09-.61-.18-1.25-.26-1.92 10.75 3.13 21.47-5.5 21.5-5.53z"/><path d="M313.79 310.11s6.54 53.63 6.41 55.37-1.87 10.13-1.87 10.13 3.16-5.29 3.93-9.68 2.84-34.05 2.84-34.05l-3.48-1.88 3.22-.19-5.32-16.66a4.71 4.71 0 00-1.45-1.72c-.84-.48-3.89-2-3.94-2a2 2 0 00-1.19.14zM282.41 299s9.3 45.07 10.58 58.17a46.5 46.5 0 01-.81 14.52c1.71-13.4-17.14-44.93-17.14-44.93l4.9-2.32-6.58-3s3-17 3.22-19.8-1.27-3.27-1.36-3.3c2.17.13 4.56.33 7.19.66z" fill="#484e6a" fill-rule="evenodd"/><path d="M96.28 431.21h8.14a5.92 5.92 0 005.9-5.9 5.92 5.92 0 00-5.9-5.9H82.91a4.7 4.7 0 01-4.69-4.68 4.7 4.7 0 014.69-4.73h568.42a4.7 4.7 0 014.68 4.69 4.7 4.7 0 01-4.68 4.68h-29.51a5.92 5.92 0 00-5.9 5.9 5.92 5.92 0 005.9 5.9h6.92a9.4 9.4 0 019.37 9.37 9.4 9.4 0 01-9.37 9.37H96.28a9.4 9.4 0 01-9.37-9.37 9.4 9.4 0 019.37-9.37zM70.25 410a4.69 4.69 0 11-4.68 4.69 4.69 4.69 0 014.68-4.69z" fill="#030c4c" fill-rule="evenodd"/><path class="cls-47" d="M387.23 164.48h-42.7A7.55 7.55 0 00337 172v37.19a1.62 1.62 0 001 1.5 1.61 1.61 0 001.77-.35l11.08-11.08h36.38a7.55 7.55 0 007.53-7.53V172a7.55 7.55 0 00-7.53-7.53zm-42.7 1.76h42.7A5.8 5.8 0 01393 172v19.73a5.8 5.8 0 01-5.78 5.78h-37.1l-11.36 11.36V172a5.8 5.8 0 015.77-5.78z"/><path class="cls-47" d="M387.58 171.83a.48.48 0 000-1h-43.41a.48.48 0 100 1zm0 4.7a.48.48 0 000-1H383a.48.48 0 000 1zm-10.72 0a.48.48 0 000-1h-32.69a.48.48 0 100 1zm10.72 4.69a.48.48 0 000-1h-43.41a.48.48 0 100 1zm-12.07 6.36a.48.48 0 000-1h-31.34a.48.48 0 100 1zm-13.99 5.09a.48.48 0 100-1h-17.35a.48.48 0 100 1zm9.94 0a.48.48 0 000-1h-6.2a.48.48 0 100 1z"/></g></svg>