<svg id="Layer_1" data-name="Layer 1" xmlns="http://www.w3.org/2000/svg" viewBox="0 0 1670.01 963.19"><defs><radialGradient id="radial-gradient" cx="862.89" cy="622.26" r="424.8" gradientTransform="matrix(1.2 0 0 .72 -193.26 254.51)" gradientUnits="userSpaceOnUse"><stop offset=".02" stop-color="#454545"/><stop offset="1" stop-color="#fff" stop-opacity="0"/></radialGradient><radialGradient id="radial-gradient-2" cx="836.87" cy="948.3" r="202.74" gradientTransform="matrix(.7 0 0 .07 250.2 879.32)" gradientUnits="userSpaceOnUse"><stop offset="0" stop-opacity=".4"/><stop offset=".86" stop-color="#999" stop-opacity=".16"/><stop offset="1" stop-color="#fff" stop-opacity="0"/></radialGradient><style>.cls-3{fill:#203167}.cls-4{fill:#3f97ec}.cls-5{fill:#4ca1f4}.cls-6{fill:#fefefe}.cls-7{fill:#c35d2c}.cls-8{fill:#b6b6b5}.cls-10{fill:#303446}.cls-11{fill:none}.cls-12{fill:#086394}</style></defs><rect x="245.17" y="441.43" width="1193.03" height="521.76" rx="12" ry="12" opacity=".67" fill="url(#radial-gradient)"/><ellipse cx="836.87" cy="945.8" rx="200.06" ry="15.03" opacity=".18" fill="url(#radial-gradient-2)"/><path class="cls-3" d="M1285.65 804.34h-73.07A45.7 45.7 0 011167 758.8v-50.57a53.28 53.28 0 00-53.14-53.14h-73.32a3.8 3.8 0 000 7.59h73.32a45.7 45.7 0 0145.55 45.55v50.57a53.28 53.28 0 0053.14 53.14h73.07a3.8 3.8 0 10.39-7.59h-.36zM447.87 321.25A69.82 69.82 0 00316.06 344h17.3a52.7 52.7 0 01101.5-9.73l-9.73 9.73h32.81v-32.8zm-62.48 83.87A52.79 52.79 0 01336 370.63l9.8-9.79h-32.86v32.81l10-10a69.82 69.82 0 00131.79-22.85h-17.3a52.79 52.79 0 01-52 44.29zm1025.47-63.76a66.43 66.43 0 01-24.15-6.1 70.17 70.17 0 0124.15-25.46zm0 29.66h-34.16a81.59 81.59 0 016.58-28.86 73.86 73.86 0 0027.57 6.9v22zm0 29.65a74 74 0 00-27.57 6.9 81.56 81.56 0 01-6.58-28.86h34.16v22zm0 39.28a70.18 70.18 0 01-24.15-25.49 66.37 66.37 0 0124.15-6.1zm-40.05-15.07a67.18 67.18 0 018.8-6.55 79.85 79.85 0 0016.33 20.5 66.75 66.75 0 01-25.13-14zm-22.51-46.18h20.3a89.39 89.39 0 007.55 32.73 74.68 74.68 0 00-10.81 8 66.44 66.44 0 01-17-40.74zm17-48.46a74.47 74.47 0 0010.81 8 89.4 89.4 0 00-7.55 32.73h-20.3a66.45 66.45 0 0117-40.78zm30.59-19.35a79.89 79.89 0 00-16.33 20.5 67.39 67.39 0 01-8.8-6.55 66.69 66.69 0 0125.12-14zm23 38.16a73.88 73.88 0 0027.55-6.89A81.49 81.49 0 011453 371h-34v-22zm0-39.28a70.24 70.24 0 0124.12 25.5 66.38 66.38 0 01-24.12 6.09v-31.59zm40.11 15a67 67 0 01-8.81 6.56 80 80 0 00-16.33-20.52A66.73 66.73 0 011459 324.8zm22.51 46.23h-20.3a89.57 89.57 0 00-7.57-32.72 74.58 74.58 0 0010.83-8.06 66.47 66.47 0 0117 40.78zm-39.35 64.7a65.69 65.69 0 01-8.3 3.11 78.38 78.38 0 007.68-8l-1.47-11.55a69.43 69.43 0 01-21.07 20.7v-31.61a66.38 66.38 0 0120.3 4.47l-1.09-8.56a74.6 74.6 0 00-19.22-3.6v-22h34.16a82.7 82.7 0 01-2.86 18.19l6.77 5.58a90.28 90.28 0 004.19-23.76h20.3a66.27 66.27 0 01-11.82 34.19l5.94 4.89a74.24 74.24 0 00-5.67-92.85l.09-.09-2.74-2.72a73.88 73.88 0 00-44.52-21.21h-.37c-1-.11-2.05-.18-3.09-.24h-2c-1.67-.13-3.38-.22-5.15-.25a4 4 0 00-1.53.31h-.27c-1 .06-2.07.13-3.09.24h-.33a73.85 73.85 0 00-44.52 21.21l-2.73 2.72.09.09a74.27 74.27 0 000 99.91l-.09.09 2.73 2.73A73.86 73.86 0 001407 448.8h.37c1 .11 2 .17 3.09.24h.27a4.1 4.1 0 001.48.31c1.77 0 3.49-.12 5.15-.25h2c1-.06 2.06-.13 3.09-.24h.37a73.83 73.83 0 0020.34-5.13l-1-8z"/><path class="cls-4" d="M1480.29 428.22l-37.86-31.16 6.17 48.65 11.15-6.15 10.4 18.87 9.4-5.18-10.41-18.88 11.15-6.15z"/><path class="cls-5" d="M1151.33 144.12a131.4 131.4 0 11-131.4-131.4 131.4 131.4 0 01131.4 131.4z"/><path class="cls-6" d="M1019.94 19.8a124.37 124.37 0 10124.36 124.38v-.06A124.51 124.51 0 001019.94 19.8zm0 262.8c-76.33 0-138.43-62.1-138.43-138.43S943.6 5.69 1019.94 5.69s138.43 62.11 138.43 138.43-62.1 138.43-138.43 138.43z"/><path class="cls-5" d="M1118.79 144.12a98.85 98.85 0 11-98.85-98.85 98.85 98.85 0 0198.85 98.85z"/><path class="cls-6" d="M1019.94 52.3a91.82 91.82 0 1091.82 91.82 91.82 91.82 0 00-91.82-91.82zm0 197.7a105.88 105.88 0 11105.88-105.88A106 106 0 011019.94 250z"/><path class="cls-5" d="M1080.42 144.12a60.48 60.48 0 11-60.48-60.48 60.49 60.49 0 0160.48 60.48z"/><path class="cls-6" d="M1019.94 90.67a53.45 53.45 0 1053.45 53.45 53.45 53.45 0 00-53.45-53.45zm0 121a67.51 67.51 0 1167.51-67.51 67.59 67.59 0 01-67.51 67.47z"/><path class="cls-7" d="M1130.38 201.27l-16.65-8c.88-1.67 1.72-3.38 2.51-5.11l16.64 8q-1.19 2.58-2.5 5.11z"/><path class="cls-8" d="M1143 207.37l-12.63-6.11q1.31-2.52 2.51-5.11l12.63 6.11c-.8 1.74-1.64 3.42-2.51 5.11z"/><path class="cls-7" d="M1101.07 187.09l-21.91-10.59q1.37-2.49 2.53-5.1l21.89 10.6q-1.19 2.59-2.52 5.11z"/><path class="cls-8" d="M1113.73 193.22l-12.67-6.13c.89-1.67 1.73-3.38 2.52-5.11l12.66 6.12c-.79 1.73-1.63 3.44-2.51 5.11z"/><path class="cls-7" d="M1066.48 170.37l-47.6-23a2.85 2.85 0 011.24-5.41 2.81 2.81 0 011.23.29l47.66 23a53.76 53.76 0 01-2.54 5.1z"/><path class="cls-8" d="M1079.16 176.5l-12.68-6.13a53.76 53.76 0 002.54-5.1l12.67 6.13q-1.16 2.6-2.53 5.1z"/><path fill="#efeeef" d="M1140.36 89.39l-14.91 26.14 50.75-13.88 14.92-26.15-50.76 13.89z"/><path class="cls-8" d="M1151.59 130.44l-26.14-14.91 50.75-13.88 26.15 14.91-50.76 13.88z"/><path class="cls-10" d="M1020.69 147.15l164.06-44.89a2.85 2.85 0 00-1.2-5.57l-.3.08-164.07 44.89a2.85 2.85 0 001.2 5.57l.3-.08z"/><path class="cls-4" d="M1255.72 399.12l-6.12-11.2-6.12 11.2-11.2 6.12 11.2 6.12 6.12 11.2 6.12-11.2 11.2-6.12-11.2-6.12z"/><path class="cls-3" d="M478.17 691.91l-6.12-11.2-6.13 11.2-11.19 6.12 11.19 6.13 6.13 11.19 6.12-11.19 11.2-6.13-11.2-6.12zm402.29-275.77l-6.12-11.19-6.13 11.19-11.2 6.13 11.2 6.12 6.13 11.2 6.12-11.2 11.19-6.12-11.19-6.13zm288.13 428.91l-6.13-11.2-6.12 11.2-11.2 6.12 11.2 6.13 6.12 11.19 6.13-11.19 11.19-6.13-11.19-6.12zm-26.36-490.34l-6.12-11.2-6.12 11.2-11.2 6.12 11.2 6.13 6.12 11.19 6.12-11.19 11.2-6.13-11.2-6.12z"/><path class="cls-5" d="M1658.81 681.06l-6.13-11.19-6.12 11.19-11.19 6.13 11.19 6.12 6.12 11.2 6.13-11.2 11.2-6.12-11.2-6.13z"/><path class="cls-4" d="M181.18 571.96l-6.12-11.2-6.13 11.2-11.19 6.12 11.19 6.13 6.13 11.19 6.12-11.19 11.2-6.13-11.2-6.12z"/><path class="cls-3" d="M1208.47 236.84l-6.12-11.2-6.13 11.2-11.19 6.13 11.19 6.12 6.13 11.19 6.12-11.19 11.2-6.12-11.2-6.13zM817.75 95.53l-6.12-11.2-6.13 11.2-11.19 6.12 11.19 6.12 6.13 11.2 6.12-11.2 11.2-6.12-11.2-6.12z"/><path class="cls-4" d="M393.12 95.53L387 84.33l-6.12 11.2-11.2 6.12 11.2 6.12 6.12 11.2 6.12-11.2 11.2-6.12-11.2-6.12z"/><path class="cls-3" d="M23.44 668.12l-6.12-11.2-6.12 11.2L0 674.24l11.2 6.12 6.12 11.2 6.12-11.2 11.2-6.12-11.2-6.12zm1608.08 180.17l-6.12-11.2-6.13 11.2-11.19 6.13 11.19 6.12 6.13 11.19 6.12-11.19 11.2-6.12-11.2-6.13zM438.86 479.88l-6.12-11.2-6.12 11.2-11.2 6.12 11.2 6.13 6.12 11.19 6.12-11.19 11.2-6.13-11.2-6.12z"/><path class="cls-5" d="M125.78 775.79l-6.13-11.2-6.12 11.2-11.19 6.12 11.19 6.12 6.12 11.2 6.13-11.2 11.19-6.12-11.19-6.12zm1148.67-105.55l-6.12-11.2-6.13 11.2-11.19 6.12 11.19 6.12 6.13 11.2 6.12-11.2 11.2-6.12-11.2-6.12z"/><path class="cls-10" d="M478.17 194.87l-6.12-11.2-6.13 11.2-11.19 6.12 11.19 6.12 6.13 11.2 6.12-11.2 11.2-6.12-11.2-6.12zm989.31 458.05l-6.12-11.2-6.13 11.2-11.19 6.12 11.19 6.12 6.13 11.2 6.12-11.2 11.2-6.12-11.2-6.12z"/><path class="cls-5" d="M661.29 254.17l-6.13-11.2-6.12 11.2-11.2 6.12 11.2 6.12 6.12 11.2 6.13-11.2 11.19-6.12-11.19-6.12zm714.2-38.64l-6.12-11.2-6.13 11.2-11.19 6.12 11.19 6.13 6.13 11.19 6.12-11.19 11.2-6.13-11.2-6.12z"/><path class="cls-3" d="M652.45 547V401.8a53.28 53.28 0 00-53.14-53.14H491.49a3.8 3.8 0 00-.39 7.59h108.21a45.69 45.69 0 0145.55 45.55V547a3.8 3.8 0 107.59 0zm358.55.87v-234.6a3.8 3.8 0 00-7.59 0v234.6a3.8 3.8 0 007.59 0zm-.22 68.65h354.79a53.29 53.29 0 0053.14-53.14V486a3.8 3.8 0 10-7.59 0v77.37a45.7 45.7 0 01-45.55 45.55h-354.79a3.8 3.8 0 000 7.59z"/><path class="cls-11" d="M181.37 706.39l47.59-47.6"/><path class="cls-10" d="M175 712.73a9 9 0 010-12.73l47.59-47.59a9 9 0 1112.68 12.68l-47.59 47.59a9 9 0 01-12.68.05z"/><path class="cls-11" d="M233.67 654.09l47.59-47.59"/><path class="cls-10" d="M229.87 657.89a5.38 5.38 0 010-7.61l47.59-47.59a5.38 5.38 0 117.61 7.61l-47.59 47.59a5.37 5.37 0 01-7.59 0z"/><path class="cls-4" d="M360.32 617.8a63.86 63.86 0 110-90.32 63.86 63.86 0 010 90.32z"/><path class="cls-5" d="M270 617.8a63.86 63.86 0 00109-45.2H251.3a63.65 63.65 0 0018.7 45.2z"/><path class="cls-10" d="M355.25 532.51a56.69 56.69 0 100 80.17 56.76 56.76 0 000-80.17zm-90.32 90.29a71 71 0 11100.46 0 71 71 0 01-100.46 0z"/><path class="cls-6" d="M358.54 583.47a5.37 5.37 0 01-1.53-4.6 42.44 42.44 0 00-3.09-23.31 5.38 5.38 0 119.86-4.32 53.3 53.3 0 013.88 29.2 5.38 5.38 0 01-9.12 3zm-80.93-40.82a5.38 5.38 0 010-7.61 53.16 53.16 0 0175.1 0 5.38 5.38 0 01-7.61 7.61 42.39 42.39 0 00-59.88 0 5.38 5.38 0 01-7.61 0z"/><path class="cls-5" d="M1454.6 765.91h-122.7a8.64 8.64 0 00-8.63 8.64v70a8.64 8.64 0 008.63 8.64h84.59l20.11 20.12v-20.14h18a8.64 8.64 0 008.63-8.64v-70a8.64 8.64 0 00-8.63-8.64z"/><path class="cls-3" d="M1377.66 812.57a4.94 4.94 0 11-4.95-5 5 5 0 014.95 5zm20.54 0a4.94 4.94 0 11-4.94-5 4.94 4.94 0 014.94 5zm20.53 0a4.94 4.94 0 11-4.94-5 4.94 4.94 0 014.94 5zM309.14 676.4v47.92a50.89 50.89 0 0015.65 36.56A53.73 53.73 0 00362.28 776h307.24a3.8 3.8 0 10.39-7.59H362.28a46.14 46.14 0 01-32.2-13 43.29 43.29 0 01-13.35-31.12V676.4a3.8 3.8 0 00-7.59 0zm480.35-432.78a15.15 15.15 0 10-15.15-15.15 15.15 15.15 0 0015.15 15.15zm37.98 16.04c-1.83-12.71-18.14-11.86-18.14-11.86h-39.86s-17.52-.92-18.31 13.3l-.06.72V309a6.88 6.88 0 0013.76 0v-43h6.53v114.3a6.85 6.85 0 0013.7 0v-65.22H794v65.25a6.86 6.86 0 0013.72 0V266h6.38v43a6.88 6.88 0 0013.75 0v-47.2a5.83 5.83 0 00-.38-2.14z"/><path class="cls-5" d="M1220.08 508.38l-37.61-58.44-36.95 58.44h20.83v48.32h32.91v-48.32h20.82z"/><path class="cls-3" d="M72.58 305.21l91.35 46.34 78.96-125.24-170.31 78.9z"/><path class="cls-12" d="M242.89 226.31l-135.13 96.74v51.16l23.27-39.35 111.86-108.55z"/><path class="cls-4" d="M242.89 226.31l-135.13 96.74v51.16l23.27-39.35 111.86-108.55zM735.32 142a9.17 9.17 0 01-9.17 9.17H605.44a9.17 9.17 0 01-9.17-9.17V21.32a9.17 9.17 0 019.17-9.17h120.72a9.17 9.17 0 019.17 9.17z"/><path class="cls-10" d="M596.28 21.32v26.77h139V21.32a9.17 9.17 0 00-9.17-9.17H605.44a9.17 9.17 0 00-9.16 9.17z"/><path class="cls-12" d="M630 30.12a7.78 7.78 0 11-7.79-7.78 7.78 7.78 0 017.79 7.78zm87.12 0a7.78 7.78 0 11-7.78-7.78 7.78 7.78 0 017.78 7.78z"/><path class="cls-5" d="M622.26 34.71a4.59 4.59 0 01-4.58-4.59V4.38a4.59 4.59 0 019.17 0v25.74a4.59 4.59 0 01-4.59 4.59zm87.08 0a4.59 4.59 0 01-4.59-4.59V4.38a4.59 4.59 0 019.17 0v25.74a4.59 4.59 0 01-4.58 4.59z"/><path class="cls-3" d="M508.81 351.55a17.32 17.32 0 11-17.32-17.32 17.32 17.32 0 0117.32 17.32zm515.76-34.06a17.32 17.32 0 11-17.32-17.32 17.32 17.32 0 0117.32 17.32zM1432.24 486a17.32 17.32 0 11-17.32-17.32 17.32 17.32 0 0117.32 17.32zM1303 808.14a17.32 17.32 0 110-.05zM330.26 676.4a17.32 17.32 0 11-17.32-17.32 17.32 17.32 0 0117.32 17.32z"/><path class="cls-6" d="M889.04 866.59H772.15l-19.6 70.85h156.09l-19.6-70.85z"/><path d="M889.04 866.59H772.15l-5.17 18.69h127.23l-5.17-18.69zm-136.49 70.85h156.09l-3.82-13.82H756.37l-3.82 13.82z" fill="#dfdfe0"/><path class="cls-6" d="M923 932.8H737.44a7.18 7.18 0 00-7.19 7.17v3.61h200V940a7.18 7.18 0 00-7.18-7.18zM538.14 819.94v36a15.57 15.57 0 0015.57 15.57h553.72A15.57 15.57 0 001123 856v-36H538.14z"/><path d="M1123 487.28a15.57 15.57 0 00-15.57-15.57H553.71a15.57 15.57 0 00-15.57 15.57v332.66H1123z" fill="#34393e"/><path class="cls-6" d="M558.68 798.72h543.07V492.47H558.68v306.25z"/><path d="M841 844.42a9.3 9.3 0 11-9.31-9.29 9.3 9.3 0 019.31 9.29z" fill="#c8c8c9"/><path d="M1123 794.31l-21.24-11.63V492.47H571.84l-29.29-16a15.5 15.5 0 0110.9-4.72h554a15.57 15.57 0 0115.55 15.53v307z" fill="#3a3e43"/><g id="Layer_1-2" data-name="Layer 1-2"><path class="cls-11" d="M767 541.18h139.74v139.76H767z"/><path class="cls-3" d="M774.3 665.21h8.7v-81.48l42.22 42.49c4.6 4.63 6.55 5.5 11.89 5.52H843l-60-60.34-8.7-8.74z"/><path class="cls-5" d="M899.43 665.21h-8.7V583.7l-35.5 35.72-1 1.07c-3.11 3.13-5.76 4.37-8.9 1.21l-66.46-66.9h5.85c6.35 0 7.31.87 11.91 5.5l52.52 52.88 50.33-50.66z"/><path class="cls-3" d="M844.33 595.5l37.12-37.3c2.23-2.28 4.09-3.33 8.82-3.36H897c-15.19 15.3-31.1 31.25-46.29 46.55l-6.42-5.89z"/><path class="cls-5" d="M791.69 665.21h8.7V622.1c0-5.6-5.37-9-8.7-11.55z"/><path class="cls-3" d="M882 665.21h-8.7V622.1c0-5.6 5.37-9 8.7-11.55z"/></g><g style="isolation:isolate" font-size="54.95" font-family="Comfortaa-Bold,Comfortaa" font-weight="700"><text transform="translate(647.06 747.51)" style="isolation:isolate" fill="#203167">Master</text><text transform="translate(850.82 747.51)" style="isolation:isolate" fill="#4ca1f4">Money</text></g></svg>