<svg xmlns="http://www.w3.org/2000/svg" width="19.199" height="19.199" viewBox="0 0 507.98 507.98" shape-rendering="geometricPrecision" text-rendering="geometricPrecision" image-rendering="optimizeQuality" fill-rule="evenodd" clip-rule="evenodd"><defs><style><![CDATA[.fil1{fill:#555555}]]></style></defs><path d="M281.68 296.15h-67.79s-20.3-.44-10.36-33.69c0 0 70.76.22 72.97 0 2.21-.22 7.23-.97 13.39-8.64 6.14-7.66 12.73-17.69 11.21-44.46-1.5-26.78-20.84-38.16-41.45-39.52-20.62-1.34-51.38 0-67.79 29.58-16.4 29.57-22.89 73.4-22.02 85.5.86 12.09 3.89 40.16 45.34 42.31 41.46 2.15 51.82 0 53.53-1.3 1.74-1.29 11.99-12.4 12.97-29.78zm-69.69-62.4h57.43s12.3-32.93-17.71-32.83c-29.9.23-33.46 12.53-39.72 32.83z" fill="#d16666"/><path d="M130.92 264.03c-5.54 0-10.78 4.47-11.75 10.03-.94 5.56 2.76 10.03 8.32 10.03 5.55 0 10.79-4.47 11.74-10.03.95-5.56-2.75-10.03-8.31-10.03zm158.95 194.25c-1.28-5.11-6.76-7.49-12.24-5.33-19.91 7.84-40.3 11.82-60.64 11.82-61.68 0-110.15-36.94-123.51-94.1-1.18-5.15-6.62-7.62-12.12-5.54-5.49 2.08-8.97 7.94-7.77 13.07 14.73 63.08 68.89 106.64 139.97 106.64 23.04 0 46.15-4.5 68.72-13.4 5.48-2.15 8.87-8.06 7.59-13.16zM90.77 264.02c-5.54 0-10.81 4.5-11.76 10.04l-6.86 40.14c-.95 5.55 2.77 10.05 8.31 10.05 5.54 0 10.81-4.5 11.76-10.05l6.87-40.14c.95-5.54-2.77-10.04-8.32-10.04zM236.14 41.87c-1.28-5.11-6.76-7.5-12.22-5.35-67.9 26.79-119.38 88.51-131.16 157.24L85.9 233.9c-.95 5.56 2.77 10.04 8.31 10.04 5.54 0 10.81-4.48 11.76-10.04l6.88-40.14c10.37-60.66 55.8-115.11 115.72-138.75 5.47-2.15 8.87-8.04 7.57-13.14zm171.54 247.25c-5.54 0-10.81 4.48-11.76 10.03l-2.57 15.05c-7.73 45.12-34.95 87.46-74.7 116.19-4.88 3.52-6.57 9.85-3.78 14.12 2.8 4.28 9.02 4.9 13.89 1.36 45.06-32.56 75.91-80.54 84.66-131.67l2.58-15.05c.94-5.55-2.78-10.03-8.32-10.03zm-50.92-252.6c-4.73-2.15-11.04.24-14.07 5.35-3.04 5.1-1.65 10.99 3.08 13.14 76.73 35 72.56 112.53 67.21 144.24-.18 1.03-.31 1.82-.39 2.53l-7.65 44.68-.01.07c-.95 5.54 2.78 10 8.32 10 5.55 0 10.83-4.53 11.78-10.07l7.72-45.18c12.53-73.09-11.09-135.16-75.99-164.76z" fill="#555"/><path d="M395.74 167.49c-.57-16.74-4.5-32.45-11.67-46.66-2.32-4.59-8.35-5.8-13.47-2.7-5.12 3.11-7.41 9.36-5.09 13.95 6.06 12.01 9.39 25.3 9.87 39.45.17 4.76 3.78 8.03 8.45 8.03.68 0 1.36-.08 2.06-.21 5.62-1.12 10.03-6.42 9.85-11.86zm-40.88-81.91c-45.61-34.87-116.22-28.17-167.88 15.95-43.31 36.96-49.93 71.99-55.26 100.13-3.44 18.16 1.59-9.33-5.68 32.24-.95 5.56 2.79 10.04 8.33 10.04s10.79-4.48 11.74-10.04l4.28-24.95c6.07-30.72 9.17-59.78 48.35-93.22 43.71-37.33 103.45-43.01 142.03-13.51 4.06 3.1 10.51 1.9 14.39-2.7 3.9-4.59 3.77-10.82-.3-13.94zm-52.6 322.86c-2.32-4.6-8.35-5.8-13.47-2.7-20.69 12.54-42.74 18.91-63.94 19-56.87.24-103.75-44.7-92.49-110.54.95-5.54-2.77-10.02-8.31-10.02-5.54 0-10.81 4.48-11.76 10.02-13.04 76.17 40.01 130.51 108.84 130.51 25.81 0 52.18-7.86 76.06-22.33 5.12-3.1 7.39-9.35 5.07-13.94zM383 198.77c-5.54 0-10.81 4.5-11.76 10.04L353.19 314.2c-3.78 22.08-13.96 43.42-29.44 61.68-3.88 4.59-3.75 10.84.32 13.94 4.03 3.09 10.49 1.92 14.39-2.69 18.31-21.61 30.34-46.83 34.82-72.93l18.04-105.39c.94-5.54-2.78-10.04-8.32-10.04zm-60.62 121.76c-5.22-1.12-11.14 2.39-13.19 7.81-5.06 13.45-13.79 25.74-25.25 35.52-4.6 3.92-5.68 10.27-2.44 14.19 3.25 3.93 9.6 3.93 14.2 0 14.72-12.57 25.96-28.37 32.46-45.67 2.05-5.42-.54-10.74-5.78-11.85z" fill="#555"/><path d="M278.88 103.42c-12.17 0-24.41 2.4-36.37 7.11-5.46 2.17-8.87 8.06-7.57 13.16 1.28 5.11 6.78 7.5 12.24 5.33 9.29-3.67 18.79-5.52 28.26-5.52 38.75 0 64.86 31.51 58.23 70.26l-15.48 90.33-.01.1c-.95 5.54 2.78 10.05 8.33 10.05 5.54 0 10.81-4.51 11.76-10.05l.01-.1 15.47-90.33c8.53-49.82-25.06-90.34-74.87-90.34zm31.05-79.41c-11.3-1.18-23.21-1.18-34.89 0-5.62.55-10.47 5.48-10.86 11.01-.38 5.51 3.86 9.53 9.47 8.95 10.32-1.03 20.86-1.03 30.81 0 .35.03.68.05 1.03.05 5.07 0 10.1-3.84 11.51-9 1.51-5.53-1.65-10.46-7.07-11.01z" fill="#555"/><path fill="#d16666" d="M0-.01h507.99v507.99H0z"/></svg>