<svg xmlns="http://www.w3.org/2000/svg" viewBox="0 0 287.12 250.93"><defs><style>.cls-2{fill:#e2e8f5}.cls-3{fill:#ef8231}.cls-4{fill:#fff}.cls-5{fill:#b3cbff}.cls-6{fill:#cfe0ff}.cls-16{fill:none}.cls-8{fill:#1f3067}.cls-16{stroke:#fff}.cls-10{fill:#ffb199}.cls-11,.cls-16{opacity:.25;mix-blend-mode:overlay}.cls-15{fill:#02113a}.cls-16{stroke-miterlimit:10;stroke-width:.77px}</style></defs><g style="isolation:isolate"><g id="OBJECTS"><path class="cls-2" d="M57.19 16.73h186v199.92a10 10 0 01-10 10H67.2a10 10 0 01-10-10V16.73h-.01z"/><path class="cls-8" d="M65.14 0H235.2a8 8 0 018 8v8.78h-186V8a8 8 0 017.94-8z"/><circle class="cls-4" cx="206.68" cy="8.36" r="1.78"/><circle class="cls-4" cx="217.1" cy="8.36" r="1.78"/><circle class="cls-4" cx="227.52" cy="8.36" r="1.78"/><path class="cls-2" d="M55.52 159.48H29.13a2.71 2.71 0 00-2.71 2.84l4.17 86a2.71 2.71 0 002.71 2.58h18.05a2.71 2.71 0 002.71-2.58l4.17-86a2.71 2.71 0 00-2.71-2.84z"/><path class="cls-6" d="M35.41 117s-2.38-1.37-.76-6.5 11.06-5.27 12-7.1c1.18 7.03-7.89 16.03-11.24 13.6zm-4.95 21.66s-.6-8.22-11.47-11.83-19 5.76-19 5.76 9.21 3.79 14 7.72 15.22 4.83 16.47-1.65zM29 110.37s-5.56 3.35-12.38-2.14S8.11 87.39 2 83.92c22.33 1.28 32.52 16.52 27 26.45z"/><path class="cls-2" d="M42.18 164.87s-2.46-50.24-22.09-65.32m19.69 48.12s-3.65-9.73-21.62-13.3m17.52-7.77s-2.6-10.63 2.93-16.11"/><rect class="cls-5" x="160.34" y="104.56" width="89.11" height="56.06" rx="4.62" ry="4.62"/><path class="cls-4" d="M168.95 112.85h4.84v39.48h-4.84zm10.51 17.39h4.84v22.1h-4.84zm10.51-6h4.84v28.09h-4.84zm10.51-7.82h4.84v35.91h-4.84z"/><path class="cls-8" d="M233.09 120.25h-12.23a.61.61 0 01-.61-.61.61.61 0 01.61-.61h12.22a.61.61 0 01.61.61.61.61 0 01-.6.61zm0 4.87h-12.23a.61.61 0 01-.61-.61.61.61 0 01.61-.61h12.22a.61.61 0 01.61.61.61.61 0 01-.6.61zm0 4.88h-12.23a.61.61 0 01-.61-.61.61.61 0 01.61-.61h12.22a.61.61 0 01.61.61.61.61 0 01-.6.61zm0 4.85h-12.23a.61.61 0 01-.61-.61.61.61 0 01.61-.61h12.22a.61.61 0 01.61.61.61.61 0 01-.6.61zm0 4.87h-12.23a.61.61 0 01-.61-.61.61.61 0 01.61-.61h12.22a.61.61 0 01.61.61.61.61 0 01-.6.61zm0 4.86h-12.23a.61.61 0 01-.61-.61.61.61 0 01.61-.61h12.22a.61.61 0 01.61.61.61.61 0 01-.6.61zm0 4.87h-12.23a.61.61 0 01-.61-.61.61.61 0 01.61-.61h12.22a.61.61 0 01.61.61.61.61 0 01-.6.61z"/><path class="cls-4" d="M216.05 119.62a.58.58 0 01-.58-.58v-4.18a.58.58 0 01.58-.58h5.62a.58.58 0 110 1.15h-5V119a.58.58 0 01-.62.62zm21.85 34.59h-5.62a.58.58 0 010-1.15h5v-3.6a.58.58 0 011.15 0v4.18a.58.58 0 01-.53.57z"/><rect class="cls-3" x="99.75" y="27.64" width="56.13" height="86.81" rx="4.64" ry="4.64"/><path stroke-width="1.15" stroke="#fff" stroke-linejoin="round" stroke-linecap="round" fill="none" d="M108.34 51.19l6.99 6.99 11.57-11.56 5.34 5.35 6.86-6.86 8.18 8.18"/><circle class="cls-8" cx="108.34" cy="51.19" r="2.08"/><circle class="cls-8" cx="115.34" cy="58.2" r="2.08"/><circle class="cls-8" cx="126.73" cy="46.81" r="2.08"/><circle class="cls-8" cx="132.12" cy="51.65" r="2.08"/><circle class="cls-8" cx="139.02" cy="45.48" r="2.08"/><circle class="cls-8" cx="147.28" cy="53.11" r="2.08"/><path class="cls-4" d="M144.53 71.71h-33.44a.67.67 0 01-.67-.67.67.67 0 01.67-.67h33.44a.67.67 0 01.67.67.67.67 0 01-.67.67zm0 5.21h-33.44a.67.67 0 01-.67-.67.67.67 0 01.67-.67h33.44a.67.67 0 01.67.67.67.67 0 01-.67.67zm0 5.21h-33.44a.67.67 0 01-.67-.67.67.67 0 01.67-.67h33.44a.67.67 0 01.67.67.67.67 0 01-.67.67zm0 5.21h-33.44a.67.67 0 01-.67-.67.67.67 0 01.67-.67h33.44a.67.67 0 01.67.67.67.67 0 01-.67.67zm-13.47 14.26a3.84 3.84 0 11-3.25-5.89v-3.78A7.62 7.62 0 10134 104z"/><path class="cls-8" d="M135.43 99.55h-3.79a3.84 3.84 0 00-3.84-3.84v-3.78a7.62 7.62 0 017.63 7.62z"/><path class="cls-10" d="M135.43 99.55A7.58 7.58 0 01134 104l-3-2.38a3.81 3.81 0 00.59-2.05z"/><path class="cls-5" d="M256.59 250.93H185s-17.39-31.81 11.74-46.35c13.95-7 26.24-9.35 36.24-8.12 10.88 1.33 19 7 23.6 15.62 8.79 16.63 3.85 34.46.01 38.85z"/><path class="cls-11" d="M217.93 247.73a45 45 0 006.74 3.2H185s-17.39-31.81 11.74-46.35c13.95-7 26.24-9.35 36.24-8.12-.55 2.1-2.58 5.57-9.32 9.59-11.04 6.58-18.53 33.95-5.73 41.68z"/><path class="cls-10" d="M101.58 109.76c-.25.8-1.51 1.27-2 2.57-.19.56-1.39 3.75-2.87 7.31-2 4.69-4.39 10-5.66 10.89s-3.94.59-6.42.23a15.3 15.3 0 00.8-4.41.9.9 0 00-.26-.22c-.52-.35-1.75-1-3.29-1.77a6.86 6.86 0 00-.5-2.61l3.44.29c1.93.17 4 .33 4.17.33.34 0 9.19-13.78 9.39-14.88s1.17-6.58 1.58-6.72.46 7.57.5 7.82.43-1.69.91-1.8.46 2.21.21 2.97z"/><path d="M81.84 127.52c-.14.64-.75.93-1.42 1a7.25 7.25 0 01-2.14 0l-5.33-3.36-.84-5.35.78.13c2.19.38 8.21 1.43 8.54 1.78a6.86 6.86 0 01.5 2.61 12.74 12.74 0 01-.09 3.19z" fill="#2450ce"/><path class="cls-3" d="M85.45 127.24a25.29 25.29 0 01-.54 2.65c-.07.27-.14.54-.22.82-.25.88-.53 1.78-.85 2.61-.11.28-.22.56-.34.82a7.1 7.1 0 01-1.23 2c-2.81-.41-4.24-1.51-4.8-1.51-.12 1-.11 1.59-.22 2.13a4.42 4.42 0 01-.25.82 24.51 24.51 0 01-1.38 2.61 8.18 8.18 0 00-.42.82 18.44 18.44 0 00-.95 2.65c-.08.27-.15.55-.22.82-.22.87-.41 1.77-.57 2.65 0 .28-.1.55-.14.82-.15 1-.26 1.87-.33 2.65v.82a7.13 7.13 0 000 1.53c.09.47.18.83.26 1.12a8 8 0 01.21.82 1.25 1.25 0 01-.08.73c0 .08-.25.18-.62.31-2.89 1-15 3.24-19 2.57-4.45-.75-4.45-1.92-4.18-3.15 0-.1.07-.25.13-.46l.25-.82c.13-.41.28-.9.45-1.46.12-.37.23-.77.36-1.19l.25-.82c.24-.83.5-1.72.75-2.65.07-.27.15-.55.22-.82.23-.87.44-1.76.64-2.65l.18-.82c.18-.9.35-1.79.48-2.65 0-.28.08-.55.11-.82a21.36 21.36 0 00.18-2.65v-.82a12.75 12.75 0 01.28-2.65c.06-.28.13-.55.2-.82a15.81 15.81 0 011-2.65c.13-.28.28-.56.42-.82a18 18 0 011.77-2.65c.25-.31.48-.59.7-.82a7.15 7.15 0 01.78-.75 37.2 37.2 0 013.4-1.9l1.58-.82c3.49-1.8 7.5-3.8 7.5-3.8l1.74.82c1.55.74 3.93 1.87 6.2 3h.06l1.6.79.36.18.82.41c1.53.77 2.76 1.42 3.29 1.77a.9.9 0 01.26.22.3.3 0 010 .07 3.53 3.53 0 01-.09.94z"/><path d="M80.74 123.77H62.06l1.58-.82h15.44zm4.71 3.47H57.19c.25-.31.48-.59.7-.82h27.6a3.53 3.53 0 01-.04.82zm-.55 2.66c-.07.27-.14.54-.22.82H55c.13-.28.28-.56.42-.82zm-1.08 3.47c-.11.28-.22.56-.34.82H53.8c.06-.28.13-.55.2-.82zm-6.59 3.48a4.42 4.42 0 01-.25.82H53.53v-.82zm-1.65 3.47a8.18 8.18 0 00-.42.82H53.24c0-.28.08-.55.11-.82zm-1.37 3.47c-.08.27-.15.55-.22.82h-21.4l.18-.82zm-.79 3.47c0 .28-.1.55-.14.82H51.73c.07-.27.15-.55.22-.82zm-.42 3.48v.82H50.74l.25-.82zm.41 4.26H49.67l.25-.82h23.29a8 8 0 01.2.82z" style="mix-blend-mode:overlay" fill="#fff" opacity=".45"/><path class="cls-15" d="M78.34 105.58a2.75 2.75 0 01-1 .18c-1.79 0-2.47-2-3.4-1.39-1.1.82-1.37 7.68-.46 10.14a7.08 7.08 0 01.37 1.57 12.6 12.6 0 01-.22 4.23 12 12 0 01-1.54 3.89c-1.85 2.93-1.62 8.41-.53 14.35s-4.6 10.91-19 6.29l-.24-.08c-3.5-1.13-5.14-3-5.55-5.37-1.32-7.38 9.74-18.89 12.59-22.79 3.75-5.12 1.94-7.19 1.84-11.78s1-7.58 5.72-8 5.21 1.65 5.21 1.65c7.54-4.54 8.77 6.2 6.21 7.11z"/><path class="cls-10" d="M77.4 109.15c-.18 2.89-1 6.23-3.54 7a7.08 7.08 0 00-.37-1.57 19.77 19.77 0 01-.4-7.31 5.09 5.09 0 01.86-2.84c.95-.71 1.62 1.37 3.44 1.37a26.25 26.25 0 01.01 3.35z"/><path class="cls-8" d="M99.73 242.35v.07c-.51 1-3.24 1.46-4.06 0-.82-1.58-20-45.86-24.55-53.54a139 139 0 00-8.77-13.16s-2.47 18.23-3 22.49c-.53 4.06-13.77 40.53-15.59 43.84-.08.15-.14.23-.18.24a10.78 10.78 0 01-1.67.13c-1 0-2.17-.17-2.37-.82a1.49 1.49 0 010-.42c.4-4.23 7.48-37.43 7.74-38.93s.28-28.73.21-34.21a35.38 35.38 0 01.77-7c.61-3.09 1.36-5.48 1.36-5.48-.27 1.23-.27 2.4 4.18 3.15 4 .67 16.11-1.57 19-2.57q.53.76 1.05 1.55c19.46 29.51 26.28 83.66 25.88 84.66z"/><path class="cls-3" d="M48 250.93H36.66c-.09-1.46 2.82-9.81 2.82-9.81a1.49 1.49 0 000 .42c.34 1.1 3.29.82 4 .69 0 0 .09-.09.18-.24 1.45 2.91 4.34 8.94 4.34 8.94zm57.28 0h-9.94l.3-8.54c.82 1.5 3.55 1 4.06 0a75.16 75.16 0 015.58 8.54z"/><path class="cls-10" d="M109.81 117.78c-.47.57-7.93 12.18-12.07 18a17.1 17.1 0 01-2.6 3.21c-1.37.62-12.89-2.74-12.89-2.74.93-.93 1.82-3.29 2.43-5.46.1-.35.19-.69.27-1s.15-.63.22-.92l.06-.29c0-.1 0-.19.06-.28.07-.37.13-.7.17-1a2 2 0 000-.2 1.88 1.88 0 000-.71.88.88 0 00-.25-.21l.72.34 6.14 2.89 1.13.54c.41.2 11.59-10.49 12.2-11.31s1-5.76 1.65-5.76 1 1.71 1 1.71 7.68-.13 8.23.07-5.85 2.34-6.47 3.12z"/><path class="cls-11" d="M62.3 175.65s-2.47 18.23-3 22.49c-.53 4.06-13.77 40.53-15.59 43.84-.08.15-.14.23-.18.24a10.78 10.78 0 01-1.67.13c2.24-8.08 13.53-43.25 14.15-45.86.68-2.88.41-22.76 1.2-23.58s5.09 2.74 5.09 2.74zm11.47-18.02c-3.72 2-9.58 5.23-15.72 5.13-5.19-.08-8.24-1-9.86-1.78.61-3.09 1.36-5.48 1.36-5.48-.27 1.23-.27 2.4 4.18 3.15 4 .67 16.11-1.57 19-2.57q.52.76 1.04 1.55z"/><path class="cls-16" d="M71.07 161.8s23.31 47.71 27.29 79.32"/><path class="cls-11" d="M77.4 109.15c-1.22-1-2.35-2.64-3-2.58a3.11 3.11 0 00-1.34.65 5.09 5.09 0 01.86-2.84c.95-.71 1.62 1.37 3.44 1.37a26.25 26.25 0 01.04 3.4zm19.35 10.5a71.56 71.56 0 01-4.67 9.73l-6.86-3.24c-.52-.35-1.75-1-3.29-1.77a6.86 6.86 0 00-.5-2.61l3.44.29c1.38 1.83 3.34 4.22 4.54 4.79s4.86-3.84 7.34-7.19zm.99 16.1a17.1 17.1 0 01-2.6 3.21c-1.37.62-12.89-2.74-12.89-2.74.93-.93 1.82-3.29 2.43-5.46.1-.35.19-.69.27-1s.15-.63.22-.92l.06-.29c0-.1 0-.19.06-.28.07-.37.13-.7.17-1a2 2 0 000-.2 1.88 1.88 0 000-.71.88.88 0 00-.25-.21l.72.34c0 2.25.08 8.45 1 9.4s6.41 2.61 10.81-.14zM79.14 123a7.11 7.11 0 00-5 3c-2.47 3.4 1.1 13.09-2.74 20-3.52 6.36-16.78 9.27-21 6.77.12-.37.23-.77.36-1.19l.25-.82c.24-.83.5-1.72.75-2.65.07-.27.15-.55.22-.82.2-.78.4-1.58.58-2.39 14.45 4.62 20.14-.38 19-6.29s-1.33-11.43.53-14.35a12 12 0 001.54-3.89c1.51.72 3.51 1.67 5.44 2.62z"/><path class="cls-11" d="M73.49 114.54a7.08 7.08 0 01.37 1.57 12.6 12.6 0 01-.22 4.23 12 12 0 01-1.54 3.89c-1.85 2.93-1.62 8.41-.53 14.35s-4.6 10.91-19 6.29l-.24-.08c-3.5-1.13-5.14-3-5.55-5.37a5.79 5.79 0 005 2.26c6.68.09 5.17-10.33 9.81-16.27s6.78-21.32 11.88-21.17a1.51 1.51 0 01.57.12c-1.19.86-1.46 7.71-.55 10.18z"/><path d="M184.29 190.14s-14.85 4.3-16.23 4.2-14.44-17.46-14.44-17.46" stroke-width="2.31" stroke="#00145e" stroke-linejoin="round" stroke-linecap="round" fill="none"/><path class="cls-8" d="M150.05 241.12a15.23 15.23 0 01-4.52-.34c-1.85-.55-9-3.56-9.74-3s8.36 11.66 11 13.16c2.06 0 4.7-6.32 6.38-7.59s-.82-2.56-.82-2.56zm33.19-2.76a15.22 15.22 0 01-1.75 4.19c-1.1 1.58-6.23 7.47-5.93 8.29s13.7-4.27 16-6.33c.65-2-4.51-6.45-5.19-8.44s-2.69 0-2.69 0z"/><path class="cls-3" d="M206.24 204.31c-18.4 4.94-52.21 39.49-53 39-.41-.23-1.13-.32-1.78-.58a2 2 0 01-1.37-1.64c-.2-1.36 10.31-17.74 15.91-26.36 2-3.13 3.42-5.24 3.42-5.24l5.89-5.21s28.11-5.9 28-6.17 21.33 1.26 2.93 6.2z"/><path class="cls-11" d="M206.24 204.31c-18.4 4.94-52.21 39.49-53 39-.41-.23-1.13-.32-1.78-.58 3.57-4.13 12.89-15.14 14.06-18.57.81-2.37.72-6.37.48-9.43 2-3.13 3.42-5.24 3.42-5.24l5.89-5.21s28.11-5.9 28-6.17 21.33 1.26 2.93 6.2z"/><path class="cls-3" d="M219.7 199.61a15.8 15.8 0 01-1.5 1c-9 5.48-35.28 7.59-35.74 8.14s5.64 27.47 5.1 28.56-3.93 1.23-4.66 1.23-19.27-28.25-17.25-34.1 42-18.92 42-18.92l1.72.17 13 1.29s4.22 7.21-2.67 12.63z"/><path class="cls-11" d="M219.7 199.61a16.33 16.33 0 01-8.36-6.55 14.75 14.75 0 00-6-5.62l1.76-.73a8.72 8.72 0 004.2 3.2c5.12 1.84 10.19 1 11.84-1.23a9.43 9.43 0 01-3.44 10.93z"/><path d="M204.38 176l-1.58 12.57-.05.41-3.38 1.55-18.28-2.29a33.57 33.57 0 005.12-.55c2-.45 9.78-2.92 10.63-3.65s1.34-13.16 1.34-13.16h2.2l3.44.82z" fill="#f99d85"/><path class="cls-3" d="M203.82 171.68l-.08.71a10.87 10.87 0 01-3.57-.62 10.47 10.47 0 01-2-.92 66.56 66.56 0 011.95-12l2.1-1.48s.83 2.54 1.45 4.59c.33 1.07.6 2 .67 2.4a59.49 59.49 0 01-.52 7.32z"/><path class="cls-8" d="M223.62 187.58a2.79 2.79 0 01-.5 1.1 6.57 6.57 0 01-4.46 2.12 15.81 15.81 0 01-7.38-.89 8.65 8.65 0 01-2.56-1.44l-.2-.17a8.85 8.85 0 01-1.45-1.59c-1.85-2.58-2.49-6-2.92-8.87l-.21-1.37c-.2-1.29-.53-2.78-.92-4.35s-.87-3.39-1.3-5.08-.88-3.62-1.12-5.19c-.06-.4-.12-.78-.15-1.15-.48-4.45 1.91-6.18 1.91-6.18 16.72.55 21.87 30.04 21.26 33.06z"/><path class="cls-15" d="M201.88 153.19h-.08a.91.91 0 01-.43-.07c-1.55-.58-4.27-4.42-4.88-4.5s-3.43 2.65-6.14 3.2a3.89 3.89 0 01-1.72 0A5.21 5.21 0 01185 148v-.18a8.74 8.74 0 002.06 0c-4.52-3-3.89-7.59-.46-9.64.92 4.16 3.93 4.48 5.17 4.16s3.11-2.79 6.08-2.42 2.6 3.75 2.6 3.75 1.26-.94 2.63 1-2.89 5.64-1.2 8.52z"/><path class="cls-10" d="M203.33 156.08c-.13 1-2.27 3.56-2.75 3.39-.25-.09-.35-.35-.44-.62a1.53 1.53 0 00-.38-.72c-.41-.34-1.41-1.44-1.41-1.44s-1 1.51-1.47 1.65-1.4.17-3.84-2.16a10.32 10.32 0 01-2.69-4.34c2.7-.55 5.57-3.28 6.14-3.2a.61.61 0 01.26.14c.73.58 2.39 2.73 3.73 3.81a3.48 3.48 0 00.89.55 24.37 24.37 0 011.96 2.94z"/><path class="cls-3" d="M210.66 171.67c-1 .88-4.5.81-6.77.56l-.87-.11a3 3 0 01-1.1-.28 30 30 0 01-.2-4.8 42.78 42.78 0 01.25-5.17c0-.14 0-.28.08-.41.87-4.12 3.82-4.12 3.82-4.12 4.24.41 5.27 9.77 4.79 14.33z"/><path class="cls-10" d="M210.66 171.67a148.5 148.5 0 01-2.14 16.63c-.75 3.5-1.7 6.22-2.86 6.41-3.43.55-25.23-4.39-26.06-4.52s-7.06 1.92-7 1.37 3.57-4.66 5.9-5.28 6.92 1 9.39 1c1.68 0 5.48-.7 9-1.07a33.14 33.14 0 014.43-.24c-.19-2.95.63-14.09.63-14.09a3 3 0 001.1.28l.87.11c2.24.21 5.79.28 6.74-.6z"/><path class="cls-11" d="M201.28 185.93a33.14 33.14 0 00-4.43.24 37.45 37.45 0 003.25-12.1c0-.79.06-1.55.07-2.3v-.92a74.48 74.48 0 01.43-9c.25 1.57.66 3.35 1.12 5.19a30 30 0 00.2 4.8s-.83 11.16-.64 14.09zm17.37 4.87a15.81 15.81 0 01-7.38-.89 8.65 8.65 0 01-2.56-1.44 1.92 1.92 0 01-.11-.58s.11-7.83-.24-15.53q0-1-.1-2c-.48-8.3-3.56-12.67-3.56-12.67a5.16 5.16 0 011.46-.24c6.76-.07 7.75 15.64 9.42 21.48 1.42 4.81 4.97 9.98 3.07 11.87z"/><path class="cls-16" d="M209.52 195.44s-30.26 7.77-31.63 10.51 7.68 30.62 7.68 30.62"/><path class="cls-11" d="M196.75 148.78c-1.74 1.27-2.62 4.39-4.47 4.83a5.26 5.26 0 01-1.11.14 10.09 10.09 0 01-.82-1.91c2.7-.55 5.57-3.28 6.14-3.2a.61.61 0 01.26.14zm6.58 7.3c-.13 1-2.27 3.56-2.75 3.39-.25-.09-.35-.35-.44-.62.65-.67 1.76-2.23 1.67-3.45a6.39 6.39 0 00-1.33-2.81 3.48 3.48 0 00.89.55 24.37 24.37 0 011.96 2.94z"/><path class="cls-11" d="M201.81 153.21a.91.91 0 01-.43-.07c-1.55-.58-4.27-4.42-4.88-4.5s-3.43 2.65-6.14 3.2a3.89 3.89 0 01-1.72 0A5.21 5.21 0 01185 148c.33.32 1.13.72 3.05.74 3.15 0 5.49-3.87 8.12-3.94s2.88 2 2.88 2 .19-1.34 1.75-.94c1.91.48-.67 5.8 1.01 7.35z"/><path class="cls-6" d="M263.6 205a7.47 7.47 0 017-7.88c7.5-1 12.71 3.66 16.55 3-8.71 8.3-19.83 12.46-23.55 4.88zm1.79-16.92s-.48-5.08 5.83-13.62 5.39-12.61 5.39-12.61 6.12 9.45 1.1 18.82-12.32 7.41-12.32 7.41zm-15.74-2.51a19.78 19.78 0 01.73-13.17c2.93-6.94 18.92-9 18.92-9s-3.11 2.92-5.12 9.37-8.95 12.89-14.53 12.8z"/><path d="M247.27 204.4c0-.27-.91-25.6 12.52-34.46m-10.33 35.92s-.82-5.12 8.68-12.07 16.27-13.62 16.91-18.19m-20.1 36.48s5.48-9 18.28-9.14" stroke-width=".77" stroke="#b3cbff" stroke-linecap="round" stroke-linejoin="round" fill="none"/><circle cx="185.01" cy="47.91" r="9.33" transform="rotate(-72.33 185.02 47.911)" stroke-width="3.46" stroke="#00145e" stroke-miterlimit="10" fill="none"/><path stroke-width="3.46" stroke="#00145e" stroke-miterlimit="10" stroke-linecap="round" fill="none" d="M182.18 56.8l-4.78 15"/><path class="cls-3" d="M190 71.39a1.73 1.73 0 01-1.32-2.84L200 55a1.73 1.73 0 012.73.1l8.35 11.62 21.62-29.17a1.73 1.73 0 011.39-.7 1.73 1.73 0 011.39.71l10.08 13.76L256 39.06a1.73 1.73 0 112.64 2.24l-11.83 13.94a1.73 1.73 0 01-2.72-.09l-10-13.64-21.63 29.18a1.73 1.73 0 01-1.39.7 1.73 1.73 0 01-1.39-.72l-8.44-11.73-9.95 11.84a1.73 1.73 0 01-1.29.61z"/><path class="cls-3" d="M254.63 37.18l6.18-1.73a1.19 1.19 0 011.19 1.19l-1.73 6.18a1.19 1.19 0 01-2 .84l-4.44-4.44a1.19 1.19 0 01.8-2.04z"/><circle class="cls-6" cx="263.59" cy="79.06" r="14.26"/><circle class="cls-5" cx="263.59" cy="79.06" r="9.8"/><path class="cls-6" d="M262.64 85.22v-.12a.78.78 0 00-.68-.77 7.43 7.43 0 01-1.56-.33.78.78 0 01-.49-.93l.12-.47a.78.78 0 011-.53 5.8 5.8 0 002 .38c1 0 1.64-.37 1.64-1.06s-.55-1.06-1.81-1.48c-1.82-.61-3.07-1.46-3.07-3.12a3 3 0 012.35-2.9.77.77 0 00.53-.74v-.23a.78.78 0 01.78-.78h.11a.78.78 0 01.78.78.78.78 0 00.69.77 6.27 6.27 0 011.09.23.78.78 0 01.52.94l-.1.4a.78.78 0 01-1 .55 5.22 5.22 0 00-1.68-.27c-1.11 0-1.47.48-1.47 1s.6.92 2 1.46c2 .72 2.84 1.65 2.84 3.19a3.14 3.14 0 01-2.47 3 .76.76 0 00-.56.73v.36a.78.78 0 01-.78.78h-.11a.78.78 0 01-.67-.84z"/><rect class="cls-8" x="100.64" y="144.14" width="46.64" height="59.74" rx="4.17" ry="4.17"/><circle class="cls-3" cx="123.96" cy="144.2" r="6.54"/><path stroke="#e6eeff" stroke-width="1.54" stroke-linejoin="round" stroke-linecap="round" fill="none" d="M120.75 143.71l2.47 2.47 3.95-3.96"/><path class="cls-4" d="M136.07 162.76h-24.21a.6.6 0 01-.6-.6.6.6 0 01.6-.6h24.21a.6.6 0 01.6.6.6.6 0 01-.6.6zm0 6.13h-24.21a.6.6 0 01-.6-.6.6.6 0 01.6-.6h24.21a.6.6 0 01.6.6.6.6 0 01-.6.6zM123 175h-11.14a.6.6 0 01-.6-.6.6.6 0 01.6-.6H123a.6.6 0 01.6.6.6.6 0 01-.6.6zm13.07 6.13h-24.21a.6.6 0 01-.6-.6.6.6 0 01.6-.6h24.21a.6.6 0 01.6.6.6.6 0 01-.6.6zm-6.91 6.13h-17.3a.6.6 0 01-.6-.6.6.6 0 01.6-.6h17.31a.6.6 0 01.6.6.6.6 0 01-.61.6z"/><path class="cls-5" d="M71.07 82.13V71.28a4.63 4.63 0 00-4.62-4.62h-26.4a4.63 4.63 0 00-4.62 4.62v14.5a4.63 4.63 0 004.62 4.62h25.68l4 4a.82.82 0 001.39-.58z"/><circle class="cls-8" cx="46.09" cy="78.84" r="1.47"/><circle class="cls-8" cx="53.52" cy="78.84" r="1.47"/><circle class="cls-8" cx="60.95" cy="78.84" r="1.47"/></g></g></svg>