<svg xmlns="http://www.w3.org/2000/svg" xmlns:xlink="http://www.w3.org/1999/xlink" viewBox="0 0 1811.55 1571.14"><defs><linearGradient id="linear-gradient" x1="-126.45" y1="1417.97" x2="1490.96" y2="1417.97" gradientUnits="userSpaceOnUse"><stop offset="0" stop-color="#9a5cff"/><stop offset=".99" stop-color="#4059bf"/></linearGradient><linearGradient id="linear-gradient-2" x1="150.14" y1="1296.2" x2="242.58" y2="1296.2" gradientUnits="userSpaceOnUse"><stop offset="0" stop-color="#ff9f55"/><stop offset="1" stop-color="#ffd255"/></linearGradient><linearGradient id="linear-gradient-3" x1="155.19" y1="1186.53" x2="365.29" y2="1186.53" xlink:href="#linear-gradient-2"/><style>.cls-1{fill:#fff}.cls-2{fill:#eea886}.cls-3{fill:#dbd8e3}.cls-4{fill:#323657}.cls-5{fill:#eea987}.cls-6{fill:#d44040}.cls-7{fill:#c4c1cc}.cls-8{fill:#16202e}.cls-9{fill:#a77860}.cls-10{fill:#4ca1f4}.cls-11{opacity:.69}.cls-12{fill:#d9d9d9;opacity:.72}.cls-13{fill:#e8734d}.cls-15{fill:#ffc955}.cls-19{fill:#377b93}.cls-20{fill:#e6e6e6}.cls-21{fill:#4e8c63}.cls-30{fill:#706865}.cls-36{fill:#424773}.cls-37{fill:#292c47}.cls-38{fill:#3a3f47}.cls-39{fill:#e2d2ca}.cls-40{fill:#918783}.cls-42{fill:#bfb2ac}.cls-45{fill:#cecfd6}.cls-51{fill:#5073ab}</style></defs><g id="Layer_2" data-name="Layer 2"><g id="Слой_1" data-name="Слой 1"><path class="cls-1" d="M104.74 442.26a155.21 155.21 0 0022.09 37.28l-13.14 27.56 26.53 19.9 26.53 19.9 22.78-20.33a155.22 155.22 0 0042 10.78l10.18 28.75 32.83-4.69 32.83-4.69 1.73-30.45a155.22 155.22 0 0037.28-22.09l27.55 13.14 19.9-26.53 19.9-26.53-20.33-22.77a155.23 155.23 0 0010.78-42l28.75-10.18-4.69-32.83-4.69-32.83-30.45-1.73a155.26 155.26 0 00-22.1-37.26l13.14-27.55-26.53-19.9-26.53-19.9-22.78 20.33a155.22 155.22 0 00-42-10.78l-10.17-28.76-32.83 4.69-32.83 4.69-1.73 30.45A155.25 155.25 0 00151.46 260l-27.55-13.14L104 273.41l-19.9 26.53 20.33 22.78a155.24 155.24 0 00-10.78 42l-28.74 10.15 4.69 32.83 4.69 32.83zm127.75-175.2a116.2 116.2 0 11-98.61 131.46 116.2 116.2 0 0198.6-131.45zM98.48 119.54a71.13 71.13 0 0010.13 17.09l-6 12.63 12.16 9.12 12.16 9.12 10.44-9.32a71.18 71.18 0 0019.24 4.94l4.67 13.18 15.05-2.15 15.03-2.15.79-14a71.21 71.21 0 0017.09-10.13l12.63 6 9.13-12.08 9.12-12.16-9.32-10.44a71.16 71.16 0 004.94-19.24l13.18-4.67-2.15-15-2.15-15.05-14-.79a71.15 71.15 0 00-10.13-17.09l6-12.63-12.09-9.18-12.16-9.12-10.44 9.31a71.19 71.19 0 00-19.24-4.94l-4.67-13.18-15 2.15-15.05 2.15-.79 14A71.18 71.18 0 00119.9 36l-12.63-6-9.12 12.14L89 54.3l9.32 10.44A71.17 71.17 0 0093.4 84l-13.18 4.65 2.15 15 2.15 15.05zM157 39.23a53.27 53.27 0 11-45.21 60.27A53.27 53.27 0 01157 39.23z"/><path class="cls-2" d="M1121.6 507.35s81.22-26.39 87.82-23.45 7.49 7.6 0 10.4-77.88 27.86-77.88 27.86 100.37-14.46 106.33-13.32c3.49.67 5.73 9.55 1.83 11.43s-102.87 22.17-102.87 22.17 93.72-13.33 98.37-10.79c4.07 2.22 4.16 11-2.75 12.5s-93.46 19-93.46 19 68.59-5.21 71.21-.56c1.6 2.84 3.88 10.4-13.83 11.17s-59.53 7.18-59.53 7.18z"/><path class="cls-2" d="M1032.1 552.84s26.28-10.45 28.17-27c1.6-14.1 13.31-31.59 16.9-37 4.81-7.21 12-34.75 20.41-28.87s-9.78 45.89-12 55 33.62-10.31 42.59-8.56 33.41 64.67 7.46 75.08-59.41 3.79-63.67 6.56-18.64 8.34-18.64 8.34z"/><path class="cls-3" d="M715.26 1024.37c.59 7.6 1.22 14.84 1.81 21.31H341c.14-6.33.32-13.53.45-21.31 1.27-62.71 3.12-165.5 2.31-204.32-1-55.42-12.71-199.43-15-207.76 0 0-82.52-119.9-169.08 116.77-17.87 48.77 146 171 125.6 174.73s-19.5 42.39-19.5 42.39-154.28-134.38-151.12-174c1.76-22 122.57-341.5 141-354.71 12.58-9 91.57-40.72 132.52-56.24 19-7.24 33.39-12.26 36.38-12.44 9.37-.59 124.92 10.5 124.92 10.5S566 365 583 372.77c28.91 13.26 74 34 106.28 49.41 10.45 5 23.53 11.67 34.39 17.42q-2 58.91-7 126.41s-6 98.32-6.56 197.63c-5.2 22.49-4.3 74.74-4.3 74.74-1.45 49.54 4.07 100.4 5.52 128.81.9 17.81 2.39 38.59 3.93 57.18z"/><path class="cls-4" d="M731.5 1024.37c-5.43-35.15-10.59-71.76-14.84-106.78v-.27q-1-8.55-2-17a5.59 5.59 0 00-.09-.86c-2.71-23.71-4.93-46.37-6.56-67.14a210.73 210.73 0 012.08-46.69c6.42-106.19 9.64-218.17 9.64-218.17 3.39-45.88 5.34-88.68 6.65-128.63 0 0-145.1-68.54-158.26-72.48 0 0 27.51 64.61 48.14 209.07 8 55.47 22.67 148.85 33.34 244.18 4.21 37.6 11.13 75.65 17.74 111.48 6.24 33.8 12.22 65.65 15.43 93.25.23 1.67.41 3.35.59 5 .5 4.75 1.09 10.23 1.76 16.29h49.77c-1.17-6.95-2.3-14.1-3.39-21.25zM475.92 855.43c-6.61 64.06-13.84 115.92-19.68 168.94-.77 7.06-1.54 14.16-2.26 21.31H301.37q3-10.59 5.79-21.31c16.38-61.76 29.45-124.78 29.45-163 0 0-31.76-228.39-42.39-265.18 0 0-96.05 71-118.49 120.21-20.09 44 127.09 178.31 125.37 182.83-10 26.47-48.32 74.83-48.32 74.83S24.88 729.29 27.91 699.11c2.17-21.94 193.24-265.9 211.65-279.11 10.68-7.65 89.58-35.61 128.31-50.9 7.1-2.8 30.18-11.49 36.51-13.89 8.19 9.14 65.92 71.26 85.92 307.34 3.4 39.82-7.23 124.07-14.38 192.88z"/><path class="cls-5" d="M435.19 361.12s-.79-39.67-16.08-119.92c-4.09-21.48 124.72 56.53 124.72 56.53s-.4 7.52-.66 17.69c-.14 5.37-.22 11.46-.19 17.57 0 2.16 0 4.3.09 6.42.12 5.68.38 11.11.86 15.74s3.3 13.17 4.3 15.48c5.31 12.23-69.66 21.53-113.04-9.51z"/><path class="cls-6" d="M515.59 402.68l21.35 28.69s-12.51 16.75-34.73 4.38z"/><path class="cls-6" d="M531.23 432.54s81 311.79 64.29 554.48l-27.25 48-25.5-50.3s-7-434.12-29.19-553z"/><path class="cls-5" d="M538.45 375.94l-22.86 26.75s-36.69-7.11-47.46-26.27 70.32-.48 70.32-.48z"/><path class="cls-7" d="M543.69 352.53s-2.66 20.39-28.11 50.15L543.37 440l15-77.42zm-110.62-19.4s45.41 54.88 82.51 69.55l-17.26 42.67L412 352.53z"/><path class="cls-4" d="M1100.35 597.37S904.63 810 858.45 798.64c-21.35-5.25-53.69-42.11-80.42-76.76-8.81-11.41-17.45-23.39-25.67-35.24-32.79-47.34-58.48-92.71-58.48-92.71s-96.91-113.57-19.14-164.2c0 0 32.77-3.31 51.42 10.44 17.21 12.7 59.09 92.65 65.89 107.47S851.7 666.89 856.64 670s56.87-28.08 84.64-46.77c44.86-30.2 101.23-82.83 101.23-82.83z"/><path class="cls-2" d="M611.65 100.24s28.3 52.47 14.27 60.62c-11.59 6.74 13.58 58.23 16.87 66.64s-21 14.52-26.15 19.94-20.45 72-40.45 74-110.12-29.33-134.66-54.85-44.67-140.76-28.3-189.38 148.48-68.62 198.42 23.03z"/><path class="cls-8" d="M617.3 111.61s28.89-56.66-23.58-98.69S444.5 44.65 433.59 47.47s-72.78 7.06-41.54 115.7c26.83 93.28 30.57 97.21 30.57 97.21s20-54 31.37-62.28c17.72-12.86 56.56-9.77 56.56-9.77S492 139.18 521 132.22s67-31.48 96.3-20.61z"/><path class="cls-2" d="M479.74 160.18c-2.55-6.74-10.8-35.71-35.66-18.7s15.49 71.62 19.82 72.32 37.31 3.1 15.84-53.62z"/><path class="cls-9" d="M543 333c0 2.16 0 4.3.09 6.42-73.68-24.73-88-61.95-88-61.95 23 16.25 88.05 38 88.05 38-.14 5.31-.19 11.4-.14 17.53z"/><path class="cls-2" d="M274.51 898.43s7 5.84 14.36 5.78c12.76-.11 27.28-14 40.61-1.38s-14.74 66.17-24.85 72.44-33.09-5-57.68-34.72 27.56-42.12 27.56-42.12z"/><path class="cls-2" d="M324.38 899.25a529.3 529.3 0 0153.3 22.28c24.12 11.77 52.43 29.75 49.54 35.86-4.38 9.28-25.9-8.12-50.61-18.17-22.74-9.25-19.82-3.57-19.82-3.57s-.79-1.65 22.07 13.29c24.53 16.08 50.21 34.38 47.94 39.43-2.81 6.26-3.69 6.8-13.55 2.43 5.13 3.74 4.83 5.69 3.47 8-7 12-46.78-6-62.56-13.11 12.09 5.55 20.36 10.94 11.32 15.48-10.34 5.19-65.37-22.75-86-30.84-22.61-8.81 44.9-71.08 44.9-71.08z"/><path class="cls-4" d="M301.1 899.25s-5.61 32.83-48.31 74.82c0 0-97.89-108-115.35-128.2L214 801.43z"/><path class="cls-1" d="M80.73 1024.37h1346.78v21.31H80.73z"/><rect class="cls-10" x="719.21" y="164.46" width="88.16" height="88.16" rx="17.5" ry="17.5"/><g class="cls-11"><rect class="cls-12" x="840.35" y="47.69" width="305.06" height="27.38" rx="9.1" ry="9.1"/><rect class="cls-12" x="840.35" y="91.96" width="347.59" height="27.38" rx="9.1" ry="9.1"/></g><rect class="cls-10" x="719.21" y="39.44" width="88.16" height="88.16" rx="17.5" ry="17.5"/><g class="cls-11"><rect class="cls-12" x="840.35" y="172.72" width="229.29" height="27.38" rx="7.89" ry="7.89"/><rect class="cls-12" x="840.35" y="216.99" width="282.02" height="27.38" rx="8.2" ry="8.2"/></g><g class="cls-11"><rect class="cls-12" x="840.35" y="297.74" width="332.67" height="27.38" rx="9.51" ry="9.51"/><rect class="cls-12" x="840.35" y="342.01" width="305.06" height="27.38" rx="8.53" ry="8.53"/></g><rect class="cls-10" x="719.21" y="289.49" width="88.16" height="88.16" rx="17.5" ry="17.5"/><path class="cls-1" d="M760.28 229.85l-24.46-21.26a4.81 4.81 0 116.31-7.26l17.3 15L784 188.84a4.81 4.81 0 117.18 6.41zm0 125.02l-24.46-21.26a4.81 4.81 0 016.31-7.27l17.3 15L784 313.87a4.81 4.81 0 117.18 6.41zm1.37-260.6l-.15-1.94c-.45-4 .89-8.43 4.62-12.9 3.36-4 5.22-6.86 5.22-10.22 0-3.8-2.39-6.34-7.09-6.41a13.26 13.26 0 00-7.53 2.31l-1.79-4.7c2.46-1.79 6.71-3 10.67-3 8.58 0 12.46 5.3 12.46 11 0 5.07-2.83 8.73-6.41 13-3.28 3.88-4.48 7.16-4.25 11l.07 1.94zM760 104.71a4.41 4.41 0 014.48-4.7 4.67 4.67 0 11-4.48 4.7z"/><rect class="cls-10" x="1342.82" y="787.71" width="88.16" height="88.16" rx="17.5" ry="17.5"/><g class="cls-11"><rect class="cls-12" x="1463.96" y="670.95" width="305.06" height="27.38" rx="9.1" ry="9.1"/><rect class="cls-12" x="1463.96" y="715.21" width="347.59" height="27.38" rx="9.1" ry="9.1"/></g><rect class="cls-10" x="1342.82" y="662.69" width="88.16" height="88.16" rx="17.5" ry="17.5"/><g class="cls-11"><rect class="cls-12" x="1463.96" y="795.97" width="229.29" height="27.38" rx="7.89" ry="7.89"/><rect class="cls-12" x="1463.96" y="840.24" width="282.02" height="27.38" rx="8.2" ry="8.2"/></g><path class="cls-1" d="M1383.89 853.1l-24.46-21.26a4.81 4.81 0 016.31-7.27l17.3 15 24.59-27.52a4.81 4.81 0 017.18 6.41z"/><path class="cls-3" d="M1064.46 1241.7c4.07 17.65 3.37 58.66 3.37 58.66 1.11 38.9-3.23 78.84-4.34 101.15 0 .69-.08 1.38-.1 2.08-.29 5.27-.63 10.85-1 16.5h291c-.1-5.36-.21-10.88-.3-16.5-.58-32.93-1.11-69-1.15-94.75 66.5-17.56 138.31-40.48 137-57.24-1.38-17.25-53.18-271.22-67.67-281.59-9.87-7.09-71.89-31.94-104.05-44.15-14.87-5.67-26.21-9.62-28.53-9.75-7.36-.46-98.07 8.23-98.07 8.23s-13 4.46-26.3 10.56c-22.69 10.41-58.06 26.69-83.45 38.78-8.2 3.89-18.45 9.17-27 13.69q1.55 46.23 5.48 99.2s4.65 77.18 5.11 155.13zm288.3 29.38c3.58-48.35 18.16-131.41 19.78-137.29 0 0 6.84 6.48 6.88 6.48s2.24.31 2.27.28a17.13 17.13 0 012.06.78s44 61.5 44.51 94.57c.25 15.76-34.15 27.1-75.5 35.18z"/><path class="cls-4" d="M1051.56 1420.09h38.12c.87-5.37 1.81-10.88 2.8-16.5 6.46-36.4 15-77.53 19.49-117.9 8.38-74.82 19.91-148.12 26.14-191.67 16.2-113.39 37.81-164.12 37.81-164.12-10.32 3.08-124.22 56.91-124.22 56.91 1 31.34 2.54 65 5.2 101 0 0 2.51 87.91 7.57 171.28a166.56 166.56 0 011.63 36.64c-1.27 16.31-3 34.11-5.16 52.68 0 .25 0 .49-.08.7-.51 4.41-1 8.84-1.57 13.33v.19c-1.63 13.48-3.44 27.24-5.36 41q-1.16 8.21-2.37 16.46zm109.02-125.43c8.66 20.44 38.51 70.9 38.51 70.9s21.6-5.3 53.38-13.52c2.09 18 4.2 35 6.22 51.55.67 5.54 1.35 11 2 16.5H1374q-2-8.33-3.84-16.5c-6.93-30.7-11.79-59.26-12.49-80.1 76-21.71 150.52-46 149.37-57.67-1.72-17.22-58.81-283.47-73.29-293.84-8.35-6-70.31-28-100.71-39.94-5.55-2.2-24.52-9.32-29.5-11.22-6.45 7.18-50.9 56.24-66.6 241.57-1.95 23.05 2.09 65.12 6.58 107.28-46 12.27-84.42 21.5-82.94 24.99zm207.28-66.14c4.58-36.92 9.77-74.07 13.52-87.07 0 0 12.82 25.87 11.82 63.81-.2 7.65-9.95 15.51-25.34 23.26z"/><path class="cls-5" d="M1293.37 919s-11.54-21.8-8.35-83.69C1285.9 818.18 1195 876 1195 876s.31 5.91.51 13.88c.11 3.32.16 7 .16 10.7v3.1c0 1.69 0 3.37-.06 5 0 2.08-.12 4.11-.22 6.07-.1 2.23-.25 4.34-.46 6.27a57.23 57.23 0 01-3.37 12.15c-4.23 9.65 67.76 10.2 101.81-14.17z"/><path class="cls-13" d="M1217.12 958.38l-16.76 22.52s9.82 13.15 27.26 3.44z"/><path class="cls-13" d="M1204.84 981.81s-61.41 150-48.3 340.49l19.37 35.15 21.84-29.93s3.53-253 21-346.3z"/><path class="cls-5" d="M1199.18 937.38l17.95 21s28.8-5.58 37.26-20.62-55.21-.38-55.21-.38z"/><path class="cls-7" d="M1195.06 919s2.09 16 22.06 39.37l-21.81 29.3-11.8-60.78zm92.83-19.24s-41.64 47.11-70.77 58.62l13.54 33.5 66.46-73.32z"/><path class="cls-4" d="M859.77 1325.92s55.28-53.61 91.53-62.53c16.76-4.12 38.84-27.26 59.81-54.46 6.92-9 13.7-18.36 20.15-27.66 25.74-37.16 45.91-72.78 45.91-72.78s76.07-89.15 15-128.89c0 0-26.17-.57-40.51 7.23-14.76 8-46.23 73.7-51.57 85.33s-63.14 119.66-67 122.09-10.32 11.31-33.45 23.77c-28.32 15.25-72.81 59.88-72.81 59.88z"/><path d="M1125.11 1388s7.72-.31 11-2.09c0 0 5.78-3.71 10-6.09a33.29 33.29 0 013.37-1.7c3.41-1.35 11.3-3.3 18.57-8.85s31-27.71 31-27.71l-15.28-23.56-7.07-23.31s-55.25 5.49-62.62 9.87a21.87 21.87 0 00-2 1.36c-5.88 4.31-8.44 10-11.27 12.61-1 1-10.66 11.27-10.12 15.45.74 5.8 3.61 9.52 7.2 11.28 0 0 2 11.29 7.79 16.34 0 0 1.46 10.48 10.51 14.69-.03-.04 2.65 10.42 8.92 11.71z" fill="#efaa88"/><path class="cls-2" d="M1213.08 675.65s-99.86-24.07-78.83 102.36 45 136.69 105.82 111.48 56.6-106.07 60.23-145.64-55.3-66.36-87.22-68.2z"/><path class="cls-2" d="M1265.54 763.21c1.48-11.1 23.53-14.86 25.06 1.84s-10.67 45.8-19 42.8-8.1-29.33-6.06-44.64z"/><path class="cls-8" d="M1294.47 808.48s-2-39.77-16.5-41.22-17 14.51-17 14.51l-14.7 2.55s5.14-34.75-9.26-41-94.16 17.79-105.64 7.4-5-80.94 16.21-90.3 79.59-30.17 121.73-.73c0 0 33.23-3.3 37.76 23.55s-3.29 105.46-12.6 125.24z"/><path class="cls-4" d="M1157.86 1294.66l41.23 70.89s109.23-28.14 134.71-35.33l-58.26-69.34s-85.89 19.62-117.68 33.78z"/><path class="cls-9" d="M1195.33 914.78c53.56-5.46 74.32-46.69 74.32-46.69-33.69 33.39-74 32.48-74 32.48v3.1c0 1.69 0 3.37-.06 5-.08 2.11-.15 4.15-.26 6.11z"/><path class="cls-15" d="M1117.23 1139.46l29.13 270.83H762.95l-29.13-270.83h383.41z"/><path class="cls-15" d="M1112.83 1385.92h64.04v24.37h-64.04z"/><path fill="url(#linear-gradient)" d="M402.91 1409.72h1042.08v16.5H402.91z"/><ellipse cx="940.09" cy="1274.87" rx="21.73" ry="27.87" transform="rotate(-11.55 940.03 1274.805)" fill="#cfa345"/><rect x="118.61" y="775.35" width="405.07" height="391.65" rx="30.02" ry="30.02" fill="#e0e0e0"/><path class="cls-19" d="M156.16 1121.85l-2.81-2.97 72.62-68.53 73.5 15.93 70.2-80.06 61.23 3.46 47.68-65.78 3.31 2.4-48.99 67.59-61.47-3.47-70.48 80.37-73.74-15.98-71.05 67.04z"/><circle class="cls-20" cx="300.21" cy="1068.53" r="10.91" transform="rotate(-12.22 300.077 1068.236)"/><path class="cls-19" d="M303 1081.2a13 13 0 119.92-15.4 13 13 0 01-9.92 15.4zm-4.62-21.33a8.86 8.86 0 1010.54 6.79 8.87 8.87 0 00-10.59-6.79z"/><circle class="cls-20" cx="370.53" cy="989.01" r="10.91" transform="rotate(-12.22 370.502 988.94)"/><path class="cls-19" d="M373.27 1001.67a13 13 0 119.92-15.4 13 13 0 01-9.92 15.4zm-4.62-21.33a8.86 8.86 0 1010.54 6.79 8.87 8.87 0 00-10.54-6.78z"/><circle class="cls-20" cx="431.31" cy="991.44" r="10.91" transform="rotate(-12.22 431.28 991.382)"/><path class="cls-19" d="M434 1004.11a13 13 0 1110-15.41 13 13 0 01-10 15.41zm-4.62-21.33a8.86 8.86 0 1010.62 6.79 8.87 8.87 0 00-10.57-6.79z"/><circle class="cls-20" cx="226.53" cy="1053.59" r="10.91" transform="rotate(-12.22 226.487 1053.508)"/><path class="cls-19" d="M229.27 1066.25a13 13 0 119.92-15.4 13 13 0 01-9.92 15.4zm-4.62-21.33a8.86 8.86 0 1010.54 6.79 8.88 8.88 0 00-10.53-6.78z"/><path class="cls-1" d="M215.62 1094.15h44.66v8.6h-44.66zm31.06-88.27h44.66v8.6h-44.66zm92.65 61.51h44.66v8.6h-44.66zm40.06-120.79h44.66v8.6h-44.66zm64.88 71.97h44.66v8.6h-44.66z"/><path class="cls-21" d="M148.41 805.29h159.07v15.61H148.41z"/><path class="cls-1" d="M148.41 847.29h159.07v15.61H148.41zm0 42h159.07v15.61H148.41z"/><path class="cls-21" d="M339.94 805.29h26.55v15.61h-26.55z"/><path class="cls-1" d="M339.94 847.29h26.55v15.61h-26.55zm0 42h26.55v15.61h-26.55z"/><path class="cls-3" d="M786.75 1013.86s-20.88-47.3 3.34-43.39c0 0 8.25 6.82 16.71 20.7 6.41 10.52 19.74 38.36 19.24 47.78s-7.19 16.44-14.42 31.56c0 0-15 28.07-15.67 31.45l-15.89-8.25s13.47-26.84 23-50.43z"/><path class="cls-13" transform="rotate(9.66 753.931 1101.66)" d="M591.48 1073.68H916v55.17H591.48z"/><path transform="rotate(9.66 585.489 1073.105)" fill="#2d3038" d="M576.57 1051.63h17.33v41.88h-17.33z"/><path class="cls-2" d="M665.89 1414.61h-3.94s1.31-14.88-2.33-15-12.69 12.11-18.09 14-33.11 3.5-33.26-1.61 10.65-7.15 14-8.61 19.73-17.39 22.61-19.27 7.9-15.08 7.9-15.08l15.47-.69s.87 12.32 1.81 18.85a57.56 57.56 0 01.64 6.11c.15 5.54-4.81 21.3-4.81 21.3zm99.67-2.95h-3.28v-13.85c-2.73.23-11.93 8.93-14.77 11.45s-6.74 2.4-18.73 3.16-13.11-6.41-11.21-8.85 8-3.51 11.21-5 15.77-15.72 19.13-19.07 5.4-13 5.4-13l14 1.22a85.72 85.72 0 001.51 16.17.34.34 0 010 .06q.2.94.45 1.85c2.09 7.67-3.71 25.86-3.71 25.86z"/><path class="cls-4" d="M713.78 1097.75s-5.29 12.51-5.76 15.68-12.86 33.11-16.44 53.3c-2.15 12.09-8.07 49.92-8.55 54.73-.82 8.23-4.7 26.41-5.29 34.82-.33 4.7-23.49 76.86-29.09 114.54 0 0 13.32 2 23.32-.67 0 0 20.33-38.94 31.61-94.16 6.8-33.26 12.81-51 18.08-64.7s35.09-52.5 38.21-56.86 22.62-28.45 4.15-54.55-50.24-2.13-50.24-2.13z"/><path class="cls-4" d="M780.46 1208.6c-1.69 11.24.09 26 3.62 67.08s-6.18 90.82-6.18 90.82c-12.19 4.17-26.24 0-26.24 0 .32-2.89 0-100.13 0-108.79s-2.49-18.5-3.13-28.45c-.44-6.78-3.59-19.27-7.14-32-1.06-3.82-2.16-7.66-3.23-11.38l-1.76-6.12c-5-17.33-11.72-84.25-11.72-84.25s37.25-30 55.38-1.76 8.82 48.78 8.18 52.31-6.09 51.31-7.78 62.54z"/><path d="M765 1148.25c-.29.64-18.85 41.83-23.62 49-1.06-3.82-2.16-7.66-3.23-11.38s26.25-36.72 26.85-37.62z" fill="#131521"/><path d="M765.56 1411.66h-3.28v-13.85c-2.73.23-11.93 8.93-14.77 11.45s-6.74 2.4-18.73 3.16-13.11-6.41-11.21-8.85 8-3.51 11.21-5c12.82.68 28.46-17.33 36-17.3 4 0 4 2.23 4.07 2.65a.34.34 0 010 .06q.2.94.45 1.85c2.06 7.64-3.74 25.83-3.74 25.83zm-99.67 2.95h-3.94s1.31-14.88-2.33-15-12.69 12.11-18.09 14-33.11 3.5-33.26-1.61 10.65-7.15 14-8.61c11.43 0 30-12.61 35.79-15.16a20.81 20.81 0 0112-1 57.56 57.56 0 01.64 6.11c.15 5.51-4.81 21.27-4.81 21.27z" fill="#c6c9cc"/><path class="cls-2" d="M746.67 940.66s5.94 15.72 1.32 27.88c0 0 21.79-1.42 22.62-4s-.88-26.1 2.12-33.07-26.06 9.19-26.06 9.19z"/><path class="cls-3" d="M744.56 963.22s-12.88 4.58-18.7 5.85-18 7-17 28.75 4.62 40.54 5.94 49.87.5 33.07-1.65 44.61c0 0 30.87 7.8 67.19 0 0 0-6.44-19.67-6.27-24.76s21.46-47 22.45-53.6 5.28-35.79-4.46-42.23-17.66-5.6-21.79-8.48-19.69-2.08-25.71-.01z"/><path class="cls-3" d="M794.25 1126.4c-52.74 14-94.71.05-94.71.05a130.57 130.57 0 008.68-23.32 139.71 139.71 0 003.25-15.64c4.29-28.73-1.3-50.74-1.3-50.74 6.09-50.1 81.9-65.06 88-49.18s-11.77 84.14-12.67 90 8.75 48.83 8.75 48.83z"/><path class="cls-2" d="M765.66 877.57c-8.76-3-32.44-6.21-38.51 30.14s7.15 37 20.72 35.94 34.8-25.57 36.43-33 6.35-24.5-18.64-33.08z"/><path class="cls-8" d="M732 891.53s7.23 15.47 16.72 20.87c0 0 5.94 16.44 18.81 23.09 0 0 34.16-22.63 14.34-49.51s-47.6-5.48-49.87 5.55z"/><path class="cls-2" d="M747.91 907c.77-1.89 5.89-5 8.18.22s-5.95 14.33-8.21 13.84-2.88-6.85.03-14.06z"/><path class="cls-8" d="M780.75 890.13c.75-1.16 23.37-11.64 28.07 10.24s-18.22 47.32-22.23 58.26 1.81 36.58 1.81 36.58-13.79-13-18-26.68c-4.54-14.98-6.08-52.77 10.35-78.4z"/><path d="M781.89 889.39s-6.92 5.48-7.82 14.12c0 0-1.3-6.74 1.49-10.86s6.33-3.26 6.33-3.26z" fill="#e54242"/><path d="M708.22 1103.14a139.71 139.71 0 003.25-15.64l.64-4.82a16.27 16.27 0 004-6.11c1.18-3.53 9.91-47 9.91-47s9.24 40.82-17.8 73.57z" fill="#1d3b54"/><path class="cls-2" d="M669.39 1105.66s-6.8 6.75-9 7.43-6.44-3.06-22.06-4.22c-1.37-.1-3.78 1.13-3.21 2.94s7.36 6.74 10.27 7.49 16.63 6.21 23.32 3.53 11.29-11.18 11.29-11.18z"/><path class="cls-3" d="M722.22 970.26s-18.06 7.16-19.13 32.26-2.05 38.21-3 42.08-2.85 19.45-7.4 28.82c-4.41 9.09-33.35 37.86-33.35 37.86l14 13.17s40.35-40.48 42.8-47.89 12.54-58.91 13.34-67.6c.62-6.96 9.85-38.18-7.26-38.7z"/><path class="cls-4" d="M552 1037.07c0 .86-.09 1.72-.15 2.58h33c.06-.86.09-1.72.12-2.58zm-368.39-9.12v3c.06 4.18.24 8.32.59 12.44a196 196 0 005.6 34.3 199.82 199.82 0 0052.8 92.31c1 1 2 2 2.93 2.9 3.94 3.79 8.06 7.44 12.32 10.87a199.8 199.8 0 00126.58 44.94h2.4a199.68 199.68 0 0099.8-27.9A201.47 201.47 0 00574.79 1092c1.57-4.71 3-9.48 4.24-14.34a202 202 0 004.89-26.57c.21-1.92.41-3.85.56-5.81s.33-3.73.41-5.63c.06-.86.09-1.72.12-2.58.09-1.9.15-3.76.18-5.66v-3.47c0-100.51-73.85-183.78-170.27-198.47-1.87-.3-3.73-.56-5.63-.8-2.07-.24-4.15-.47-6.22-.65-1.87-.18-3.76-.33-5.63-.44-4.33-.3-8.68-.42-13-.42-3.7 0-7.38.09-11 .3-6.25.33-12.41 1-18.51 1.87a201.32 201.32 0 00-155 119.29c-.3.65-.56 1.33-.83 2s-.53 1.27-.77 1.9c-1.54 3.7-2.93 7.46-4.21 11.26a197 197 0 00-7.64 30.48c-.5 2.75-.89 5.54-1.27 8.35 0 .47-.09.95-.15 1.45v.12a5.64 5.64 0 00-.06.71 6.85 6.85 0 00-.12.83v.21a1.75 1.75 0 00-.06.41 4.47 4.47 0 00-.06.62c-.06.5-.12 1-.15 1.51-.3 3.08-.53 6.19-.68 9.3 0 .41-.06.86-.06 1.27l-.09 2c-.13 2.32-.16 4.6-.16 6.91zm45 62.47l-.77-2c-.56-1.45-1.1-2.9-1.63-4.38l-1.21-3.55c-.3-.89-.59-1.78-.86-2.67 0-.06 0-.12-.06-.18a3.22 3.22 0 01-.15-.5c-.47-1.48-.89-3-1.3-4.5l-.47-1.75c-.44-1.6-.83-3.23-1.21-4.86 0-.15-.09-.33-.12-.5-.33-1.51-.65-3-.95-4.53-.15-.62-.27-1.24-.39-1.87-.36-1.9-.68-3.82-1-5.75-.53-3.38-.92-6.78-1.24-10.22-.12-1.16-.21-2.34-.3-3.53 0-.38 0-.74-.06-1.12-.09-1.6-.18-3.2-.24-4.8v-1.59c0-1.39-.06-2.79-.06-4.18s0-2.61.06-3.88a146.71 146.71 0 011.07-15.4 14.6 14.6 0 01.18-1.6.11.11 0 010-.09.06.06 0 010-.09 1.09 1.09 0 010-.33v-.18a166.62 166.62 0 0124.91-68.64 168.48 168.48 0 0160.9-57 163.31 163.31 0 0120.38-9.48c2.22-.86 4.5-1.69 6.78-2.43a164.19 164.19 0 0140-8.15c4.44-.38 8.92-.56 13.45-.56 1.36 0 2.7 0 4.06.06 1.57 0 3.11.09 4.68.15 1.13.06 2.25.15 3.38.24a8.76 8.76 0 01.92.06c1.87.12 3.76.3 5.63.5l1.42.18c.74.09 1.51.18 2.25.3s1.69.21 2.55.36c1.9.27 3.76.59 5.63.92l.5.09q2.18.4 4.35.89c.09 0 .18 0 .27.06.59.12 1.21.27 1.81.41 1.36.3 2.7.62 4 1a16.63 16.63 0 011.75.44c1.54.41 3.08.83 4.62 1.3s2.93.89 4.38 1.36c.68.21 1.36.44 2 .68 2.9 1 5.78 2 8.59 3.2.77.3 1.54.62 2.31.95 1.19.5 2.34 1 3.53 1.54.95.42 1.9.83 2.81 1.3 1.39.62 2.75 1.3 4.12 2q2.31 1.16 4.53 2.4c1.72.92 3.38 1.87 5 2.84 3.44 2 6.75 4.15 10 6.4 1.39.95 2.75 1.92 4.12 3a99.33 99.33 0 015 3.79c1.45 1.15 2.9 2.34 4.32 3.55s2.9 2.49 4.33 3.79a167.39 167.39 0 0154.86 124.12v3.47c0 1.9-.09 3.76-.21 5.66 0 .86-.09 1.72-.15 2.58-.15 1.9-.3 3.76-.5 5.63q-.8 8-2.37 15.76a163.2 163.2 0 01-4.24 16.65c-1.33 4.33-2.84 8.59-4.53 12.74a167.78 167.78 0 01-153.39 105.34h-2.4a167.81 167.81 0 01-148.26-89.1c-.74-1.42-1.48-2.84-2.19-4.27l-1.3-2.73c-.53-1.07-1-2.13-1.51-3.23l-.47-1.07c-.42-.95-.83-1.9-1.22-2.87z"/><circle cx="384.43" cy="1027.95" r="167.23" fill="#b8b8b8" opacity=".1"/><path d="M497.37 903.82s-217.8-27-261.2 202.87a167.85 167.85 0 01261.2-202.87z" fill="#869ac2" opacity=".3"/><path fill="url(#linear-gradient-2)" d="M150.14 1293.46h92.44v5.49h-92.44z"/><path class="cls-30" transform="rotate(180 166.58 1438.005)" d="M162.53 1313.23h8.1v249.55h-8.1z"/><path fill="#ccbdb7" d="M228.11 1291.9h64.25v7.84h-64.25z"/><path fill="#ffab55" d="M248.07 1225.04h24.33v73.9h-24.33z"/><path fill="#b59074" d="M116.98 1299.04h356.01v14.19H116.98z"/><path class="cls-15" d="M48.65 1213.15s-3.89 54.6 6.78 61.14c6.68 4.09 33.33 17.9 32.54 20.49s-15 23-15 23-51.19-33.71-52.84-44.33c-1.61-10.38 2.52-80 9.55-83.16 5.27-2.4 8.05-.42 14.69 4.52 9.28 6.96 4.28 18.34 4.28 18.34z"/><path d="M141.95 1228.74l4.51-1.67s-5.63-13.21-8.08-12.89a61.1 61.1 0 00-6.36 1.3z" fill="#ead8cf"/><path d="M143 1231c-.58-.43-9.59-17.72-9.59-17.72l-19.26 2.62 10.41 20.48z" fill="#da9b5b"/><path class="cls-36" d="M111.63 1528.71s-1.59 11-1.79 12.71-17.71-1-17.71-1l-1.42-13.15s18.73-.12 20.92 1.44z"/><path class="cls-37" d="M110 1540s5.55 6.66 10.91 9.56 13.8 4.05 17 7.05c2.29 2.17 8.34 11.5-13.94 11.31s-33 1.32-35.41-2.26 3.44-26.4 3.44-26.4 5.29 1.9 18 .74z"/><path class="cls-36" d="M223.81 1528.81s-1.59 11-1.79 12.71-17.71-1-17.71-1l-1.42-13.15s18.73-.12 20.92 1.44z"/><path class="cls-37" d="M222.2 1540.11s5.55 6.66 10.91 9.56 25.11 5.29 28.28 8.29c2.29 2.17 6.1 10.9-25.25 10.08-22.28-.58-33 1.32-35.41-2.26s3.45-26.42 3.45-26.42 4.97 2.03 18.02.75zM55.16 1337.86s63.65 10.77 78 13 92.33 21.65 102.08 27.57c7.76 4.7-4.07 117.7-6.83 160.81h-30.7l-2.23-129.32c-36.84.92-63.14-8.62-90-4.54s-49.2 9.87-66.25-13c.06.02-.57-49.53 15.93-54.52z"/><path class="cls-37" d="M117.9 1539.37l-29.9-1.85-2.92-127.57c-15.86.4-21.3-.61-34.13-2.17l-24.16-56.15c21.17 4.23 89 21.34 98.05 26.83 7.74 4.7-4.17 117.79-6.94 160.91z"/><path class="cls-2" d="M84.46 1099.26s23.33-6.45 32.24 11.67 4.87 52.45-6.89 55.68-28.67-.49-33.55-11.76-8.78-27.29-7.61-37.67 9.62-15.44 15.81-17.92z"/><path class="cls-2" d="M103.71 1163s-.26 13.78 1.26 16.71-32.49 2.2-32.49 2.2 5.36-16.54 2.32-30.64 28.91 11.73 28.91 11.73z"/><path class="cls-38" d="M73 1146.06s1.82 3.7 10.62 3.1 20.38-11.22 24.12-12.16 4-3.08 4-3.08l2 3.52 3.83.58s-2.6-10.64 3.07-14.39-2.64-33.94-31.32-26.63c0 0-21.91 4-22.2 16.25s1.59 26.33 5.88 32.81z"/><path class="cls-39" d="M106.76 1179.36s-.1-5.61-2.64-6.15-26.74-3.87-29.86-2.64l-1.33 7.43s6.01 3.68 33.83 1.36z"/><path class="cls-2" d="M113.76 1131.41c-.65-4.6-5.88-9.88-8.88-2.72s2 17.6 5.38 17 4.39-8.04 3.5-14.28z"/><path class="cls-4" d="M208.08 1245.65c.14.08.16.08 0 0z"/><path class="cls-38" d="M77.66 1102.55s-28.45-1.34-5 43.07z"/><path class="cls-40" d="M14.27 1554.5l2.12 5.95 89.42-27.71-4.29-12.05-87.25 33.81z"/><path class="cls-40" d="M98.71 1431.28h10.16v97.22H98.71z"/><path fill="#5e5854" d="M73.82 1426.12h59.95v5.73H73.82z"/><path class="cls-40" d="M194.1 1554.5l-2.11 5.95-89.43-27.71 3.94-12.81 87.6 34.57z"/><path class="cls-40" d="M131.1 1559.82v6.92l-28.54-34 3.94-12.81 24.6 39.89z"/><circle class="cls-42" cx="194.1" cy="1562.78" r="8.36"/><circle class="cls-42" cx="123.45" cy="1562.78" r="8.36"/><circle class="cls-42" cx="14.27" cy="1562.78" r="8.36"/><rect class="cls-39" x="33.18" y="1404.42" width="142.02" height="21.7" rx="10.71" ry="10.71"/><path class="cls-30" d="M419.34 1313.23h8.1v249.55h-8.1z"/><rect x="155.19" y="1112.42" width="210.1" height="148.22" rx="10.69" ry="10.69" fill="url(#linear-gradient-3)"/><path fill="#f5f7ff" d="M163.42 1120.44h193.65v116.98H163.42z"/><path class="cls-45" d="M163.42 1120.44h193.65v9.31H163.42z"/><rect class="cls-45" x="168.89" y="1136.75" width="42.59" height="8.66" rx="3.57" ry="3.57"/><rect class="cls-45" x="168.89" y="1151.21" width="42.59" height="81.39" rx="7.38" ry="7.38"/><path d="M303.74 1299.23v-2.64s-3.71-16.41-29.94-16.41-25.7 19-25.7 19z" fill="#2e436e"/><path class="cls-2" d="M247.78 1282.62s5.7-.44 7.79-1.7 14.58-9.66 17.51-8.31 22.46 7.32 21.78 10.18-2.48 2.58-3.86 2.07-15.55-3.48-16.81-3c0 0 13.93 5.08 14 8.79s-2.91 4.61-4.23 6-2.91 4.88-6.49 5.15-21.1-5.83-24.7-6.1-10.28.22-10.73-.36 5.74-12.72 5.74-12.72z"/><path class="cls-15" d="M144 1187.13c-18.17-3.19-37.29-7.78-37.29-7.78L72.92 1178s-31.05 6.84-43.28 12.36c-1.16.52-1.17 27.7-4.35 34.83l10.14 21.39s5.86 42.37 7.07 61.22c.56 8.65-1.58 83.61-1.58 83.61s3 1.5 26.13 4 80.79-.92 81.15-3.65-11.2-101.54-11.67-106.66c-.78-7.86 2.27-44.15 2.27-44.15 4.35 5.84 15.44 32.24 27 44.79 6.8 7.39 40.48 11.92 46.82 12.13 13.82.46 39 3.21 39.76 1.87.59-.81 2.2-22.37.62-22.9-1.38-.46-48.19-3.16-60.18-9.52-4.39-2.33-17.5-30.92-17.5-30.92s-21.25-44.76-31.32-49.27z"/><rect class="cls-39" y="1253.57" width="97.94" height="135.65" rx="20.57" ry="20.57"/><path class="cls-39" d="M80.58 1420.71c-14.44 0-26.15-4.85-34.81-14.41-19.58-21.62-16.06-59.61-15.9-61.22a5.45 5.45 0 0110.85 1.07c0 .43-3.16 34.88 13.15 52.86 6.6 7.27 15.34 10.81 26.71 10.81a5.45 5.45 0 110 10.9z"/><path d="M220.08 1178.93a40.15 40.15 0 0013.9 30.38c.46.4.93.79 1.41 1.16s1.09.84 1.65 1.24a39.93 39.93 0 0018.27 7.07q1.78.22 3.61.28h1.32q1.95 0 3.85-.18a40.16 40.16 0 0024.65-11.68l.73-.76a38.93 38.93 0 002.55-3 40.16 40.16 0 10-71.94-24.55z" fill="#eef0f7"/><path d="M234.08 1201.09l3 10.63a39.93 39.93 0 0018.27 7.07q1.78.22 3.61.28h1.32q1.95 0 3.85-.18a40 40 0 0020.6-8.11c.57-3.51 1.18-7.4 1.71-11-3-1.1-12.35-4.29-18.28-6.3l-.25-.08-.39-.13-1-.34-.92-.31-2.38-.8H263l-8 .6-1.34.1h-.6c-.48.12-1.88.49-3.73 1.05-4.7 1.43-12.33 4.2-15.25 7.52z" fill="#d9c7c1"/><path class="cls-5" d="M258.15 1159s-9.56 1.61-7.94 16.58 10.06 13.65 10.63 13.63 8.49.18 8.91-18.12c-.01-.02.12-13.55-11.6-12.09z"/><path class="cls-5" d="M254 1184.85s.33 6.16-.25 7.5 7.68 5.58 12.81.75c0 0-1-6.73-.72-9.11s-11.84.86-11.84.86zm-4-13.52s-1.06-1.11-1.43 0 1.69 6.18 1.57 6.41c0 0 .2.44.45.19s-.59-6.6-.59-6.6zm19.63-.4s1-1.15 1.43 0-1.11 6.16-1.3 6.47c0 0-.33.52-.59.28s.46-6.75.46-6.75z"/><path class="cls-13" d="M249.4 1170.06c.33 2 .64 3.57.64 3.57l1.39 1.82a36.7 36.7 0 01.13-4.65c.08-.24.18-.66.27-1.12.16-.76.32-1.61.44-1.9.18-.46 8.19-2.8 15.33.49 0 0-.06.62-.06 1.31s.09 1.7.46 1.84c.68.25.4 4.7.4 4.7l1.11-1.29s.32-2.33.64-5c.07-.62.14-1.26.21-1.9.16-2.69-.11-7.57-3.61-10.44-2.36-1-6.14-1.87-12.42.05a4.34 4.34 0 00-1.85.49c-3.9 4.3-3.08 12.03-3.08 12.03z"/><path d="M265.15 1187.19a6.09 6.09 0 01-5.07 2 6.9 6.9 0 01-5.08-1.93s1.68 3.51 5.1 3.47 5.05-3.54 5.05-3.54z" fill="#c78d71"/><path class="cls-5" d="M267.49 1193.24s-2.56 4.46-7.42 4.88c-3.08.27-5.75-3.64-7-5.56a18.68 18.68 0 0114.42.68z"/><path d="M253.95 1191.15a26.53 26.53 0 006.12 5.3l-2.59 4-4.42-7.88zm12.37.59a17.78 17.78 0 01-6.25 4.7l2.84 4.11 5-7.19z" fill="#eddad3"/><path class="cls-51" d="M260.07 1196.45l-2.22 3.38a4.62 4.62 0 004.5-.08z"/><path class="cls-4" d="M231.52 1200.46l.06.22c.24.87 1.18 4.2 2.4 8.63.46.4.93.79 1.41 1.16s1.09.84 1.65 1.24a39.93 39.93 0 0018.27 7.07c-.6-13.9-2.25-26.23-2.25-26.23q-2 .51-3.7 1c-10.19 2.92-15.36 5.49-17.12 6.47-.51.3-.72.44-.72.44zm36.75 17.82a40.19 40.19 0 0020.47-11.06l.73-.76c.7-3 1.17-4.93 1.2-5.06s-5-3.26-22.55-8c.01.45 0 11.73.15 24.88z"/><path class="cls-51" d="M258.8 1200.19c.16 3.66.18 10.76.12 18.87h1.32q1.95 0 3.85-.18a123.34 123.34 0 00-2.67-18.72c-.19-.81-.31-1.21-.31-1.21l-2.36.39q.03.4.05.85z"/><path class="cls-4" d="M229.49 1204.76a40.34 40.34 0 004.49 4.55c.46.4.93.79 1.41 1.16l-3.16-10.47a2.63 2.63 0 00-.61.62 19.63 19.63 0 00-2.13 4.14zm59.25 2.46l.73-.76a38.93 38.93 0 002.55-3 4.65 4.65 0 00-1.35-2.08z"/></g></g></svg>