<svg id="Layer_1" data-name="Layer 1" xmlns="http://www.w3.org/2000/svg" viewBox="0 0 1777.62 1004.57"><defs><style>.cls-1{fill:#203167}.cls-2{fill:#f49a4c}.cls-3{fill:#f08232}.cls-4{fill:#fefefe}.cls-5{fill:#c35d2c}.cls-6{fill:#b6b6b5}.cls-8{fill:#303446}.cls-9{fill:none}.cls-10{fill:#086394}</style></defs><path class="cls-1" d="M1368.5 856.38h-77.78a48.64 48.64 0 01-48.48-48.48v-53.82a56.72 56.72 0 00-56.57-56.57h-78a4 4 0 000 8.08h78a48.64 48.64 0 0148.48 48.48v53.83a56.72 56.72 0 0056.57 56.57h77.78a4 4 0 000-8.08zM476.73 342.16a74.32 74.32 0 00-140.31 24.2h18.42a56.09 56.09 0 01108-10.36l-10.36 10.36h34.92v-34.92zm-66.5 89.27a56.19 56.19 0 01-52.63-36.72l10.4-10.42h-34.9v34.92l10.65-10.65A74.32 74.32 0 00484 384.29h-18.39a56.2 56.2 0 01-55.39 47.14zm1091.55-67.86a70.71 70.71 0 01-25.7-6.49 74.69 74.69 0 0125.7-27.14zm0 31.57h-36.36a86.85 86.85 0 017-30.72 78.62 78.62 0 0029.35 7.34v23.38zm0 31.56a78.79 78.79 0 00-29.35 7.34 86.81 86.81 0 01-7-30.72h36.36v23.38zm0 41.81a74.71 74.71 0 01-25.7-27.13 70.64 70.64 0 0125.7-6.49v33.62zm-42.64-16a71.51 71.51 0 019.36-7 85 85 0 0017.38 21.82 71.05 71.05 0 01-26.73-14.86zm-24-49.16h21.61a95.15 95.15 0 008 34.84 79.5 79.5 0 00-11.51 8.57 70.72 70.72 0 01-18.05-43.45zm18.14-51.58a79.27 79.27 0 0011.51 8.57 95.16 95.16 0 00-8 34.84h-21.61a70.73 70.73 0 0118.14-43.4zm32.56-20.6a85 85 0 00-17.33 21.83 71.73 71.73 0 01-9.36-7 71 71 0 0126.74-14.85zm24.51 40.62a78.65 78.65 0 0029.33-7.33 86.74 86.74 0 017 30.72h-36.28v-23.43zm0-41.81a74.76 74.76 0 0125.68 27.14 70.66 70.66 0 01-25.68 6.48v-33.66zM1553 346a71.32 71.32 0 01-9.38 7 85.15 85.15 0 00-17.39-21.84A71 71 0 011553 346zm24 49.15h-21.61a95.34 95.34 0 00-8.06-34.83 79.38 79.38 0 0011.53-8.58 70.75 70.75 0 0118.14 43.39zM1535.1 464a69.92 69.92 0 01-8.84 3.31 83.43 83.43 0 008.18-8.5l-1.56-12.3a73.9 73.9 0 01-22.48 22v-33.63a70.66 70.66 0 0121.61 4.76l-1.16-9.11a79.41 79.41 0 00-20.46-3.84v-23.38h36.36a88 88 0 01-3 19.36l7.21 5.93a96.09 96.09 0 004.46-25.29H1577a70.54 70.54 0 01-12.58 36.4l6.32 5.2a79 79 0 00-6-98.86l.1-.1-2.91-2.9a78.64 78.64 0 00-47.39-22.57h-.4c-1.09-.11-2.19-.19-3.29-.25l-.73-.05h-1.39c-1.77-.14-3.6-.24-5.48-.26a4.2 4.2 0 00-1.62.33h-.29c-1.11.06-2.2.14-3.29.25h-.4a78.61 78.61 0 00-47.39 22.57l-2.91 2.9.09.1a79.06 79.06 0 000 106.35l-.09.1 2.91 2.91a78.62 78.62 0 0047.39 22.57h.4c1.09.11 2.18.19 3.29.26h.29a4.37 4.37 0 001.58.33c1.88 0 3.71-.12 5.48-.27h1.39l.73-.05c1.1-.07 2.2-.14 3.29-.26h.4a78.58 78.58 0 0021.65-5.46l-1.08-8.5z"/><path class="cls-2" d="M1575.68 456.03l-40.3-33.17 6.57 51.79 11.86-6.55 11.08 20.08 10-5.51-11.08-20.09 11.87-6.55z"/><path class="cls-3" d="M1225.52 153.62a139.86 139.86 0 11-139.86-139.87 139.87 139.87 0 01139.86 139.86z"/><path class="cls-4" d="M1085.66 21.24c-73 0-132.38 59.39-132.38 132.38S1012.67 286 1085.66 286 1218 226.61 1218 153.62s-59.34-132.38-132.34-132.38zm0 279.73c-81.25 0-147.35-66.1-147.35-147.35s66.1-147.35 147.35-147.35S1233 72.37 1233 153.62 1166.91 301 1085.66 301z"/><path class="cls-3" d="M1190.89 153.62A105.22 105.22 0 111085.66 48.4a105.22 105.22 0 01105.23 105.22z"/><path class="cls-4" d="M1085.66 55.88a97.74 97.74 0 1097.74 97.74 97.86 97.86 0 00-97.74-97.74zm0 210.44a112.7 112.7 0 11112.7-112.7 112.83 112.83 0 01-112.7 112.7z"/><path class="cls-3" d="M1150 153.62a64.38 64.38 0 11-64.38-64.37 64.38 64.38 0 0164.38 64.37z"/><path class="cls-4" d="M1085.66 96.72a56.89 56.89 0 1056.89 56.89 57 57 0 00-56.89-56.89zm0 128.76a71.86 71.86 0 1171.86-71.86 71.94 71.94 0 01-71.86 71.86z"/><path class="cls-5" d="M1203.22 214.45l-17.72-8.57c.94-1.78 1.83-3.6 2.68-5.44l17.71 8.57q-1.27 2.75-2.67 5.44z"/><path class="cls-6" d="M1216.66 220.95l-13.44-6.5q1.39-2.69 2.67-5.44l13.45 6.5c-.85 1.84-1.75 3.64-2.68 5.44z"/><path class="cls-5" d="M1172 199.36l-23.32-11.27q1.45-2.65 2.69-5.43l23.31 11.27c-.84 1.84-1.73 3.66-2.68 5.43z"/><path class="cls-6" d="M1185.5 205.88l-13.5-6.52c.95-1.78 1.84-3.6 2.68-5.43l13.48 6.51c-.85 1.84-1.74 3.66-2.68 5.44z"/><path class="cls-5" d="M1135.2 181.56l-50.67-24.5a3 3 0 011.32-5.76 3 3 0 011.31.3l50.74 24.53a57.22 57.22 0 01-2.7 5.43z"/><path class="cls-6" d="M1148.7 188.09l-13.49-6.52a57.22 57.22 0 002.7-5.43l13.48 6.52q-1.23 2.77-2.69 5.43z"/><path fill="#efeeef" d="M1213.84 95.37l-15.87 27.82 54.03-14.78 15.87-27.83-54.03 14.79z"/><path class="cls-6" d="M1225.8 139.06l-27.83-15.87 54.03-14.78 27.83 15.87-54.03 14.78z"/><path class="cls-8" d="M1086.46 156.85l174.64-47.78a3 3 0 10-1.59-5.85L1084.86 151a3 3 0 101.6 5.85z"/><path class="cls-2" d="M1336.64 425.05l-6.52-11.92-6.51 11.92-11.92 6.52 11.92 6.52 6.51 11.91 6.52-11.91 11.92-6.52-11.92-6.52z"/><path class="cls-1" d="M508.98 736.71l-6.52-11.92-6.51 11.92-11.92 6.52 11.92 6.52 6.51 11.91 6.52-11.91 11.93-6.52-11.93-6.52zm428.21-293.54l-6.51-11.92-6.53 11.92-11.91 6.52 11.91 6.52 6.53 11.92 6.51-11.92 11.92-6.52-11.92-6.52zm306.7 456.55l-6.52-11.92-6.51 11.92-11.92 6.52 11.92 6.51 6.51 11.92 6.52-11.92 11.92-6.51-11.92-6.52zm-28.05-521.94l-6.52-11.92-6.52 11.92-11.91 6.52 11.91 6.52 6.52 11.91 6.52-11.91 11.92-6.52-11.92-6.52z"/><path class="cls-3" d="M1765.7 725.16l-6.52-11.91-6.52 11.91-11.91 6.52 11.91 6.52 6.52 11.92 6.52-11.92 11.92-6.52-11.92-6.52z"/><path class="cls-2" d="M192.85 609.03l-6.51-11.92-6.53 11.92-11.91 6.52 11.91 6.52 6.53 11.91 6.51-11.91 11.92-6.52-11.92-6.52z"/><path class="cls-1" d="M1286.34 252.32l-6.52-11.92-6.52 11.92-11.91 6.52 11.91 6.51 6.52 11.92 6.52-11.92 11.92-6.51-11.92-6.52zM870.45 101.89l-6.52-11.91-6.52 11.91-11.92 6.53 11.92 6.51 6.52 11.92 6.52-11.92 11.91-6.51-11.91-6.53z"/><path class="cls-2" d="M418.46 101.89l-6.52-11.91-6.52 11.91-11.92 6.53 11.92 6.51 6.52 11.92 6.52-11.92 11.91-6.51-11.91-6.53z"/><path class="cls-1" d="M24.95 711.38l-6.52-11.92-6.51 11.92L0 717.9l11.92 6.52 6.51 11.91 6.52-11.91 11.92-6.52-11.92-6.52zm1711.71 191.79l-6.52-11.92-6.53 11.92-11.91 6.52 11.91 6.51 6.53 11.92 6.52-11.92 11.91-6.51-11.91-6.52zM467.14 511.02l-6.51-11.92-6.52 11.92-11.92 6.52 11.92 6.51 6.52 11.92 6.51-11.92 11.93-6.51-11.93-6.52z"/><path class="cls-3" d="M133.88 825.99l-6.52-11.92-6.51 11.92-11.92 6.52 11.92 6.51 6.51 11.92 6.52-11.92 11.92-6.51-11.92-6.52zm1222.7-112.35l-6.52-11.92-6.52 11.92-11.91 6.52 11.91 6.52 6.52 11.91 6.52-11.91 11.92-6.52-11.92-6.52z"/><path class="cls-8" d="M508.98 207.64l-6.52-11.92-6.51 11.92-11.92 6.51 11.92 6.52 6.51 11.92 6.52-11.92 11.93-6.52-11.93-6.51zm1053.06 487.57l-6.51-11.93-6.52 11.93-11.92 6.51 11.92 6.52 6.52 11.91 6.51-11.91 11.92-6.52-11.92-6.51z"/><path class="cls-3" d="M703.9 270.76l-6.52-11.92-6.52 11.92-11.91 6.51 11.91 6.52 6.52 11.92 6.52-11.92 11.92-6.52-11.92-6.51zm760.23-41.13l-6.52-11.92-6.52 11.92-11.92 6.52 11.92 6.52 6.52 11.91 6.52-11.91 11.92-6.52-11.92-6.52z"/><path class="cls-1" d="M694.49 582.5V427.86a56.71 56.71 0 00-56.57-56.57H523.16a4 4 0 100 8.08h114.77a48.64 48.64 0 0148.48 48.48V582.5a4 4 0 108.08 0zm381.7.89V333.67a4 4 0 00-8.08 0v249.72a4 4 0 008.08 0zm-.27 73.07h377.65a56.72 56.72 0 0056.57-56.57v-82.35a4 4 0 10-8.08 0v82.36a48.64 48.64 0 01-48.49 48.48h-377.65a4 4 0 000 8.08z"/><path class="cls-9" d="M193.06 752.12l50.66-50.66"/><path class="cls-8" d="M186.31 758.87a9.54 9.54 0 010-13.49L237 694.71a9.54 9.54 0 0113.49 13.49l-50.69 50.67a9.53 9.53 0 01-13.49 0z"/><path class="cls-9" d="M248.73 696.45l50.66-50.66"/><path class="cls-8" d="M244.68 700.5a5.72 5.72 0 010-8.1l50.66-50.66a5.73 5.73 0 118.1 8.1l-50.67 50.66a5.72 5.72 0 01-8.1 0z"/><path class="cls-2" d="M383.54 657.78a68 68 0 110-96.14 68 68 0 010 96.14z"/><path class="cls-3" d="M287.41 657.77a68 68 0 00116-48.07h-136a67.75 67.75 0 0019.91 48.07z"/><path class="cls-8" d="M378.14 567a60.34 60.34 0 100 85.34 60.42 60.42 0 000-85.34zM282 663.17a75.61 75.61 0 11106.93 0 75.7 75.7 0 01-106.93 0z"/><path class="cls-4" d="M381.65 621.28a5.72 5.72 0 01-1.62-4.89 45.17 45.17 0 00-3.29-24.81 5.73 5.73 0 0110.5-4.59 56.73 56.73 0 014.13 31.08 5.73 5.73 0 01-9.71 3.21zm-86.15-43.44a5.73 5.73 0 010-8.1 56.59 56.59 0 0179.94 0 5.73 5.73 0 11-8.1 8.1 45.12 45.12 0 00-63.74 0 5.73 5.73 0 01-8.1 0z"/><path class="cls-3" d="M1548.34 815.48h-130.62a9.2 9.2 0 00-9.19 9.2v74.49a9.2 9.2 0 009.19 9.2h90l21.41 21.42v-21.43h19.16a9.2 9.2 0 009.19-9.2v-74.49a9.2 9.2 0 00-9.19-9.2z"/><path class="cls-1" d="M1466.43 865.14a5.26 5.26 0 11-5.27-5.26 5.27 5.27 0 015.27 5.26zm21.87 0a5.26 5.26 0 11-5.26-5.26 5.27 5.27 0 015.26 5.26zm21.86 0a5.26 5.26 0 11-5.26-5.26 5.26 5.26 0 015.26 5.26zM329.06 720.2v51a54.17 54.17 0 0016.66 38.92 57.19 57.19 0 0039.91 16.13h327a4 4 0 100-8.08h-327a49.11 49.11 0 01-34.28-13.84 46.08 46.08 0 01-14.21-33.12v-51a4 4 0 00-8.08 0zm511.31-460.67a16.12 16.12 0 10-16.13-16.11 16.13 16.13 0 0016.13 16.11zm40.43 17.08c-1.95-13.53-19.31-12.61-19.31-12.61h-42.44s-18.65-1-19.49 14.16l-.06.76v50.18a7.32 7.32 0 1014.64 0v-45.72h6.95v121.67a7.29 7.29 0 1014.59 0V335.6h9.5v69.46a7.3 7.3 0 0014.61 0V283.38h6.79v45.71a7.32 7.32 0 1014.63 0v-50.18a6.21 6.21 0 00-.41-2.3z"/><path class="cls-3" d="M1298.7 541.35l-40.03-62.2-39.33 62.2h22.17v51.44h35.03v-51.44h22.16z"/><path class="cls-1" d="M77.25 325.09l97.25 49.33 84.04-133.32-181.29 83.99z"/><path class="cls-10" d="M258.54 241.1L114.7 344.08v54.46l24.77-41.89L258.54 241.1z"/><path class="cls-2" d="M258.54 241.1L114.7 344.08v54.46l24.77-41.89L258.54 241.1zm524.17-89.7a9.76 9.76 0 01-9.76 9.76H644.46a9.76 9.76 0 01-9.76-9.76V22.91a9.76 9.76 0 019.76-9.76H773a9.76 9.76 0 019.76 9.76z"/><path class="cls-8" d="M634.7 22.91v28.5h148v-28.5a9.76 9.76 0 00-9.7-9.76H644.46a9.76 9.76 0 00-9.76 9.76z"/><path class="cls-10" d="M670.64 32.27a8.28 8.28 0 11-8.28-8.27 8.28 8.28 0 018.28 8.27zm92.69 0A8.28 8.28 0 11755 24a8.28 8.28 0 018.33 8.27z"/><path class="cls-3" d="M662.36 37.16a4.88 4.88 0 01-4.88-4.88V4.88a4.88 4.88 0 019.76 0v27.4a4.88 4.88 0 01-4.88 4.88zm92.64 0a4.88 4.88 0 01-4.88-4.88V4.88a4.88 4.88 0 019.76 0v27.4a4.88 4.88 0 01-4.88 4.88z"/><path class="cls-1" d="M712.18 95.55a6.13 6.13 0 01-5.35 6v.17a6.13 6.13 0 015.35 6v15.63c0 8-4.34 12.23-12.32 12.23H690c-7.73 0-11.89-4.16-11.89-11.89V121a1.52 1.52 0 011.7-1.7H688a1.52 1.52 0 011.7 1.7v3.48h9.52a1.52 1.52 0 001.7-1.7v-12.11c0-2.2-1.1-3.39-3.4-3.39h-10a1.53 1.53 0 01-1.7-1.7v-7.82a1.52 1.52 0 011.7-1.7h10c2.21 0 3.4-1.19 3.4-3.31V80.6a1.52 1.52 0 00-1.7-1.7h-9.52v3.48a1.53 1.53 0 01-1.7 1.7h-8.16a1.53 1.53 0 01-1.7-1.7V78.9c0-7.31 4.16-11.22 11.89-11.22h9.85c8 0 12.32 4.25 12.32 12.24v15.63zm25.75-27.87a1.25 1.25 0 011.36 1.32v65.25a1.25 1.25 0 01-1.36 1.36h-8.83a1.21 1.21 0 01-1.36-1.36V80.6l-5.27.67a1.41 1.41 0 01-1.78-1.53v-8.15a1.57 1.57 0 011.62-1.78zM541.6 374.42A18.44 18.44 0 11523.16 356a18.44 18.44 0 0118.44 18.42zm548.99-36.26a18.44 18.44 0 11-18.44-18.44 18.44 18.44 0 0118.44 18.44zm433.94 179.38a18.44 18.44 0 11-18.44-18.44 18.44 18.44 0 0118.44 18.44zm-137.59 342.89A18.44 18.44 0 111368.5 842a18.44 18.44 0 0118.44 18.43zM351.54 720.2a18.44 18.44 0 11-18.44-18.43 18.44 18.44 0 0118.44 18.43z"/><path class="cls-4" d="M946.33 922.64H821.9l-20.86 75.42h166.15l-20.86-75.42z"/><path d="M946.33 922.64H821.9l-5.5 19.9h135.43l-5.5-19.9zm-145.29 75.42h166.15l-4.07-14.71H805.11l-4.07 14.71z" fill="#dfdfe0"/><path class="cls-4" d="M982.52 993.08H785a7.65 7.65 0 00-7.65 7.65v3.84h212.81v-3.84a7.65 7.65 0 00-7.64-7.65zM572.82 873v38.36a16.57 16.57 0 0016.57 16.57h589.4a16.57 16.57 0 0016.57-16.57V873H572.82z"/><path d="M1195.36 518.89a16.57 16.57 0 00-16.57-16.57h-589.4a16.57 16.57 0 00-16.57 16.57V873h622.54V518.89z" fill="#34393e"/><path class="cls-4" d="M594.68 850.41h578.07V524.42H594.68v325.99z"/><path d="M895.15 899a9.9 9.9 0 11-9.9-9.89 9.9 9.9 0 019.9 9.89z" fill="#c8c8c9"/><path d="M1195.36 845.71l-22.61-12.38V524.42H608.69l-31.17-17.07a16.5 16.5 0 0111.6-5h589.68a16.57 16.57 0 0116.57 16.57v326.79z" fill="#3a3e43"/><g id="_2292829873712" data-name="2292829873712"><path class="cls-1" d="M919.63 628.42v-23.5l-29.84 35-29.84-35v23.47l-14.55-17v90.73h24.43v-45.78l20 23.44 19.92-23.4v45.7h24.43v-90.73l-14.55 17.07zM860 690.52h-4.66v-51.21l4.66 5.48zm29.88-27.14l-20-23.44v-7.11l19.92 23.4 19.92-23.4V640l-19.92 23.37zm34.46 27.14h-4.66v-45.74l4.66-5.48z"/><path d="M906.33 605.84a2.2 2.2 0 00-2.35 2 1.59 1.59 0 00.11.57l-2.85 1-2.06-4.48-5 2.31-3-4.37a2 2 0 001.17-1.71 2.15 2.15 0 00-2.35-2 2.2 2.2 0 00-2.35 2 1.88 1.88 0 001.17 1.71l-3 4.41-5.12-2.38-2 4.45-3.2-1.14a1.46 1.46 0 00.11-.57 2.15 2.15 0 00-2.35-2 2.2 2.2 0 00-2.35 2 2.15 2.15 0 002.35 2 2.6 2.6 0 001.07-.21l15.79 19.84 15.36-19.56a2.78 2.78 0 00.78.11 2.2 2.2 0 002.35-2 2.05 2.05 0 00-2.24-2zm-23 5.16l-2.49-.89 1.1-2.42 2.77 1.28-1.39 2zm13.44 0l-1.42-2.1 2.63-1.24 1.14 2.49z" fill="#2c2c2c"/><path class="cls-1" d="M685.9 767.91a1.34 1.34 0 01-.28 1 1.31 1.31 0 01-.92.25h-3a1.31 1.31 0 01-.92-.25 1.29 1.29 0 01-.28-1v-35.56a2.68 2.68 0 01.25-1.35.89.89 0 01.85-.43 1.27 1.27 0 01.85.36c.28.25.68.64 1.21 1.21l15.15 18.17 14.94-18.17c.57-.6 1-1 1.24-1.24a1.25 1.25 0 01.82-.32.93.93 0 01.85.43 2.68 2.68 0 01.25 1.35v35.57a1.35 1.35 0 01-.28 1 1.31 1.31 0 01-.92.25h-3a1.31 1.31 0 01-.92-.25 1.29 1.29 0 01-.28-1v-25.31L700.58 756a5.5 5.5 0 01-1.1 1.21 1.21 1.21 0 01-.82.28 1.42 1.42 0 01-.82-.28 10.68 10.68 0 01-1.1-1.21l-10.84-13.38v25.29zm41.75-.43a3.48 3.48 0 01-.85 1.32 2.17 2.17 0 01-1.32.32h-2.81c-.71 0-1.1-.25-1.1-.71a3.06 3.06 0 01.28-.92l16.33-34.43a12.64 12.64 0 011.21-2.21 1.08 1.08 0 01.92-.5 1.1 1.1 0 01.85.5 16.86 16.86 0 011.17 2.21l16.5 34.43a3.07 3.07 0 01.28.92c0 .46-.39.71-1.14.71h-3a2.13 2.13 0 01-1.28-.32 3.59 3.59 0 01-.89-1.32l-12.55-27zm37.91-7.18a1.62 1.62 0 01.82.43q5 3.84 9.92 3.84a12.34 12.34 0 004.34-.71 6.11 6.11 0 002.84-2 4.93 4.93 0 001-3.06 4.58 4.58 0 00-.82-2.77 6.53 6.53 0 00-2.63-1.89 39.37 39.37 0 00-5.12-1.67 30.38 30.38 0 01-6.44-2.28 10.14 10.14 0 01-3.91-3.38 9.23 9.23 0 01-1.39-5.23 10.37 10.37 0 011.67-5.9 11 11 0 014.59-3.84 15.48 15.48 0 016.57-1.34 19.63 19.63 0 0112.38 4.3 2 2 0 01.39.39.59.59 0 01.14.39.93.93 0 01-.11.39c-.07.14-.18.32-.28.5l-1.57 2.35a2.89 2.89 0 01-.39.46.59.59 0 01-.39.14 1.78 1.78 0 01-.92-.39 21.39 21.39 0 00-4.45-2.49 13 13 0 00-4.84-.92 9.09 9.09 0 00-3.66.68 5.74 5.74 0 00-2.49 2 5.06 5.06 0 00-.89 3 4.42 4.42 0 00.89 2.88 6.76 6.76 0 002.67 1.89 32.28 32.28 0 004.8 1.53A30.39 30.39 0 01785 750a9.72 9.72 0 013.84 3.38 9.21 9.21 0 011.28 5 10.27 10.27 0 01-1.78 5.94 11.66 11.66 0 01-4.94 3.95 17.78 17.78 0 01-7.22 1.39 19.5 19.5 0 01-6.93-1.24 21.5 21.5 0 01-5.94-3.41 1.5 1.5 0 01-.6-.92 1.79 1.79 0 01.39-.92l1.64-2.28c.32-.39.57-.6.82-.6zM823.5 736a1.31 1.31 0 01-.92.25h-10.21c-.25 0-.43 0-.5.14a.6.6 0 00-.14.46v31a1.34 1.34 0 01-.28 1 1.3 1.3 0 01-.92.25h-3a1.31 1.31 0 01-.92-.25 1.29 1.29 0 01-.28-1v-31a.6.6 0 00-.14-.46.64.64 0 00-.5-.14h-10.25a1.31 1.31 0 01-.92-.25 1.29 1.29 0 01-.28-1v-2.77a1.35 1.35 0 01.28-1 1.31 1.31 0 01.92-.25h27.14a1.31 1.31 0 01.92.25 1.34 1.34 0 01.28 1V735c0 .5-.11.82-.28 1zm28.56 28.18a1.34 1.34 0 01.29 1v2.77a1.34 1.34 0 01-.29 1 1.31 1.31 0 01-.93.25h-20.55a1.31 1.31 0 01-.92-.25 1.29 1.29 0 01-.28-1v-35.6a1.34 1.34 0 01.28-1 1.31 1.31 0 01.92-.25h20.52a1.31 1.31 0 01.93.25 1.34 1.34 0 01.28 1v2.77a1.34 1.34 0 01-.28 1 1.31 1.31 0 01-.93.25h-15.65c-.25 0-.43 0-.5.14a.61.61 0 00-.14.46v9.92c0 .25 0 .43.14.5a.64.64 0 00.5.14h13.8a1.31 1.31 0 01.92.25 1.34 1.34 0 01.29 1v2.7a1 1 0 01-1.21 1.21h-13.8c-.25 0-.43 0-.5.14a.61.61 0 00-.14.46v10.11a.61.61 0 00.14.46.64.64 0 00.5.14h15.68a1.35 1.35 0 01.93.18zm13.12 4.69a1.31 1.31 0 01-.93.25h-3a1.31 1.31 0 01-.93-.25 1.29 1.29 0 01-.28-1v-35.6a1.35 1.35 0 01.28-1 1.31 1.31 0 01.93-.25h10.39q15.47 0 15.47 11.77a10.13 10.13 0 01-2 6.44 11.68 11.68 0 01-5.44 3.73l9.33 14.53a1.87 1.87 0 01.43 1 .51.51 0 01-.28.46 2 2 0 01-.89.14h-3.2a2.64 2.64 0 01-1.35-.28 3.74 3.74 0 01-1-1.21l-10-15.86a1.31 1.31 0 01-.32-.75c0-.28.28-.46.82-.5 5.48-.57 8.18-3 8.18-7.33a6 6 0 00-2.56-5.41q-2.56-1.71-7.47-1.71h-5.23a.73.73 0 00-.53.14.64.64 0 00-.14.5v31.19a1.34 1.34 0 01-.29 1zm49.65-.96a1.34 1.34 0 01-.28 1 1.31 1.31 0 01-.93.25h-3a1.31 1.31 0 01-.93-.25 1.29 1.29 0 01-.28-1v-35.56a2.68 2.68 0 01.25-1.35.89.89 0 01.85-.43 1.27 1.27 0 01.85.36c.28.25.68.64 1.21 1.21l15.15 18.17 14.94-18.17c.57-.6 1-1 1.24-1.24a1.25 1.25 0 01.82-.32.93.93 0 01.85.43 2.68 2.68 0 01.25 1.35v35.57a1.34 1.34 0 01-.29 1 1.31 1.31 0 01-.92.25h-3a1.31 1.31 0 01-.93-.25 1.29 1.29 0 01-.29-1v-25.31L929.52 756a5.5 5.5 0 01-1.1 1.21 1.21 1.21 0 01-.82.28 1.42 1.42 0 01-.82-.28 10.8 10.8 0 01-1.1-1.21l-10.85-13.34v25.29zm40.79-27.7a18.53 18.53 0 017-7.11 20.85 20.85 0 0120 0 18.67 18.67 0 017 7 20.73 20.73 0 010 20 18.45 18.45 0 01-7.08 7 20 20 0 01-10.1 2.56 19.79 19.79 0 01-9.92-2.53 18.47 18.47 0 01-7-7 19.55 19.55 0 01-2.56-9.92 20.52 20.52 0 012.6-10.1zm4.91 17.36a13 13 0 005 5.12 13.63 13.63 0 007 1.85 13.87 13.87 0 007.08-1.89 13.47 13.47 0 005.09-5.19 15.73 15.73 0 000-14.87 13.19 13.19 0 00-5.05-5.12 13.87 13.87 0 00-19.13 5.23 16 16 0 000 14.87zm64.66-26.22a1.31 1.31 0 01.93-.25h3a1.31 1.31 0 01.92.25 1.34 1.34 0 01.29 1v35.6c0 1.21-.36 1.78-1.1 1.78a1.52 1.52 0 01-.92-.36A10.82 10.82 0 011027 768l-22.05-26v25.89a1.34 1.34 0 01-.29 1 1.31 1.31 0 01-.93.25h-3a1.31 1.31 0 01-.92-.25 1.29 1.29 0 01-.29-1v-35.6a2.64 2.64 0 01.29-1.35.93.93 0 01.85-.43 1.52 1.52 0 01.93.36 11.15 11.15 0 011.32 1.32l22.05 26v-25.88a1.54 1.54 0 01.29-1zm37.41 32.83a1.34 1.34 0 01.28 1v2.77a1.34 1.34 0 01-.28 1 1.31 1.31 0 01-.93.25h-20.56a1.31 1.31 0 01-.93-.25 1.29 1.29 0 01-.28-1v-35.6a1.34 1.34 0 01.28-1 1.31 1.31 0 01.93-.25h20.52a1.31 1.31 0 01.92.25 1.34 1.34 0 01.29 1v2.77a1.34 1.34 0 01-.29 1 1.31 1.31 0 01-.92.25H1046a.74.74 0 00-.53.14.61.61 0 00-.14.46v9.92c0 .25 0 .43.14.5s.25.14.53.14h13.8a1.31 1.31 0 01.93.25 1.34 1.34 0 01.28 1v2.7a1 1 0 01-1.21 1.21H1046a.74.74 0 00-.53.14.61.61 0 00-.14.46v10.11a.61.61 0 00.14.46c.11.11.25.14.53.14h15.68a1.35 1.35 0 01.93.18zm30.13-31.73a3.48 3.48 0 01.92-1.1 2.62 2.62 0 011.24-.25h3.2a1.44 1.44 0 01.75.18.5.5 0 01.28.43 2.23 2.23 0 01-.28.75l-13.48 22.3v13.16a1.34 1.34 0 01-.29 1 1.31 1.31 0 01-.93.25h-3a1.31 1.31 0 01-.92-.25 1.29 1.29 0 01-.29-1V755l-13.48-22.58a2.24 2.24 0 01-.29-.75.48.48 0 01.25-.46 1.39 1.39 0 01.75-.14h3.38a2.54 2.54 0 011.32.25 4 4 0 01.93 1.1l9.92 17.14z"/></g></svg>