<svg version="1.1" id="Capa_1" xmlns="http://www.w3.org/2000/svg" x="0" y="0" viewBox="0 0 512 512" xml:space="preserve"><path d="M235.738 142.76c-13.18 0-24.722-6.846-31.364-17.159-2.516-3.906-6.7-6.378-11.279-6.861v82.505h-82.929c.614-4.389 3.043-8.367 6.802-10.796 10.313-6.627 17.145-18.183 17.145-31.364 0-21.401-18.022-38.604-39.731-37.244-18.666 1.17-33.821 16.442-34.86 35.123-.775 14.087 6.261 26.565 17.188 33.543 3.745 2.399 6.115 6.393 6.7 10.737H0V58.851C0 30.852 22.703 8.149 50.702 8.149h142.394v83.967c4.535-.468 8.733-2.882 11.22-6.773 6.978-10.913 19.456-17.964 33.558-17.188 18.681 1.039 33.953 16.194 35.123 34.874 1.346 21.694-15.842 39.731-37.259 39.731z" fill="#9fd479"/><path d="M386.193 201.245h-83.514c.351 4.74 2.794 9.143 6.802 11.703 10.927 6.978 17.964 19.471 17.188 33.558-1.039 18.681-16.194 33.953-34.86 35.123-21.709 1.361-39.731-15.843-39.731-37.259 0-13.166 6.831-24.722 17.145-31.349 4.052-2.619 6.554-7.022 6.919-11.776h-83.046V118.74c4.579.483 8.762 2.955 11.279 6.861 6.641 10.313 18.183 17.159 31.364 17.159 21.416 0 38.605-18.037 37.259-39.731-1.17-18.681-16.442-33.836-35.123-34.874-14.102-.775-26.58 6.276-33.558 17.188-2.487 3.891-6.685 6.305-11.22 6.773V8.149H335.49c27.999 0 50.702 22.703 50.702 50.702v142.394h.001z" fill="#f2df33"/><path d="M335.49 8.149h-23.18c27.999 0 50.702 22.703 50.702 50.702v142.394h23.18V58.851c.001-27.999-22.703-50.702-50.702-50.702zm-26.009 204.799c-4.008-2.56-6.451-6.963-6.802-11.703h-23.18c.351 4.74 2.794 9.143 6.802 11.703 10.927 6.978 17.964 19.471 17.189 33.558-.862 15.504-11.452 28.652-25.699 33.347a37.414 37.414 0 0014.019 1.776c18.666-1.17 33.821-16.442 34.86-35.123.775-14.088-6.262-26.58-17.189-33.558z" fill="#d9b92c"/><path d="M512 310.755v142.394c0 27.999-22.703 50.702-50.702 50.702H318.904v-82.987c-4.535.468-8.733 2.882-11.22 6.773-6.978 10.913-19.456 17.964-33.558 17.174-18.681-1.039-33.953-16.194-35.123-34.86-1.346-21.709 15.843-39.731 37.259-39.731 13.18 0 24.722 6.832 31.364 17.145 2.516 3.921 6.7 6.378 11.279 6.861v-83.47h83.046c-.366 4.754-2.867 9.157-6.919 11.776-10.313 6.627-17.145 18.183-17.145 31.349 0 21.416 18.022 38.619 39.731 37.259 18.666-1.17 33.821-16.442 34.86-35.123.775-14.087-6.261-26.58-17.189-33.558-4.008-2.56-6.451-6.963-6.802-11.703l83.513-.001z" fill="#ed5575"/><path d="M371.851 322.531c-10.313 6.627-17.145 18.183-17.145 31.349 0 21.416 18.022 38.619 39.731 37.259a36.54 36.54 0 009.161-1.776c-14.928-4.885-25.712-18.92-25.712-35.483 0-13.166 6.831-24.722 17.145-31.349 4.052-2.619 6.553-7.022 6.919-11.776h-23.18c-.366 4.754-2.867 9.157-6.919 11.776zm116.969-11.776v142.394c0 27.999-22.703 50.702-50.702 50.702h23.18c27.999 0 50.702-22.703 50.702-50.702V310.755h-23.18z" fill="#cc3a60"/><path d="M113.195 300.441c1.17 18.666 16.442 33.821 35.123 34.86 14.102.79 26.58-6.261 33.558-17.174 2.487-3.891 6.685-6.305 11.22-6.773v82.987H50.702C22.703 394.341 0 371.638 0 343.639V201.245h83.412c-.585-4.345-2.955-8.338-6.7-10.737-10.927-6.978-17.964-19.456-17.188-33.543 1.039-18.681 16.194-33.953 34.86-35.123 21.709-1.36 39.731 15.843 39.731 37.244 0 13.18-6.831 24.737-17.145 31.364-3.759 2.428-6.188 6.407-6.802 10.796h82.929v83.47c-4.579-.483-8.762-2.94-11.279-6.861-6.641-10.313-18.183-17.145-31.364-17.145-21.416 0-38.605 18.022-37.259 39.731z" fill="#5c9cee"/></svg>