<svg height="464pt" viewBox="0 0 464 464" width="464pt" xmlns="http://www.w3.org/2000/svg"><path d="M48 400c26.512 0 48-7.2 48-16v-32c0 8.8-21.488 16-48 16s-48-7.2-48-16v32c0 8.84 21.488 16 48 16zm0 0" fill="#9bc9ff"/><path d="M48 432c26.512 0 48-7.2 48-16v-32c0 8.8-21.488 16-48 16s-48-7.2-48-16v32c0 8.84 21.488 16 48 16zm0 0" fill="#57a4ff"/><path d="M48 464c26.512 0 48-7.2 48-16v-32c0 8.8-21.488 16-48 16s-48-7.2-48-16v32c0 8.84 21.488 16 48 16zm0 0" fill="#2488ff"/><path d="M232 144c-20.402-.012-38.574 12.895-45.281 32.16A15.428 15.428 0 00184 176c-30.93 0-56 25.07-56 56s25.07 56 56 56h104c26.508 0 48-21.492 48-48s-21.492-48-48-48a43.966 43.966 0 00-8 .719V192c0-26.508-21.492-48-48-48zm0 0" fill="#006df0"/><path d="M243.922 145.52a47.857 47.857 0 00-33.203 30.64A15.428 15.428 0 00208 176c-30.93 0-56 25.07-56 56s25.07 56 56 56h-24c-30.93 0-56-25.07-56-56s25.07-56 56-56c.91-.027 1.82.027 2.719.16 6.707-19.265 24.879-32.172 45.281-32.16a45.166 45.166 0 0111.922 1.52zm0 0" fill="#005ece"/><path d="M128 40V16c0-8.836-7.164-16-16-16H16C7.164 0 0 7.164 0 16v56h128zm0 0" fill="#bddbff"/><path d="M16 96h96c8.836 0 16-7.164 16-16v-8H0v8c0 8.836 7.164 16 16 16zm0 0" fill="#a7a9ac"/><path d="M48 96h32v32H48zm0 0" fill="#787680"/><path d="M448 0h-48c-8.836 0-16 7.164-16 16v96c0 8.836 7.164 16 16 16h48c8.836 0 16-7.164 16-16V16c0-8.836-7.164-16-16-16zm0 0" fill="#57a4ff"/><path d="M96 352c0-8.836-21.492-16-48-16s-48 7.164-48 16 21.492 16 48 16 48-7.164 48-16zm0 0" fill="#bddbff"/><path d="M464 320v144h-96V320c.027-8.824 7.176-15.973 16-16h64c8.824.027 15.973 7.176 16 16zm0 0" fill="#a7a9ac"/><path d="M432 424c0 8.836-7.164 16-16 16s-16-7.164-16-16 7.164-16 16-16 16 7.164 16 16zm0 0" fill="#7ed63e"/><path d="M392 328h48v24h-48zm0 0" fill="#bddbff"/><path d="M392 352h48v24h-48zM0 16v56h80C35.785 72 0 46.953 0 16zm0 0" fill="#9bc9ff"/><path d="M384 64v48c0 8.836 7.164 16 16 16h48c-35.348 0-64-28.652-64-64zm0 0" fill="#2488ff"/><path d="M368 376v88h80c-44.215 0-80-39.36-80-88zm0 0" fill="#939598"/><path d="M400 96h48v16h-48zm0 0" fill="#f1f2f2"/><path d="M192 128h-16V56a8 8 0 00-8-8h-40V32h40c13.254 0 24 10.746 24 24zM96 400h72a8 8 0 008-8v-80h16v80c0 13.254-10.746 24-24 24H96m272 0h-72c-13.254 0-24-10.746-24-24v-80h16v80a8 8 0 008 8h72zm-80-288h-16V56c0-13.254 10.746-24 24-24h88v16h-88a8 8 0 00-8 8zm0 0" fill="#5eac24"/><path d="M16 120h96v16H16zm0 0" fill="#57565c"/></svg>