<svg viewBox="0 0 507.98 507.98"><g id="Layer_x0020_1"><path class="fil1" d="M355.97 249.88c-6.34.39-17.25 4.38-23.91 6.19l-18.75-45.72c-.93-2.26-2.35-4.47-4.07-6.46-1.84-2.13-4.07-4.09-6.5-5.72-2.42-1.62-5.07-2.95-7.73-3.83-2.52-.84-5.1-1.31-7.57-1.31H130.35c-2.47 0-5.05.47-7.56 1.31-2.67.88-5.32 2.21-7.74 3.83s-4.65 3.57-6.49 5.7c-1.74 2.01-3.16 4.22-4.09 6.48l-18.73 45.67c-6.65-1.8-17.39-5.76-23.71-6.15-1.08 0-2.08.2-2.93.54-.86.34-1.63.88-2.24 1.53-.65.69-1.19 1.56-1.54 2.53-.35.97-.55 2.11-.55 3.35v9.53c0 1.52.3 2.97.83 4.26a11.15 11.15 0 002.42 3.59 11.15 11.15 0 003.59 2.42c1.29.53 2.74.83 4.26.83h10.66l-6.08 14.77c-.99 2.41-1.97 5.32-2.85 8.47-.92 3.27-1.77 6.82-2.47 10.4-.7 3.56-1.28 7.19-1.66 10.6-.36 3.2-.57 6.24-.57 8.9v81.24c0 1.51.3 2.96.83 4.25a11.15 11.15 0 002.42 3.59c1.01 1.01 2.26 1.86 3.61 2.42 1.28.53 2.73.83 4.24.83h22.24c1.51 0 2.96-.32 4.23-.83 1.35-.57 2.6-1.42 3.61-2.43a11.15 11.15 0 002.42-3.59c.53-1.29.83-2.74.83-4.25v-26.21h203.13v26.22c0 1.51.3 2.96.83 4.25a11.15 11.15 0 002.42 3.59 11.15 11.15 0 003.59 2.42c1.29.53 2.74.83 4.25.83h22.23c1.51 0 2.96-.32 4.23-.83 1.35-.57 2.6-1.42 3.61-2.43a11.15 11.15 0 002.42-3.59c.53-1.29.83-2.74.83-4.25v-81.23c0-2.67-.21-5.71-.57-8.9-.38-3.42-.96-7.05-1.66-10.61-.7-3.59-1.55-7.14-2.47-10.42-.88-3.12-1.85-6.03-2.84-8.44l-6.08-14.77h10.88c1.52 0 2.97-.3 4.26-.83a11.15 11.15 0 003.59-2.42 11.15 11.15 0 002.42-3.59c.53-1.29.83-2.74.83-4.26v-9.53c0-1.24-.2-2.38-.55-3.34-.35-.99-.89-1.87-1.53-2.54a6.658 6.658 0 00-2.24-1.53c-.86-.33-1.86-.53-2.94-.53zm-5.83-11.01l2.94-.63 2.89-.22c2.67 0 5.2.53 7.51 1.49 2.38.98 4.5 2.47 6.23 4.29 1.7 1.79 3.07 3.97 4 6.4.89 2.34 1.38 4.92 1.38 7.62v9.53c0 3.08-.63 6.04-1.75 8.75a23.24 23.24 0 01-4.98 7.46 23.227 23.227 0 01-5.74 4.18c-1.29.67-2.67 1.23-4.11 1.65 1.07 2.69 2.1 5.78 3.03 9.03 1.02 3.6 1.96 7.5 2.72 11.4.77 3.94 1.4 7.91 1.82 11.63.42 3.66.65 7.13.65 10.14v81.23c0 3.08-.63 6.05-1.75 8.76a23.184 23.184 0 01-4.98 7.46c-2.1 2.1-4.65 3.81-7.46 4.98a22.936 22.936 0 01-8.76 1.75h-22.23c-3.05 0-6.02-.62-8.73-1.74a23.174 23.174 0 01-7.47-4.98 22.994 22.994 0 01-6.75-16.22v-14.36H119.19v14.35c0 3.08-.63 6.05-1.75 8.76a23.184 23.184 0 01-4.98 7.46c-2.12 2.1-4.68 3.82-7.48 4.98a22.873 22.873 0 01-8.74 1.75H74c-3.06 0-6.03-.62-8.74-1.74a23.174 23.174 0 01-7.47-4.98 22.994 22.994 0 01-6.75-16.22v-81.24c0-3 .23-6.47.65-10.13.42-3.72 1.05-7.69 1.82-11.63.76-3.9 1.7-7.8 2.72-11.4.93-3.26 1.98-6.38 3.06-9.1a23.236 23.236 0 01-9.63-5.75 23.327 23.327 0 01-5-7.48 22.886 22.886 0 01-1.75-8.75v-9.53c0-2.69.5-5.28 1.38-7.62.92-2.42 2.3-4.61 4-6.4 1.72-1.83 3.85-3.31 6.22-4.3 2.31-.96 4.84-1.49 7.52-1.49l2.84.22 2.95.61 10.96 3.03 14.77-36c1.39-3.39 3.45-6.64 5.95-9.56 2.56-3 5.65-5.72 8.99-7.96 3.36-2.25 7.05-4.08 10.78-5.31 3.66-1.19 7.43-1.87 11.08-1.87h157.09c3.65 0 7.42.68 11.07 1.87 3.74 1.23 7.43 3.06 10.79 5.31 3.34 2.24 6.43 4.96 9 7.97 2.5 2.93 4.56 6.17 5.94 9.56l14.78 36.05 11.12-3.06z" fill="#555"/><path class="fil2" d="M430.15 113.15h15.29c6.42 0 12.27 2.55 16.51 6.86 4.21 4.29 6.84 10.32 6.84 17.28v287.92c0 1.81-.69 3.48-1.81 4.7-1.16 1.26-2.78 2.06-4.55 2.06h-49.28c-1.77 0-3.39-.8-4.55-2.06a6.958 6.958 0 01-1.81-4.7v-287.9c0-6.87 2.56-12.85 6.68-17.13 4.25-4.41 10.18-7.03 16.68-7.03zm-10.63 305.31h36.54V137.3c0-3.29-1.22-6.28-3.17-8.41-1.91-2.08-4.56-3.38-7.45-3.38h-15.29c-2.91.01-5.56 1.32-7.46 3.39-1.95 2.13-3.17 5.12-3.17 8.41v281.15z" fill="#555"/><path class="fil3" d="M237.41 75.83c1.75.23 3.48.81 5.06 1.72l205.61 118.73c3.08 1.78 5.59 4.33 7.29 7.28 1.72 2.98 2.67 6.42 2.67 9.97 0 3.19-.78 6.34-2.22 9.13-1.41 2.75-3.52 5.21-6.15 7.09l-.34.24c-1.18.68-2.51.89-3.72.68a5.373 5.373 0 01-3.45-2.17c-.89-1.25-1.18-2.7-.96-4.03.22-1.37.98-2.67 2.2-3.54a9.096 9.096 0 002.8-3.23 9.145 9.145 0 001.02-4.17c0-1.6-.46-3.19-1.24-4.54a9.138 9.138 0 00-3.32-3.33L237.06 86.92l-1.08-.36-1.12.08-.99.49-.73.83-6.22 10.78-.37 1.06.08 1.13.5 1.01.82.72 205.63 118.73c1.29.76 2.17 1.97 2.52 3.29a5.4 5.4 0 01-.54 4.1 5.477 5.477 0 01-3.26 2.52c-1.32.36-2.81.23-4.11-.52L222.55 112.05c-1.58-.91-2.96-2.13-4.03-3.53-1.08-1.41-1.9-3.06-2.36-4.79a13.98 13.98 0 01-.35-5.34c.24-1.77.83-3.5 1.73-5.06l6.22-10.77c.91-1.57 2.11-2.94 3.52-4.02 1.4-1.07 3.04-1.89 4.79-2.36 1.75-.46 3.59-.59 5.34-.35z" fill="#d16666"/><circle class="fil3" cx="437.6" cy="213.15" r="6" fill="#d16666"/><path class="fil4" d="M108.72 315.82h27.42c.84 0 1.69.21 2.47.55.75.33 1.49.85 2.06 1.47.52.56.95 1.27 1.25 2.03.31.77.47 1.59.47 2.43v16.96c0 .83-.16 1.66-.47 2.44-.29.77-.72 1.45-1.25 2.04-.56.61-1.31 1.14-2.11 1.48-.75.33-1.58.52-2.42.52h-27.42c-.84 0-1.69-.2-2.41-.51-.82-.35-1.56-.88-2.12-1.49-.52-.57-.96-1.27-1.25-2.04-.31-.78-.47-1.61-.47-2.44V322.3c0-.84.16-1.66.47-2.43.3-.76.72-1.46 1.25-2.03.56-.61 1.3-1.14 2.06-1.47.77-.34 1.62-.55 2.47-.55zm26.76 6.94h-26.1v16.05h26.1v-16.05z" fill="#d16666"/><path d="M281.48 315.82h27.42c.84 0 1.69.21 2.47.55.75.33 1.49.85 2.06 1.47.52.56.95 1.27 1.25 2.03.31.77.47 1.59.47 2.43v16.96c0 .83-.16 1.66-.47 2.44-.29.77-.72 1.45-1.25 2.04-.56.61-1.31 1.14-2.11 1.48-.75.33-1.58.52-2.42.52h-27.42c-.84 0-1.69-.2-2.41-.51-.82-.35-1.56-.88-2.12-1.49-.52-.57-.96-1.27-1.25-2.04-.31-.78-.47-1.61-.47-2.44V322.3c0-.84.16-1.66.47-2.43.3-.76.72-1.46 1.25-2.03.56-.61 1.3-1.14 2.06-1.47.77-.34 1.62-.55 2.47-.55zm26.76 6.94h-26.1v16.05h26.1v-16.05z" fill="#d16666"/><path d="M91.05 278.78l25.39-61.85c1.72-4.18 5.07-7.95 9.06-10.62 3.99-2.67 8.74-4.35 13.24-4.35h140.52c4.5 0 9.25 1.68 13.24 4.35 3.99 2.68 7.35 6.45 9.06 10.62l25.39 61.85c.84 2.05 1.24 4.05 1.24 5.87 0 2.46-.68 4.71-1.95 6.6-1.25 1.87-3.09 3.34-5.36 4.27-1.73.71-3.75 1.11-5.89 1.11l-211.98-.02c-2.19.01-4.19-.39-5.9-1.08-2.28-.95-4.11-2.45-5.36-4.31-1.26-1.87-1.94-4.13-1.94-6.57 0-1.82.4-3.82 1.24-5.87zm32.41-58.97l-25.39 61.85c-.43 1.05-.64 2.07-.64 2.99 0 .92.23 1.73.64 2.35.41.62 1.07 1.14 1.89 1.48.84.32 1.87.52 3.05.52l211.98.02c1.19-.01 2.22-.2 3.01-.52.83-.34 1.49-.86 1.91-1.49.43-.65.66-1.45.66-2.36 0-.92-.21-1.94-.64-2.99l-25.39-61.85c-1.12-2.73-3.45-5.3-6.26-7.18-2.79-1.87-6.04-3.05-9.02-3.05H138.74c-2.98 0-6.23 1.18-9.02 3.05-2.8 1.87-5.13 4.44-6.26 7.18z" fill="#555"/></g></svg>