<svg height="512pt" viewBox="0 -17 512 512" width="512pt" xmlns="http://www.w3.org/2000/svg"><path d="M391.23 95.898a4.158 4.158 0 01-4.152-4.152V33.914H26.816a5.165 5.165 0 00-5.152 5.152v237.29a82.13 82.13 0 013.648-3.938c15.676-15.773 36.551-24.457 58.778-24.457 22.23 0 43.105 8.684 58.781 24.457 23.7 23.84 30.05 58.602 19.102 88.32h313.609c2.832 0 5.148-2.316 5.148-5.152V95.898zm0 0" fill="#e6e9ed"/><path d="M84.094 247.96c6.07 0 12.039.669 17.828 1.935v-74.836a3.1 3.1 0 00-3.09-3.094H69.129a3.1 3.1 0 00-3.09 3.094v74.886a83.485 83.485 0 0118.055-1.984zm0 0" fill="#fb8276"/><path d="M142.875 272.418a83.222 83.222 0 0114.73 20.082v-93.25a3.1 3.1 0 00-3.09-3.094h-29.702a3.1 3.1 0 00-3.09 3.094v57.727a83.004 83.004 0 0121.152 15.441zm0 0" fill="#ffc502"/><path d="M213.293 306.203V170.762a3.1 3.1 0 00-3.09-3.09H180.5a3.1 3.1 0 00-3.094 3.09v135.441zm0 0" fill="#89c947"/><path d="M268.977 306.203V144.555a3.1 3.1 0 00-3.09-3.09h-29.703a3.1 3.1 0 00-3.09 3.09v161.648zm0 0" fill="#0291c9"/><path d="M324.664 306.203V113.79c0-1.7-1.39-3.094-3.094-3.094h-29.703a3.103 3.103 0 00-3.09 3.094v192.414zm0 0" fill="#fb8276"/><path d="M380.672 306.203V199.25a3.097 3.097 0 00-3.09-3.094h-29.703a3.1 3.1 0 00-3.09 3.094v106.953zm0 0" fill="#ffc502"/><path d="M436.355 306.203V170.762a3.1 3.1 0 00-3.09-3.09h-29.702a3.1 3.1 0 00-3.09 3.09v135.441zm0 0" fill="#89c947"/><path d="M169.465 79.734H66.039a7.497 7.497 0 01-7.5-7.5 7.5 7.5 0 017.5-7.5h103.426a7.5 7.5 0 110 15zm0 22.676H66.039a7.5 7.5 0 01-7.5-7.5c0-4.144 3.356-7.5 7.5-7.5h103.426a7.5 7.5 0 110 15zm-37.496 22.676h-65.93a7.5 7.5 0 01-7.5-7.5c0-4.145 3.356-7.5 7.5-7.5h65.93c4.144 0 7.5 3.355 7.5 7.5 0 4.14-3.36 7.5-7.5 7.5zm0 0" fill="#046699"/><path d="M512 91.746c0 2.832-2.316 5.152-5.148 5.152H391.23c-2.835 0-5.152-2.32-5.152-5.152V5.152c0-2.832 2.317-5.152 5.152-5.152h115.622C509.684 0 512 2.32 512 5.152zm0 0" fill="#f7931e"/><path d="M483.277 33.54h-68.476a7.497 7.497 0 01-7.5-7.5 7.5 7.5 0 017.5-7.5h68.476a7.5 7.5 0 017.5 7.5c0 4.144-3.355 7.5-7.5 7.5zm0 22.41h-68.476a7.5 7.5 0 110-15h68.476c4.145 0 7.5 3.359 7.5 7.5s-3.355 7.5-7.5 7.5zm-37.879 22.41h-30.597a7.5 7.5 0 110-15h30.597c4.141 0 7.5 3.359 7.5 7.5s-3.359 7.5-7.5 7.5zm0 0" fill="#775436"/><path d="M436.887 304.883H162.855a84.136 84.136 0 013.516 15h270.52c4.14 0 7.5-3.36 7.5-7.5a7.503 7.503 0 00-7.504-7.5zm0 0" fill="#9ea7af"/><path d="M228.547 460.77l-64.188-64.579-16.062 16.098 64.219 64.61c1.996 2.007 5.265 2.007 7.265 0l8.766-8.825c2-2.008 2-5.297 0-7.304zm0 0" fill="#0291c9"/><path d="M166.336 388.336l-11.922-12.191a83.547 83.547 0 01-11.543 14.566 83.596 83.596 0 01-14.851 11.863l11.93 12.196a5.093 5.093 0 007.241.035l19.106-19.14c2.004-2.005 2.02-5.306.039-7.33zm0 0" fill="#0481bf"/><path d="M143.582 391.418c-32.805 33-86.18 33-118.98 0-32.801-33.004-32.801-86.703 0-119.707 32.804-33.004 86.175-33.004 118.98 0 32.805 33.004 32.805 86.703 0 119.707zm0 0" fill="#ef5050"/><path d="M126.805 288.59c23.59 23.734 23.59 62.215 0 85.95-23.586 23.73-61.836 23.73-85.426 0-23.59-23.735-23.59-62.216 0-85.95s61.836-23.735 85.426 0zm0 0" fill="#75eae7"/><path d="M84.094 399.836c-18.149 0-35.207-7.106-48.035-20.012-26.45-26.61-26.45-69.91 0-96.52 12.828-12.906 29.886-20.011 48.035-20.011s35.203 7.105 48.031 20.012c26.453 26.61 26.453 69.91 0 96.52-12.828 12.905-29.883 20.01-48.031 20.01zm0-121.547c-14.125 0-27.403 5.535-37.395 15.59-20.656 20.777-20.656 54.59 0 75.371 9.989 10.05 23.27 15.586 37.395 15.586 14.12 0 27.402-5.535 37.39-15.586 20.657-20.781 20.657-54.594 0-75.371-9.988-10.055-23.27-15.59-37.39-15.59zm0 0" fill="#fb8276"/></svg>