<svg xmlns="http://www.w3.org/2000/svg" width="19.199" height="19.199" viewBox="0 0 507.98 507.98" shape-rendering="geometricPrecision" text-rendering="geometricPrecision" image-rendering="optimizeQuality" fill-rule="evenodd" clip-rule="evenodd"><g id="Layer_x0020_1" fill-rule="nonzero"><path d="M.78 495.42v-34.3h30.49v-29.84h45.89V406.3h39.49v-28.62h29.99v-25.24h22.39v-34.62l-2.25-2.24H146.6l-33.8-58.54H75.88l83.48-37.85-16.59-33.47h-40.99l84.13-30.73-5.98-22.95-46.33-.13 70.61-24.42-2.58-17.29-30.6-4.42 48.24-16.79-1.71-31.31 21.97-1.55c1.57-8.85 2.29-20.12 13.37-20.58 11.55 1.25 11.39 15.83 11.74 20.42l24.15 1.71-1.71 31.31 48.24 16.79-30.6 4.42-2.58 17.29 70.61 24.42-46.33.13-5.98 22.95 84.13 30.73h-40.99l-16.59 33.47 83.48 37.85h-36.92l-33.8 58.54h-20.18l-2.25 2.24v34.62h22.39v25.24h29.99v28.62h39.49v24.98h45.89v29.84h30.49v38.04l-3.77.06-3.87.22c0-10.23.02-20.46.02-30.7h-30.49V438.9h-45.89v-24.98h-39.49V385.3h-29.99v-25.24H329.7v-45.37l6.75-6.73h18.92l33.79-58.54h6.08l-58.56-26.54 22.19-44.78h2.71l-50.24-18.34 9.2-35.3 7.36-.02-34.23-11.83 4.34-29.13 5.35-.78-24.19-8.41 1.62-29.54-23.22-1.71c.74-22.1-9.38-26.43-10.29.17l-21.72 1.54 1.62 29.54-24.19 8.41 5.35.78 4.34 29.13-34.23 11.83 7.36.02 9.2 35.3-50.24 18.34h2.71l22.19 44.78-58.56 26.54h6.08l33.79 58.54h18.92l6.75 6.73v45.37h-22.39v25.24h-29.99v28.62H84.78v24.98H38.89v29.84H8.4c0 10.24.08 20.44.08 30.66l-3.93-.18-3.77-.06v-3.74z" fill="#585451"/><path d="M168.18 242.4h29.49v53.83h-33.3V242.4h3.81zm21.87 7.62h-18.06v38.59h18.06v-38.59zm26.27-7.62h29.49v53.83h-33.3V242.4h3.81zm21.87 7.62h-18.06v38.59h18.06v-38.59zm26.28-7.62h29.48v53.83h-33.29V242.4h3.81zm21.86 7.62h-18.05v38.59h18.05v-38.59zm26.28-7.62h29.49v53.83h-33.3V242.4h3.81zm21.87 7.62h-18.06v38.59h18.06v-38.59z" fill="#d16666"/><path d="M195.55 170.77h29.49v46.89h-33.3v-46.89h3.81zm21.87 7.62h-18.06v31.65h18.06v-31.65zm26.28-7.62h29.49v46.89h-33.3v-46.89h3.81zm21.87 7.62h-18.06v31.65h18.06v-31.65zm26.27-7.62h29.49v46.89h-33.3v-46.89h3.81zm21.87 7.62h-18.06v31.65h18.06v-31.65zm-96.02-61.07h29.49v35.73h-33.3v-35.73h3.81zm21.87 7.62H221.5v20.49h18.06v-20.49zm26.27-7.62h29.49v35.73h-33.3v-35.73h3.81zm21.87 7.62h-18.06v20.49h18.06v-20.49z" fill="#585451"/><path d="M240.16 51.84h29.48v53.68h-33.29V51.84h3.81zm21.86 7.62h-18.05V97.9h18.05V59.46z" fill="#d16666"/><path d="M187.95 318.1h134.12v33.29H184.14V318.1h3.81zm126.5 7.62H191.76v18.05h122.69v-18.05zm-148.04 50.1c-2.34 0-4.24-1.9-4.24-4.24 0-2.34 1.9-4.24 4.24-4.24h171.24c2.34 0 4.24 1.9 4.24 4.24 0 2.34-1.9 4.24-4.24 4.24H166.41zm-28.62 27.6c-2.34 0-4.24-1.9-4.24-4.24 0-2.34 1.9-4.24 4.24-4.24h228.48c2.34 0 4.24 1.9 4.24 4.24 0 2.34-1.9 4.24-4.24 4.24H137.79zm-39.8 27.6c-2.34 0-4.24-1.9-4.24-4.24 0-2.34 1.9-4.24 4.24-4.24h308.07c2.34 0 4.24 1.9 4.24 4.24 0 2.34-1.9 4.24-4.24 4.24H97.99zm-46.86 27.6c-2.34 0-4.24-1.9-4.24-4.24 0-2.34 1.9-4.24 4.24-4.24h401.79c2.34 0 4.24 1.9 4.24 4.24 0 2.34-1.9 4.24-4.24 4.24H51.13zm-26.97 27.6c-2.34 0-4.24-1.9-4.24-4.24 0-2.34 1.9-4.24 4.24-4.24h455.73c2.34 0 4.24 1.9 4.24 4.24 0 2.34-1.9 4.24-4.24 4.24H24.16z" fill="#585451"/></g></svg>