<svg height="512" viewBox="0 0 64 64" width="512" xmlns="http://www.w3.org/2000/svg"><g id="Flat"><g id="Color_copy" data-name="Color copy"><path d="M3 27h58v34H9a6 6 0 01-6-6V27z" fill="#57b7eb"/><path d="M23 27H3v28a6 6 0 006 6h52v-8H49a26 26 0 01-26-26z" fill="#4891d3"/><path d="M9 17a6 6 0 00-6 6v32a6 6 0 0112 0V23a6 6 0 00-6-6z" fill="#aae1f9"/><path d="M43 45a6.065 6.065 0 00-.1-1.094l2.032-1.174-2-3.464-2.032 1.174a5.965 5.965 0 00-1.9-1.093V37h-4v2.349a5.965 5.965 0 00-1.9 1.093l-2.033-1.174-2 3.464 2.033 1.174a5.806 5.806 0 000 2.188l-2.032 1.174 2 3.464 2.032-1.174a5.965 5.965 0 001.9 1.093V53h4v-2.349a5.965 5.965 0 001.9-1.093l2.033 1.174 2-3.464-2.033-1.174A6.065 6.065 0 0043 45zm-6 2a2 2 0 112-2 2 2 0 01-2 2z" fill="#f9e109"/><circle cx="23" cy="54" fill="#fcbc04" r="2"/><path d="M10 33.194V17.09A5.967 5.967 0 003 23v32a6 6 0 0112 0v-6.276a26.636 26.636 0 01-5-15.53z" fill="#57b7eb"/><path d="M44 48a9.952 9.952 0 01-5.521-1.665 1.993 1.993 0 11-2.814-2.815 9.932 9.932 0 01-1.505-3.785 5.981 5.981 0 00-1.055.707l-2.033-1.174-2 3.464 2.028 1.174a5.806 5.806 0 000 2.188l-2.032 1.174 2 3.464 2.032-1.174a5.965 5.965 0 001.9 1.093V53h4v-2.349a5.965 5.965 0 001.9-1.093l2.033 1.174L44.506 48z" fill="#fcbc04"/><path d="M24 55a1.992 1.992 0 01-1.82-2.82 2 2 0 102.64 2.64A1.99 1.99 0 0124 55zm9.1-5.442a5.965 5.965 0 001.9 1.093V53h4v-2a26.014 26.014 0 01-7.936-5.191c.014.094.023.189.04.281l-2.032 1.174 2 3.464z" fill="#e59730"/><path d="M50 58H38a1 1 0 010-2h12a2 2 0 002-2v-2a1 1 0 012 0v2a4 4 0 01-4 4zM26 46h-2.07a4.931 4.931 0 01-1.2-9.714l1.525-.382a8.306 8.306 0 004.909-3.459 1 1 0 011.664 1.11 10.31 10.31 0 01-6.087 4.29l-1.525.381A2.931 2.931 0 0023.93 44H26a1 1 0 010 2z" fill="#c4f236"/><path d="M38 16a8 8 0 10-13 6.24V24h10v-1.76A7.984 7.984 0 0038 16z" fill="#fcbc04"/><rect fill="#d0d8da" height="4" rx="2" width="14" x="23" y="24"/><path d="M25 28h10v1a5 5 0 01-5 5 5 5 0 01-5-5v-1z" fill="#93999a"/><path d="M27 13a8.948 8.948 0 011.422-4.843A8 8 0 0025 22.24V24h10v-1.76c.107-.086.2-.184.306-.275A8.995 8.995 0 0127 13z" fill="#e59730"/><path d="M25 24a2 2 0 000 4h10a2 2 0 002-2H27a2 2 0 01-2-2z" fill="#93999a"/><path d="M33 30h1.9a4.988 4.988 0 00.1-1v-1H25v1a4.99 4.99 0 003.206 4.654A4.986 4.986 0 0133 30z" fill="#656b76"/><g fill="#f9e109"><circle cx="18" cy="16" r="1"/><circle cx="42" cy="16" r="1"/><circle cx="30" cy="4" r="1"/><circle cx="19.608" cy="10" r="1"/><circle cx="40.392" cy="22" r="1"/><circle cx="36" cy="5.608" r="1"/><circle cx="40.392" cy="10" r="1"/><circle cx="19.608" cy="22" r="1"/><circle cx="24" cy="5.608" r="1"/><path d="M28.984 24a1.022 1.022 0 00.01-.11l-.827-7.447 1.517.506a1 1 0 00.632 0l1.517-.506-.827 7.447a1.022 1.022 0 00.01.11h1.99l.988-8.89a1 1 0 00-1.31-1.059L30 14.946l-2.684-.895a1 1 0 00-1.31 1.059l.988 8.89z"/></g><path d="M49 13h8v25h-8z" fill="#a1d51c" transform="rotate(180 53 25.5)"/><path d="M53 48l4-10h-8z" fill="#fcbc04"/><path d="M49 3h8v2a4 4 0 01-4 4 4 4 0 01-4-4V3z" fill="#aae1f9" transform="rotate(180 53 6)"/><path d="M49 9h8v4h-8z" fill="#d0d8da" transform="rotate(180 53 11)"/><path d="M50.6 42h4.8L53 48z" fill="#93999a"/><path d="M52.536 26.523A55.846 55.846 0 0053.741 38H49V13h3.536z" fill="#7ab92d"/><path d="M54.726 42H50.6l2.4 6-4-10h4.741c.282 1.344.605 2.679.985 4z" fill="#e59730"/><path d="M53 3a3.969 3.969 0 011.074.164 3.977 3.977 0 00-1.538 3.129V9H49V7a4 4 0 014-4z" fill="#57b7eb"/><path d="M49 9h3.535v4H49z" fill="#93999a"/><path d="M54.726 42c.092.32.194.637.292.956L53 48l-2.4-6z" fill="#656b76"/><path d="M51.5 13h3v25h-3z" fill="#57b7eb"/><path d="M52.536 13H51.5v25h2.241a55.846 55.846 0 01-1.2-11.477z" fill="#4891d3"/><path d="M23.93 46H26a1 1 0 000-2h-2.07a2.931 2.931 0 01-.71-5.774l1.525-.381c.187-.047.368-.109.551-.165a25.744 25.744 0 01-.758-1.859c-.094.027-.184.06-.279.083l-1.525.382A4.931 4.931 0 0023.93 46zM52 53v1a2 2 0 01-2 2H38a1 1 0 000 2h12a4 4 0 004-4v-1z" fill="#a1d51c"/></g></g></svg>