<svg xmlns="http://www.w3.org/2000/svg" width="1333.334" height="1333.334" viewBox="0 0 35277.76 35277.76" shape-rendering="geometricPrecision" text-rendering="geometricPrecision" image-rendering="optimizeQuality" fill-rule="evenodd" clip-rule="evenodd"><defs><style>.fil1{fill:#4ca1f4}.fil2{fill:#fff}</style></defs><g id="Layer_x0020_1"><path fill="none" d="M-.01-.01h35277.77v35277.77H-.01z"/><path class="fil2" d="M1848.46 31306.72h2195.82V10740.93l10657.04 10724.01c1161.09 1169.23 1653.29 1388.76 3002.19 1392.4l1476.84 3.99L4044.28 7629.68v-4.65L1848.46 5419.34v25887.38z"/><path class="fil1" d="M33431.56 31306.72h-2195.82V10732.24l-8960.88 9016.48.61.61-3.71 2.5c-206.83 208.11-59.12 61.69-265.95 269.8-785.81 790.11-1453.73 1103.25-2247.1 306.18L2988.72 3451.04l1476.84 3.99c1602.91 4.33 1845.57 219.2 3006.66 1388.43 3363.71 3387.29 9268.14 9332.24 13255.24 13347.06 3775.91-3801.07 9274.23-9332.85 12704.1-12786.22v25902.42z"/><path class="fil2" d="M19523.34 13712.62c3122.92-3138.01 6245.83-6276.02 9368.75-9414.03 561.85-576.05 1031.95-841.64 2226.58-846.93l1710.66.01c-3834.02 3860.9-7850.71 7887.49-11684.73 11748.39l-1621.26-1487.44z"/><path class="fil1" d="M6238.55 31306.72h2195.82V20424.66c0-1414.62-1354.66-2282.58-2195.82-2914.9v13796.96z"/><path class="fil2" d="M29043.64 31306.72h-2195.82V20424.66c0-1414.62 1354.66-2282.58 2195.82-2914.9v13796.96z"/></g></svg>