<svg xmlns="http://www.w3.org/2000/svg" width="19.199" height="19.199" viewBox="0 0 507.98 507.98" shape-rendering="geometricPrecision" text-rendering="geometricPrecision" image-rendering="optimizeQuality" fill-rule="evenodd" clip-rule="evenodd"><g id="Layer_x0020_1"><path class="fil1" d="M431.69 288.44c-6.17-14.2-13.56-28.24-22.1-41.95-8.44-13.53-18.03-26.75-28.69-39.49a390.769 390.769 0 00-31.15-33.27c-13.99-13.29-26.16-22.9-33.92-28.58l-1.49-1.08 50.99-94.58c1-1.9 1.35-4.06 1.04-6.09a9.226 9.226 0 00-2.79-5.33c-6.32-6.19-12.81-10.78-19.55-13.8-6.67-2.99-13.68-4.48-21.06-4.48-6.81 0-13.36 1.29-19.52 3.14-6.26 1.87-12.25 4.37-17.78 6.7l-.87.36c-8.74 3.59-16.98 6.99-23.93 6.99l-3.27-.27c-1.04-.18-2.07-.48-3.08-.86-11.59-4.24-21.87-7.68-31.38-10.05-9.41-2.35-18.11-3.66-26.63-3.66-10.71 0-20.62 2.15-30.05 6.57-9.49 4.45-18.58 11.25-27.59 20.49a9.661 9.661 0 00-2.68 5.85c-.19 2.15.31 4.38 1.55 6.26l55.16 83.32-1.61 1.18c-7.79 5.78-19.8 15.35-33.53 28.43a394.932 394.932 0 00-30.67 32.74c-10.67 12.81-20.29 26.1-28.77 39.7-8.5 13.64-15.88 27.6-22.02 41.74-7.68 17.74-13.5 35.94-17.37 54.41a271.986 271.986 0 00-5.83 55.98c0 24.61 10.04 46.96 26.22 63.14s38.54 26.22 63.15 26.22l223.05.03c24.62-.01 46.97-10.05 63.15-26.23s26.22-38.53 26.22-63.15c0-18.83-1.96-37.54-5.83-55.96-3.87-18.47-9.69-36.67-17.37-54.42zM159.76 55.98c5.88-5.08 11.66-8.75 17.66-11.14 6.04-2.41 12.3-3.55 19.09-3.55 7.13 0 14.74 1.21 23.22 3.41 8.38 2.17 17.61 5.32 28.12 9.21 2.01.73 4.13 1.29 6.29 1.66 2.12.36 4.35.55 6.64.55 5.53 0 10.96-1.09 16.26-2.71 5.38-1.65 10.73-3.87 15.94-6.06l.12-.05c10.28-4.28 20.07-8.37 29.78-8.37 2.4 0 5.32.21 8.74 1.19 3.36.96 7.2 2.68 11.44 5.7l1.52 1.09c-16.25 30.1-32.29 60.36-48.65 90.4h-84.52c-17.76-26.64-35.37-53.42-53.05-80.12l1.4-1.21zm205.76 412.86H142.47c-19.27 0-36.81-7.86-49.48-20.53-12.68-12.68-20.54-30.22-20.54-49.49 0-31.71 5.83-62.65 17.35-92.55 11.53-29.88 28.78-58.76 51.62-86.35 14.41-17.43 28.99-31.58 41.05-42.14 12.03-10.54 21.63-17.57 26.08-20.73l.57-.4h89.52l.57.39c5.56 3.85 18.88 13.65 35.01 28.75 10 9.36 21.11 20.8 32.14 34.13 22.88 27.58 40.13 56.41 51.64 86.26 11.53 29.9 17.34 60.86 17.34 92.64v.37c0 19.14-7.79 36.52-20.35 49.11-12.56 12.59-29.95 20.43-49.09 20.53l-.38.01z" fill="#555"/><path class="fil2" d="M344.34 305.33l-46.14-46.14c-2.57-2.57-6.74-2.57-9.32 0a6.576 6.576 0 00-1.93 4.66v19.77l-46.14.01a6.59 6.59 0 00-6.59 6.59 6.58 6.58 0 006.59 6.58h52.73a6.58 6.58 0 006.59-6.58v-10.46l30.22 30.22-30.22 30.23v-10.46a6.59 6.59 0 00-6.59-6.59l-72.5.01v-19.78a6.59 6.59 0 00-11.25-4.66l-46.13 46.14a6.579 6.579 0 000 9.32l46.13 46.13a6.586 6.586 0 004.66 1.94c.87 0 1.73-.17 2.53-.51a6.58 6.58 0 004.06-6.08v-19.78h46.14a6.59 6.59 0 006.59-6.59 6.59 6.59 0 00-6.59-6.59h-52.73a6.59 6.59 0 00-6.59 6.59v10.46l-30.22-30.23 30.22-30.22v10.45a6.59 6.59 0 006.59 6.59h72.5v19.77a6.59 6.59 0 006.59 6.59c1.75 0 3.43-.69 4.66-1.93l46.14-46.13c2.57-2.58 2.57-6.75 0-9.32z" fill="#d16666"/></g></svg>