<svg height="640" viewBox="-3 0 480 480" width="640" xmlns="http://www.w3.org/2000/svg"><path d="M474.387 103.496a7.677 7.677 0 00-.41-2.055c-.086-.257-.153-.504-.262-.754a8.034 8.034 0 00-1.602-2.343l-96-96a7.872 7.872 0 00-2.351-1.602c-.239-.11-.48-.176-.727-.262a7.873 7.873 0 00-2.097-.417c-.137.027-.282-.063-.45-.063h-240c-22.078.027-39.972 17.918-40 40v58.879C35.492 123.133 0 177.57 0 237.679c0 60.11 35.492 114.548 90.488 138.801V440c.028 22.082 17.922 39.973 40 40h304c22.082-.027 39.977-17.918 40-40V104c0-.176-.086-.328-.101-.504zM447.176 96h-60.688a8 8 0 01-8-8V27.312zM16.168 237.68a135.82 135.82 0 01136-136c4.547 0 9.059.222 13.512.656 61.86 6.113 111.644 53.496 120.808 114.977a137.334 137.334 0 011.672 20.367 134.904 134.904 0 01-20.87 72.382 135.395 135.395 0 01-42.794 42.778c-41.91 26.32-94.808 27.797-138.121 3.851-43.312-23.941-70.2-69.523-70.207-119.011zm228.914 120.175a173.013 173.013 0 003.246-2.558c3.95-3.18 7.73-6.559 11.336-10.121a150.363 150.363 0 0010.121-11.328c.871-1.07 1.711-2.16 2.559-3.254.969-1.266 2.02-2.465 2.945-3.754l68.2 68.281a23.822 23.822 0 017.058 16.922 23.83 23.83 0 01-7.059 16.926c-9.445 9.129-24.425 9.129-33.87 0l-68.29-68.168c1.29-.938 2.496-1.977 3.754-2.946zM434.488 464h-304c-13.254 0-24-10.746-24-24v-57.273c.496.16 1.016.265 1.52.418 1.281.39 2.578.703 3.875 1.062 2.992.8 6.008 1.602 9.055 2.2 1.496.312 2.992.6 4.503.866 3.047.536 6.122.957 9.207 1.313 1.38.156 2.739.352 4.122.469 4.433.379 8.894.625 13.398.625a151 151 0 0075.355-20.078l70.735 70.664a39.995 39.995 0 0039.289 11.808 39.991 39.991 0 0029.023-28.996 39.988 39.988 0 00-11.777-39.3L284.09 313.03a150.957 150.957 0 0020.078-75.351c0-5.067-.242-10.094-.734-15.078a151.2 151.2 0 00-43.762-92.41A151.007 151.007 0 00152.168 85.68c-4.504 0-8.965.25-13.398.625-1.383.12-2.754.312-4.13.472a151.51 151.51 0 00-9.183 1.313c-1.52.265-3.035.555-4.543.87-3.008.626-5.992 1.36-8.953 2.177-1.328.36-2.656.68-4 1.078-.496.152-1 .258-1.496.418V40c0-13.254 10.746-24 24-24h232.023v72c0 13.254 10.746 24 24 24h72v328c0 13.254-10.742 24-24 24zm0 0"/><path d="M330.488 56a8 8 0 00-8-8h-176a8 8 0 000 16h176a8 8 0 008-8zm88 136h-96a8 8 0 000 16h96a8 8 0 000-16zm0 48h-96a8 8 0 000 16h96a8 8 0 000-16zm8 56a8 8 0 00-8-8h-104a8 8 0 000 16h104a8 8 0 008-8zm0 48a8 8 0 00-8-8h-72a8 8 0 000 16h72a8 8 0 008-8zm-96-240a8 8 0 00-8-8h-64a8 8 0 000 16h64a8 8 0 008-8zm96 48a8 8 0 00-8-8h-120a8 8 0 000 16h120a8 8 0 008-8zm-304 48h56a8 8 0 000-16h-56a8 8 0 000 16zm96 40a8 8 0 00-8-8h-120a8 8 0 000 16h120a8 8 0 008-8zm-40 40h-56a8 8 0 000 16h56a8 8 0 000-16zm0 0"/><path d="M209.113 343.2a117.32 117.32 0 0046.672-45.27c.633-1.106 1.32-2.176 1.914-3.297.309-.578.551-1.176.848-1.754 1.215-2.336 2.398-4.672 3.445-7.063 1.051-2.39 1.875-4.664 2.73-7.015.247-.68.56-1.344.801-2.031 20.344-59.16-8.171-124.028-65.515-149.032-57.348-25.004-124.281-1.754-153.781 53.414a119.287 119.287 0 00-14.075 56.496c-.074 42.282 22.133 81.473 58.442 103.137 36.308 21.668 81.344 22.602 118.52 2.461zm-106.8-14.255A103.217 103.217 0 0178.624 311.2a105.334 105.334 0 01-13.054-15.88 104.428 104.428 0 01-5.226-8.71c-24.078-45.465-11.32-101.704 30.02-132.325 41.34-30.62 98.855-26.433 135.327 9.852 32.301 32.605 39.567 82.465 17.918 122.933v.067a102.237 102.237 0 01-42.015 41.992 103.7 103.7 0 01-99.281-.152zM434.488 384a8 8 0 00-8 8v32a8 8 0 01-8 8h-32a8 8 0 000 16h32c13.258 0 24-10.746 24-24v-32a8 8 0 00-8-8zm0 0"/></svg>