<?xml version="1.0"?>
<svg xmlns="http://www.w3.org/2000/svg" height="512px" version="1.1" viewBox="1 1 591.6 591.6" width="512px" class=""><g transform="matrix(0.817907 0 0 0.817907 54.0452 54.0452)"><g id="surface1">
<path d="M 560.460938 347.035156 L 112.277344 347.035156 L 0 275.585938 L 0 244.964844 L 477.242188 244.964844 C 504.976562 244.964844 531.5625 255.980469 551.171875 275.585938 L 574.566406 287.28125 C 585.253906 292.621094 592 303.542969 592 315.496094 C 591.988281 332.90625 577.875 347.023438 560.460938 347.035156 Z M 560.460938 347.035156 " style="fill:#646668" data-original="#D0D7DF" class="" data-old_color="#D0D7DF"/>
<path d="M 81.65625 244.964844 L 0 244.964844 L 0 142.898438 L 30.621094 142.898438 Z M 81.65625 244.964844 " style="fill:#ED174C" data-original="#4394CC" class="" data-old_color="#ed174c"/>
<path d="M 377.65625 244.964844 L 255.171875 244.964844 L 132.691406 0 L 193.929688 0 Z M 377.65625 244.964844 " style="fill:#ED174C" data-original="#4394CC" class="" data-old_color="#ed174c"/>
<path d="M 265.378906 81.65625 C 276.65625 81.65625 285.792969 72.519531 285.792969 61.242188 C 285.792969 49.960938 276.65625 40.828125 265.378906 40.828125 L 224.550781 40.828125 L 255.171875 81.65625 Z M 265.378906 81.65625 " style="fill:#646668" data-original="#D0D7DF" class="" data-old_color="#D0D7DF"/>
<path d="M 336.828125 183.722656 C 348.105469 183.722656 357.242188 174.589844 357.242188 163.308594 C 357.242188 152.03125 348.105469 142.898438 336.828125 142.898438 L 301.101562 142.898438 L 331.722656 183.722656 Z M 336.828125 183.722656 " style="fill:#646668" data-original="#D0D7DF" class="" data-old_color="#D0D7DF"/>
<path d="M 377.65625 347.035156 L 255.171875 347.035156 L 132.691406 592 L 193.929688 592 Z M 377.65625 347.035156 " style="fill:#ED174C" data-original="#4394CC" class="" data-old_color="#ed174c"/>
<path d="M 265.378906 510.34375 C 276.65625 510.34375 285.792969 519.480469 285.792969 530.757812 C 285.792969 542.039062 276.65625 551.171875 265.378906 551.171875 L 224.550781 551.171875 L 255.171875 510.34375 Z M 265.378906 510.34375 " style="fill:#646668" data-original="#D0D7DF" class="" data-old_color="#D0D7DF"/>
<path d="M 336.828125 408.277344 C 348.105469 408.277344 357.242188 417.410156 357.242188 428.691406 C 357.242188 439.96875 348.105469 449.101562 336.828125 449.101562 L 301.101562 449.101562 L 331.722656 408.277344 Z M 336.828125 408.277344 " style="fill:#646668" data-original="#D0D7DF" class="" data-old_color="#D0D7DF"/>
<path d="M 449.101562 275.585938 L 469.515625 275.585938 L 469.515625 296 L 449.101562 296 Z M 449.101562 275.585938 " style="fill:#ED174C" data-original="#4394CC" class="" data-old_color="#ed174c"/>
<path d="M 408.277344 275.585938 L 428.691406 275.585938 L 428.691406 296 L 408.277344 296 Z M 408.277344 275.585938 " style="fill:#ED174C" data-original="#4394CC" class="" data-old_color="#ed174c"/>
<path d="M 367.449219 275.585938 L 387.863281 275.585938 L 387.863281 296 L 367.449219 296 Z M 367.449219 275.585938 " style="fill:#ED174C" data-original="#4394CC" class="" data-old_color="#ed174c"/>
<path d="M 326.621094 275.585938 L 347.035156 275.585938 L 347.035156 296 L 326.621094 296 Z M 326.621094 275.585938 " style="fill:#ED174C" data-original="#4394CC" class="" data-old_color="#ed174c"/>
<path d="M 285.792969 275.585938 L 306.207031 275.585938 L 306.207031 296 L 285.792969 296 Z M 285.792969 275.585938 " style="fill:#ED174C" data-original="#4394CC" class="" data-old_color="#ed174c"/>
<path d="M 244.964844 275.585938 L 265.378906 275.585938 L 265.378906 296 L 244.964844 296 Z M 244.964844 275.585938 " style="fill:#ED174C" data-original="#4394CC" class="" data-old_color="#ed174c"/>
<path d="M 204.136719 275.585938 L 224.550781 275.585938 L 224.550781 296 L 204.136719 296 Z M 204.136719 275.585938 " style="fill:#ED174C" data-original="#4394CC" class="" data-old_color="#ed174c"/>
<path d="M 163.308594 275.585938 L 183.722656 275.585938 L 183.722656 296 L 163.308594 296 Z M 163.308594 275.585938 " style="fill:#ED174C" data-original="#4394CC" class="" data-old_color="#ed174c"/>
<path d="M 122.484375 275.585938 L 142.898438 275.585938 L 142.898438 296 L 122.484375 296 Z M 122.484375 275.585938 " style="fill:#ED174C" data-original="#4394CC" class="" data-old_color="#ed174c"/>
<path d="M 574.566406 287.28125 L 551.171875 275.585938 L 489.929688 275.585938 L 489.929688 296 L 585.203125 296 C 582.34375 292.34375 578.710938 289.367188 574.566406 287.28125 Z M 574.566406 287.28125 " style="fill:#ED174C" data-original="#4394CC" class="" data-old_color="#ed174c"/>
<path d="M 239.863281 214.34375 L 255.171875 244.964844 L 377.65625 244.964844 L 354.691406 214.34375 Z M 239.863281 214.34375 " style="fill:#C30937" data-original="#3E89BD" class="active-path" data-old_color="#ED174C"/>
</g></g> </svg>
