<?xml version="1.0"?>
<svg xmlns="http://www.w3.org/2000/svg" height="512px" viewBox="0 0 512 512" width="512px" class=""><g><path d="m501.464844 255.964844c0 135.59375-109.921875 245.515625-245.515625 245.515625s-245.515625-109.921875-245.515625-245.515625 109.921875-245.515625 245.515625-245.515625 245.515625 109.921875 245.515625 245.515625zm0 0" fill="#fff" data-original="#FFF" class=""/><path d="m361.898438 324.070312-59.507813-24.796874c-4.601563-1.917969-7.789063-5.972657-8.773437-10.730469v-23.585938l22.730468-13.03125c8.773438-5.796875 14.964844-16.375 15.875-28.257812v-15.210938c9.222656 0 16.773438-7.546875 16.773438-16.773437v-26.8125c0-9.222656-7.550782-16.773438-16.773438-16.773438v-30.011718c0-27.890626-22.101562-50.671876-49.636718-52.164063-27.546876 1.492187-49.835938 24.273437-49.835938 52.164063v15.855468c0 6.917969-3.667969 13.164063-9.394531 17.042969-4.480469 3.03125-7.441407 8.160156-7.441407 13.949219v26.691406c0 5.785156 2.960938 10.914062 7.441407 13.949219 5.726562 3.875 9.394531 10.125 9.394531 17.042969v.09375c0 .640624.019531 1.28125.082031 1.917968 1.164063 11.488282 7.324219 21.660156 15.859375 27.296875l22.601563 12.921875v23.589844c-.957031 4.800781-4.238281 8.902344-8.875 10.835938l-59.507813 24.796874c-12.570312 5.238282-20.761718 19.476563-20.761718 33.09375v38.851563h200.507812v-38.851563c.003906-13.617187-8.1875-27.859374-20.757812-33.09375zm0 0" fill="#45ad02" data-original="#45AD02" class="active-path" data-old_color="#45ad02" style="fill:#000000"/><path d="m308.859375 406.464844c-2.746094 0-5.441406-1.117188-7.386719-3.0625-1.941406-1.941406-3.0625-4.636719-3.0625-7.386719 0-2.746094 1.121094-5.441406 3.0625-7.386719 1.945313-1.945312 4.640625-3.0625 7.386719-3.0625 2.75 0 5.445313 1.117188 7.390625 3.0625 1.941406 1.945313 3.058594 4.640625 3.058594 7.386719 0 2.75-1.117188 5.445313-3.058594 7.386719-1.945312 1.945312-4.640625 3.0625-7.390625 3.0625zm0 0" data-original="#000000" class="" style="fill:#EF0505" data-old_color="#000000"/><path d="m382.660156 406.464844h-37.84375c-5.769531 0-10.449218-4.675782-10.449218-10.449219 0-5.769531 4.679687-10.449219 10.449218-10.449219h27.394532v-28.402344c0-9.964843-6.160157-20.046874-14.332032-23.449218l-59.507812-24.796875c-7.671875-3.195313-13.277344-10.019531-14.984375-18.25-.144531-.699219-.21875-1.410157-.21875-2.125v-23.582031c0-3.746094 2.003906-7.203126 5.25-9.066407l22.417969-12.851562c6.050781-4.121094 10.210937-11.652344 10.9375-19.800781v-14.785157c0-5.769531 4.679687-10.449219 10.449218-10.449219 3.429688 0 6.324219-2.894531 6.324219-6.324218v-26.8125c0-3.425782-2.894531-6.324219-6.324219-6.324219-5.769531 0-10.449218-4.675781-10.449218-10.449219v-30.011718c0-23.046876-18.867188-41.792969-42.058594-41.792969h-47.164063c-23.304687 0-42.265625 18.746093-42.265625 41.792969v30.011718c0 5.773438-4.675781 10.449219-10.449218 10.449219-3.457032 0-6.382813 2.925781-6.382813 6.386719v26.691406c0 3.460938 2.925781 6.382812 6.382813 6.382812 5.773437 0 10.449218 4.679688 10.449218 10.449219v14.78125c.726563 8.117188 4.910156 15.648438 11.003906 19.796875l22.28125 12.738282c3.253907 1.863281 5.261719 5.324218 5.261719 9.074218v23.589844c0 .6875-.066406 1.371094-.203125 2.046875-1.65625 8.292969-7.304687 15.183594-15.101562 18.433594l-59.507813 24.796875c-8.171875 3.402344-14.332031 13.484375-14.332031 23.449218v28.402344h131.902344c5.769531 0 10.449218 4.679688 10.449218 10.449219 0 5.773437-4.679687 10.449219-10.449218 10.449219h-142.351563c-5.769531 0-10.449219-4.675782-10.449219-10.449219v-38.851563c0-18.492187 11.183594-36.070312 27.191407-42.742187l59.507812-24.792969c1.136719-.472656 2.015625-1.394531 2.445313-2.535156v-16.183594l-17.339844-9.914062c-.191406-.109375-.382812-.226563-.570312-.351563-11.765626-7.769531-19.46875-21.292969-20.605469-36.179687-.019531-.265625-.027344-.53125-.027344-.796875v-6.839844c-9.875-4.109375-16.835937-13.859375-16.835937-25.203125v-26.691406c0-11.34375 6.960937-21.09375 16.835937-25.203125v-21.640625c0-34.570313 28.332031-62.695313 63.160156-62.695313h47.164063c34.714844 0 62.957031 28.125 62.957031 62.695313v21.644531c9.839844 4.105469 16.773437 13.828125 16.773437 25.140625v26.808594c0 11.3125-6.933593 21.03125-16.773437 25.140625v6.847656c0 .265625-.011719.53125-.03125.796875-1.140625 14.914062-8.816406 28.4375-20.53125 36.175781-.183594.121094-.371094.238281-.5625.347657l-17.480469 10.023437v16.15625c.429688 1.128906 1.257813 2.003906 2.34375 2.460937l59.507813 24.792969c16.007812 6.671875 27.191406 24.246094 27.191406 42.742188v38.847656c0 5.773437-4.679687 10.449219-10.449219 10.449219zm0 0" data-original="#000000" class="" style="fill:#EF0505" data-old_color="#000000"/><path d="m256.015625 512c-55.179687 0-109.003906-17.761719-153.207031-50.851562-4.617188-3.460938-5.558594-10.007813-2.101563-14.628907 3.457031-4.617187 10.007813-5.558593 14.625-2.101562 92.832031 69.492187 224.773438 59.960937 306.910157-22.175781 44.40625-44.40625 68.859374-103.445313 68.859374-166.242188s-24.453124-121.835938-68.859374-166.242188-103.445313-68.859374-166.242188-68.859374c-62.800781 0-121.839844 24.453124-166.242188 68.859374-82.042968 82.042969-91.644531 213.894532-22.332031 306.695313 3.453125 4.625 2.503907 11.171875-2.121093 14.625-4.621094 3.453125-11.167969 2.503906-14.625-2.121094-36.453126-48.808593-54.242188-109.335937-50.085938-170.425781 4.195312-61.695312 30.613281-119.777344 74.386719-163.550781 48.351562-48.351563 112.640625-74.980469 181.019531-74.980469s132.667969 26.628906 181.019531 74.980469c48.351563 48.351562 74.980469 112.640625 74.980469 181.019531s-26.628906 132.667969-74.980469 181.019531c-43.8125 43.808594-101.941406 70.230469-163.6875 74.394531-5.777343.390626-11.558593.585938-17.316406.585938zm0 0" data-original="#000000" class="" style="fill:#EF0505" data-old_color="#000000"/><path d="m82.464844 440.175781c-2.679688 0-5.355469-1.023437-7.398438-3.070312l-.191406-.191407c-4.074219-4.085937-4.066406-10.699218.023438-14.773437 4.085937-4.074219 10.699218-4.070313 14.773437.019531l.191406.1875c4.074219 4.085938 4.066407 10.703125-.019531 14.777344-2.039062 2.03125-4.710938 3.050781-7.378906 3.050781zm0 0" data-original="#000000" class="" style="fill:#EF0505" data-old_color="#000000"/></g> </svg>
