<?xml version="1.0"?>
<svg xmlns="http://www.w3.org/2000/svg" xmlns:xlink="http://www.w3.org/1999/xlink" version="1.1" id="Capa_1" x="0px" y="0px" viewBox="0 0 496.485 496.485" style="enable-background:new 0 0 496.485 496.485;" xml:space="preserve" width="512px" height="512px" class=""><g transform="matrix(0.801631 0 0 0.801631 49.2437 49.2437)"><g>
	<path style="fill:#454545" d="M79.019,445.642v35.328c0,8.564,6.951,15.515,15.515,15.515h49.478   c8.564,0,15.515-6.951,15.515-15.515v-35.328H79.019z" data-original="#454545" class=""/>
	<path style="fill:#454545" d="M336.958,445.642v35.328c0,8.564,6.951,15.515,15.515,15.515h49.478   c8.564,0,15.515-6.951,15.515-15.515v-35.328H336.958z" data-original="#454545" class=""/>
</g><path style="fill:#2E2C33" d="M482.552,128.419c-4.453,0-8.052-3.6-8.052-8.052c0-5.694-4.639-10.318-10.318-10.318h-8.844  c-4.453,0-8.052-3.6-8.052-8.052s3.6-8.052,8.052-8.052h8.844c14.569,0,26.422,11.854,26.422,26.407  C490.605,124.804,487.005,128.419,482.552,128.419z" data-original="#CACACA" class="" data-old_color="#2e2c33"/><rect x="463.686" y="118.939" style="fill:#898989" width="32.303" height="87.226" data-original="#6F6F6F" class="" data-old_color="#6F6F6F"/><path style="fill:#2E2C33" d="M13.933,128.419c4.453,0,8.052-3.6,8.052-8.052c0-5.694,4.624-10.318,10.318-10.318h8.844  c4.453,0,8.052-3.6,8.052-8.052s-3.6-8.052-8.052-8.052h-8.844c-14.569,0-26.422,11.854-26.422,26.407  C5.88,124.804,9.48,128.419,13.933,128.419z" data-original="#CACACA" class="" data-old_color="#2e2c33"/><rect x="0.496" y="118.939" style="fill:#898989" width="32.303" height="87.226" data-original="#6F6F6F" class="" data-old_color="#6F6F6F"/><path style="fill:#ED174C" d="M424.681,0H71.804c-17.129,0-31.03,13.886-31.03,31.03v279.087h414.937V31.03  C455.711,13.886,441.825,0,424.681,0z" data-original="#86DAF1" class="" data-old_color="#ed174c"/><path style="fill:#D30A3C" d="M40.774,411.85v8.533c0,17.129,13.902,31.03,31.03,31.03h352.877c17.144,0,31.03-13.902,31.03-31.03  v-8.533H40.774z" data-original="#ED6262" class="" data-old_color="#08A187"/><rect x="40.774" y="367.244" style="fill:#D80A3D" width="414.937" height="44.544" data-original="#CD484B" class="" data-old_color="#08A187"/><rect x="40.774" y="300.156" style="fill:#EFF4ED" width="414.937" height="67.15" data-original="#F3F3F3" class="" data-old_color="#AEB7AB"/><rect x="40.774" y="86.869" style="fill:#898989" width="414.937" height="193.893" data-original="#6F6F6F" class="" data-old_color="#6F6F6F"/><rect x="237.165" y="86.869" style="fill:#454545" width="22.156" height="193.893" data-original="#454545" class=""/><rect x="40.774" y="280.762" style="fill:#ED174C" width="414.937" height="19.394" data-original="#86DAF1" class="" data-old_color="#ed174c"/><circle style="fill:#EFF4ED" cx="85.489" cy="389.57" r="12.133" data-original="#F3F3F3" class="" data-old_color="#AEB7AB"/><g>
	<circle style="fill:#FFE21F" cx="116.364" cy="389.57" r="12.133" data-original="#FFE21F" class=""/>
	<circle style="fill:#FFE21F" cx="380.121" cy="389.57" r="12.133" data-original="#FFE21F" class=""/>
</g><circle style="fill:#EFF4ED" cx="410.965" cy="389.57" r="12.133" data-original="#F3F3F3" class="" data-old_color="#AEB7AB"/><g>
	<path style="fill:#FFE21F" d="M411.245,316.866h-29.743c-9.309,0-16.865,7.556-16.865,16.865c0,9.309,7.54,16.849,16.865,16.849   h29.743c9.309,0,16.865-7.54,16.865-16.849C428.094,324.422,420.554,316.866,411.245,316.866z" data-original="#FFBD49" class="active-path" data-old_color="#D18D17"/>
	<path style="fill:#FFE21F" d="M112.516,316.866H82.773c-9.309,0-16.865,7.556-16.865,16.865c0,9.309,7.54,16.849,16.865,16.849   h29.743c9.309,0,16.849-7.54,16.849-16.849C129.381,324.422,121.825,316.866,112.516,316.866z" data-original="#FFBD49" class="active-path" data-old_color="#D18D17"/>
</g><path style="fill:#454545" d="M366.483,13.545H121.266c-16.508,0-29.882,13.374-29.882,29.882s13.374,29.898,29.882,29.898h245.217  c16.508,0,29.882-13.374,29.882-29.898C396.366,26.934,382.992,13.545,366.483,13.545z" data-original="#454545" class=""/></g> </svg>
