<?xml version="1.0"?>
<svg xmlns="http://www.w3.org/2000/svg" xmlns:xlink="http://www.w3.org/1999/xlink" version="1.1" id="Capa_1" x="0px" y="0px" viewBox="0 0 466.415 466.415" style="enable-background:new 0 0 466.415 466.415;" xml:space="preserve" width="512px" height="512px"><g><g>
	<g>
		<path d="M464.8,309.008c-3.1-4.6-9.2-5.8-13.8-2.7l-74.6,48.9h-98.2v-41h101.2c2.1,0,4.2-0.8,5.8-2l77-55.6    c4.5-3.2,5.5-9.5,2.2-13.9c-3.2-4.5-9.5-5.5-13.9-2.2l-74.3,53.7h-98v-42h101.2c2.2,0.1,4.4-0.6,6.2-1.9l77-60.7    c4.3-3.5,5-9.8,1.6-14.1s-9.6-5-14-1.7l-74.3,58.4h-97.7v-40h101.2c2.5-0.1,5-1.1,6.8-2.8l77-71.4c3-2.9,4-7.3,2.5-11.2    c-1.5-3.9-5.2-6.5-9.3-6.6H361c-0.1,0-0.3-1.8-0.6-2.6c-1.5-3.8-5.2-6.4-9.3-6.4h-153c-2.5,0-5,1-6.8,2.7l-6.7,6.3H87    c-2.5,0.1-5,1.1-6.8,2.9l-77,71.3c-3,2.9-4,7.3-2.5,11.2c1.5,3.9,5.2,6.5,9.3,6.6h95.2v40H10c-5.5,0-10,4.5-10,10s4.5,10,10,10    h95.2v42H10c-5.5,0-10,4.5-10,10s4.5,10,10,10h95.2v41H10c-5.5,0-10,4.5-10,10s4.5,10,10,10h369.4c2-0.1,3.9-0.7,5.5-1.9l77-50.4    C466.5,319.908,467.8,313.607,464.8,309.008z M345.5,120.608c0.1,0,0.2-0.4,0.4-0.4h85l-55.4,52h-85.1L345.5,120.608z     M108,172.208H35.5l55.4-52h72.2l-54.6,51.2C108.3,171.507,108.2,171.208,108,172.208z M220.3,231.307h13.5c5.5,0,10,4.5,10,10    s-4.5,10-10,10h-13.5c-2,7.7-6,14.8-11.6,20.6c-7.6,7.5-17.7,12-28.3,12.5l37.9,35.8l0.1,0.1c4,3.8,4.1,10.1,0.3,14.1    c-3.8,4-10.1,4.1-14.1,0.3l-56.1-53.1c-1.9-1.9-3.1-4.5-3.1-7.2c-0.1-5.6,4.4-10.1,10-10.2h22.5c6.3,0.1,12.3-2.2,16.8-6.6    c1.8-1.9,3.4-4.1,4.7-6.4h-43.9c-5.5,0-10-4.5-10-10s4.5-10,10-10h43.9c-3.8-9-11.9-14-21.4-14h-22.5c-5.5,0-10-4.5-10-10    s4.5-10,10-10h78.4c5.5,0,10,4.5,10,10s-4.5,10-10.1,10.1h-19.3C217.2,221.608,219.2,226.307,220.3,231.307z" data-original="#000000" class="active-path" data-old_color="#000000" fill="#FFFFFF"/>
	</g>
</g></g> </svg>
