<?xml version="1.0"?>
<svg xmlns="http://www.w3.org/2000/svg" height="512px" viewBox="0 0 58 57" width="512px" class=""><g><g id="Page-1" fill="none" fill-rule="evenodd"><g id="017---Dashboard" fill="rgb(0,0,0)" fill-rule="nonzero" transform="translate(-1)"><path id="Shape" d="m2.0166 27.0107 9.0117-.0107c.2327599-4.3404843 1.9485969-8.469493 4.8606-11.6966l-6.3821-6.3824c-4.60135613 4.926224-7.26226341 11.3526231-7.4902 18.0897z" data-original="#000000" class="active-path" data-old_color="#000000" fill="#FFFFFF"/><circle id="Oval" cx="30" cy="28" r="1" data-original="#000000" class="active-path" data-old_color="#000000" fill="#FFFFFF"/><path id="Shape" d="m24 28c0 3.3137085 2.6862915 6 6 6s6-2.6862915 6-6-2.6862915-6-6-6c-3.3122007.0036374-5.9963626 2.6877993-6 6zm9 0c0 1.6568542-1.3431458 3-3 3s-3-1.3431458-3-3 1.3431458-3 3-3c1.6561003.0018187 2.9981813 1.3438997 3 3z" data-original="#000000" class="active-path" data-old_color="#000000" fill="#FFFFFF"/><path id="Shape" d="m29 9.0488v-9.0244c-6.7342754.21928481-13.1593027 2.87874892-18.0785 7.4831l6.3836 6.3839c3.2238519-2.9135343 7.3550619-4.62417719 11.6949-4.8426z" data-original="#000000" class="active-path" data-old_color="#000000" fill="#FFFFFF"/><path id="Shape" d="m31 .0244v9.0074c1.0211674.05289007 2.0362732.18948169 3.0351.4084l2.4971-4.81c.4634615-.89725865 1.5233044-1.30798284 2.4703657-.9573485.9470614.35063435 1.4839121 1.35250885 1.2513343 2.3352485l-1.2369 5.2845c1.3268052.7145422 2.5635572 1.5849349 3.684 2.5927l6.3775-6.3778c-4.9191973-4.60435108-11.3442246-7.26381519-18.0785-7.4831z" data-original="#000000" class="active-path" data-old_color="#000000" fill="#FFFFFF"/><path id="Shape" d="m57.9775 27c-.2251731-6.7333805-2.8842855-13.1567056-7.4843-18.079l-6.3821 6.3825c2.907459 3.2202562 4.6236132 7.3395911 4.8625 11.6716z" data-original="#000000" class="active-path" data-old_color="#000000" fill="#FFFFFF"/><path id="Shape" d="m30.7864 20.04c1.367081.1351212 2.6757669.6224114 3.7983 1.4143l3.7219-15.902z" data-original="#000000" class="active-path" data-old_color="#000000" fill="#FFFFFF"/><path id="Shape" d="m37.6281 48.3292c.3366873-.3404111.4581165-.8387952.3157471-1.2959265-.1423693-.4571312-.5253112-.7984335-.9957471-.8874735l-3.4023-.5158c-.4053768-.0647869-.7518307-.3272805-.9239-.7l-1.5219-3.2164c-.1939093-.4340662-.6248904-.7135657-1.1003-.7135657s-.9063907.2794995-1.1003.7135657l-1.5213 3.2164c-.1720693.3727195-.5185232.6352131-.9239.7l-3.4023.5158c-.4704359.08904-.8533778.4303423-.9957471.8874735-.1423694.4571313-.0209402.9555154.3157471 1.2959265l2.4619 2.5034c.2910722.3001239.4220828.7207759.3529 1.1331l-.5812 3.535c-.0952983.4668613.0856407.9470001.4653519 1.2348553s.8908752.3323927 1.3146481.1145447l3.0431-1.669c.3554137-.1960915.7865863-.1960915 1.142 0l3.0431 1.669c.4237729.217848.9349369.1733105 1.3146481-.1145447s.5606502-.767994.4653519-1.2348553l-.5812-3.535c-.0691828-.4123241.0618278-.8329761.3529-1.1331z" data-original="#000000" class="active-path" data-old_color="#000000" fill="#FFFFFF"/><path id="Shape" d="m4.1867 51.9657-.5812 3.535c-.0952983.4668613.08564074.9470001.46535193 1.2348553s.89087518.3323927 1.31464807.1145447l3.0431-1.669c.35541369-.1960915.78658631-.1960915 1.142 0l3.0431 1.669c.4237729.217848.9349369.1733105 1.3146481-.1145447s.5606502-.767994.4653519-1.2348553l-.5812-3.535c-.0691828-.4123241.0618278-.8329761.3529-1.1331l2.4619-2.5034c.3366873-.3404111.4581165-.8387952.3157471-1.2959265-.1423693-.4571312-.5253112-.7984335-.9957471-.8874735l-3.4015-.5158c-.4053768-.0647869-.7518307-.3272805-.9239-.7l-1.5219-3.2164c-.19390932-.4340662-.62489035-.7135657-1.1003-.7135657s-.90639068.2794995-1.1003.7135657l-1.5213 3.2164c-.17206926.3727195-.51852324.6352131-.9239.7l-3.4023.5158c-.47043586.08904-.85337779.4303423-.99574714.8874735-.14236936.4571313-.02094012.9555154.31574714 1.2959265l2.4619 2.5034c.2910722.3001239.42208277.7207759.3529 1.1331z" data-original="#000000" class="active-path" data-old_color="#000000" fill="#FFFFFF"/><path id="Shape" d="m57.9481 46.1458-3.4023-.5158c-.4053768-.0647869-.7518307-.3272805-.9239-.7l-1.5219-3.2164c-.1939093-.4340662-.6248904-.7135657-1.1003-.7135657s-.9063907.2794995-1.1003.7135657l-1.5213 3.2164c-.1720693.3727195-.5185232.6352131-.9239.7l-3.4023.5158c-.4704359.08904-.8533778.4303423-.9957471.8874735-.1423694.4571313-.0209402.9555154.3157471 1.2959265l2.4619 2.5034c.2910722.3001239.4220828.7207759.3529 1.1331l-.5812 3.535c-.0952983.4668613.0856407.9470001.4653519 1.2348553s.8908752.3323927 1.3146481.1145447l3.0431-1.669c.3554137-.1960915.7865863-.1960915 1.142 0l3.0431 1.669c.4237729.217848.9349369.1733105 1.3146481-.1145447s.5606502-.767994.4653519-1.2348553l-.5812-3.535c-.0691828-.4123241.0618278-.8329761.3529-1.1331l2.4619-2.5034c.3366706-.3402998.4581917-.838549.316002-1.2956411-.1421896-.457092-.5249026-.7984868-.995202-.8877589z" data-original="#000000" class="active-path" data-old_color="#000000" fill="#FFFFFF"/></g></g></g> </svg>
