<?xml version="1.0"?>
<svg xmlns="http://www.w3.org/2000/svg" xmlns:xlink="http://www.w3.org/1999/xlink" version="1.1" id="Capa_1" x="0px" y="0px" viewBox="0 0 468.293 468.293" style="enable-background:new 0 0 468.293 468.293;" xml:space="preserve" width="512px" height="512px" class=""><g transform="matrix(0.826169 0 0 0.826169 40.702 40.702)"><path style="fill:#2E2C33" d="M0,277.003c0,13.178,10.683,23.861,23.861,23.861h123.263c13.179,0,23.861-10.683,23.861-23.861  v-23.861H0V277.003z" data-original="#E1E6E9" class="" data-old_color="#2e2c33"/><rect y="41.572" style="fill:#ED174C" width="170.983" height="211.568" data-original="#2D93BA" class="" data-old_color="#ed174c"/><path style="fill:#2E2C33" d="M170.985,29.643c0-13.178-10.683-23.861-23.861-23.861H23.861C10.683,5.782,0,16.465,0,29.643v11.931  h170.985V29.643z" data-original="#E1E6E9" class="" data-old_color="#2e2c33"/><path style="fill:#ED174C" d="M101.496,284.303H69.489c-4.032,0-7.3-3.268-7.3-7.3v0c0-4.032,3.268-7.3,7.3-7.3h32.007  c4.032,0,7.3,3.268,7.3,7.3v0C108.796,281.035,105.528,284.303,101.496,284.303z" data-original="#1C75A1" class="" data-old_color="#ed174c"/><path style="fill:#ED174C" d="M335.157,187.099l-119.388,98.325c-6.081,5.008-2.54,14.878,5.338,14.878l238.772,0  c7.877,0,11.419-9.87,5.338-14.878l-119.384-98.325C342.733,184.545,338.258,184.545,335.157,187.099z" data-original="#F6C358" class="" data-old_color="#ed174c"/><circle style="fill:#ED174C" cx="340.48" cy="254.689" r="31.163" data-original="#D5D6DB" class="" data-old_color="#ed174c"/><path style="fill:#ED174C" d="M340.495,273.347c-10.299,0-18.677-8.378-18.677-18.674s8.378-18.674,18.677-18.674  c10.293,0,18.671,8.378,18.671,18.674S350.788,273.347,340.495,273.347z" data-original="#EBF0F3" class="" data-old_color="#ed174c"/><g>
	<rect x="255.5" y="300.3" style="fill:#ED174C" width="23.883" height="102.132" data-original="#DC8744" class="" data-old_color="#ed174c"/>
	<rect x="304.203" y="300.3" style="fill:#ED174C" width="23.883" height="102.132" data-original="#DC8744" class="" data-old_color="#ed174c"/>
	<rect x="352.905" y="300.3" style="fill:#ED174C" width="23.883" height="102.132" data-original="#DC8744" class="" data-old_color="#ed174c"/>
	<rect x="401.614" y="300.3" style="fill:#ED174C" width="23.883" height="102.132" data-original="#DC8744" class="" data-old_color="#ed174c"/>
</g><path style="fill:#ED174C" d="M468.291,451.812H212.695v-12.202c0-6.897,5.591-12.488,12.488-12.488h230.621  c6.897,0,12.488,5.591,12.488,12.488V451.812z" data-original="#F6C358" class="" data-old_color="#ed174c"/><g>
	<path style="fill:#ED174C" d="M452.408,427.123H228.579v-12.202c0-6.897,5.591-12.488,12.488-12.488H439.92   c6.897,0,12.488,5.591,12.488,12.488V427.123z" data-original="#FCD462" class="" data-old_color="#ed174c"/>
	<circle style="fill:#ED174C" cx="85.492" cy="147.356" r="56.382" data-original="#FCD462" class="" data-old_color="#ed174c"/>
</g><circle style="fill:#ED174C" cx="85.492" cy="147.356" r="44.825" data-original="#F6C358" class="" data-old_color="#ed174c"/><path style="fill:#ED174C" d="M83.693,181.311v-5.98c-7.486-0.763-14.206-3.74-20.152-8.926l5.98-7.126  c4.586,3.986,9.306,6.36,14.173,7.126v-15.893c-6.173-1.473-10.693-3.413-13.559-5.816c-2.867-2.403-4.3-5.966-4.3-10.689  s1.647-8.586,4.953-11.593c3.307-3.003,7.606-4.64,12.906-4.913v-4.096h5.24v4.176c6.006,0.44,11.686,2.487,17.039,6.146  l-5.326,7.536c-3.606-2.567-7.506-4.15-11.713-4.753v15.399h0.247c6.28,1.477,10.893,3.47,13.839,5.98  c2.953,2.513,4.426,6.16,4.426,10.936c0,4.78-1.693,8.673-5.08,11.673c-3.387,3.007-7.86,4.643-13.433,4.916v5.896H83.693z   M77.913,128.437c-1.393,1.227-2.087,2.757-2.087,4.586c0,1.83,0.547,3.277,1.64,4.34c1.087,1.067,3.167,2.09,6.226,3.073v-14.173  C81.233,126.484,79.306,127.207,77.913,128.437z M95.159,164.355c1.527-1.253,2.293-2.837,2.293-4.75c0-1.91-0.6-3.427-1.8-4.546  c-1.207-1.12-3.447-2.17-6.72-3.153v14.743C91.552,166.379,93.626,165.612,95.159,164.355z" data-original="#FCD462" class="" data-old_color="#ed174c"/><g>
	<path style="fill:#2E2C33" d="M321.758,47.581h-63.16l7.276-7.277c3.659-3.659,3.659-9.588,0-13.244   c-3.659-3.659-9.585-3.659-13.244,0l-23.256,23.259c-0.87,0.87-1.564,1.913-2.041,3.07c-0.018,0.046-0.024,0.095-0.043,0.141   c-0.417,1.061-0.665,2.208-0.665,3.417c0,1.209,0.248,2.356,0.665,3.417c0.019,0.047,0.025,0.095,0.043,0.141   c0.477,1.157,1.171,2.2,2.041,3.07l23.256,23.259c1.829,1.829,4.226,2.744,6.622,2.744s4.793-0.915,6.622-2.744   c3.659-3.655,3.659-9.585,0-13.244l-7.276-7.277h63.16c5.165,0,9.366,4.201,9.366,9.366v59.427c0,5.174,4.195,9.366,9.366,9.366   c5.171,0,9.366-4.192,9.366-9.366V75.679C349.855,60.185,337.251,47.581,321.758,47.581z" data-original="#64798A" class="active-path" data-old_color="#2e2c33"/>
	<path style="fill:#2E2C33" d="M105.549,439.246h44.428l-7.276,7.277c-3.659,3.659-3.659,9.588,0,13.244   c3.659,3.659,9.585,3.659,13.244,0l23.256-23.259c0.87-0.87,1.564-1.913,2.041-3.07c0.018-0.047,0.024-0.095,0.043-0.141   c0.417-1.061,0.665-2.208,0.665-3.417s-0.248-2.356-0.665-3.417c-0.019-0.047-0.025-0.095-0.043-0.141   c-0.477-1.157-1.171-2.2-2.041-3.07l-23.256-23.259c-1.829-1.829-4.226-2.744-6.622-2.744c-2.396,0-4.793,0.915-6.622,2.744   c-3.659,3.655-3.659,9.585,0,13.244l7.276,7.277h-44.428c-5.165,0-9.366-4.201-9.366-9.366v-59.427   c0-5.174-4.195-9.366-9.366-9.366s-9.366,4.192-9.366,9.366v59.427C77.451,426.642,90.055,439.246,105.549,439.246z" data-original="#64798A" class="active-path" data-old_color="#2e2c33"/>
</g></g> </svg>
