<?xml version="1.0"?>
<svg xmlns="http://www.w3.org/2000/svg" xmlns:xlink="http://www.w3.org/1999/xlink" version="1.1" id="Capa_1" x="0px" y="0px" viewBox="0 0 512 512" style="enable-background:new 0 0 512 512;" xml:space="preserve" width="512px" height="512px" class="hovered-paths"><g><g>
	<g>
		<g>
			<path d="M434,331H78c-43.01,0-78,34.99-78,78s34.99,78,78,78h356c43.01,0,78-34.99,78-78S477.01,331,434,331z M434,447H78     c-20.953,0-38-17.047-38-38s17.047-38,38-38h356c20.953,0,38,17.047,38,38S454.953,447,434,447z" data-original="#000000" class="hovered-path active-path" data-old_color="#000000" fill="#fff"/>
			<path d="M241.857,295.143c7.717,7.717,20.444,7.841,28.285,0l80-80c7.811-7.81,7.81-20.474,0-28.285     c-7.81-7.811-20.474-7.811-28.285,0L276,232.716V45c0-11.046-8.954-20-20-20s-20,8.954-20,20v187.716l-45.858-45.858     c-7.81-7.811-20.474-7.81-28.285,0c-7.811,7.81-7.811,20.474,0,28.285L241.857,295.143z" data-original="#000000" class="hovered-path active-path" data-old_color="#000000" fill="#fff"/>
		</g>
	</g>
</g></g> </svg>
