<?xml version="1.0"?>
<svg xmlns="http://www.w3.org/2000/svg" xmlns:xlink="http://www.w3.org/1999/xlink" version="1.1" id="Layer_1" x="0px" y="0px" viewBox="0 0 512 512" style="enable-background:new 0 0 512 512;" xml:space="preserve" width="512px" height="512px" class=""><g><g>
	<path style="fill:#DBFF2B" d="M256,0L128,256l128,256c141.385,0,256-114.615,256-256S397.385,0,256,0z" data-original="#FF2B59" class="" data-old_color="#FF2B59"/>
	<path style="fill:#EBCA15" d="M0,256c0,141.385,114.615,256,256,256V0C114.615,0,0,114.615,0,256z" data-original="#FF4E51" class="active-path" data-old_color="#FF4E51"/>
	<path style="fill:#DAE0E7;" d="M256,60l-98,196l98,196c108.248,0,196-87.752,196-196S364.248,60,256,60z" data-original="#DAE0E7" class=""/>
	<path style="fill:#FFFFFF;" d="M60,256c0,108.248,87.752,196,196,196V60C147.752,60,60,147.752,60,256z" data-original="#FFFFFF" class=""/>
	<polygon style="fill:#233952;" points="271,392 256,392 246,407 256,422 271,422  " data-original="#233952" class=""/>
	<rect x="241" y="392" style="fill:#3D5168;" width="15" height="30" data-original="#3D5168" class=""/>
	
		<rect x="316.5" y="371.77" transform="matrix(0.866 -0.5 0.5 0.866 -148.9723 217.5673)" style="fill:#233952;" width="30" height="30" data-original="#233952" class=""/>
	
		<rect x="371.77" y="316.5" transform="matrix(0.5 -0.866 0.866 0.5 -93.7025 500.7025)" style="fill:#233952;" width="30" height="30" data-original="#233952" class=""/>
	<rect x="241" y="90" style="fill:#233952;" width="15" height="181" data-original="#233952" class=""/>
	<polygon style="fill:#0A0A0A" points="271,241 271,90 256,90 256,271 422,271 422,241  " data-original="#09213D" class="" data-old_color="#09213D"/>
	
		<rect x="165.5" y="110.23" transform="matrix(-0.866 0.5 -0.5 -0.866 399.4327 143.4327)" style="fill:#3D5168;" width="30" height="30" data-original="#3D5168" class=""/>
	
		<rect x="110.23" y="165.5" transform="matrix(-0.5 0.866 -0.866 -0.5 344.1628 162.2975)" style="fill:#3D5168;" width="30" height="30" data-original="#3D5168" class=""/>
	<rect x="90" y="241" style="fill:#3D5168;" width="30" height="30" data-original="#3D5168" class=""/>
	
		<rect x="110.23" y="316.5" transform="matrix(0.5 0.866 -0.866 0.5 349.7025 57.2975)" style="fill:#3D5168;" width="30" height="30" data-original="#3D5168" class=""/>
	
		<rect x="165.5" y="371.77" transform="matrix(0.866 0.5 -0.5 0.866 217.5673 -38.4327)" style="fill:#3D5168;" width="30" height="30" data-original="#3D5168" class=""/>
</g></g> </svg>
