<svg height="464pt" viewBox="0 0 464 464" width="464pt" xmlns="http://www.w3.org/2000/svg"><path d="m64 32c0 17.671875-14.328125 32-32 32h320c17.671875 0 32-14.328125 32-32s-14.328125-32-32-32h-320c17.671875 0 32 14.328125 32 32zm0 0" fill="#254b6f"/><path d="m32 64h320v400h-320zm0 0" fill="#efeadd"/><path d="m432 48c-17.671875 0-32 14.328125-32 32v32h64v-32c0-17.671875-14.328125-32-32-32zm0 0" fill="#efeadd"/><path d="m400 144h64v-32h-64zm0 0" fill="#808285"/><path d="m432 384v-240h-32v248l16-24zm0 0" fill="#ff5023"/><path d="m432 384 16-16 16 24v-248h-32zm0 0" fill="#f2b134"/><path d="m432 384-16-16-16 24 32 64 32-64-16-24zm0 0" fill="#808285"/><path d="m32 0c-17.671875 0-32 14.328125-32 32v392h32v-360c17.671875 0 32-14.328125 32-32s-14.328125-32-32-32zm0 0" fill="#1e3c5a"/><path d="m32 264v200h184c-101.703125 0-184-89.457031-184-200zm0 0" fill="#d7d3c7"/><g fill="#f26158"><path d="m72 136h240v16h-240zm0 0"/><path d="m72 200h240v16h-240zm0 0"/><path d="m72 256h240v16h-240zm0 0"/><path d="m72 320h240v16h-240zm0 0"/><path d="m72 376h144v16h-144zm0 0"/><path d="m264 376h16v16h-16zm0 0"/><path d="m232 376h16v16h-16zm0 0"/><path d="m296 376h16v16h-16zm0 0"/></g><path d="m442.6875 434.617188c-6.699219-3.488282-14.675781-3.488282-21.375 0l10.6875 21.382812zm0 0" fill="#58595b"/></svg>