<?xml version="1.0"?>
<svg xmlns="http://www.w3.org/2000/svg" id="Layer_1" enable-background="new 0 0 512 512" viewBox="0 0 512 512" width="512px" height="512px"><g><g><g><g><path d="m425.28 316.885-32.021-8-1.344-5.355c8.32-9.173 14.208-20.885 16.661-33.045 5.696-2.944 9.813-8.533 10.667-15.253l2.304-18.56c.704-5.632-1.024-11.307-4.757-15.573-1.152-1.323-2.453-2.453-3.883-3.435l.533-11.328 1.941-1.941c5.504-5.845 12.928-18.325 1.173-36.331-5.589-8.555-17.109-18.752-40.192-18.752-6.784 0-22.123 0-37.013 9.344-43.904 1.536-49.067 25.195-49.067 43.072 0 3.52.619 10.112 1.237 15.616-1.579 1.003-3.051 2.24-4.288 3.669-3.797 4.309-5.547 10.005-4.821 15.659l2.304 18.56c.875 6.955 5.291 12.715 11.797 15.552 2.389 11.627 7.979 22.891 15.765 31.829l-1.557 6.272-32.021 8c-25.899 6.485-44.032 29.696-44.032 56.448 0 5.888 4.779 10.667 10.667 10.667h213.333c5.888 0 10.667-4.8 10.667-10.688 0-26.731-18.133-49.941-44.053-56.427z" data-original="#000000" class="active-path" data-old_color="#000000" fill="#FFFFFF"/><path d="m480 106.667h-117.333v-10.667c0-29.397-23.915-53.333-53.333-53.333h-32v-10.667c0-17.643-14.357-32-32-32-29.334 0-58.475 4.288-87.083 12.864l-120.235 42.453c-22.741 6.827-38.016 27.35-38.016 51.094v301.333c0 22.101 13.909 42.176 33.941 49.685l102.357 46.4c14.443 5.44 29.589 8.171 45.035 8.171 17.643 0 32-14.357 32-32v-10.667h96c25.771 0 47.296-18.347 52.245-42.667h118.422c17.643 0 32-14.357 32-32v-256c0-17.642-14.357-31.999-32-31.999zm10.667 288c0 5.888-4.8 10.667-10.667 10.667h-234.667c-5.888 0-10.667 4.779-10.667 10.667v32h-21.333v-251.286c0-4.587 2.944-8.661 7.296-10.112l34.837-11.605c13.077-4.373 21.867-16.555 21.867-30.357v-80.641h21.333v53.333c0 5.888 4.779 10.667 10.667 10.667h170.667c5.867 0 10.667 4.779 10.667 10.667z" data-original="#000000" class="active-path" data-old_color="#000000" fill="#FFFFFF"/></g></g></g><g/><g/><g/><g/><g/><g/><g/><g/><g/><g/><g/><g/><g/><g/><g/></g> </svg>
