<svg id="Capa_1" enable-background="new 0 0 512 512" height="512" viewBox="0 0 512 512" width="512" xmlns="http://www.w3.org/2000/svg"><path d="m256 0-20.016 256 20.016 256c141.385 0 256-114.615 256-256s-114.615-256-256-256z" fill="#d10050"/><path d="m0 256c0 141.385 114.615 256 256 256v-512c-141.385 0-256 114.615-256 256z" fill="#ff415b"/><g fill="#e1ebf0"><path d="m412.57 144.533-111.467 111.467 111.467 111.467c22.464-31.463 35.695-69.948 35.695-111.467s-13.231-80.005-35.695-111.467z"/><path d="m256 63.734-20.016 57.938 20.016 89.225 111.467-111.467c-31.462-22.464-69.948-35.696-111.467-35.696z"/><path d="m256 448.266c41.519 0 80.005-13.231 111.467-35.695l-111.467-111.468-20.016 84.072z"/></g><path d="m210.897 256-111.467-111.467c-22.464 31.462-35.696 69.948-35.696 111.467s13.231 80.005 35.695 111.467z" fill="#fff5f5"/><path d="m144.533 99.429 111.467 111.468v-147.163c-41.519 0-80.005 13.232-111.467 35.695z" fill="#fff5f5"/><path d="m144.533 412.571c31.463 22.464 69.948 35.695 111.467 35.695v-147.163z" fill="#fff5f5"/></svg>