<?xml version="1.0"?>
<svg xmlns="http://www.w3.org/2000/svg" xmlns:xlink="http://www.w3.org/1999/xlink" version="1.1" id="Capa_1" x="0px" y="0px" viewBox="0 0 512 512" style="enable-background:new 0 0 512 512;" xml:space="preserve" width="512px" height="512px" class=""><g transform="matrix(0.860058 0 0 0.860058 31.5247 31.5247)"><circle style="fill:#F9F9F9" cx="251.901" cy="255.995" r="251.901" data-original="#7178C6" class="" data-old_color="#F8F8F9"/><path style="fill:#919496" d="M28.66,90.271v282.493c42.1,80.321,126.26,135.131,223.233,135.133h0.01  c15.289,0,30.257-1.365,44.795-3.975c8.85-5.123,14.808-14.686,14.808-25.647V59.699H59.232  C42.348,59.699,28.66,73.387,28.66,90.271z" data-original="#7AE0FC" class="" data-old_color="#999DA1"/><path style="fill:#86888A" d="M58.318,90.271c0-16.884,13.688-30.572,30.572-30.572H59.232c-16.884,0-30.572,13.688-30.572,30.572  v282.493c8.318,15.869,18.283,30.737,29.658,44.388V90.271z" data-original="#47C7F4" class="" data-old_color="#86888a"/><g>
	<path style="fill:#D3D1CF" d="M249.657,203.99H90.95c-4.437,0-8.035-3.596-8.035-8.035c0-4.438,3.597-8.035,8.035-8.035h158.707   c4.437,0,8.035,3.596,8.035,8.035C257.692,200.393,254.093,203.99,249.657,203.99z" data-original="#AEF0FF" class="" data-old_color="#918C86"/>
	<path style="fill:#D3D1CF" d="M249.657,236.718H90.95c-4.437,0-8.035-3.596-8.035-8.035c0-4.438,3.597-8.035,8.035-8.035h158.707   c4.437,0,8.035,3.596,8.035,8.035C257.692,233.121,254.093,236.718,249.657,236.718z" data-original="#AEF0FF" class="" data-old_color="#918C86"/>
	<path style="fill:#D3D1CF" d="M201.733,171.262h-62.858c-4.437,0-8.035-3.596-8.035-8.035c0-4.437,3.597-8.035,8.035-8.035h62.858   c4.437,0,8.035,3.596,8.035,8.035C209.768,167.664,206.17,171.262,201.733,171.262z" data-original="#AEF0FF" class="" data-old_color="#918C86"/>
	<path style="fill:#D3D1CF" d="M249.657,269.446H90.95c-4.437,0-8.035-3.596-8.035-8.035s3.597-8.035,8.035-8.035h158.707   c4.437,0,8.035,3.596,8.035,8.035S254.093,269.446,249.657,269.446z" data-original="#AEF0FF" class="" data-old_color="#918C86"/>
	<path style="fill:#D3D1CF" d="M249.657,302.175H90.95c-4.437,0-8.035-3.596-8.035-8.035c0-4.438,3.597-8.035,8.035-8.035h158.707   c4.437,0,8.035,3.596,8.035,8.035C257.692,298.578,254.093,302.175,249.657,302.175z" data-original="#AEF0FF" class="" data-old_color="#918C86"/>
	<path style="fill:#D3D1CF" d="M249.657,334.903H90.95c-4.437,0-8.035-3.596-8.035-8.035c0-4.438,3.597-8.035,8.035-8.035h158.707   c4.437,0,8.035,3.596,8.035,8.035C257.692,331.306,254.093,334.903,249.657,334.903z" data-original="#AEF0FF" class="" data-old_color="#918C86"/>
	<path style="fill:#D3D1CF" d="M249.657,367.632H90.95c-4.437,0-8.035-3.596-8.035-8.035c0-4.437,3.597-8.035,8.035-8.035h158.707   c4.437,0,8.035,3.596,8.035,8.035C257.691,364.034,254.093,367.632,249.657,367.632z" data-original="#AEF0FF" class="" data-old_color="#918C86"/>
	<path style="fill:#D3D1CF" d="M249.657,400.36H90.95c-4.437,0-8.035-3.596-8.035-8.035c0-4.438,3.597-8.035,8.035-8.035h158.707   c4.437,0,8.035,3.596,8.035,8.035C257.692,396.763,254.093,400.36,249.657,400.36z" data-original="#AEF0FF" class="" data-old_color="#918C86"/>
</g><g>
	<path style="fill:#6B7074" d="M415.985,218.663c-23.024,0-41.756,18.731-41.756,41.755v23.847h16.068v-23.847   c0-14.163,11.524-25.687,25.688-25.687c14.163,0,25.687,11.524,25.687,25.687c0,10.798-6.7,20.054-16.158,23.847h24.718   c4.725-6.766,7.509-14.985,7.509-23.847C457.74,237.394,439.009,218.663,415.985,218.663z" data-original="#EFEFEF" class="" data-old_color="#706C6C"/>
	<path style="fill:#6B7074" d="M320.668,218.663c-23.024,0-41.756,18.731-41.756,41.755c0,8.862,2.783,17.08,7.509,23.847h24.718   c-9.458-3.793-16.159-13.049-16.159-23.847c0-14.163,11.524-25.687,25.688-25.687c14.163,0,25.687,11.524,25.687,25.687v23.847   h16.068v-23.847C362.423,237.394,343.692,218.663,320.668,218.663z" data-original="#EFEFEF" class="" data-old_color="#706C6C"/>
</g><path style="fill:#86888A" d="M341.163,59.699H58.318c16.38,0,29.658,13.278,29.658,29.658v17.762c0,2.895,2.347,5.24,5.24,5.24  c4.6,0,286.754,0,274.137,0c1.915,0,3.468-1.553,3.468-3.468V89.358C370.821,72.978,357.543,59.699,341.163,59.699z" data-original="#47C7F4" class="" data-old_color="#86888a"/><path style="fill:#575E64" d="M117.841,106.642v-19.38c0-11.654-5.649-21.866-14.119-27.563H58.318  c16.38,0,29.658,13.278,29.658,29.658v17.762c0,2.895,2.347,5.24,5.24,5.24c0.893,0,12.245,0,29.864,0  C120.186,112.36,117.841,109.8,117.841,106.642z" data-original="#2BAFE2" class="" data-old_color="#656A6E"/><g>
	<path style="fill:#10AE93" d="M395.958,335.644v172.253h91.407c6.738,0,12.2-5.462,12.2-12.2V335.645H395.958V335.644z" data-original="#F8779C" class="" data-old_color="#08A187"/>
	<path style="fill:#10AE93" d="M340.694,335.644H237.087v160.052c0,6.738,5.462,12.2,12.2,12.2h91.407L340.694,335.644   L340.694,335.644z" data-original="#F8779C" class="" data-old_color="#08A187"/>
</g><g>
	<path style="fill:#08A187" d="M288.365,495.696V335.644h-51.279v160.052c0,6.738,5.462,12.201,12.2,12.201h51.279   C293.827,507.897,288.365,502.435,288.365,495.696z" data-original="#F75282" class="" data-old_color="#08a187"/>
	<path style="fill:#08A187" d="M340.694,283.262H227.451c-1.546,0-2.799,1.254-2.799,2.799v49.666c0,1.546,1.254,2.799,2.799,2.799   h113.243V283.262z" data-original="#F75282" class="" data-old_color="#08a187"/>
</g><path style="fill:#02997F" d="M285.21,335.727v-49.666c0-1.546,1.254-2.799,2.799-2.799h-60.558c-1.546,0-2.799,1.254-2.799,2.799  v49.666c0,1.546,1.254,2.799,2.799,2.799h60.557C286.462,338.526,285.21,337.272,285.21,335.727z" data-original="#E83D76" class="" data-old_color="#08A187"/><path style="fill:#08A187" d="M509.201,283.262H395.958v55.264h113.243c1.546,0,2.799-1.254,2.799-2.799v-49.666  C512,284.515,510.746,283.262,509.201,283.262z" data-original="#F75282" class="" data-old_color="#08a187"/><rect x="340.168" y="283.266" style="fill:#626971" width="56.73" height="224.641" data-original="#F9B978" class="" data-old_color="#5C6167"/><rect x="340.168" y="283.266" style="fill:#6B7074" width="28.365" height="224.641" data-original="#F5A854" class="active-path" data-old_color="#61686D"/></g> </svg>
