<?xml version="1.0"?>
<svg xmlns="http://www.w3.org/2000/svg" xmlns:xlink="http://www.w3.org/1999/xlink" version="1.1" id="Capa_1" x="0px" y="0px" viewBox="0 0 480 480" style="enable-background:new 0 0 480 480;" xml:space="preserve" width="512px" height="512px" class=""><g transform="matrix(0.834514 0 0 0.834514 39.7167 39.7167)"><path style="fill:#6F747A" d="M288,404h72v40h-72V404z" data-original="#F7931E" class="" data-old_color="#86888A"/><path style="fill:#2E2C33" d="M88,396h32v72H88V396z" data-original="#754C24" class="" data-old_color="#2e2c33"/><path style="fill:#1CAD94" d="M192,396h48v72h-48V396z" data-original="#29ABE2" class="" data-old_color="#ED174C"/><path style="fill:#058D76" d="M240,396h48v72h-48V396z" data-original="#80CAEC" class="" data-old_color="#ED174C"/><path style="fill:#2E2C33" d="M360,396h32v72h-32V396z" data-original="#754C24" class="" data-old_color="#2e2c33"/><path style="fill:#86888A" d="M120,340V52L248,4v336H120z" data-original="#FBB03B" class="" data-old_color="#86888a"/><path style="fill:#6F747A" d="M248,356V68l96,40v248H248z" data-original="#F7931E" class="" data-old_color="#86888A"/><path style="fill:#2E2C33" d="M248,292h96v72h-96V292z" data-original="#754C24" class="" data-old_color="#2e2c33"/><path style="fill:#37343D" d="M120,268h128v72H120V268z" data-original="#8C6239" class="" data-old_color="#2E2C33"/><g>
	<path style="fill:#F0EBE9" d="M208,228h16v16h-16V228z" data-original="#F15A24" class="" data-old_color="#F15A24"/>
	<path style="fill:#F0EBE9" d="M176,228h16v16h-16V228z" data-original="#F15A24" class="" data-old_color="#F15A24"/>
	<path style="fill:#F0EBE9" d="M304,252h16v16h-16V252z" data-original="#F15A24" class="" data-old_color="#F15A24"/>
	<path style="fill:#F0EBE9" d="M272,252h16v16h-16V252z" data-original="#F15A24" class="" data-old_color="#F15A24"/>
	<path style="fill:#F0EBE9" d="M304,220h16v16h-16V220z" data-original="#F15A24" class="" data-old_color="#F15A24"/>
	<path style="fill:#F0EBE9" d="M272,220h16v16h-16V220z" data-original="#F15A24" class="" data-old_color="#F15A24"/>
	<path style="fill:#F0EBE9" d="M304,188h16v16h-16V188z" data-original="#F15A24" class="" data-old_color="#F15A24"/>
	<path style="fill:#F0EBE9" d="M272,188h16v16h-16V188z" data-original="#F15A24" class="" data-old_color="#F15A24"/>
	<path style="fill:#F0EBE9" d="M304,156h16v16h-16V156z" data-original="#F15A24" class="" data-old_color="#F15A24"/>
	<path style="fill:#F0EBE9" d="M272,156h16v16h-16V156z" data-original="#F15A24" class="" data-old_color="#F15A24"/>
	<path style="fill:#F0EBE9" d="M304,124h16v16h-16V124z" data-original="#F15A24" class="" data-old_color="#F15A24"/>
	<path style="fill:#F0EBE9" d="M272,124h16v16h-16V124z" data-original="#F15A24" class="" data-old_color="#F15A24"/>
	<path style="fill:#F0EBE9" d="M144,228h16v16h-16V228z" data-original="#F15A24" class="" data-old_color="#F15A24"/>
	<path style="fill:#F0EBE9" d="M208,196h16v16h-16V196z" data-original="#F15A24" class="" data-old_color="#F15A24"/>
	<path style="fill:#F0EBE9" d="M176,196h16v16h-16V196z" data-original="#F15A24" class="" data-old_color="#F15A24"/>
	<path style="fill:#F0EBE9" d="M144,196h16v16h-16V196z" data-original="#F15A24" class="" data-old_color="#F15A24"/>
	<path style="fill:#F0EBE9" d="M208,164h16v16h-16V164z" data-original="#F15A24" class="" data-old_color="#F15A24"/>
	<path style="fill:#F0EBE9" d="M176,164h16v16h-16V164z" data-original="#F15A24" class="" data-old_color="#F15A24"/>
	<path style="fill:#F0EBE9" d="M144,164h16v16h-16V164z" data-original="#F15A24" class="" data-old_color="#F15A24"/>
	<path style="fill:#F0EBE9" d="M208,132h16v16h-16V132z" data-original="#F15A24" class="" data-old_color="#F15A24"/>
	<path style="fill:#F0EBE9" d="M176,132h16v16h-16V132z" data-original="#F15A24" class="" data-old_color="#F15A24"/>
	<path style="fill:#F0EBE9" d="M144,132h16v16h-16V132z" data-original="#F15A24" class="" data-old_color="#F15A24"/>
	<path style="fill:#F0EBE9" d="M208,100h16v16h-16V100z" data-original="#F15A24" class="" data-old_color="#F15A24"/>
	<path style="fill:#F0EBE9" d="M176,100h16v16h-16V100z" data-original="#F15A24" class="" data-old_color="#F15A24"/>
	<path style="fill:#F0EBE9" d="M144,100h16v16h-16V100z" data-original="#F15A24" class="" data-old_color="#F15A24"/>
	<path style="fill:#F0EBE9" d="M208,68h16v16h-16V68z" data-original="#F15A24" class="" data-old_color="#F15A24"/>
	<path style="fill:#F0EBE9" d="M176,68h16v16h-16V68z" data-original="#F15A24" class="" data-old_color="#F15A24"/>
	<path style="fill:#F0EBE9" d="M144,68h16v16h-16V68z" data-original="#F15A24" class="" data-old_color="#F15A24"/>
</g><path style="fill:#86888A" d="M373.688,332c-16.008,10.336-34.634,15.886-53.688,16c-56,0-64-48-136-48S72,356,72,356v48h336v-56  L373.688,332z" data-original="#FBB03B" class="" data-old_color="#86888a"/><path style="fill:#09B822" d="M72,292c0,17.673-14.327,32-32,32S8,309.673,8,292c0-56,14.328-88,32-88S72,236,72,292z" data-original="#39B54A" class="active-path" data-old_color="#23B337"/><path style="fill:#37343D" d="M32,292h16v176H32V292z" data-original="#8C6239" class="" data-old_color="#2E2C33"/><path style="fill:#09B822" d="M472,292c0,17.673-14.327,32-32,32s-32-14.327-32-32c0-56,14.328-88,32-88S472,236,472,292z" data-original="#39B54A" class="active-path" data-old_color="#23B337"/><g>
	<path style="fill:#37343D" d="M432,292h16v176h-16V292z" data-original="#8C6239" class="" data-old_color="#2E2C33"/>
	<path style="fill:#37343D" d="M0,460h480v16H0V460z" data-original="#8C6239" class="" data-old_color="#2E2C33"/>
</g><g>
	<path style="fill:#F0EBE9" d="M104,364h168v16H104V364z" data-original="#F15A24" class="" data-old_color="#F15A24"/>
	<path style="fill:#F0EBE9" d="M368,364h16v16h-16V364z" data-original="#F15A24" class="" data-old_color="#F15A24"/>
	<path style="fill:#F0EBE9" d="M136,332h16v16h-16V332z" data-original="#F15A24" class="" data-old_color="#F15A24"/>
	<path style="fill:#F0EBE9" d="M168,332h64v16h-64V332z" data-original="#F15A24" class="" data-old_color="#F15A24"/>
</g><path style="fill:#86888A" d="M288,436h72v24h-72V436z" data-original="#FBB03B" class="" data-old_color="#86888a"/><path style="fill:#6F747A" d="M120,404h72v40h-72V404z" data-original="#F7931E" class="" data-old_color="#86888A"/><path style="fill:#86888A" d="M120,436h72v24h-72V436z" data-original="#FBB03B" class="" data-old_color="#86888a"/></g> </svg>
