<?xml version="1.0"?>
<svg xmlns="http://www.w3.org/2000/svg" height="512px" viewBox="0 0 60 60" width="512px" class=""><g><g id="024---Utility-Rate" transform="translate(0 -1)"><path id="Shape" d="m42.29 7.66c.3921222.39212214 1.0278778.39212212 1.42-.00000004.3921221-.39212215.3921221-1.02787778 0-1.41999996l-5-4.95c-.213167-.2229055-.5172662-.33497411-.8241036-.30370405s-.5820777.20237962-.7458964.46370405l-4.8 4.79c-.3921222.39212217-.3921222 1.02787783 0 1.42s1.0278778.39212217 1.42 0l3.07-3.08c-1.56 19.14-20.97 19.42-21.83 19.42-.5522847 0-1 .4477153-1 1s.4477153 1 1 1c.23 0 22.44-.26 23.92-21.72z" data-original="#000000" class="active-path" data-old_color="#000000" fill="#FFFFFF"/><path id="Shape" d="m28 46c0-7.1797017-5.8202983-13-13-13-7.17970175 0-13 5.8202983-13 13s5.82029825 13 13 13c3.4478144 0 6.7544152-1.3696389 9.1923882-3.8076118 2.4379729-2.437973 3.8076118-5.7445738 3.8076118-9.1923882zm-13 10c-4.418278 0-8-3.581722-8-8 0-4.12 6.5-11.79 7.24-12.65.1899882-.2221664.4676758-.3500769.76-.3500769s.5700118.1279105.76.3500769c.74.86 7.24 8.53 7.24 12.65 0 4.418278-3.581722 8-8 8z" data-original="#000000" class="active-path" data-old_color="#000000" fill="#FFFFFF"/><path id="Shape" d="m9 48c0 3.3137085 2.6862915 6 6 6s6-2.6862915 6-6c0-2.54-3.82-7.76-6-10.44-2.18 2.68-6 7.91-6 10.44zm5.89 3.45c-.2495756.490313-.8483464.6869243-1.34.44-1.4986211-.7314062-2.4770674-2.2240164-2.55-3.89 0-.5522847.4477153-1 1-1s1 .4477153 1 1c.0682216.9155476.6214886 1.724462 1.45 2.12.4845734.2493745.6802449.840836.44 1.33z" data-original="#000000" class="active-path" data-old_color="#000000" fill="#FFFFFF"/><path id="Shape" d="m31 36c-.5522847 0-1 .4477153-1 1v15h8v-15c0-.5522847-.4477153-1-1-1z" data-original="#000000" class="active-path" data-old_color="#000000" fill="#FFFFFF"/><path id="Shape" d="m48 30h-8v13h8z" data-original="#000000" class="active-path" data-old_color="#000000" fill="#FFFFFF"/><path id="Shape" d="m58 4c0-.55228475-.4477153-1-1-1h-6c-.5522847 0-1 .44771525-1 1v12h8z" data-original="#000000" class="active-path" data-old_color="#000000" fill="#FFFFFF"/><path id="Shape" d="m58 18h-8v18h8z" data-original="#000000" class="active-path" data-old_color="#000000" fill="#FFFFFF"/><path id="Shape" d="m48 20c0-.5522847-.4477153-1-1-1h-6c-.5522847 0-1 .4477153-1 1v8h8z" data-original="#000000" class="active-path" data-old_color="#000000" fill="#FFFFFF"/><path id="Shape" d="m59 59h-1v-21h-8v21h-2v-14h-8v14h-2v-5h-8v5h-29c-.55228475 0-1 .4477153-1 1s.44771525 1 1 1h58c.5522847 0 1-.4477153 1-1s-.4477153-1-1-1z" data-original="#000000" class="active-path" data-old_color="#000000" fill="#FFFFFF"/></g></g> </svg>
