<?xml version="1.0" encoding="iso-8859-1"?>
<!-- Generator: Adobe Illustrator 19.0.0, SVG Export Plug-In . SVG Version: 6.00 Build 0)  -->
<svg version="1.1" id="Capa_1" xmlns="http://www.w3.org/2000/svg" xmlns:xlink="http://www.w3.org/1999/xlink" x="0px" y="0px"
	 viewBox="0 0 512 512" style="enable-background:new 0 0 512 512;" xml:space="preserve">
<path style="fill:#EE6482;" d="M508,227.538H4c-2.209,0-4,1.791-4,4v104c0,2.209,1.791,4,4,4h504c2.209,0,4-1.791,4-4v-104
	C512,229.328,510.209,227.538,508,227.538z"/>
<path style="fill:#DE5762;" d="M70.572,227.538l0.784,5.453l-17.41,38.123c-5.188,11.364-3.255,24.806,4.926,34.246l27.443,31.671
	l0.361,2.508h338.648l0.36-2.508l27.443-31.671c8.181-9.44,10.114-22.882,4.925-34.249l-17.409-38.12l0.784-5.453H70.572z"/>
<path style="fill:#EE6482;" d="M436.222,281.08l-20.337-44.53l6.968-48.456c0.445-3.1-0.959-6.175-3.594-7.869l-41.184-26.466
	l-20.336-44.53c-1.302-2.849-4.146-4.677-7.277-4.677h-48.954l-41.183-26.467c-2.635-1.693-6.016-1.693-8.65,0l-41.183,26.467
	h-48.954c-3.132,0-5.976,1.828-7.277,4.677l-20.336,44.53l-41.184,26.466c-2.635,1.693-4.039,4.769-3.594,7.869l6.968,48.456
	l-20.337,44.53c-1.301,2.849-0.819,6.195,1.231,8.562l32.059,36.997l6.966,48.456c0.446,3.1,2.66,5.655,5.665,6.537l46.972,13.792
	l32.059,36.997c2.05,2.367,5.295,3.318,8.3,2.437L256,421.067l46.971,13.792c0.744,0.219,1.502,0.325,2.253,0.325
	c2.284,0,4.504-0.98,6.047-2.762l32.059-36.997l46.972-13.792c3.005-0.882,5.219-3.437,5.665-6.537l6.966-48.456l32.059-36.997
	C437.041,287.275,437.522,283.929,436.222,281.08z"/>
<path style="fill:#DE5762;" d="M256,131.538c-70.579,0-128,57.42-128,128s57.421,128,128,128s128-57.42,128-128
	S326.579,131.538,256,131.538z"/>
<path style="fill:#F1839B;" d="M256,155.538c-57.346,0-104,46.654-104,104s46.654,104,104,104s104-46.654,104-104
	S313.346,155.538,256,155.538z"/>
<g>
	<path style="fill:#FFFFFF;" d="M208,315.038c-6.558,0-9.924-8.183-5.304-12.803l96-96c2.93-2.929,7.678-2.929,10.607,0
		s2.929,7.678,0,10.606l-96,96C211.839,314.305,209.919,315.038,208,315.038z"/>
	<path style="fill:#FFFFFF;" d="M296,315.038c-12.958,0-23.5-10.542-23.5-23.5s10.542-23.5,23.5-23.5s23.5,10.542,23.5,23.5
		S308.958,315.038,296,315.038z M296,283.038c-4.687,0-8.5,3.813-8.5,8.5s3.813,8.5,8.5,8.5s8.5-3.813,8.5-8.5
		S300.687,283.038,296,283.038z"/>
	<path style="fill:#FFFFFF;" d="M216,251.038c-12.958,0-23.5-10.542-23.5-23.5s10.542-23.5,23.5-23.5s23.5,10.542,23.5,23.5
		S228.958,251.038,216,251.038z M216,219.038c-4.687,0-8.5,3.813-8.5,8.5s3.813,8.5,8.5,8.5s8.5-3.813,8.5-8.5
		S220.687,219.038,216,219.038z"/>
</g>
<g>
</g>
<g>
</g>
<g>
</g>
<g>
</g>
<g>
</g>
<g>
</g>
<g>
</g>
<g>
</g>
<g>
</g>
<g>
</g>
<g>
</g>
<g>
</g>
<g>
</g>
<g>
</g>
<g>
</g>
</svg>
