<?xml version="1.0" encoding="iso-8859-1"?>
<!-- Generator: Adobe Illustrator 19.0.0, SVG Export Plug-In . SVG Version: 6.00 Build 0)  -->
<svg version="1.1" id="Layer_1" xmlns="http://www.w3.org/2000/svg" xmlns:xlink="http://www.w3.org/1999/xlink" x="0px" y="0px"
	 viewBox="0 0 490.667 490.667" style="enable-background:new 0 0 490.667 490.667;" xml:space="preserve">
<g>
	<g>
		<g>
			<path d="M162.432,243.008c0.171,0.171,0.384,0.299,0.576,0.469c5.163,5.099,10.795,9.749,16.832,13.824
				c0.64,0.427,1.323,0.768,1.963,1.195c5.717,3.691,11.712,6.976,18.048,9.643c0.725,0.299,1.472,0.512,2.197,0.811
				c6.4,2.539,13.013,4.629,19.904,6.016c0.427,0.085,0.853,0.107,1.259,0.192c7.168,1.387,14.549,2.176,22.123,2.176
				s14.955-0.789,22.123-2.155c0.427-0.085,0.853-0.107,1.259-0.192c6.869-1.387,13.483-3.477,19.861-6.016
				c0.747-0.299,1.515-0.512,2.261-0.832c6.293-2.645,12.245-5.909,17.92-9.579c0.704-0.448,1.451-0.832,2.133-1.301
				c5.931-4.011,11.435-8.576,16.533-13.568c0.256-0.256,0.555-0.427,0.811-0.661c0.043-0.043,0.043-0.128,0.085-0.171
				c21.205-21.248,34.347-50.539,34.347-82.859c0-64.704-52.629-117.333-117.333-117.333S128,95.296,128,160
				c0,32.341,13.141,61.653,34.368,82.901C162.411,242.923,162.411,242.987,162.432,243.008z M245.333,64c52.928,0,96,43.072,96,96
				c0,20.843-6.848,40-18.176,55.744c-9.877-16.832-24.811-29.909-42.411-37.504c10.923-9.771,17.92-23.808,17.92-39.573
				c0-29.397-23.936-53.333-53.333-53.333S192,109.269,192,138.667c0,15.765,6.997,29.803,17.92,39.573
				c-17.621,7.595-32.533,20.672-42.411,37.525C156.181,200,149.333,180.843,149.333,160C149.333,107.072,192.405,64,245.333,64z"/>
			<path d="M394.667,298.667H96c-29.397,0-53.333,23.936-53.333,53.333v42.667C42.667,424.064,66.603,448,96,448h298.667
				C424.064,448,448,424.064,448,394.667V352C448,322.603,424.064,298.667,394.667,298.667z M146.219,402.197
				c-2.091,2.091-4.821,3.136-7.552,3.136c-2.731,0-5.461-1.045-7.552-3.115l-13.781-13.803l-13.781,13.781
				c-2.091,2.091-4.821,3.136-7.552,3.136s-5.461-1.045-7.552-3.115c-4.16-4.16-4.16-10.923,0-15.083l13.803-13.803l-13.781-13.781
				c-4.16-4.16-4.16-10.923,0-15.083c4.16-4.16,10.923-4.16,15.083,0l13.781,13.781l13.781-13.781c4.16-4.16,10.923-4.16,15.083,0
				c4.16,4.16,4.16,10.923,0,15.083l-13.781,13.781l13.803,13.781C150.379,391.275,150.379,398.037,146.219,402.197z
				 M231.552,402.197c-2.091,2.091-4.821,3.136-7.552,3.136c-2.731,0-5.461-1.045-7.552-3.115l-13.781-13.803l-13.781,13.781
				c-2.091,2.091-4.821,3.136-7.552,3.136s-5.461-1.045-7.552-3.115c-4.16-4.16-4.16-10.923,0-15.083l13.803-13.803l-13.781-13.781
				c-4.16-4.16-4.16-10.923,0-15.083c4.16-4.16,10.923-4.16,15.083,0l13.781,13.781l13.781-13.781c4.16-4.16,10.923-4.16,15.083,0
				c4.16,4.16,4.16,10.923,0,15.083l-13.781,13.781l13.803,13.781C235.712,391.275,235.712,398.037,231.552,402.197z
				 M316.885,402.197c-2.091,2.091-4.821,3.136-7.552,3.136s-5.461-1.045-7.552-3.115L288,388.416l-13.781,13.781
				c-2.091,2.091-4.821,3.136-7.552,3.136c-2.731,0-5.461-1.045-7.552-3.115c-4.16-4.16-4.16-10.923,0-15.083l13.803-13.803
				l-13.781-13.781c-4.16-4.16-4.16-10.923,0-15.083c4.16-4.16,10.923-4.16,15.083,0L288,358.251l13.781-13.781
				c4.16-4.16,10.923-4.16,15.083,0c4.16,4.16,4.16,10.923,0,15.083l-13.781,13.781l13.803,13.781
				C321.045,391.275,321.045,398.037,316.885,402.197z M402.219,402.197c-2.091,2.091-4.821,3.136-7.552,3.136
				c-2.731,0-5.461-1.045-7.552-3.115l-13.781-13.803l-13.781,13.781c-2.091,2.091-4.821,3.136-7.552,3.136
				s-5.461-1.045-7.552-3.115c-4.16-4.16-4.16-10.923,0-15.083l13.803-13.803l-13.781-13.781c-4.16-4.16-4.16-10.923,0-15.083
				c4.16-4.16,10.923-4.16,15.083,0l13.781,13.781l13.781-13.781c4.16-4.16,10.923-4.16,15.083,0c4.16,4.16,4.16,10.923,0,15.083
				l-13.781,13.781l13.803,13.781C406.379,391.275,406.379,398.037,402.219,402.197z"/>
			<path d="M437.333,0h-384C23.936,0,0,23.936,0,53.333v384c0,29.397,23.936,53.333,53.333,53.333h384
				c29.397,0,53.333-23.936,53.333-53.333v-384C490.667,23.936,466.731,0,437.333,0z M469.333,437.333c0,17.643-14.357,32-32,32
				h-384c-17.643,0-32-14.357-32-32v-384c0-17.643,14.357-32,32-32h384c17.643,0,32,14.357,32,32V437.333z"/>
		</g>
	</g>
</g>
<g>
</g>
<g>
</g>
<g>
</g>
<g>
</g>
<g>
</g>
<g>
</g>
<g>
</g>
<g>
</g>
<g>
</g>
<g>
</g>
<g>
</g>
<g>
</g>
<g>
</g>
<g>
</g>
<g>
</g>
</svg>
