<?xml version="1.0"?>
<svg xmlns="http://www.w3.org/2000/svg" height="512px" viewBox="0 -3 468.96459 468" width="512px" class=""><g transform="matrix(0.886385 0 0 0.886385 26.6407 26.2451)"><path d="m406.558594 158.066406c-2.695313.234375-5.390625.410156-8.082032.410156-11.226562-.042968-22.355468-2.101562-32.855468-6.074218-.4375.488281-.796875 1.035156-1.222656 1.503906-15.625 15.621094-40.953126 15.621094-56.570313-.003906-15.621094-15.621094-15.621094-40.949219.003906-56.570313 3.003907-2.542969 6.214844-4.835937 9.597657-6.855469 14.410156-7.792968 32.125-5.9375 44.609374 4.667969 12.480469 10.605469 17.175782 27.789063 11.816407 43.265625 9.648437 3.21875 19.835937 4.511719 29.984375 3.816406l-11.441406-66.359374c-.574219-3.320313-3.167969-5.925782-6.488282-6.511719l-65.015625-11.199219c2.382813-16.621094 9.972657-32.054688 21.671875-44.097656 3.078125-3.171875 3-8.242188-.175781-11.320313-3.175781-3.074219-8.242187-2.996093-11.320313.175781-13.945312 14.351563-23.019531 32.726563-25.945312 52.523438l-64.054688-11.050781c-2.554687-.402344-5.148437.4375-6.984374 2.257812l-231.734376 231.679688c-1.507812 1.5-2.351562 3.539062-2.351562 5.664062s.84375 4.164063 2.351562 5.664063l169.734376 169.734375c1.507812 1.511719 3.554687 2.355469 5.6875 2.347656 2.132812-.007813 4.175781-.867187 5.671874-2.386719l57.464844-57.457031c-.609375-4.003906-.929687-8.050781-.960937-12.101563.058593-48.578124 39.421875-87.945312 88-88 4.035156.03125 8.058593.351563 12.050781.949219l75.09375-75.085937c1.839844-1.828125 2.683594-4.433594 2.257812-6.992188zm-398.535156 125.945313 11.3125-11.3125 11.308593 11.3125-11.308593 11.3125zm22.621093 22.625 11.3125-11.3125 11.320313 11.3125-11.320313 11.320312zm22.625 22.632812 11.320313-11.3125 11.3125 11.320313-11.320313 11.308594zm22.632813 22.628907 11.3125-11.3125 11.3125 11.3125-11.3125 11.3125zm22.625 22.625 11.3125-11.3125 11.320312 11.3125-11.3125 11.3125zm33.941406 33.9375-11.308594-11.3125 11.308594-11.3125 11.3125 11.3125zm11.3125 11.320312 11.320312-11.3125 11.3125 11.3125-11.3125 11.308594zm33.945312 33.933594-11.3125-11.3125 11.3125-11.3125 11.3125 11.3125zm0 0" data-original="#000000" class="active-path" fill="#000000"/><path d="m343.382812 319.53125c-1.066406-.28125-1.695312-.382812-2.402343-.503906-4.292969-.820313-8.65625-1.234375-13.03125-1.238282-39.746094.042969-71.953125 32.253907-72 72 .003906 4.328126.410156 8.648438 1.21875 12.902344.058593.496094.15625.984375.292969 1.464844.128906.351562.234374.710938.3125 1.078125 7.667968 34.914063 39.8125 58.898437 75.460937 56.308594 35.652344-2.589844 63.992187-30.964844 66.539063-66.617188 2.542968-35.652343-21.476563-67.765625-56.398438-75.394531zm40.566407 70.257812c0 4.417969-3.582031 8-8 8h-40v40c0 4.417969-3.582031 8-8 8s-8-3.582031-8-8v-40h-40c-4.417969 0-8-3.582031-8-8 0-4.417968 3.582031-8 8-8h40v-40c0-4.417968 3.582031-8 8-8s8 3.582032 8 8v40h40c4.417969 0 8 3.582032 8 8zm0 0" data-original="#000000" class="active-path" fill="#000000"/><path d="m316.542969 111.835938c-6.710938 9.523437-5.613281 22.492187 2.605469 30.75 8.429687 8 21.300781 9.023437 30.890624 2.464843-13.820312-8.03125-25.347656-19.46875-33.488281-33.222656zm0 0" data-original="#000000" class="active-path" fill="#000000"/><path d="m353.085938 108.644531c-6.082032-6.21875-15.117188-8.539062-23.441407-6.015625 7.039063 12.222656 17.234375 22.335938 29.515625 29.277344 2.296875-8.28125-.019531-17.160156-6.074218-23.261719zm0 0" data-original="#000000" class="active-path" fill="#000000"/><path d="m466.621094 118.988281c-3.121094-3.125-8.1875-3.125-11.3125 0-11.144532 11.210938-25.394532 18.832031-40.910156 21.871094-3.367188.671875-6.773438 1.125-10.199219 1.359375l2.75 15.824219c22.542969-1.910157 43.683593-11.738281 59.671875-27.742188 3.125-3.125 3.125-8.1875 0-11.3125zm0 0" data-original="#000000" class="active-path" fill="#000000"/></g> </svg>
