<?xml version="1.0"?>
<svg xmlns="http://www.w3.org/2000/svg" id="Layer_3" enable-background="new 0 0 64 64" height="512px" viewBox="0 0 64 64" width="512px" class=""><g><g><path d="m16 57h8v2h-8z" data-original="#000000" class="active-path" data-old_color="#000000" fill="#FFFFFF"/><path d="m43 9c-1.37 0-2.707.14-4 .403v-3.403c0-2.757-2.243-5-5-5h-28c-2.757 0-5 2.243-5 5v52c0 2.757 2.243 5 5 5h28c2.757 0 5-2.243 5-5v-9.403c1.293.263 2.63.403 4 .403 11.028 0 20-8.972 20-20s-8.972-20-20-20zm0 38c-2.813 0-5.335-3.478-6.765-8.578 2.107.368 4.375.578 6.765.578s4.658-.21 6.765-.578c-1.43 5.1-3.952 8.578-6.765 8.578zm-17.25-12.888c1.942 1.661 4.812 2.998 8.287 3.851.853 3.475 2.19 6.344 3.851 8.287-5.819-1.728-10.41-6.319-12.138-12.138zm24.015-14.534c-2.107-.368-4.375-.578-6.765-.578s-4.658.21-6.765.578c1.43-5.099 3.952-8.578 6.765-8.578s5.335 3.479 6.765 8.578zm-11.877-7.828c-1.661 1.942-2.998 4.812-3.851 8.287-3.475.853-6.344 2.19-8.287 3.851 1.728-5.819 6.319-10.41 12.138-12.138zm-4.31 10.485c-.368 2.107-.578 4.375-.578 6.765s.21 4.658.578 6.765c-5.1-1.43-8.578-3.952-8.578-6.765s3.478-5.335 8.578-6.765zm-.578-10.529c-5.968 3.465-10 9.911-10 17.294s4.032 13.829 10 17.294v6.706h-26v-46h26zm10 25.294c-2.577 0-5.041-.261-7.283-.717-.456-2.242-.717-4.706-.717-7.283s.261-5.041.717-7.283c2.242-.456 4.706-.717 7.283-.717s5.041.261 7.283.717c.456 2.242.717 4.706.717 7.283s-.261 5.041-.717 7.283c-2.242.456-4.706.717-7.283.717zm9.422-14.765c5.099 1.43 8.578 3.952 8.578 6.765s-3.479 5.335-8.578 6.765c.368-2.107.578-4.375.578-6.765s-.21-4.658-.578-6.765zm7.828 1.653c-1.942-1.661-4.812-2.998-8.287-3.851-.853-3.475-2.19-6.344-3.851-8.287 5.819 1.728 10.41 6.319 12.138 12.138zm-23.25 34.112c0 1.654-1.346 3-3 3h-28c-1.654 0-3-1.346-3-3v-52c0-1.654 1.346-3 3-3h28c1.654 0 3 1.346 3 3v3.922c-.684.216-1.349.474-2 .759v-4.681c0-.552-.448-1-1-1h-28c-.552 0-1 .448-1 1v48c0 .552.448 1 1 1h28c.552 0 1-.448 1-1v-6.682c.651.285 1.316.543 2 .759zm11.112-11.75c1.661-1.942 2.998-4.812 3.851-8.287 3.475-.853 6.344-2.19 8.287-3.851-1.728 5.819-6.319 10.41-12.138 12.138z" data-original="#000000" class="active-path" data-old_color="#000000" fill="#FFFFFF"/></g></g> </svg>
