<svg height="448pt" viewBox="0 0 448 448" width="448pt" xmlns="http://www.w3.org/2000/svg"><path d="m316.199219 106.136719c-3.191407-.539063-5.75-2.949219-6.472657-6.105469-2.148437-9.410156-5.859374-18.394531-10.984374-26.574219-1.726563-2.75-1.617188-6.273437.273437-8.914062l16.375-22.886719-13.046875-13.046875-22.886719 16.375c-2.640625 1.890625-6.164062 2-8.914062.273437-8.171875-5.121093-17.144531-8.832031-26.542969-10.984374-3.15625-.722657-5.566406-3.28125-6.105469-6.472657l-4.671875-27.800781h-18.445312l-4.640625 27.800781c-.539063 3.191407-2.949219 5.75-6.105469 6.472657-9.410156 2.148437-18.394531 5.859374-26.574219 10.984374-2.75 1.726563-6.273437 1.617188-8.914062-.273437l-22.886719-16.375-13.046875 13.046875 16.375 22.886719c1.890625 2.640625 2 6.164062.273437 8.914062-5.121093 8.171875-8.832031 17.144531-10.984374 26.542969-.722657 3.15625-3.28125 5.566406-6.472657 6.105469l-27.800781 4.671875v17.222656h64c-4.417969 0-8-3.582031-8-8 0-35.347656 28.652344-64 64-64s64 28.652344 64 64c0 4.417969-3.582031 8-8 8h64v-17.222656zm0 0"/><path d="m272 120c0-26.507812-21.492188-48-48-48s-48 21.492188-48 48c0 4.417969-3.582031 8-8 8h32c-4.417969 0-8-3.582031-8-8 0-17.671875 14.328125-32 32-32s32 14.328125 32 32c0 4.417969-3.582031 8-8 8h32c-4.417969 0-8-3.582031-8-8zm0 0"/><path d="m240 120c0-8.835938-7.164062-16-16-16s-16 7.164062-16 16c0 4.417969-3.582031 8-8 8h48c-4.417969 0-8-3.582031-8-8zm0 0"/><path d="m254.9375 222.128906 95.535156 55.625 57.527344-57.546875v-36.207031h-368v135.640625l63.800781-49.617187 55.574219 39.695312zm0 0"/><path d="m448 416h-156.6875l-13.65625 13.65625c-1.5 1.5-3.535156 2.34375-5.65625 2.34375h-96c-2.121094 0-4.15625-.84375-5.65625-2.34375l-13.65625-13.65625h-156.6875v8c0 13.253906 10.746094 24 24 24h400c13.253906 0 24-10.746094 24-24zm0 0"/><path d="m163.054688 400.617188c.976562.398437 1.863281.988281 2.609374 1.734374l13.648438 13.648438h89.375l13.648438-13.648438c1.507812-1.496093 3.539062-2.339843 5.664062-2.351562h144v-240h-416v240h144c1.050781 0 2.089844.210938 3.054688.617188zm-139.054688-232.617188h400v58.832031l-70.9375 70.953125-96-55.914062-96.4375 88.410156-56.425781-40.304688-80.199219 62.382813zm0 216v-16h16v8h16v-32h16v32h16v-56h16v56h16v-48h16v48h16v-32h16v32h16v-48h16v48h16v-80h16v80h16v-112h16v112h16v-96h16v96h16v-80h16v80h16v-64h16v64h16v-88h16v88h16v-120h16v136h-400zm0 0"/></svg>