<?xml version="1.0"?>
<svg xmlns="http://www.w3.org/2000/svg" xmlns:xlink="http://www.w3.org/1999/xlink" version="1.1" id="Layer_1" x="0px" y="0px" viewBox="0 0 512 512" style="enable-background:new 0 0 512 512;" xml:space="preserve" width="512px" height="512px" class=""><g transform="matrix(0.868746 0 0 0.868746 33.601 33.601)"><path style="fill:#7A7674;" d="M430.914,375.532c12.742,0,23.167-10.425,23.167-23.167V101.717  c0-12.742-10.425-23.167-23.167-23.167H23.167C10.425,78.55,0,88.975,0,101.717v250.647c0,12.742,10.425,23.167,23.167,23.167  H430.914z" data-original="#7A7674" class=""/><path style="fill:#86888A" d="M488.833,433.45c12.742,0,23.167-10.425,23.167-23.167V159.636c0-12.742-10.425-23.167-23.167-23.167  H81.086c-12.742,0-23.167,10.425-23.167,23.167v250.647c0,12.742,10.425,23.167,23.167,23.167H488.833z" data-original="#A2A9AF" class="" data-old_color="#86888a"/><g>
	<path style="fill:#3D3D3B" d="M257.158,238.624H127.421c-6.397,0-11.584-5.186-11.584-11.584c0-6.398,5.187-11.584,11.584-11.584   h129.738c6.397,0,11.584,5.186,11.584,11.584C268.742,233.438,263.555,238.624,257.158,238.624z" data-original="#3D3D3B" class="" data-old_color="#D12B54"/>
	<path style="fill:#3D3D3B" d="M257.158,296.542H127.421c-6.397,0-11.584-5.186-11.584-11.584s5.187-11.584,11.584-11.584h129.738   c6.397,0,11.584,5.186,11.584,11.584S263.555,296.542,257.158,296.542z" data-original="#3D3D3B" class="" data-old_color="#D12B54"/>
	<path style="fill:#3D3D3B" d="M257.158,354.461H127.421c-6.397,0-11.584-5.186-11.584-11.584c0-6.398,5.187-11.584,11.584-11.584   h129.738c6.397,0,11.584,5.186,11.584,11.584C268.742,349.275,263.555,354.461,257.158,354.461z" data-original="#3D3D3B" class="" data-old_color="#D12B54"/>
</g><circle style="fill:#3D3D3B" cx="384.579" cy="245.841" r="28.959" data-original="#FFE1D6" class="" data-old_color="#FFE1D6"/><path style="fill:#ED174C" d="M396.163,296.276l-11.584,15.491l-11.584-15.491c-26.436,5.367-46.335,28.738-46.335,56.758h115.837  C442.498,325.014,422.599,301.643,396.163,296.276z" data-original="#FFFFFF" class="" data-old_color="#ed174c"/><path style="fill:#9C082D" d="M384.579,334.935c6.398,0,11.584-5.186,11.584-11.584v-27.076c-3.743-0.76-7.616-1.161-11.584-1.161  s-7.841,0.401-11.584,1.161v27.075C372.995,329.749,378.182,334.935,384.579,334.935z" data-original="#4C5870" class="active-path" data-old_color="#BD0835"/></g> </svg>
