<?xml version="1.0"?>
<svg xmlns="http://www.w3.org/2000/svg" height="512px" viewBox="-88 0 464 464" width="512px" class=""><g transform="matrix(0.801631 0 0 0.801631 28.5652 46.0217)"><path d="m56 0h192c17.671875 0 32 14.328125 32 32v32h-256v-32c0-17.671875 14.328125-32 32-32zm0 0" fill="#acabb1" data-original="#ACABB1" class="" style="fill:#2E2C33" data-old_color="#DF0B3F"/><path d="m24 384h256v48c0 17.671875-14.328125 32-32 32h-192c-17.671875 0-32-14.328125-32-32zm0 0" fill="#acabb1" data-original="#ACABB1" class="" style="fill:#2E2C33" data-old_color="#DF0B3F"/><path d="m24 64h256v320h-256zm0 0" fill="#ffeb99" data-original="#FFEB99" class="" style="fill:#86888A" data-old_color="#86888a"/><path d="m280 84.160156v299.839844h-256v-26.160156c112.425781-61.476563 202.160156-157.40625 256-273.679688zm0 0" fill="#ffe477" data-original="#FFE477" class="" style="fill:#70757A" data-old_color="#86888A"/><path d="m144 416h16v16h-16zm0 0" fill="#57565c" data-original="#57565C" class="" style="fill:#F3F1F1" data-old_color="#060606"/><path d="m88 24h16v16h-16zm0 0" fill="#57565c" data-original="#57565C" class="" style="fill:#F3F1F1" data-old_color="#060606"/><path d="m120 24h16v16h-16zm0 0" fill="#57565c" data-original="#57565C" class="" style="fill:#F3F1F1" data-old_color="#060606"/><path d="m64 104v208c0 17.671875-14.328125 32-32 32h240c8.835938 0 16-7.164062 16-16v-224zm0 0" fill="#ffc477" data-original="#FFC477" class="" style="fill:#ED174C" data-old_color="#ed174c"/><path d="m32 152v192c-2.703125.023438-5.394531-.324219-8-1.039062-14.132812-3.625-24.0117188-16.371094-24-30.960938v-160zm0 0" fill="#ffa733" data-original="#FFA733" class="" style="fill:#AD1137" data-old_color="#000000"/><path d="m64 152v160c.011719 14.589844-9.867188 27.335938-24 30.960938-2.605469.714843-5.296875 1.0625-8 1.039062v-192zm0 0" fill="#ffa733" data-original="#FFA733" class="" style="fill:#AD1137" data-old_color="#000000"/><path d="m104 158.097656 25.855469 31.03125c2.15625 2.585938 5.703125 3.542969 8.871093 2.394532 3.167969-1.144532 5.273438-4.15625 5.273438-7.523438v-56h-16v33.902344l-25.855469-31.03125c-2.15625-2.585938-5.703125-3.542969-8.871093-2.394532-3.167969 1.144532-5.273438 4.15625-5.273438 7.523438v56h16zm0 0" fill="#5aaae7" data-original="#5AAAE7" class="" style="fill:#ED174C" data-old_color="#ed174c"/><path d="m160 192h32v-16h-24v-8h24v-16h-24v-8h24v-16h-32c-4.417969 0-8 3.582031-8 8v48c0 4.417969 3.582031 8 8 8zm0 0" fill="#5aaae7" data-original="#5AAAE7" class="" style="fill:#ED174C" data-old_color="#ed174c"/><path d="m206.160156 191.792969c3.613282.835937 7.328125-.90625 9-4.21875l16.839844-33.6875 16.800781 33.6875c1.359375 2.726562 4.152344 4.441406 7.199219 4.425781.617188-.003906 1.234375-.070312 1.839844-.207031 3.613281-.855469 6.164062-4.082031 6.160156-7.792969v-56h-16v22.113281l-8.800781-17.6875c-1.503907-2.523437-4.222657-4.070312-7.160157-4.070312-2.933593 0-5.65625 1.546875-7.160156 4.070312l-8.878906 17.6875v-22.113281h-16v56c-.003906 3.710938 2.546875 6.9375 6.160156 7.792969zm0 0" fill="#5aaae7" data-original="#5AAAE7" class="" style="fill:#ED174C" data-old_color="#ed174c"/><g fill="#ff9478"><path d="m88 224h144v16h-144zm0 0" data-original="#000000" class="" style="fill:#2E2C33" data-old_color="#2e2c33"/><path d="m248 224h16v16h-16zm0 0" data-original="#000000" class="" style="fill:#2E2C33" data-old_color="#2e2c33"/><path d="m88 256h16v16h-16zm0 0" data-original="#000000" class="" style="fill:#2E2C33" data-old_color="#2e2c33"/><path d="m120 256h144v16h-144zm0 0" data-original="#000000" class="" style="fill:#2E2C33" data-old_color="#2e2c33"/><path d="m88 288h176v16h-176zm0 0" data-original="#000000" class="" style="fill:#2E2C33" data-old_color="#2e2c33"/></g><path d="m40 152v190.960938c-5.242188 1.386718-10.757812 1.386718-16 0v-190.960938zm0 0" fill="#ee8700" data-original="#EE8700" class="active-path" style="fill:#C60E3B" data-old_color="#900225"/></g> </svg>
