<svg id="Capa_1" enable-background="new 0 0 512 512" height="512" viewBox="0 0 512 512" width="512" xmlns="http://www.w3.org/2000/svg"><path d="m190.052 332.802-63.191-109.45-37.336 21.556 57.415 99.446c11.003 19.058 16.796 40.677 16.796 62.683v73.027h43.112v-84.578c0-22.008-5.793-43.626-16.796-62.684z" fill="#fff"/><path d="m190.052 332.802-63.191-109.45-16.548 9.554 57.675 99.896c11.003 19.058 16.796 40.677 16.796 62.683v84.579h22.064v-84.579c0-22.007-5.793-43.626-16.796-62.683z" fill="#fff"/><path d="m125.154 499.464h-28.617c-35.128 0-66.937-22.129-79.151-55.065-11.872-32.008-6.439-67.199 14.533-94.138l58.81-75.546 11.871 9.242-58.81 75.546c-17.747 22.797-22.345 52.578-12.298 79.665 10.037 27.067 36.177 45.252 65.045 45.252h28.617c4.155 0 4.155 15.044 0 15.044z" fill="#777078"/><path d="m250.771 427.422h-101.059c-5.539 0-10.029 4.49-10.029 10.029v47.583h168.701c0-31.818-25.794-57.612-57.613-57.612z" fill="#fff"/><path d="m250.771 427.422h-40.117c31.819 0 57.613 25.794 57.613 57.613h40.117c0-31.819-25.794-57.613-57.613-57.613z" fill="#fff"/><path d="m349.644 512h-235.688c-5.539 0-10.029-4.49-10.029-10.029v-20.059c0-5.539 4.49-10.029 10.029-10.029h205.6c19.387 0 35.102 15.716 35.102 35.102.001 2.77-2.244 5.015-5.014 5.015z" fill="#3567c3"/><path d="m319.556 471.883h-40.117c19.387 0 35.102 15.716 35.102 35.102 0 2.77-2.245 5.015-5.015 5.015h40.117c2.77 0 5.015-2.245 5.015-5.015.001-19.386-15.715-35.102-35.102-35.102z" fill="#fff"/><path d="m146.296 195.999h62.173v43.112h-62.173z" fill="#a79fa9" transform="matrix(.866 -.5 .5 .866 -85.013 117.838)"/><circle cx="118.127" cy="251.766" fill="#3567c3" r="50.146"/><path d="m118.127 201.62c-5.614 0-11.007.937-16.047 2.639 19.822 6.694 34.1 25.427 34.1 47.508s-14.278 40.814-34.1 47.508c5.04 1.702 10.433 2.639 16.047 2.639 27.695 0 50.146-22.451 50.146-50.146s-22.451-50.148-50.146-50.148z" fill="#fff"/><circle cx="118.127" cy="251.766" fill="#e5e2e6" r="25.073"/><path d="m118.127 226.693c-3.762 0-7.328.834-10.531 2.319 8.585 3.98 14.542 12.669 14.542 22.754s-5.957 18.774-14.542 22.754c3.203 1.485 6.768 2.319 10.531 2.319 13.848 0 25.073-11.226 25.073-25.073s-11.226-25.073-25.073-25.073z" fill="#fff"/><path d="m344.541 243.346 130.322-129.392c11.87-11.785 14.319-30.134 5.955-44.62l-5.333-9.238c-.69-1.195-1.804-2.05-3.136-2.406-1.334-.357-2.726-.173-3.922.516l-32.964 19.032-7.522-13.028 32.964-19.032c4.676-2.7 10.122-3.415 15.336-2.02 5.215 1.397 9.573 4.741 12.272 9.416l5.333 9.238c11.775 20.394 8.328 46.225-8.384 62.817l-130.321 129.393z" fill="#fff"/><path d="m390.323 277.291c1.252 5.847-1.746 11.781-7.197 14.238-61.697 27.807-143.668-8.184-187.675-84.406s-34.19-165.206 20.74-204.734c4.853-3.492 11.491-3.122 15.929.886 80.217 72.443 135.571 168.318 158.201 274.009z" fill="#fff"/><path d="m232.12 3.275c-4.437-4.007-11.076-4.378-15.929-.886-7.78 5.599-14.653 12.192-20.599 19.598.625.391 1.223.839 1.785 1.347 80.217 72.443 135.571 168.318 158.201 274.009l.001.007c.159.741.248 1.483.274 2.219 9.387-1.446 18.533-4.102 27.272-8.04 5.451-2.457 8.449-8.391 7.197-14.238l-.001-.007c-22.63-105.691-77.985-201.566-158.201-274.009z" fill="#fff"/><path d="m358.397 121.156c-2.582 0-5.095-1.33-6.496-3.718-2.102-3.584-.9-8.193 2.684-10.294l49.137-28.953 7.61 12.977-49.137 28.953c-1.196.702-2.505 1.035-3.798 1.035z" fill="#fff"/><path d="m444.992 96.281-46.151 26.646c-6.069 3.504-13.829 1.424-17.333-4.644l-16.09-27.87c-3.504-6.069-1.424-13.829 4.644-17.333l46.151-26.646c6.069-3.504 13.829-1.424 17.333 4.644l16.09 27.87c3.504 6.069 1.425 13.829-4.644 17.333z" fill="#fff"/><path d="m416.214 46.435-26.926 15.545c6.069-3.504 13.829-1.425 17.333 4.644l16.091 27.87c3.504 6.068 1.425 13.828-4.644 17.332l26.925-15.545c6.069-3.504 8.148-11.264 4.644-17.332l-16.091-27.87c-3.504-6.069-11.264-8.148-17.332-4.644z" fill="#fff"/></svg>