<?xml version="1.0"?>
<svg xmlns="http://www.w3.org/2000/svg" height="512px" viewBox="-29 0 512 512.00057" width="512px" class=""><g><path d="m349.375 52.40625c0 28.941406 23.464844 52.40625 52.40625 52.40625s52.40625-23.464844 52.40625-52.40625-23.464844-52.40625-52.40625-52.40625c-28.929688.0273438-52.378906 23.476562-52.40625 52.40625zm87.34375 0c0 19.296875-15.640625 34.9375-34.9375 34.9375s-34.9375-15.640625-34.9375-34.9375 15.640625-34.9375 34.9375-34.9375 34.9375 15.640625 34.9375 34.9375zm0 0" data-original="#000000" class="active-path" data-old_color="#000000" fill="#49586E"/><path d="m67.253906 382.820312c4.984375 7.511719 10.601563 14.585938 16.789063 21.144532l-43.671875 43.714844c-3.410156 3.410156-3.410156 8.941406 0 12.351562 1.636718 1.636719 3.859375 2.558594 6.175781 2.558594h40.675781v40.675781c0 4.824219 3.910156 8.734375 8.734375 8.734375 2.316407 0 4.535157-.921875 6.175781-2.558594l57.523438-57.523437c45.847656 15.339843 95.566406 14.535156 140.894531-2.28125l59.804688 59.804687c1.636719 1.636719 3.859375 2.558594 6.175781 2.558594 1.148438 0 2.285156-.226562 3.34375-.671875 3.261719-1.351563 5.386719-4.53125 5.390625-8.0625v-40.675781h40.664063c4.824218 0 8.734374-3.914063 8.734374-8.734375 0-2.316407-.921874-4.539063-2.558593-6.175781l-47.960938-47.96875c23.113281-25.894532 36.039063-59.300782 36.371094-94.007813 24.121094 0 43.671875-19.550781 43.671875-43.671875s-19.550781-43.671875-43.671875-43.671875v17.46875c14.472656 0 26.203125 11.730469 26.203125 26.203125s-11.730469 26.203125-26.203125 26.203125h-1.1875c-4.828125-34.398437-21.703125-65.972656-47.628906-89.089844 23.113281-30.90625 16.796875-74.695312-14.109375-97.808593-30.90625-23.109376-74.695313-16.792969-97.804688 14.109374-7.28125 9.738282-11.894531 21.203126-13.390625 33.265626-24.417969-1.089844-48.839843 2.054687-72.1875 9.292968-11.308593-16.902344-30.320312-27.03125-50.660156-26.988281-4.824219 0-8.734375 3.910156-8.734375 8.734375v48.910156c-8.183594 6.296875-15.78125 13.3125-22.710938 20.964844h-73.367187c-4.824219 0-8.734375 3.910156-8.734375 8.734375v83.371094c.128906 39.636719 28.320312 73.632812 67.253906 81.089843zm238.449219-278.007812c28.890625-.050781 52.351563 23.328125 52.402344 52.21875.046875 25.824219-18.761719 47.816406-44.28125 51.78125-15.457031-10.144531-32.644531-17.367188-50.710938-21.3125-6.375-8.808594-9.808593-19.40625-9.816406-30.28125.027344-28.929688 23.476563-52.378906 52.40625-52.40625zm-288.234375 122.28125h68.539062c2.539063-.003906 4.953126-1.113281 6.613282-3.039062 7.742187-8.972657 16.488281-17.023438 26.070312-23.996094 2.25-1.636719 3.582032-4.246094 3.589844-7.03125v-43.671875c13.082031 2.664062 24.214844 11.183593 30.203125 23.113281 1.984375 3.910156 6.554687 5.742188 10.691406 4.289062 23.554688-8.183593 48.464844-11.742187 73.367188-10.480468.796875 6.148437 2.425781 12.164062 4.839843 17.878906-4.679687-.445312-9.46875-.734375-14.289062-.734375v17.46875c37.203125-.738281 73.03125 14.066406 98.863281 40.847656l12.867188-11.824219c-2.453125-2.621093-5.136719-5.101562-7.792969-7.554687 6.6875-2.585937 12.929688-6.191406 18.507812-10.691406 22.441407 19.898437 37.308594 46.953125 42.074219 76.566406h-16.035156v17.46875h17.46875c-.453125 33.140625-13.828125 64.792969-37.277344 88.214844-3.300781 3.425781-3.253906 8.863281.105469 12.230469l38.972656 38.972656h-28.328125c-4.824219 0-8.734375 3.910156-8.734375 8.734375v28.28125l-48.910156-48.914063c-2.488281-2.488281-6.226562-3.242187-9.488281-1.910156-44.421875 17.996094-93.953125 18.820312-138.953125 2.3125-3.199219-1.183594-6.792969-.394531-9.207032 2.019531l-46.546874 46.492188v-28.28125c0-4.824219-3.910157-8.734375-8.734376-8.734375h-28.324218l34.9375-34.9375c3.410156-3.410156 3.410156-8.941406 0-12.355469-.039063-.039063-.082032-.078125-.121094-.117187-8.609375-8.191407-16.160156-17.425782-22.484375-27.488282-1.371094-2.214844-3.660156-3.703125-6.246094-4.054687-32.167969-4.492188-56.136719-31.957031-56.238281-64.441407zm0 0" data-original="#000000" class="active-path" data-old_color="#000000" fill="#49586E"/><path d="m148.484375 235.828125c9.648437 0 17.46875 7.820313 17.46875 17.46875h17.46875c0-19.296875-15.640625-34.9375-34.9375-34.9375s-34.9375 15.640625-34.9375 34.9375h17.46875c0-9.648437 7.820313-17.46875 17.46875-17.46875zm0 0" data-original="#000000" class="active-path" data-old_color="#000000" fill="#49586E"/><path d="m69.875 270.765625c0-14.472656-11.730469-26.203125-26.203125-26.203125v17.46875c4.824219 0 8.734375 3.910156 8.734375 8.734375s-3.910156 8.734375-8.734375 8.734375v17.46875c14.472656 0 26.203125-11.730469 26.203125-26.203125zm0 0" data-original="#000000" class="active-path" data-old_color="#000000" fill="#49586E"/></g> </svg>
