<?xml version="1.0" encoding="iso-8859-1"?>
<!-- Generator: Adobe Illustrator 21.0.0, SVG Export Plug-In . SVG Version: 6.00 Build 0)  -->
<svg xmlns="http://www.w3.org/2000/svg" xmlns:xlink="http://www.w3.org/1999/xlink" version="1.1" id="Capa_1" x="0px" y="0px" viewBox="0 0 512 512" style="enable-background:new 0 0 512 512;" xml:space="preserve" width="512" height="512">
<g>
	<path style="fill:#E8F6FC;" d="M437,381H74c-8.284,0-15-6.716-15-15V146c0-8.284,6.716-15,15-15h363c8.284,0,15,6.716,15,15v220   C452,374.284,445.284,381,437,381z"/>
	<path style="fill:#CEE2E9;" d="M437,131H256v250h181c8.284,0,15-6.716,15-15V146C452,137.716,445.284,131,437,131z"/>
	<path style="fill:#A50043;" d="M497,147c-8.284,0-15-6.716-15-15V84h-47.996c-8.284,0-15-6.716-15-15s6.716-15,15-15H497   c8.284,0,15,6.716,15,15v63C512,140.284,505.284,147,497,147z"/>
	<path style="fill:#F90053;" d="M77.996,458H15c-8.284,0-15-6.716-15-15v-63c0-8.284,6.716-15,15-15s15,6.716,15,15v48h47.996   c8.284,0,15,6.716,15,15S86.28,458,77.996,458z"/>
	<path style="fill:#A50043;" d="M497,458h-62.996c-8.284,0-15-6.716-15-15s6.716-15,15-15H482v-48c0-8.284,6.716-15,15-15   s15,6.716,15,15v63C512,451.284,505.284,458,497,458z"/>
	<path style="fill:#212CBB;" d="M194.001,337c-8.284,0-15-6.716-15-15v-4.05c0-8.284,6.716-15,15-15s15,6.716,15,15V322   C209.001,330.284,202.285,337,194.001,337z"/>
	<path style="fill:#212CBB;" d="M254.001,337c-8.284,0-15-6.716-15-15v-4.05c0-8.284,6.716-15,15-15s15,6.716,15,15V322   C269.001,330.284,262.285,337,254.001,337z"/>
	<path style="fill:#212CBB;" d="M314,337c-8.284,0-15-6.716-15-15v-4.05c0-8.284,6.716-15,15-15s15,6.716,15,15V322   C329,330.284,322.284,337,314,337z"/>
	<path style="fill:#F90053;" d="M15.004,147c-8.284,0-15-6.716-15-15V69c0-8.284,6.716-15,15-15H78c8.284,0,15,6.716,15,15   s-6.716,15-15,15H30.004v48C30.004,140.284,23.288,147,15.004,147z"/>
	<path style="fill:#212CBB;" d="M119.001,131v190.139c0,8.284,6.716,15,15,15s15-6.716,15-15V131H119.001z"/>
	<path style="fill:#212CBB;" d="M179.001,131v136c0,8.284,6.716,15,15,15s15-6.716,15-15V131H179.001z"/>
	<path style="fill:#212CBB;" d="M239.001,131v136c0,8.284,6.716,15,15,15s15-6.716,15-15V131H239.001z"/>
	<path style="fill:#212CBB;" d="M329.001,131h-30L299,267c0,8.284,6.716,15,15,15s15-6.716,15-15L329.001,131z"/>
	<path style="fill:#212CBB;" d="M389.002,131h-30l-0.001,190.139c0,8.284,6.716,15,15,15s15-6.716,15-15L389.002,131z"/>
	<path style="fill:#F90053;" d="M481.5,256h-451c-8.284,0-15-6.716-15-15s6.716-15,15-15h451c8.284,0,15,6.716,15,15   S489.784,256,481.5,256z"/>
	<path style="fill:#00215A;" d="M314,337c-8.284,0-15-6.716-15-15v-4.05c0-8.284,6.716-15,15-15s15,6.716,15,15V322   C329,330.284,322.284,337,314,337z"/>
	<path style="fill:#00215A;" d="M329.001,131h-30L299,267c0,8.284,6.716,15,15,15s15-6.716,15-15L329.001,131z"/>
	<path style="fill:#00215A;" d="M389.002,131h-30l-0.001,190.139c0,8.284,6.716,15,15,15s15-6.716,15-15L389.002,131z"/>
	<path style="fill:#00215A;" d="M256,131v150.852c7.337-0.98,13.001-7.247,13.001-14.852V131H256z"/>
	<path style="fill:#00215A;" d="M256,303.099v33.753c7.337-0.98,13.001-7.247,13.001-14.852v-4.05   C269.001,310.346,263.337,304.078,256,303.099z"/>
	<path style="fill:#A50043;" d="M481.5,226H256v30h225.5c8.284,0,15-6.716,15-15S489.784,226,481.5,226z"/>
</g>















</svg>
