<svg viewBox="-2 0 512 512.00066" xmlns="http://www.w3.org/2000/svg"><path d="m444.40625 263.546875v-77.558594c0-9.4375-7.71875-17.15625-17.15625-17.15625h-402.535156c-9.433594 0-17.15625 7.71875-17.15625 17.15625v77.558594c0 9.433594 7.722656 17.152344 17.15625 17.152344-9.433594 0-17.15625 7.722656-17.15625 17.15625v77.558593c0 9.4375 7.722656 17.15625 17.15625 17.15625-9.433594 0-17.15625 7.71875-17.15625 17.15625v77.554688c0 9.4375 7.722656 17.15625 17.15625 17.15625h402.535156c9.4375 0 17.15625-7.71875 17.15625-17.15625v-77.554688c0-9.4375-7.71875-17.15625-17.15625-17.15625 9.4375 0 17.15625-7.71875 17.15625-17.15625v-77.558593c0-9.433594-7.71875-17.152344-17.15625-17.152344 9.4375-.003906 17.15625-7.722656 17.15625-17.15625zm0 0" fill="#4172cc"/><path d="m444.410156 185.988281v77.558594c0 9.433594-7.71875 17.15625-17.15625 17.15625h-402.539062c-9.433594 0-17.15625-7.722656-17.15625-17.15625v-77.558594c0-9.433593 7.722656-17.15625 17.15625-17.15625h402.539062c9.4375 0 17.15625 7.722657 17.15625 17.15625zm0 0" fill="#4172cc"/><path d="m444.410156 185.988281v55.332031h-378.757812c-9.445313 0-17.15625-7.722656-17.15625-17.160156v-55.328125h378.757812c9.4375 0 17.15625 7.722657 17.15625 17.15625zm0 0" fill="#6990d7"/><path d="m94.570312 224.988281c0 10.503907-6.1875 19.566407-15.109374 23.738281-3.367188 1.574219-7.117188 2.449219-11.078126 2.449219-14.464843 0-26.199218-11.722656-26.199218-26.1875 0-14.464843 11.734375-26.1875 26.199218-26.1875 3.960938 0 7.710938.875 11.078126 2.449219 8.921874 4.171875 15.109374 13.234375 15.109374 23.738281zm0 0" fill="#f29500"/><path d="m444.410156 297.859375v77.554687c0 9.433594-7.71875 17.15625-17.15625 17.15625h-402.539062c-9.433594 0-17.15625-7.722656-17.15625-17.15625v-77.554687c0-9.4375 7.722656-17.15625 17.15625-17.15625h402.539062c9.4375 0 17.15625 7.71875 17.15625 17.15625zm0 0" fill="#4172cc"/><path d="m444.410156 409.726562v77.554688c0 9.4375-7.71875 17.160156-17.15625 17.160156h-402.539062c-9.433594 0-17.15625-7.722656-17.15625-17.160156v-77.554688c0-9.433593 7.722656-17.15625 17.15625-17.15625h402.539062c9.4375 0 17.15625 7.722657 17.15625 17.15625zm0 0" fill="#4172cc"/><path d="m444.410156 297.859375v55.328125h-378.757812c-9.445313 0-17.15625-7.722656-17.15625-17.15625v-55.328125h378.757812c9.4375 0 17.15625 7.71875 17.15625 17.15625zm0 0" fill="#6990d7"/><path d="m444.410156 409.726562v55.328126h-378.757812c-9.445313 0-17.15625-7.71875-17.15625-17.15625v-55.328126h378.757812c9.4375 0 17.15625 7.722657 17.15625 17.15625zm0 0" fill="#6990d7"/><path d="m94.570312 448.726562c0 10.503907-6.1875 19.574219-15.109374 23.75-3.367188 1.570313-7.117188 2.449219-11.078126 2.449219-14.464843 0-26.199218-11.734375-26.199218-26.199219 0-14.464843 11.734375-26.1875 26.199218-26.1875 3.960938 0 7.710938.875 11.078126 2.449219 8.921874 4.171875 15.109374 13.234375 15.109374 23.738281zm0 0" fill="#f29500"/><path d="m94.570312 224.988281c0 10.503907-6.1875 19.566407-15.109374 23.738281-8.921876-4.171874-15.109376-13.234374-15.109376-23.738281 0-10.503906 6.1875-19.566406 15.109376-23.738281 8.921874 4.171875 15.109374 13.234375 15.109374 23.738281zm0 0" fill="#ffb52d"/><path d="m94.570312 448.726562c0 10.503907-6.1875 19.574219-15.109374 23.75-8.921876-4.175781-15.109376-13.246093-15.109376-23.75 0-10.503906 6.1875-19.566406 15.109376-23.738281 8.921874 4.171875 15.109374 13.234375 15.109374 23.738281zm0 0" fill="#ffb52d"/><path d="m501.28125 142.5625c0 5.183594-1.480469 10.03125-4.03125 14.113281-4.503906 7.257813-12.398438 12.097657-21.328125 12.097657h-255.734375c-6.972656 0-13.3125-2.953126-17.921875-7.703126-4.59375-4.746093-7.449219-11.300781-7.449219-18.507812 0-14.414062 11.421875-26.195312 25.371094-26.195312h3.316406c1.128906 0 1.9375-1.121094 1.5625-2.1875-11.398437-32.53125 13.511719-67.195313 47.933594-64.019532.714844.070313 1.398438-.324218 1.683594-.988281 10.703125-24.574219 34.605468-41.683594 62.382812-41.683594 2.683594 0 5.335938.164063 7.933594.476563 25.160156 3.003906 46.15625 20.128906 55.382812 43.503906.332032.835938 1.257813 1.261719 2.117188.957031 4.636719-1.601562 9.59375-2.476562 14.753906-2.476562 25.613282 0 46.378906 21.449219 46.378906 47.917969 0 5.726562-.964843 11.21875-2.75 16.3125-.382812 1.066406.421876 2.1875 1.5625 2.1875h13.476563c6.976563 0 13.316406 2.941406 17.910156 7.6875 4.597657 4.75 7.449219 11.300781 7.449219 18.507812zm0 0" fill="#91aee2"/><path d="m501.28125 142.5625c0 5.183594-1.480469 10.03125-4.03125 14.113281h-230.1875c-6.976562 0-13.316406-2.953125-17.921875-7.703125-4.597656-4.746094-7.449219-11.296875-7.449219-18.503906 0-14.414062 11.417969-26.199219 25.371094-26.199219h3.316406c1.128906 0 1.933594-1.117187 1.5625-2.1875-1.785156-5.089843-2.761718-10.585937-2.761718-16.308593 0-27.769532 22.925781-50.269532 50.691406-47.710938.714844.070312 1.402344-.320312 1.683594-.988281 5.132812-11.773438 13.285156-21.832031 23.445312-29.109375 25.160156 3.003906 46.15625 20.128906 55.382812 43.503906.332032.835938 1.257813 1.261719 2.117188.957031 4.636719-1.601562 9.59375-2.476562 14.753906-2.476562 25.613282 0 46.378906 21.449219 46.378906 47.917969 0 5.726562-.964843 11.21875-2.75 16.3125-.382812 1.066406.421876 2.1875 1.5625 2.1875h13.476563c6.976563 0 13.316406 2.941406 17.910156 7.6875 4.597657 4.75 7.449219 11.300781 7.449219 18.507812zm0 0" fill="#bacbec"/><path d="m94.570312 336.859375c0 10.5-6.1875 19.5625-15.109374 23.738281-3.367188 1.570313-7.117188 2.449219-11.078126 2.449219-14.464843 0-26.199218-11.722656-26.199218-26.1875s11.734375-26.191406 26.199218-26.191406c3.960938 0 7.710938.878906 11.078126 2.449219 8.921874 4.175781 15.109374 13.238281 15.109374 23.742187zm0 0" fill="#f29500"/><path d="m94.570312 336.859375c0 10.5-6.1875 19.5625-15.109374 23.738281-8.921876-4.175781-15.109376-13.238281-15.109376-23.738281 0-10.503906 6.1875-19.566406 15.109376-23.742187 8.921874 4.175781 15.109374 13.238281 15.109374 23.742187zm0 0" fill="#ffb52d"/><path d="m68.378906 191.238281c-18.609375 0-33.75 15.140625-33.75 33.75s15.140625 33.753907 33.75 33.753907c18.613282 0 33.753906-15.144532 33.753906-33.753907s-15.140624-33.75-33.753906-33.75zm0 52.382813c-10.273437 0-18.628906-8.359375-18.628906-18.632813 0-10.273437 8.355469-18.628906 18.628906-18.628906 10.277344 0 18.632813 8.355469 18.632813 18.628906 0 10.273438-8.355469 18.632813-18.632813 18.632813zm0 0"/><path d="m312.777344 214.34375h31.25c4.175781 0 7.558594-3.382812 7.558594-7.558594 0-4.175781-3.382813-7.5625-7.558594-7.5625h-31.25c-4.175782 0-7.558594 3.386719-7.558594 7.5625 0 4.175782 3.382812 7.558594 7.558594 7.558594zm0 0"/><path d="m403.277344 199.222656h-29.011719c-4.175781 0-7.558594 3.386719-7.558594 7.5625 0 4.175782 3.382813 7.558594 7.558594 7.558594h29.011719c4.179687 0 7.5625-3.382812 7.5625-7.558594 0-4.175781-3.382813-7.5625-7.5625-7.5625zm0 0"/><path d="m167.121094 206.785156c0-4.175781-3.382813-7.5625-7.5625-7.5625h-31.246094c-4.175781 0-7.558594 3.386719-7.558594 7.5625 0 4.175782 3.382813 7.558594 7.558594 7.558594h31.246094c4.179687 0 7.5625-3.382812 7.5625-7.558594zm0 0"/><path d="m189.800781 214.34375h31.25c4.175781 0 7.558594-3.382812 7.558594-7.558594 0-4.175781-3.382813-7.5625-7.558594-7.5625h-31.25c-4.175781 0-7.558593 3.386719-7.558593 7.5625 0 4.175782 3.382812 7.558594 7.558593 7.558594zm0 0"/><path d="m251.289062 214.34375h31.25c4.175782 0 7.558594-3.382812 7.558594-7.558594 0-4.175781-3.382812-7.5625-7.558594-7.5625h-31.25c-4.175781 0-7.558593 3.386719-7.558593 7.5625 0 4.175782 3.382812 7.558594 7.558593 7.558594zm0 0"/><path d="m313.027344 235.632812h-31.246094c-4.175781 0-7.5625 3.386719-7.5625 7.558594 0 4.175782 3.386719 7.5625 7.5625 7.5625h31.246094c4.179687 0 7.5625-3.386718 7.5625-7.5625 0-4.171875-3.382813-7.558594-7.5625-7.558594zm0 0"/><path d="m251.539062 235.632812h-31.246093c-4.175781 0-7.5625 3.386719-7.5625 7.558594 0 4.175782 3.386719 7.5625 7.5625 7.5625h31.246093c4.175782 0 7.5625-3.386718 7.5625-7.5625 0-4.171875-3.386718-7.558594-7.5625-7.558594zm0 0"/><path d="m190.050781 235.632812h-31.246093c-4.175782 0-7.5625 3.386719-7.5625 7.558594 0 4.175782 3.386718 7.5625 7.5625 7.5625h31.246093c4.175781 0 7.5625-3.386718 7.5625-7.5625 0-4.171875-3.386719-7.558594-7.5625-7.558594zm0 0"/><path d="m372.785156 235.632812h-29.515625c-4.175781 0-7.558593 3.386719-7.558593 7.558594 0 4.175782 3.382812 7.5625 7.558593 7.5625h29.515625c4.179688 0 7.5625-3.386718 7.5625-7.5625 0-4.171875-3.382812-7.558594-7.5625-7.558594zm0 0"/><path d="m68.378906 303.105469c-18.609375 0-33.75 15.140625-33.75 33.753906 0 18.609375 15.140625 33.75 33.75 33.75 18.613282 0 33.753906-15.140625 33.753906-33.75 0-18.613281-15.140624-33.753906-33.753906-33.753906zm0 52.386719c-10.273437 0-18.628906-8.359376-18.628906-18.632813s8.355469-18.632813 18.628906-18.632813c10.277344 0 18.632813 8.359376 18.632813 18.632813s-8.355469 18.632813-18.632813 18.632813zm0 0"/><path d="m403.277344 311.09375h-29.011719c-4.175781 0-7.558594 3.386719-7.558594 7.558594 0 4.175781 3.382813 7.5625 7.558594 7.5625h29.011719c4.179687 0 7.5625-3.386719 7.5625-7.5625 0-4.171875-3.382813-7.558594-7.5625-7.558594zm0 0"/><path d="m167.121094 318.652344c0-4.171875-3.382813-7.558594-7.5625-7.558594h-31.246094c-4.175781 0-7.558594 3.386719-7.558594 7.558594 0 4.175781 3.382813 7.5625 7.558594 7.5625h31.246094c4.179687 0 7.5625-3.386719 7.5625-7.5625zm0 0"/><path d="m251.289062 326.214844h31.25c4.175782 0 7.558594-3.386719 7.558594-7.5625 0-4.171875-3.382812-7.558594-7.558594-7.558594h-31.25c-4.175781 0-7.558593 3.386719-7.558593 7.558594 0 4.175781 3.382812 7.5625 7.558593 7.5625zm0 0"/><path d="m189.800781 326.214844h31.25c4.175781 0 7.558594-3.386719 7.558594-7.5625 0-4.171875-3.382813-7.558594-7.558594-7.558594h-31.25c-4.175781 0-7.558593 3.386719-7.558593 7.558594 0 4.175781 3.382812 7.5625 7.558593 7.5625zm0 0"/><path d="m312.777344 326.214844h31.25c4.175781 0 7.558594-3.386719 7.558594-7.5625 0-4.171875-3.382813-7.558594-7.558594-7.558594h-31.25c-4.175782 0-7.558594 3.386719-7.558594 7.558594 0 4.175781 3.382812 7.5625 7.558594 7.5625zm0 0"/><path d="m190.050781 347.503906h-31.246093c-4.175782 0-7.5625 3.382813-7.5625 7.558594s3.386718 7.5625 7.5625 7.5625h31.246093c4.175781 0 7.5625-3.386719 7.5625-7.5625s-3.386719-7.558594-7.5625-7.558594zm0 0"/><path d="m372.785156 347.503906h-29.515625c-4.175781 0-7.558593 3.382813-7.558593 7.558594s3.382812 7.5625 7.558593 7.5625h29.515625c4.179688 0 7.5625-3.386719 7.5625-7.5625s-3.382812-7.558594-7.5625-7.558594zm0 0"/><path d="m313.027344 347.503906h-31.246094c-4.175781 0-7.5625 3.382813-7.5625 7.558594s3.386719 7.5625 7.5625 7.5625h31.246094c4.179687 0 7.5625-3.386719 7.5625-7.5625s-3.382813-7.558594-7.5625-7.558594zm0 0"/><path d="m251.539062 347.503906h-31.246093c-4.175781 0-7.5625 3.382813-7.5625 7.558594s3.386719 7.5625 7.5625 7.5625h31.246093c4.175782 0 7.5625-3.386719 7.5625-7.5625s-3.386718-7.558594-7.5625-7.558594zm0 0"/><path d="m68.378906 414.976562c-18.609375 0-33.75 15.140626-33.75 33.75 0 18.613282 15.140625 33.753907 33.75 33.753907 18.613282 0 33.753906-15.140625 33.753906-33.753907 0-18.609374-15.140624-33.75-33.753906-33.75zm0 52.382813c-10.273437 0-18.628906-8.355469-18.628906-18.628906 0-10.273438 8.355469-18.632813 18.628906-18.632813 10.277344 0 18.632813 8.359375 18.632813 18.632813 0 10.273437-8.355469 18.628906-18.632813 18.628906zm0 0"/><path d="m403.277344 422.964844h-29.011719c-4.175781 0-7.558594 3.382812-7.558594 7.558594 0 4.175781 3.382813 7.558593 7.558594 7.558593h29.011719c4.179687 0 7.5625-3.382812 7.5625-7.558593 0-4.175782-3.382813-7.558594-7.5625-7.558594zm0 0"/><path d="m167.121094 430.523438c0-4.175782-3.382813-7.558594-7.5625-7.558594h-31.246094c-4.175781 0-7.558594 3.382812-7.558594 7.558594 0 4.175781 3.382813 7.558593 7.558594 7.558593h31.246094c4.179687 0 7.5625-3.382812 7.5625-7.558593zm0 0"/><path d="m251.289062 438.082031h31.25c4.175782 0 7.558594-3.382812 7.558594-7.558593 0-4.175782-3.382812-7.558594-7.558594-7.558594h-31.25c-4.175781 0-7.558593 3.382812-7.558593 7.558594 0 4.175781 3.382812 7.558593 7.558593 7.558593zm0 0"/><path d="m312.777344 438.082031h31.25c4.175781 0 7.558594-3.382812 7.558594-7.558593 0-4.175782-3.382813-7.558594-7.558594-7.558594h-31.25c-4.175782 0-7.558594 3.382812-7.558594 7.558594 0 4.175781 3.382812 7.558593 7.558594 7.558593zm0 0"/><path d="m189.800781 438.082031h31.25c4.175781 0 7.558594-3.382812 7.558594-7.558593 0-4.175782-3.382813-7.558594-7.558594-7.558594h-31.25c-4.175781 0-7.558593 3.382812-7.558593 7.558594 0 4.175781 3.382812 7.558593 7.558593 7.558593zm0 0"/><path d="m372.785156 459.371094h-29.515625c-4.175781 0-7.558593 3.386718-7.558593 7.5625 0 4.175781 3.382812 7.558594 7.558593 7.558594h29.515625c4.179688 0 7.5625-3.382813 7.5625-7.558594 0-4.175782-3.382812-7.5625-7.5625-7.5625zm0 0"/><path d="m251.539062 459.371094h-31.246093c-4.175781 0-7.5625 3.386718-7.5625 7.5625 0 4.175781 3.386719 7.558594 7.5625 7.558594h31.246093c4.175782 0 7.5625-3.382813 7.5625-7.558594 0-4.175782-3.386718-7.5625-7.5625-7.5625zm0 0"/><path d="m313.027344 459.371094h-31.246094c-4.175781 0-7.5625 3.386718-7.5625 7.5625 0 4.175781 3.386719 7.558594 7.5625 7.558594h31.246094c4.179687 0 7.5625-3.382813 7.5625-7.558594 0-4.175782-3.382813-7.5625-7.5625-7.5625zm0 0"/><path d="m190.050781 459.371094h-31.246093c-4.175782 0-7.5625 3.386718-7.5625 7.5625 0 4.175781 3.386718 7.558594 7.5625 7.558594h31.246093c4.175781 0 7.5625-3.382813 7.5625-7.558594 0-4.175782-3.386719-7.5625-7.5625-7.5625zm0 0"/><path d="m475.917969 108.804688h-5.769531c6.660156-34.226563-18.804688-66.417969-52.898438-66.417969-4.058594 0-8.066406.464843-11.976562 1.378906-27.378907-57.414063-107.132813-58.820313-135.765626-1.371094-34.351562-.554687-60.632812 31.890625-53.65625 66.699219-24.164062 3.273438-36.496093 31.550781-23.058593 52.175781h-168.078125c-13.628906 0-24.714844 11.089844-24.714844 24.71875v77.558594c0 6.65625 2.652344 12.707031 6.949219 17.15625-4.296875 4.445313-6.949219 10.496094-6.949219 17.15625v77.558594c0 6.65625 2.652344 12.707031 6.949219 17.152343-4.296875 4.449219-6.949219 10.496094-6.949219 17.15625v77.558594c0 13.628906 11.085938 24.714844 24.714844 24.714844h402.535156c13.628906 0 24.714844-11.085938 24.714844-24.714844v-77.558594c0-6.660156-2.652344-12.707031-6.949219-17.15625 4.296875-4.449218 6.949219-10.496093 6.949219-17.15625v-77.558593c0-6.65625-2.652344-12.707031-6.949219-17.15625 4.296875-4.445313 6.949219-10.496094 6.949219-17.15625v-77.558594c0-3.425781-.699219-6.6875-1.964844-9.65625h25.917969c18.15625 0 32.925781-15.144531 32.925781-33.761719 0-18.617187-14.769531-33.761718-32.925781-33.761718zm-39.070313 378.480468c0 5.289063-4.308594 9.59375-9.597656 9.59375h-402.535156c-5.289063 0-9.59375-4.304687-9.59375-9.59375v-77.558594c0-5.292968 4.304687-9.597656 9.59375-9.597656h402.535156c5.292969 0 9.597656 4.304688 9.597656 9.597656zm0-111.871094c0 5.292969-4.308594 9.59375-9.597656 9.59375-6.5 0-381.527344 0-402.535156 0-5.289063 0-9.59375-4.300781-9.59375-9.59375v-77.558593c0-5.289063 4.304687-9.597657 9.59375-9.597657h402.535156c5.289062 0 9.597656 4.308594 9.597656 9.597657zm0-111.871093c0 5.292969-4.308594 9.597656-9.597656 9.597656-6.5 0-381.527344 0-402.535156 0-5.289063 0-9.59375-4.304687-9.59375-9.597656v-77.558594c0-5.289063 4.304687-9.59375 9.59375-9.59375h402.535156c5.289062 0 9.597656 4.304687 9.597656 9.59375zm39.070313-102.335938h-255.730469c-9.816406 0-17.804688-8.363281-17.804688-18.640625 0-10.28125 7.988282-18.644531 17.804688-18.644531h5.703125c5.359375 0 9.019531-5.433594 7.007813-10.398437-11.488282-28.335938 10.738281-59.359376 40.390624-55.722657 3.367188.410157 6.597657-1.46875 7.902344-4.605469 9.625-23.175781 31.554688-38.148437 55.871094-38.148437 25.035156 0 47.867188 16.300781 56.8125 40.5625 1.457031 3.953125 5.878906 5.960937 9.824219 4.429687 4.339843-1.679687 8.898437-2.53125 13.550781-2.53125 27.761719 0 46.523438 29.542969 35.792969 56.011719-2.011719 4.964844 1.648437 10.402344 7.007812 10.402344h15.867188c9.816406 0 17.804687 8.363281 17.804687 18.644531 0 10.277344-7.988281 18.640625-17.804687 18.640625zm0 0"/><path d="m332.929688 108.132812-16.921876 16.167969v-59.019531c0-4.175781-3.382812-7.5625-7.558593-7.5625s-7.558594 3.386719-7.558594 7.5625v59.019531l-16.921875-16.167969c-3.019531-2.882812-7.804688-2.773437-10.6875.242188-2.886719 3.019531-2.777344 7.804688.242188 10.691406 30.011718 27.679688 29.546874 30.476563 34.925781 30.476563 5.382812 0 4.847656-2.738281 34.925781-30.476563 3.019531-2.886718 3.128906-7.671875.246094-10.691406-2.886719-3.019531-7.671875-3.125-10.691406-.242188zm0 0"/><path d="m381.203125 59.8125c-2.921875-2.792969-7.523437-2.792969-10.445313 0l-29.703124 28.386719c-3.019532 2.882812-3.128907 7.667969-.242188 10.6875 2.882812 3.019531 7.667969 3.125 10.6875.242187l16.921875-16.167968v59.023437c0 4.171875 3.382813 7.558594 7.558594 7.558594s7.558593-3.386719 7.558593-7.558594v-59.023437c16.207032 14.601562 16.941407 18.261718 22.144532 18.261718 6.757812 0 10.167968-8.300781 5.222656-13.023437zm0 0"/></svg>