<?xml version="1.0"?>
<svg xmlns="http://www.w3.org/2000/svg" id="Layer_1" enable-background="new 0 0 512 512" height="512px" viewBox="0 0 512 512" width="512px" class=""><g><path d="m396.6 440.667-76.6-22.98v-25.69h-128v25.69l-76.6 22.98c-8.46 2.54-13.26 11.46-10.73 19.93 2.54 8.46 11.46 13.26 19.93 10.73l77.75-23.33h107.3l77.75 23.33c8.415 2.513 17.376-2.221 19.93-10.73 2.53-8.47-2.27-17.39-10.73-19.93zm99.4-400.67h-480c-8.837 0-16 7.163-16 16v288c0 8.837 7.163 16 16 16h480c8.837 0 16-7.163 16-16v-288c0-8.836-7.163-16-16-16zm-240.17 248c-13.23 0-24-10.77-24-24s10.77-24 24-24c13.24 0 24 10.77 24 24s-10.76 24-24 24zm62.23-63.6c-6.247 6.247-16.37 6.26-22.63 0-21.852-21.831-57.263-21.927-79.19 0-6.25 6.25-16.38 6.25-22.63 0s-6.25-16.38 0-22.63c34.38-34.38 90.057-34.393 124.45 0 6.25 6.25 6.25 16.38 0 22.63zm45.25-45.25c-6.239 6.239-16.38 6.24-22.62 0-46.894-46.894-122.798-46.912-169.71 0-6.25 6.25-16.38 6.25-22.63 0s-6.25-16.38 0-22.63c59.27-59.27 155.7-59.26 214.96 0 6.25 6.25 6.25 16.38 0 22.63z" data-original="#000000" class="active-path" data-old_color="#000000" fill="#FFFFFF"/></g> </svg>
