<svg id="Layer_3" enable-background="new 0 0 64 64" height="512" viewBox="0 0 64 64" width="512" xmlns="http://www.w3.org/2000/svg"><g><g><path d="m20 40h-18v-38h60v28h-10v10h-8" fill="#c7e2fc"/></g><g><path d="m2 26.479c5.425 2.854 11.963 4.521 19 4.521 18.778 0 34-11.864 34-26.5 0-.844-.056-1.677-.155-2.5h-52.845z" fill="#ebf7fe"/></g><g><path d="m52 40v-10h10z" fill="#a1cdfb"/></g><g><path d="m27 49v13l5-3 5 3v-13" fill="#f9d18b"/></g><g><circle cx="32" cy="40" fill="#f5b953" r="12"/></g><g><circle cx="32" cy="40" fill="#f9d18b" r="8"/></g><g><path d="m32 53c-7.168 0-13-5.832-13-13s5.832-13 13-13 13 5.832 13 13-5.832 13-13 13zm0-24c-6.065 0-11 4.935-11 11s4.935 11 11 11 11-4.935 11-11-4.935-11-11-11z"/></g><g><path d="m37 63c-.178 0-.356-.047-.515-.143l-4.485-2.691-4.485 2.691c-.31.186-.694.191-1.008.013-.314-.177-.507-.51-.507-.87v-11h2v9.234l3.485-2.091c.316-.19.713-.19 1.029 0l3.486 2.091v-9.234h2v11c0 .36-.193.693-.507.87-.153.087-.323.13-.493.13z"/></g><g><path d="m25 40h-2c0-4.962 4.037-9 9-9v2c-3.859 0-7 3.14-7 7z"/></g><g><path d="m32 49v-2c3.859 0 7-3.14 7-7h2c0 4.962-4.037 9-9 9z"/></g><g><path d="m52 41h-8v-2h7v-9c0-.552.447-1 1-1h9v-26h-58v36h17v2h-18c-.553 0-1-.448-1-1v-38c0-.552.447-1 1-1h60c.553 0 1 .448 1 1v28c0 .552-.447 1-1 1h-9v9c0 .552-.447 1-1 1z"/></g><g><path d="m49.929 34h14.142v2h-14.142z" transform="matrix(.707 -.707 .707 .707 -8.054 50.556)"/></g><g><path d="m25 15h-7v-2h6v-2h-5c-.553 0-1-.448-1-1v-4c0-.552.447-1 1-1h7v2h-6v2h5c.553 0 1 .448 1 1v4c0 .552-.447 1-1 1z"/></g><g><path d="m35 15h-7v-2h6v-2h-5c-.553 0-1-.448-1-1v-4c0-.552.447-1 1-1h7v2h-6v2h5c.553 0 1 .448 1 1v4c0 .552-.447 1-1 1z"/></g><g><path d="m46 15h-7c-.553 0-1-.448-1-1v-9h2v8h6z"/></g><g><path d="m5 17h54v2h-54z"/></g><g><path d="m5 21h54v2h-54z"/></g><g><path d="m5 25h46v2h-46z"/></g><g><path d="m53 25h2v2h-2z"/></g><g><path d="m57 25h2v2h-2z"/></g></g></svg>