<?xml version="1.0"?>
<svg xmlns="http://www.w3.org/2000/svg" xmlns:xlink="http://www.w3.org/1999/xlink" version="1.1" id="Capa_1" x="0px" y="0px" viewBox="0 0 512 512" style="enable-background:new 0 0 512 512;" xml:space="preserve" width="512px" height="512px"><g><g>
	<g>
		<g>
			<path d="M503.467,434.165H486.4c-4.713,0-8.533,3.82-8.533,8.533s3.82,8.533,8.533,8.533h17.067c4.713,0,8.533-3.82,8.533-8.533     S508.18,434.165,503.467,434.165z" data-original="#000000" class="active-path" data-old_color="#000000" fill="#FFFFFF"/>
			<path d="M25.6,92.831h204.8c4.71-0.006,8.527-3.823,8.533-8.533V67.231H17.067v17.067C17.073,89.008,20.89,92.825,25.6,92.831z" data-original="#000000" class="active-path" data-old_color="#000000" fill="#FFFFFF"/>
			<path d="M68.267,144.031v128h25.6v-17.067c0.015-14.132,11.468-25.585,25.6-25.6h17.067c14.132,0.015,25.585,11.468,25.6,25.6     v17.067h25.612l-0.012-128H68.267z" data-original="#000000" class="active-path" data-old_color="#000000" fill="#FFFFFF"/>
			<path d="M136.533,246.431h-17.067c-4.71,0.006-8.527,3.823-8.533,8.533v17.067h34.133v-17.067     C145.061,250.254,141.244,246.437,136.533,246.431z" data-original="#000000" class="active-path" data-old_color="#000000" fill="#FFFFFF"/>
			<path d="M494.933,77.815c-0.017-4.522-1.817-8.855-5.008-12.058c-3.196-3.2-7.535-4.995-12.058-4.987v41.158l12.058-12.058     C493.116,86.666,494.915,82.335,494.933,77.815z" data-original="#000000" class="active-path" data-old_color="#000000" fill="#FFFFFF"/>
			<path d="M76.8,400.031h102.4v-76.8H76.8V400.031z M102.4,340.298h51.2c4.713,0,8.533,3.821,8.533,8.533     c0,4.713-3.821,8.533-8.533,8.533h-51.2c-4.713,0-8.533-3.821-8.533-8.533C93.867,344.118,97.687,340.298,102.4,340.298z      M102.4,365.898h51.2c4.713,0,8.533,3.82,8.533,8.533s-3.821,8.533-8.533,8.533h-51.2c-4.713,0-8.533-3.82-8.533-8.533     S97.687,365.898,102.4,365.898z" data-original="#000000" class="active-path" data-old_color="#000000" fill="#FFFFFF"/>
			<polygon points="409.6,121.964 375.467,156.097 375.467,204.328 409.6,170.194    " data-original="#000000" class="active-path" data-old_color="#000000" fill="#FFFFFF"/>
			<polygon points="426.667,153.128 460.8,118.994 460.8,70.764 426.667,104.897    " data-original="#000000" class="active-path" data-old_color="#000000" fill="#FFFFFF"/>
			<polygon points="358.4,173.164 324.267,207.297 324.267,255.528 358.4,221.394    " data-original="#000000" class="active-path" data-old_color="#000000" fill="#FFFFFF"/>
			<path d="M289.342,290.452l17.858-17.858v-48.229l-40.896,40.896C277.934,268.936,286.718,278.54,289.342,290.452z" data-original="#000000" class="active-path" data-old_color="#000000" fill="#FFFFFF"/>
			<path d="M452.267,434.165h-179.2V297.631c0-9.426-7.641-17.067-17.067-17.067s-17.067,7.641-17.067,17.067v136.533h-17.067     V109.898H34.133v324.267h-25.6c-4.713,0-8.533,3.82-8.533,8.533s3.82,8.533,8.533,8.533h443.733c4.713,0,8.533-3.82,8.533-8.533     S456.979,434.165,452.267,434.165z M196.267,400.031c-0.028,9.414-7.652,17.039-17.067,17.067H76.8     c-9.414-0.028-17.039-7.653-17.067-17.067v-76.8c0.028-9.414,7.652-17.039,17.067-17.067h102.4     c9.414,0.027,17.039,7.652,17.067,17.067V400.031z M204.8,272.031c-0.028,9.414-7.652,17.039-17.067,17.067H68.267     c-9.414-0.028-17.039-7.653-17.067-17.067v-128c0.028-9.414,7.652-17.039,17.067-17.067h119.467     c9.414,0.028,17.039,7.652,17.067,17.067V272.031z M263.851,309.407c-0.412,1.044-1.021,2-1.792,2.816l-1.28,1.024     c-0.476,0.323-0.992,0.582-1.536,0.768c-0.483,0.247-1.001,0.419-1.536,0.512c-0.564,0.099-1.134,0.156-1.707,0.171     c-1.115-0.013-2.217-0.244-3.243-0.683c-1.034-0.433-1.986-1.039-2.816-1.792c-0.771-0.816-1.38-1.772-1.792-2.816     c-0.438-1.026-0.67-2.127-0.683-3.243c0.015-0.572,0.072-1.143,0.171-1.707c0.093-0.535,0.265-1.053,0.512-1.536     c0.186-0.544,0.445-1.06,0.768-1.536l1.024-1.28c0.816-0.771,1.772-1.379,2.816-1.792c3.178-1.339,6.849-0.631,9.301,1.792     l1.024,1.28c0.323,0.476,0.582,0.992,0.768,1.536c0.247,0.483,0.419,1.001,0.512,1.536c0.099,0.564,0.156,1.134,0.171,1.707     C264.521,307.28,264.289,308.382,263.851,309.407z" data-original="#000000" class="active-path" data-old_color="#000000" fill="#FFFFFF"/>
		</g>
	</g>
</g></g> </svg>
