<?xml version="1.0" encoding="iso-8859-1"?>
<!-- Generator: Adobe Illustrator 19.0.0, SVG Export Plug-In . SVG Version: 6.00 Build 0)  -->
<svg version="1.1" id="Capa_1" xmlns="http://www.w3.org/2000/svg" xmlns:xlink="http://www.w3.org/1999/xlink" x="0px" y="0px"
	 viewBox="0 0 480.006 480.006" style="enable-background:new 0 0 480.006 480.006;" xml:space="preserve">
<g>
	<g>
		<path d="M264.003,328.006c4.416,0,8-3.584,8-8v-32c0-3.504-2.272-6.592-5.616-7.64l-128-40c-1.552-0.488-3.216-0.488-4.776,0
			l-128,40c-3.336,1.048-5.608,4.136-5.608,7.64v32c0,4.416,3.584,8,8,8h8v104h-8c-4.416,0-8,3.584-8,8v32c0,4.416,3.584,8,8,8h256
			c4.416,0,8-3.584,8-8v-32c0-4.416-3.584-8-8-8h-8v-104H264.003z M256.003,464.006h-240v-16h8h32h32h32h32h32h32h32h8V464.006z
			 M32.003,432.006v-104h16v104H32.003z M64.003,432.006v-104h16v104H64.003z M96.003,432.006v-104h16v104H96.003z M128.003,432.006
			v-104h16v104H128.003z M160.003,432.006v-104h16v104H160.003z M192.003,432.006v-104h16v104H192.003z M224.003,432.006v-104h16
			v104H224.003z M248.003,312.006h-32h-32h-32h-32h-32h-32h-32h-8v-18.12l120-37.504l120,37.504v18.12H248.003z"/>
	</g>
</g>
<g>
	<g>
		<path d="M472.003,88.006c4.416,0,8-3.584,8-8v-32c0-3.504-2.272-6.592-5.616-7.64l-128-40c-1.552-0.488-3.216-0.488-4.776,0
			l-128,40c-3.336,1.048-5.608,4.136-5.608,7.64v32c0,4.416,3.584,8,8,8h8v104h-8c-4.416,0-8,3.584-8,8v32c0,4.416,3.584,8,8,8h256
			c4.416,0,8-3.584,8-8v-32c0-4.416-3.584-8-8-8h-8v-104H472.003z M464.003,224.006h-240v-16h8h32h32h32h32h32h32h32h8V224.006z
			 M240.003,192.006v-104h16v104H240.003z M272.003,192.006v-104h16v104H272.003z M304.003,192.006v-104h16v104H304.003z
			 M336.003,192.006v-104h16v104H336.003z M368.003,192.006v-104h16v104H368.003z M400.003,192.006v-104h16v104H400.003z
			 M432.003,192.006v-104h16v104H432.003z M456.003,72.006h-32h-32h-32h-32h-32h-32h-32h-8v-18.12l120-37.504l120,37.504v18.12
			H456.003z"/>
	</g>
</g>
<g>
	<g>
		<rect x="128.003" y="280.006" width="16" height="16"/>
	</g>
</g>
<g>
	<g>
		<rect x="336.003" y="40.006" width="16" height="16"/>
	</g>
</g>
<g>
	<g>
		<rect x="64.003" y="104.006" width="16" height="16"/>
	</g>
</g>
<g>
	<g>
		<rect x="96.003" y="104.006" width="16" height="16"/>
	</g>
</g>
<g>
	<g>
		<rect x="128.003" y="104.006" width="16" height="16"/>
	</g>
</g>
<g>
	<g>
		<rect x="160.003" y="104.006" width="16" height="16"/>
	</g>
</g>
<g>
	<g>
		<rect x="192.003" y="104.006" width="16" height="16"/>
	</g>
</g>
<g>
	<g>
		<rect x="32.003" y="104.006" width="16" height="16"/>
	</g>
</g>
<g>
	<g>
		<rect x="32.003" y="136.006" width="16" height="16"/>
	</g>
</g>
<g>
	<g>
		<rect x="32.003" y="168.006" width="16" height="16"/>
	</g>
</g>
<g>
	<g>
		<rect x="32.003" y="200.006" width="16" height="16"/>
	</g>
</g>
<g>
	<g>
		<rect x="32.003" y="232.006" width="16" height="16"/>
	</g>
</g>
<g>
	<g>
		<rect x="400.003" y="384.006" width="16" height="16"/>
	</g>
</g>
<g>
	<g>
		<rect x="368.003" y="384.006" width="16" height="16"/>
	</g>
</g>
<g>
	<g>
		<rect x="336.003" y="384.006" width="16" height="16"/>
	</g>
</g>
<g>
	<g>
		<rect x="304.003" y="384.006" width="16" height="16"/>
	</g>
</g>
<g>
	<g>
		<rect x="272.003" y="384.006" width="16" height="16"/>
	</g>
</g>
<g>
	<g>
		<rect x="432.003" y="384.006" width="16" height="16"/>
	</g>
</g>
<g>
	<g>
		<rect x="432.003" y="352.006" width="16" height="16"/>
	</g>
</g>
<g>
	<g>
		<rect x="432.003" y="320.006" width="16" height="16"/>
	</g>
</g>
<g>
	<g>
		<rect x="432.003" y="288.006" width="16" height="16"/>
	</g>
</g>
<g>
	<g>
		<rect x="432.003" y="256.006" width="16" height="16"/>
	</g>
</g>
<g>
</g>
<g>
</g>
<g>
</g>
<g>
</g>
<g>
</g>
<g>
</g>
<g>
</g>
<g>
</g>
<g>
</g>
<g>
</g>
<g>
</g>
<g>
</g>
<g>
</g>
<g>
</g>
<g>
</g>
</svg>
