<svg id="Layer_3" enable-background="new 0 0 64 64" height="512" viewBox="0 0 64 64" width="512" xmlns="http://www.w3.org/2000/svg"><g><path d="m30 40v14l16 8v-14z" fill="#ba4753"/><path d="m62 40v14l-16 8v-14z" fill="#8d353e"/><path d="m62 40-16 8-16-8 16-8z" fill="#e1656e"/><path d="m2 40v14l16 8v-14z" fill="#546ded"/><path d="m34 40v14l-16 8v-14z" fill="#3d54bd"/><path d="m34 40-16 8-16-8 16-8z" fill="#7fa3f8"/><g><path d="m19 8h-2v-6c0-.553.448-1 1-1h6v2h-5z" fill="#787faa"/></g><g><path d="m47 8h-2v-5h-5v-2h6c.552 0 1 .447 1 1z" fill="#787faa"/></g><g><path d="m46 31h-6v-2h5v-5h2v6c0 .553-.448 1-1 1z" fill="#787faa"/></g><g><path d="m24 31h-6c-.552 0-1-.447-1-1v-6h2v5h5z" fill="#787faa"/></g><path d="m21 5h22v22h-22z" fill="#363a4f" transform="matrix(0 -1 1 0 16 48)"/><path d="m21 5v17h14c1.105 0 2-.895 2-2v-15z" fill="#4c506e"/><path d="m39 25h-8c-1.105 0-2-.895-2-2v-12c0-1.105.895-2 2-2h8c1.105 0 2 .895 2 2v12c0 1.105-.895 2-2 2z" fill="#787faa"/><g fill="#2c2f41"><path d="m23 23h2v2h-2z"/><path d="m27 20h-4v2h3v3h2v-4c0-.552-.448-1-1-1z"/><path d="m34 23h-5v2h6c.552 0 1-.448 1-1v-5h-2z"/><path d="m33 18h4v-2h-5c-.552 0-1 .448-1 1v5h2z"/><path d="m35 11h2v2h-2z"/><path d="m33 13h2v2h-2z"/><path d="m28 18h2v2h-2z"/><path d="m26 16h2v2h-2z"/><path d="m25 15h4v-2h-2v-2c0-.552-.448-1-1-1h-3v2h2v1h-1c-.552 0-1 .448-1 1v5h2z"/><path d="m30 13h2v2h-2z"/><path d="m39 23h-2v2h3c.552 0 1-.448 1-1v-5h-2z"/><path d="m40 13h-3v2h2v2h2v-3c0-.552-.448-1-1-1z"/><path d="m23 7h2v2h-2z"/><path d="m26 7h2v2h-2z"/><path d="m28 12h3c.552 0 1-.448 1-1v-1h6v2h2v-3c0-.552-.448-1-1-1h-7v-3h-2v5h-2z"/></g></g></svg>